<svg id="Ebene_1" data-name="Ebene 1" xmlns="http://www.w3.org/2000/svg" xmlns:xlink="http://www.w3.org/1999/xlink" viewBox="0 0 629.39 491.96"><defs><style>.cls-1,.cls-6{fill:none;}.cls-2{clip-path:url(#clip-path);}.cls-3{fill:#ececec;}.cls-4{clip-path:url(#clip-path-2);}.cls-5{fill:#181716;}.cls-6{stroke:#181716;stroke-width:0.83px;}.cls-7{fill:#e4007d;}</style><clipPath id="clip-path" transform="translate(135.39 -1.04)"><rect class="cls-1" x="7" y="6" width="487" height="487"/></clipPath><clipPath id="clip-path-2" transform="translate(135.39 -1.04)"><circle class="cls-1" cx="250.5" cy="249.5" r="243.5"/></clipPath></defs><title>Grundstrich</title><g class="cls-2"><path class="cls-3" d="M250.5,493C385,493,494,384,494,249.5S385,6,250.5,6,7,115,7,249.5,116,493,250.5,493" transform="translate(135.39 -1.04)"/></g><g class="cls-4"><path class="cls-5" d="M-23.87,1H-135.39V13.46h10q27.81,0,36,4.86t10.8,17.55Q-76,48.57-76,92.31V251.63q0,45.37-3.24,62.11t-18,28.22q-14.72,11.48-38.21,12.83v12.42h131V354.79q-25.39-1.62-39.43-13.64T-60.59,313.2q-2.7-15.93-2.7-59.95V38.84L82.8,367.21H95.49l145-328.36v233q0,45.91-2.57,58.46t-11.61,18.5q-9,5.94-32.27,5.94h-13v12.42h175V354.79h-16.2q-24.85,0-33.62-6.48t-10.94-19.85q-2.16-13.37-2.16-56.57V92.31q0-45.63,2.84-57.79T307.2,17.92q8.37-4.45,35.37-4.46h13.5V1H243.74L110.34,304Z" transform="translate(135.39 -1.04)"/><path class="cls-6" d="M64.83,101.57" transform="translate(135.39 -1.04)"/><path class="cls-7" d="M240.5,38.84v233q0,42.74-2.22,56.57h57c-.46,0-2.16-27.77-2.16-56.57V92.31q0-39,2.07-53.53" transform="translate(135.39 -1.04)"/></g></svg>