 <?xml version="1.0" encoding="utf-8"?>
      <svg version="1.1" id="merkmale-eigenschaften" xmlns="http://www.w3.org/2000/svg" xmlns:xlink="http://www.w3.org/1999/xlink"
        x="0px" y="0px" viewBox="0 0 1600 570" width-max="800px" height-max="300px" style="enable-background:new 0 0 1600 600;" xml:space="preserve">
        <style type="text/css">
          .st0{clip-path:url(#SVGID_2_);}
          .st1{clip-path:url(#SVGID_4_);}
          .st2{fill:#181716;}
          .st3{fill:none;stroke:#181716;stroke-width:0.5;}
          .st4{opacity:0.7;enable-background:new    ;}
          .st5{clip-path:url(#SVGID_6_);}
          .st6{font-family:'Flama-Book', 'Roboto', 'Arial';}
          .st7{font-size:12.7957px;}
          .st8{letter-spacing:-2;}
          .st9{clip-path:url(#SVGID_8_);}
          .st10{fill:none;stroke:#181716;}
          .st11{fill:magenta;}
          .st12{fill:none;stroke:magenta;stroke-dasharray:2.95,1.95;}
          .st13{fill:none;stroke:magenta;stroke-width:0.5;}
          .st14{fill:none;stroke:magenta;}
          .st15{fill:#EBECEC;}
          .st16{font-size:15.6461px;}
        </style>
        <g>

              <defs>
                <rect id="SVGID_1_" x="-3.8" y="1.9" width="1608.5" height="563.4"/>
              </defs>
              <clipPath id="SVGID_2_">
                <use xlink:href="#SVGID_1_"  style="overflow:visible;"/>
              </clipPath>
              <g class="st0">

                      <defs>
                        <rect id="SVGID_3_" x="-3.8" y="1.9" width="1608.5" height="563.4"/>
                      </defs>
                      <clipPath id="SVGID_4_">
                        <use xlink:href="#SVGID_3_"  style="overflow:visible;"/>
                      </clipPath>
                      <g class="st1">
                        <path class="st2" d="M760.6,503.7c1-4,2.9-7.7,5.6-11c7.5,7.9,16,11.9,25.6,11.9c8.3,0.2,16.4-2.7,22.7-8.5
                          c6-5.8,9.2-13.9,8.9-22.1c-0.2-6.2-1.9-12.5-4.8-18.1c-3.3-6.2-12.1-12.7-26.4-19.1c-9.6-4.4-16-8.1-19.6-11.7
                          c-3.3-3.1-5.2-7.3-5.2-11.9c0-4.2,1.7-8.1,4.6-11c3.3-3.1,7.7-5,12.3-4.6c6.7,0,13.1,3.1,17.3,8.3c5,5.6,8.3,12.5,10,20h4.6
                          v-32.2h-4.6c-1.2,3.3-2.9,6.4-5,9.4c-5.4-7.1-13.7-11.2-22.5-11c-8.9,0-15.8,3.1-20.8,9.4c-4.6,5.4-7.3,12.5-7.3,19.6
                          c-0.2,6.7,2.3,13.3,7.1,18.1c4.6,5,12.1,10.2,22.7,15.4c10,5,16.9,9.2,20.2,12.7c3.5,3.5,5.4,8.3,5.2,13.3
                          c0,4.8-1.7,9.4-4.8,12.9c-3.1,4-7.9,5.8-14.6,5.8c-14.8,0-25.2-10-31-29.8h-5v34.3L760.6,503.7z M613.7,397.6v5.8
                          c6,0,10.2,0.6,12.5,1.9c2.3,1.2,3.7,3.3,4.2,5.8c0.6,7.3,0.8,14.8,0.6,22.1v31c0,12.7-0.2,20.4-0.8,22.7
                          c-0.4,2.3-2.1,4.4-4.2,5.4c-2.3,1.2-6.4,1.9-12.3,1.9v5.8h52.8v-5.8c-6,0-10.2-0.6-12.5-1.9c-2.3-1.2-3.7-3.3-4.2-6
                          c-0.6-7.3-0.8-14.8-0.6-22.1v-42.7c4.2-6.7,9.6-12.3,16-16.6c5.2-3.5,11.4-5.4,17.7-5.6c4.8-0.2,9.6,1.2,13.5,4.2
                          c3.1,2.3,5.4,5.6,6.4,9.4c1,5.8,1.5,11.7,1.2,17.7v33.7c0,11.7-0.2,18.7-0.4,21c-0.2,2.5-1.5,4.6-3.1,6.2
                          c-1.9,1.9-5.8,2.7-12.1,2.7h-2.5v5.8h53.3v-5.8c-6,0-10.2-0.6-12.5-1.9c-2.3-1.2-3.7-3.3-4-6c-0.6-7.3-0.8-14.8-0.6-22.1
                          v-32.7c0.2-7.5-0.4-14.8-2.3-22.1c-1.9-5.4-5.4-10-10.4-12.9c-6.2-3.7-13.3-5.6-20.4-5.2c-7.3,0-14.6,1.9-21,5.4
                          c-7.3,4.2-13.9,9.6-19.1,16.2c0-7.3-1-14.6-3.3-21.6h-3.3C633.1,394.7,623.3,396.6,613.7,397.6 M524.3,426.3
                          c2.9-19.1,12.3-28.9,27.7-28.9c6-0.2,11.9,2.1,16,6.2c4.4,4.2,6.4,10,6.4,17.5c0,1.7-0.2,3.5-0.4,5.2H524.3z M584.6,404.3
                          c-7.5-8.3-18.1-12.5-31.6-12.5c-13.9-0.2-27.3,5.8-36.4,16.4c-9.8,10.8-14.6,24.6-14.6,41.2c-0.4,10.4,2.3,20.6,7.5,29.8
                          c4.8,7.9,11.4,14.4,19.3,18.9c16,9.2,35.6,8.9,51.4-0.6c7.7-4.6,13.5-11.7,16.2-20.4h-6c-6.4,13.9-17.3,20.8-32.9,20.8
                          c-11.4,0-20-4.6-25.6-13.7c-5.6-9.2-8.5-23.1-8.5-41.4c0-2.5,0.2-6.2,0.4-11.2h72.8C595.8,421.1,591.7,411.6,584.6,404.3"/>
                        <path class="st2" d="M596,426.3c0.2,1.7,0.4,3.3,0.6,5h-72.8l0.4-5"/>
                        <path class="st2" d="M755.6,500.4v3.3h5c0.4-1.2,0.8-2.3,1.2-3.3 M775.8,500.4c5,2.9,10.4,4.4,16.2,4.4
                          c5.8,0.2,11.7-1.2,16.9-4.2 M816.4,396.4v-2.5h-4.6c-0.4,0.8-0.8,1.9-1,2.5 M799.3,396.4c-4.6-2.9-9.8-4.4-15.2-4.4
                          c-5.6-0.2-11,1.5-15.6,4.4"/>
                        <line class="st3" x1="596.7" y1="381.4" x2="596.7" y2="513.3"/>
                        <g>

                                <g class="st4">
                                  <defs>
                                    <rect id="SVGID_5_" x="600.4" y="371.6" class="st4" width="26.2" height="143.1"/>
                                  </defs>
                                  <clipPath id="SVGID_6_">
                                    <use xlink:href="#SVGID_5_"  style="overflow:visible;"/>
                                  </clipPath>
                                  <g class="st5">
                                    <line class="st3" x1="613.5" y1="381.4" x2="613.5" y2="513.3"/>
                                  </g>
                                </g>
                                
                                  <g>
                                    <g id="font-complete">
                                      <defs>
                                        <rect id="SVGID_7_" x="-3.8" y="1.9" width="1608.5" height="563.4"/>
                                      </defs>
                                      <clipPath id="SVGID_8_">
                                        <use xlink:href="#SVGID_7_"  style="overflow:visible;"/>
                                      </clipPath>
                                      <g class="st9">
                                        <path class="st2" d="M1469.7,397.6v5.8c6,0,10.2,0.6,12.5,1.9c2.3,1.2,3.7,3.3,4.2,5.8c0.6,7.3,0.8,14.8,0.6,22.1
                                          v31c0,12.7-0.2,20.4-0.8,22.7c-0.4,2.3-2.1,4.4-4.2,5.4c-2.3,1.2-6.4,1.9-12.3,1.9v5.8h52.6v-5.8
                                          c-6,0-10.2-0.6-12.5-1.9c-2.3-1.2-3.7-3.3-4.2-6c-0.6-7.3-0.8-14.8-0.6-22.1v-42.7c4.2-6.7,9.6-12.3,16-16.6
                                          c5.2-3.5,11.4-5.4,17.7-5.6c4.8-0.2,9.6,1.2,13.5,4.2c3.1,2.3,5.4,5.6,6.4,9.4c1,5.8,1.5,11.7,1.2,17.7v33.7
                                          c0,11.7-0.2,18.7-0.4,21c-0.2,2.5-1.5,4.6-3.1,6.2c-1.9,1.9-5.8,2.7-12.1,2.7h-2.5v5.8h53.5v-5.8
                                          c-6,0-10.2-0.6-12.5-1.9c-2.3-1.2-3.7-3.3-4-6c-0.6-7.3-0.8-14.8-0.6-22.1v-32.7c0.2-7.5-0.4-14.8-2.3-22.1
                                          c-1.9-5.4-5.4-10-10.4-12.7c-6.2-3.7-13.3-5.6-20.4-5.2c-7.3,0-14.6,1.9-21,5.4c-7.3,4.2-13.9,9.6-19.1,16.2
                                          c0-7.3-1-14.6-3.3-21.6h-3.5c-9.4,2.7-18.9,4.8-28.7,5.8 M1380,426.3c3.1-19.1,12.5-28.9,27.9-28.9
                                          c6-0.2,11.9,2.1,16,6.2c4.4,4.2,6.7,10,6.7,17.5c0,1.7-0.2,3.5-0.4,5.2H1380z M1440.3,404.3
                                          c-7.5-8.3-18.1-12.5-31.6-12.5c-13.7-0.2-27,5.8-36,16.2c-9.8,10.8-14.6,24.6-14.6,41.2
                                          c-0.4,10.4,2.3,20.6,7.5,29.8c4.8,7.9,11.4,14.4,19.3,18.9c16,9.2,35.6,8.9,51.4-0.6c7.7-4.6,13.5-11.7,16.2-20.4
                                          h-6c-6.4,13.9-17.5,20.8-32.9,20.8c-11.4,0-20-4.6-25.6-13.7c-5.8-9.2-8.5-23.1-8.5-41.4c0-2.5,0.2-6.2,0.4-11.2
                                          h72.8c-0.6-10.2-4.8-19.8-11.9-27 M1344,396h-31.6v-32.7h-4.2c-1.5,10.4-5,18.3-10.4,24.1
                                          c-4.8,5.4-11.4,8.5-18.7,8.7v5.8h15.2v59.1c0,12.1,0.6,20.6,1.7,25.4c1.2,5.2,4.4,9.6,8.7,12.7
                                          c4.6,3.5,10.2,5.4,16,5.4c5.4,0,10.8-1.5,15.6-4.4c5.2-2.9,9.2-7.3,11.7-12.7l-4.2-2.5c-4.6,6.9-9.8,10.4-16,10.4
                                          c-3.1,0-6.2-1-8.9-3.1c-2.7-1.9-4.6-4.8-5.4-8.1c-1-6.4-1.5-13.1-1.2-19.6v-63h31.4L1344,396z M1243.3,396V388
                                          c0-18.9,0.4-31.4,1-37.2c0.6-5.6,3.1-10.6,7.3-14.4c3.7-3.7,8.7-5.8,14.1-5.8c6.7,0,12.1,3.7,16.2,11.4
                                          c3.7,6.9,7.9,10.4,12.3,10.4c2.3,0,4.4-0.8,6-2.5c1.7-1.7,2.7-3.7,2.5-6c0-4.4-3.1-8.5-8.9-12.7
                                          c-6-4.2-14.1-6.2-24.1-6.2c-7.5-0.2-14.8,1.5-21.4,5c-6,3.3-11.2,8.3-15,14.1c-3.7,5.4-6,11.4-7.3,17.9
                                          c-1,8.1-1.5,16.2-1.2,24.6v9.4h-19.6v5.8h19.6v62.6c0,12.7-0.2,20.4-0.8,22.7c-0.4,2.3-2.1,4.4-4.2,5.4
                                          c-2.3,1.2-6.2,1.9-12.1,1.9v5.8h56.4v-5.8h-5.4c-5.4,0-9.2-0.8-11.4-2.3c-2.1-1.5-3.5-4-3.7-6.7
                                          c-0.2-2.9-0.4-10-0.4-21v-62.6h37.9v-6L1243.3,396z M1157.4,477.7c-5.4,4.6-11.4,8.5-17.7,11.9
                                          c-4.2,2.3-8.9,3.7-13.9,4c-4.2,0.2-8.3-1.7-11-5c-2.9-3.7-4.4-8.3-4.2-12.9c0-13.5,11-24.8,32.9-33.7l13.9-5.6
                                          V477.7z M1183.8,493.5c-2.9,0.4-5.6-1.5-6.7-4.2c-1-2.7-1.5-9.2-1.5-18.9v-42c0-8.9-1-15.6-2.9-20
                                          c-1.9-4.4-5.8-8.1-11.9-11.7s-14.4-5-25.2-5c-14.6,0-25.2,2.7-32,8.3c-6.9,5.6-10.4,10.8-10.4,15.6
                                          c0,5,2.5,7.3,7.7,7.5c5.8,0,9.4-4.4,10.6-12.9c1.5-8.7,8.3-12.9,21.2-12.7c5.4-0.2,10.8,1,15.4,3.7
                                          c3.3,1.9,6,5,7.3,8.7c1,5.2,1.7,10.4,1.5,15.6v5.2l-19.8,8.1c-15,6.2-26.8,12.5-35.4,19.1
                                          c-8.5,6.4-12.9,14.1-12.9,22.9c-0.2,6.2,2.7,12.3,7.7,16.2c5.2,4.2,11.7,6.2,18.3,6c6.4-0.2,12.9-1.9,18.7-4.6
                                          c8.3-3.7,16-8.3,23.3-13.5c0.6,5.2,2.9,10,6.7,13.7c3.7,3.1,8.7,4.8,13.7,4.6c13.5,0,20.6-7.3,21.4-21.8h-4.6
                                          C1192.7,489.6,1189.2,493.7,1183.8,493.5 M983.2,325.2h-2.7c-8.7,3.5-19.8,5.4-32.9,5.4v5.8
                                          c7.5,0,12.3,1.5,14.4,4.2c2.1,2.7,2.9,9.4,2.9,20v104c0,11.7-0.2,18.7-0.4,21c-0.2,2.5-1.5,4.6-3.1,6.2
                                          c-1.9,1.7-5.8,2.7-11.9,2.7h-2.7v5.8h53.1v-5.8c-5.8,0-10-0.6-12.1-2.1c-2.3-1.5-3.5-3.7-4-6.2
                                          c-0.4-2.7-0.6-10-0.6-21.6v-41.8c3.3-6.9,7.9-12.7,13.9-17.5c5.2-3.7,11.4-5.8,17.7-5.8c5-0.2,10,1.2,14.1,4.2
                                          c3.5,2.5,6.2,6,7.3,10.2c1.2,6.2,1.7,12.7,1.5,19.1v31.4c0,11.7-0.2,18.5-0.4,21c-0.2,2.3-1.5,4.6-3.1,6.2
                                          c-1.9,1.9-5.8,2.7-12.1,2.7h-2.5v5.8h53.9v-5.8c-6.2,0-10.4-0.6-12.7-1.9c-2.3-1.2-3.7-3.3-4.2-5.8
                                          c-0.6-7.5-0.8-14.8-0.6-22.3v-28.7c0-11.7-0.8-20.2-2.5-25.4c-2.1-5.6-5.8-10.2-11-13.1c-6.4-3.7-13.9-5.6-21.4-5.4
                                          c-7.3,0-14.4,1.9-20.8,5.4c-6.9,4-12.7,9.6-17.1,16L983.2,325.2z M899.8,497.9c-12.5,0-21.8-4.6-27.9-13.9
                                          c-6.2-9.2-9.2-22.1-9.2-38.5c0-15.8,2.9-27.7,8.5-35.6c5.6-7.9,14.4-11.9,25.6-11.9c6.4,0,10.6,1,12.9,2.9
                                          c2.3,1.9,3.7,5.4,4.6,10.2c1.2,6.4,4.6,9.8,10.4,9.8c2.3,0.2,4.6-0.8,6-2.9c1.2-1.7,2.1-3.7,2.1-6
                                          c0-5.6-3.7-10.6-11.4-14.4c-7.7-4-16.2-6-24.8-6c-14.6-0.2-28.7,5.6-38.9,16c-10.8,10.6-16.4,24.6-16.4,41.6
                                          c0,16.6,5,30,15.2,40.2c9.8,10,23.5,15.4,37.5,15.2c23.1,0,37.5-10,43.3-29.8h-5.6
                                          C927.3,490.2,916.4,497.9,899.8,497.9 M760.6,503.7c1-4,2.9-7.7,5.6-11c7.5,7.9,16,11.9,25.6,11.9
                                          c8.3,0.2,16.4-2.7,22.7-8.5c6-5.8,9.4-13.9,8.9-22.3c-0.2-6.2-1.9-12.5-4.8-18.1c-3.3-6.2-12.1-12.7-26.4-19.1
                                          c-9.6-4.4-16-8.1-19.6-11.7c-3.3-3.1-5.2-7.3-5.2-11.9c0-4.2,1.7-8.1,4.6-11c3.3-3.1,7.7-5,12.3-4.6
                                          c6.7,0,13.1,3.1,17.3,8.3c5,5.6,8.3,12.5,10,20h4.6v-32h-4.6c-1.2,3.3-2.9,6.4-5,9.4c-5.4-7.1-13.7-11.2-22.5-11
                                          c-8.9,0-15.8,3.1-20.8,9.4c-4.6,5.4-7.3,12.5-7.3,19.6c-0.2,6.7,2.3,13.3,7.1,18.1c4.6,5,12.1,10.2,22.7,15.4
                                          c10,5,16.9,9.2,20.2,12.7c3.5,3.5,5.4,8.3,5.2,13.3c0,4.8-1.7,9.4-4.8,12.9c-3.1,4-7.9,5.8-14.6,5.8
                                          c-14.8,0-25.2-10-31-29.8h-5v34.3L760.6,503.7z M613.7,397.8v5.8c6,0,10.2,0.6,12.5,1.9c2.3,1.2,3.7,3.3,4.2,5.8
                                          c0.6,7.3,0.8,14.8,0.6,22.1v31c0,12.7-0.2,20.4-0.8,22.7c-0.4,2.3-2.1,4.4-4.2,5.4c-2.3,1.2-6.4,1.9-12.3,1.9v5.8
                                          h52.8v-5.8c-6,0-10.2-0.6-12.5-1.9c-2.3-1.2-3.7-3.3-4.2-6c-0.6-7.3-0.8-14.8-0.6-22.1v-42.7
                                          c4.2-6.7,9.6-12.3,16-16.6c5.2-3.5,11.4-5.4,17.7-5.6c4.8-0.2,9.6,1.2,13.5,4.2c3.1,2.3,5.4,5.6,6.4,9.4
                                          c1,5.8,1.5,11.7,1.2,17.7v33.7c0,11.7-0.2,18.7-0.4,21c-0.2,2.5-1.5,4.6-3.1,6.2c-1.9,1.9-5.8,2.7-12.1,2.7h-2.5
                                          v5.8h53.3v-5.8c-6,0-10.2-0.6-12.5-1.9c-2.3-1.2-3.7-3.3-4-6c-0.6-7.3-0.8-14.8-0.6-22.1v-32.7
                                          c0.2-7.5-0.4-14.8-2.3-22.1c-1.9-5.4-5.4-10-10.4-12.7c-6.2-3.7-13.3-5.6-20.4-5.2c-7.3,0-14.6,1.9-21,5.4
                                          c-7.3,4.2-13.9,9.6-19.1,16.2c0-7.3-1-14.6-3.3-21.6h-3.3C633.1,394.7,623.3,396.6,613.7,397.8 M524.3,426.3
                                          c2.9-19.1,12.3-28.9,27.7-28.9c6-0.2,11.9,2.1,16,6.2c4.4,4.2,6.4,10,6.4,17.5c0,1.7-0.2,3.5-0.4,5.2H524.3z
                                          M584.6,404.3c-7.5-8.3-18.1-12.5-31.6-12.5c-13.9-0.2-27.3,5.8-36.4,16.4c-9.8,10.8-14.6,24.6-14.6,41.2
                                          c-0.4,10.4,2.3,20.6,7.5,29.8c4.8,7.9,11.4,14.4,19.3,18.9c16,9.2,35.6,8.9,51.4-0.6c7.7-4.6,13.5-11.7,16.2-20.4
                                          h-6c-6.4,13.9-17.3,20.8-32.9,20.8c-11.4,0-20-4.6-25.6-13.7c-5.6-9.2-8.5-23.1-8.5-41.4c0-2.5,0.2-6.2,0.4-11.2
                                          h72.8C595.8,421.1,591.7,411.6,584.6,404.3 M442.7,457.1c-8.3,9.4-22.5,10.2-31.8,1.9c-0.6-0.6-1.2-1.2-1.9-1.9
                                          c-4.6-5-6.7-13.1-6.7-24.1c0-11.9,1.9-20.6,5.8-26.4c4-5.8,10.6-9.2,17.7-8.7c6.2,0,12.3,2.7,16.6,7.1 M425.2,392
                                          c-11-0.2-21.6,3.7-29.8,11.2c-7.9,6.7-12.5,16.6-12.5,27c0,7.3,2.1,14.4,6,20.6c4.8,6.7,11,12.3,18.3,16.2
                                          c-15.6,2.9-23.3,10-23.3,21c0,5.8,3.1,11.2,8.1,14.1c5.4,3.7,17.3,5.8,35.6,6.7c15.8,0.6,26.8,2.7,33.1,6
                                          c6.2,3.3,9.4,9.4,9.4,17.9c0,7.7-4,15-10.4,18.9c-6.9,5-16.6,7.5-29.1,7.5c-13.9,0-24.3-2.5-31.4-7.3
                                          c-7.1-4.8-10.6-11-10.6-18.5c0.2-6.9,2.9-13.5,7.9-18.3c-1.2-0.4-2.5-0.6-3.7-0.6c-4.4-0.2-8.7,1.7-11.7,5
                                          c-2.9,3.5-4.4,8.1-4.2,12.7c0,9.4,4.8,17.1,14.4,23.1c9.6,6,22.3,9.2,37.9,9.2c17.3,0,30.4-3.3,39.5-10.4
                                          c15-10.6,18.5-31.4,7.9-46.4c-4.6-6.4-11.2-11-18.9-13.1c-10.6-2.3-21.2-3.5-32-4c-12.9-0.6-21.2-1.7-25.2-3.1
                                          s-6-3.5-6-6.7c0-6.7,8.9-10.4,27-11c17.3-0.6,29.5-4.8,37-12.7c7.1-7.3,11-16.9,11-27c0-7.9-2.3-15.6-6.7-22.3
                                          c4-4.4,7.5-6.7,10.6-6.7c2.1,0,4,1.7,5.8,4.8c2.1,3.5,4.4,5.2,7.3,5.2c5,0,7.7-2.7,7.7-8.3c0-2.7-1.2-5.4-3.3-7.3
                                          c-2.5-2.3-6-3.5-9.6-3.3c-7.5,0-14.8,4.2-21.8,12.3C451,396.4,439.6,391.8,425.2,392 M344.1,391.8
                                          c-8.3,2.9-20,5.2-35.2,6.7v5.8h3.3c3.3-0.2,6.7,0.2,10,1c2.3,1,4,2.9,4.6,5c1.2,2.7,1.7,10.2,1.7,22.5v31.6
                                          c0,11.7-0.2,18.7-0.4,21c-0.2,2.5-1.5,4.6-3.1,6.2c-1.9,1.7-5.8,2.7-11.9,2.7h-4.4v5.8h56.2v-5.8h-2.7
                                          c-5.4,0-9.2-0.8-11.4-2.3c-2.1-1.5-3.5-4-3.7-6.7c-0.4-2.9-0.4-10-0.4-21v-72.8h-2.5L344.1,391.8L344.1,391.8z
                                          M326.2,348.1c2.5,2.5,5.8,4,9.4,4c3.5,0,6.9-1.5,9.4-4c5-5.2,5-13.7,0-18.9c-2.5-2.5-5.8-4-9.4-4
                                          c-3.5,0-6.9,1.5-9.4,4c-2.5,2.5-4,5.8-4,9.4C322.2,342.3,323.7,345.6,326.2,348.1 M278.1,476.7
                                          c-5.4,7.3-10.8,12.1-16.6,14.4c-7.3,2.5-14.8,3.7-22.5,3.5h-12.9c-11.7,0-18.7-1.9-21.2-5.4c-2.7-3.5-4-15.6-4-36.2
                                          v-41h18.9c5.2-0.2,10.6,0.2,15.8,1.5c3.1,1,5.8,3.3,7.1,6.4c1.7,3.3,2.5,9.8,2.5,19.3h6v-59.1H245
                                          c0,8.5-0.6,14.1-1.7,17.1c-1.2,3.1-3.5,5.4-6.7,6.4c-3.3,1.5-9.2,2.3-17.7,2.3h-18.3v-72.4h24.1
                                          c12.1,0,20.8,0.6,26.2,1.9c5.6,1.5,10.6,4.8,14.1,9.6c4,5,7.3,13.5,10,25.6h6l-4.2-43.1H153.5v5.8
                                          c8.3,0,13.7,0.8,16.4,2.5c2.9,2.1,4.6,5.2,5,8.7c1,8.5,1.2,17.3,1,26v84.7c0,14.4-0.4,23.5-1,27
                                          c-0.6,3.3-2.3,6.4-4.8,8.7c-2.5,2.3-8.1,3.3-16.6,3.3H150v5.8h143.1l3.7-53.7h-6
                                          C287.7,459.4,283.5,469.4,278.1,476.7"/>
                                        <path class="st2" d="M1359.8,124.2c7.7,11,16,23.3,25,37c-10.2,11.7-21,17.5-32.9,17.5c-10.6,0-20.2-4.6-28.5-13.9
                                          s-12.7-19.1-12.7-29.5c0.2-7.5,2.9-15,7.3-21c5.4-7.7,12.5-14.4,20.6-19.1C1345.3,103.6,1352.3,113.4,1359.8,124.2
                                          M1336.1,45.8c-0.2-5.6,1.7-11,5.4-15.2c3.7-4.2,9.2-6.2,14.8-6c2.9,0,5.8,0.6,8.3,1.7c2.5,1,4.8,2.7,6.7,4.6
                                          c1.9,2.1,3.3,4.6,4.2,7.3c1,3.1,1.5,6.2,1.5,9.4c0,11.7-8.5,22.3-25.4,32.2C1341.1,65.3,1335.9,53.9,1336.1,45.8
                                          M1393.7,88.9c13.3,1.5,19.8,7.1,19.8,17.1c-0.4,5.8-1.9,11.7-4.2,17.1c-2.9,7.5-6.9,14.6-11.4,21
                                          c-6.7-9.6-13.5-19.3-20.8-29.1c-7.1-9.8-14.6-20-22.1-30.2c24.6-12.3,36.6-25,36.6-38.1c0-8.3-4.2-16-11-20.4
                                          c-7.3-5.2-16-7.9-24.8-7.7c-9.6-0.4-18.9,3.5-25.6,10.4c-6.4,6.2-10,14.8-10.2,23.7c0,11.2,5,23.7,15,37.7
                                          c-16.6,11-27.7,20.2-33.5,27.5c-6,7.7-8.9,17.3-8.7,26.8c-0.2,6.7,1,13.1,4,19.1c2.7,5.6,6.4,10.8,11,15
                                          c4.6,4.2,10,7.5,15.6,9.8s11.7,3.3,17.7,3.3c16.6,0,32.5-8.3,47.4-25c12.5,16.6,27,25,43.7,25
                                          c7.3,0.2,14.4-2.1,20.2-6.4c5.6-4.2,9.8-10.2,11.4-17.1h-6c-4.4,7.5-10.4,11.2-18.5,11.2c-6,0-11.7-1.9-16.6-5.2
                                          c-5.2-3.3-12.3-11.7-21.4-24.8c5.2-7.5,9.6-15.4,12.9-23.9c5.6-13.3,10.8-22.3,15.8-26.8c5.2-4.8,11.4-8.1,18.1-10
                                          V83h-54.5L1393.7,88.9z M1133.9,113.2c2.9-19.1,12.3-28.7,27.7-28.7c6-0.2,11.9,2.1,16,6.2c4.4,4.2,6.7,10,6.7,17.5
                                          c0,1.7-0.2,3.5-0.4,5.2L1133.9,113.2z M1194.2,91.1c-7.5-8.3-18.1-12.5-31.6-12.5c-13.9-0.2-27.3,5.8-36.4,16.4
                                          c-9.8,10.8-14.6,24.6-14.6,41.2c-0.4,10.4,2.3,20.6,7.5,29.8c4.8,7.9,11.4,14.4,19.3,18.9c16,9.2,35.6,8.9,51.4-0.6
                                          c7.9-4.4,13.7-11.7,16.4-20.4h-6.2c-6.4,13.9-17.5,20.8-32.9,20.8c-11.4,0-20-4.6-25.6-13.7
                                          c-5.6-9.2-8.5-23.1-8.5-41.4c0-2.5,0.2-6.2,0.4-11.2h72.8C1205.4,108.2,1201.3,98.4,1194.2,91.1 M1076.6,12.1
                                          c-4.6,1.7-9.6,2.9-14.6,3.5c-6,1-12.1,1.7-18.3,1.9v5.8c7.5,0,12.3,1.5,14.4,4.2c1.9,2.9,2.9,9.8,2.9,20.6v103.2
                                          c0.2,7.3,0,14.6-0.6,21.8c-0.4,2.5-1.9,4.6-4,6s-5.8,2.1-10.8,2.1h-3.5v5.8h55.8v-5.6h-3.1c-5.4,0-9.2-0.8-11.4-2.3
                                          c-2.1-1.5-3.5-4-3.7-6.7c-0.2-2.9-0.4-10-0.4-21V12.1L1076.6,12.1z M994.9,164.8c-5.4,4.6-11.4,8.5-17.7,11.9
                                          c-4.2,2.3-8.9,3.7-13.9,4c-4.2,0.2-8.3-1.7-11-5c-2.9-3.7-4.4-8.3-4.2-12.9c0-13.5,11-24.8,32.9-33.7l13.9-5.6
                                          V164.8z M1021.5,180.6c-2.9,0.4-5.6-1.5-6.7-4.2s-1.5-9.2-1.5-18.9v-42.2c0-8.9-1-15.6-2.9-19.8
                                          c-1.9-4.4-5.8-8.1-11.9-11.7c-5.8-3.3-14.4-5.2-25.2-5.2c-14.6,0-25.2,2.7-32,8.3c-6.9,5.6-10.4,10.8-10.4,15.6
                                          c0,5,2.5,7.3,7.7,7.3c5.8,0,9.4-4.4,10.6-12.9c1.2-8.5,8.5-12.9,21.2-12.7c5.4-0.2,10.8,1,15.4,3.7
                                          c3.3,1.9,6,5,7.3,8.7c1,5.2,1.7,10.4,1.5,15.6v5l-19.8,8.1c-15,6.2-26.8,12.5-35.4,19.1s-12.9,14.1-12.9,22.9
                                          c-0.2,6.2,2.7,12.3,7.7,16.2c5.2,4.2,11.7,6.2,18.3,6c6.4-0.2,12.9-1.9,18.7-4.6c8.1-3.7,16-8.3,23.3-13.7
                                          c0.6,5.2,2.9,10,6.4,13.7c3.7,3.1,8.7,4.8,13.7,4.6c13.5,0,20.6-7.3,21.4-21.8h-4.6
                                          C1030.5,176.4,1026.9,180.6,1021.5,180.6 M714.2,84.5v5.8c5.8,0,10,0.6,12.3,2.1c2.3,1.2,3.7,3.5,4,6
                                          c0.4,2.7,0.6,10,0.6,21.8v31.2c0.2,7.5,0,15-0.8,22.5c-0.4,2.3-2.1,4.4-4.2,5.6c-2.3,1.2-6.2,1.9-11.9,1.9v5.8h51
                                          v-5.8c-5.6,0-9.6-0.6-11.9-2.1c-2.3-1.5-3.5-3.7-3.7-6.4c-0.4-2.7-0.4-10-0.4-21.4V108c4.8-6,10.4-11,16.6-15.2
                                          c4.8-3.1,10.4-5,16-5.2c5-0.2,9.8,1.5,13.5,4.4c3.3,2.5,5.8,6.4,6.4,10.6c0.8,6.7,1.2,13.3,1,20v28.9
                                          c0,12.7-0.2,20.2-0.8,22.7c-0.4,2.3-2.1,4.4-4.2,5.4c-2.3,1.2-6.2,1.9-11.9,1.7v5.8h51v-5.6
                                          c-5.4,0-9.2-0.8-11.2-2.3c-2.1-1.7-3.3-4-3.5-6.7c-0.2-2.9-0.4-9.8-0.4-21v-41.2c4.6-6.4,10.2-12.3,16.6-17.1
                                          c4.8-3.5,10.6-5.4,16.6-5.6c4.8-0.2,9.4,1.2,13.3,4c3.1,2.3,5.4,5.4,6.2,9.2c1,5.2,1.2,10.6,1.2,15.8v34.7
                                          c0.2,7.5,0,15-0.8,22.5c-0.4,2.5-2.1,4.6-4.2,5.6c-2.3,1.2-6,1.9-11.7,1.9v5.8h52v-5.6c-6,0-10.2-0.6-12.5-1.9
                                          c-2.3-1.2-3.7-3.3-4.2-5.8c-0.6-7.3-0.8-14.8-0.4-22.1v-31.6c0.2-7.7-0.4-15.4-1.9-23.1c-1.2-4.8-4.6-8.9-10.2-12.7
                                          c-6-4-13.3-5.8-20.6-5.6c-7.3,0-14.6,2.1-20.8,5.8c-7.7,4.6-14.4,10.6-19.8,17.7c-1.7-7.1-5.6-13.1-11.2-17.7
                                          c-6-4.2-13.5-6.2-20.8-5.8c-7.5,0-14.8,1.9-21.2,5.4c-7.3,4.2-13.5,9.8-18.5,16.4c0.2-7.5-1-15-3.7-21.8h-1.2
                                          C734.6,81.8,724.4,83.7,714.2,84.5 M657,88.9c6.4,0.2,9.8,2.1,9.8,5.8c0,5.6-8.9,14.6-26.6,27l-11,7.7V12.1h-2.7
                                          c-4.6,1.7-9.4,2.9-14.4,3.5c-6,1-12.1,1.7-18.1,1.9v5.8c7.3,0,11.9,1.5,13.7,4.2c1.9,2.7,2.9,9.2,2.9,19.3v104.7
                                          c0,11.7-0.2,18.7-0.4,21s-1.2,4.6-3.1,6.2c-1.9,1.7-5.8,2.7-11.9,2.7h-3.7v5.8h53.1v-5.8c-5.2,0-8.9-0.8-11-2.3
                                          c-2.1-1.7-3.5-4-3.7-6.7c-0.2-2.9-0.4-9.8-0.4-21v-15l5.4-4.2l26.8,31.2c5.6,6.7,8.5,10.8,8.5,12.3
                                          c0,3.5-4.4,5.4-12.9,5.6v5.8h52v-5.8c-3.5-0.2-6.9-1.2-10-3.3c-5-3.5-9.4-7.9-13.3-12.7l-37.2-43.5
                                          c8.7-6.9,15.2-12.1,19.3-15.6c12.9-11.4,23.3-17.1,31-17.3v-5.8h-42V88.9z M537.4,78.7c-10.2,3.5-20.6,6-31.4,7.5
                                          V92h2.7c5.4,0,9.2,0.8,11.4,2.3c2.1,1.7,3.5,4,3.7,6.7c0.2,2.9,0.4,9.8,0.4,21v29.5c0.2,7.3,0,14.6-0.6,21.8
                                          c-0.4,2.5-1.9,4.6-4,6c-2.1,1.5-5.8,2.1-10.8,2.1h-2.7v5.8h55.3v-5.8H558c-5.4,0-9.2-0.8-11.4-2.3
                                          c-2.1-1.5-3.5-4-3.7-6.7c-0.2-2.9-0.4-10-0.4-21V133c-0.2-7.5,0.4-14.8,2.1-22.1c1.9-6,5.2-11.2,9.8-15.4
                                          c5-5,9.4-7.5,13.1-7.5c3.1,0,5.4,2.1,6.9,6.4c2.3,6.2,5.4,9.4,9.6,9.4c2.3,0,4.6-1,6-2.7c1.7-1.7,2.5-4,2.5-6.4
                                          c-0.2-4-1.9-7.9-4.8-10.6c-3.5-3.5-8.3-5.4-13.3-5.2c-6.2,0-12.5,2.5-18.9,7.7c-6.2,5-11.2,11.4-14.1,18.9
                                          C541.3,96.3,539.9,87.2,537.4,78.7 M415.6,113.2c2.9-19.1,12.3-28.7,27.7-28.7c6-0.2,11.9,2.1,16,6.2
                                          c4.4,4.2,6.4,10,6.4,17.5c0,1.7-0.2,3.5-0.4,5.2L415.6,113.2z M476,91.1c-7.5-8.3-18.1-12.5-31.6-12.5
                                          c-13.9-0.2-27.3,5.8-36.2,16.4c-9.8,11-14.6,24.6-14.6,41c-0.2,10.4,2.3,20.6,7.5,29.8c4.8,7.9,11.4,14.4,19.3,18.9
                                          c16,9.2,35.6,8.9,51.4-0.6c7.7-4.6,13.5-11.7,16.2-20.4h-6c-6.4,13.9-17.5,20.8-32.9,20.8c-11.4,0-20-4.6-25.6-13.7
                                          c-5.6-9.2-8.9-22.9-8.9-41.4c0-2.5,0.2-6.2,0.4-11.2h72.8C487.4,108.2,483.3,98.4,476,91.1 M199.5,14.6h-52.6v5.8
                                          h4.6c8.7,0,14.4,0.8,17.1,2.3c2.9,1.9,4.8,5,5,8.3c0.8,4,1.2,12.9,1.2,26.6v75.1c0,14.4-0.4,24.1-1.5,29.3
                                          c-1,5.4-4,10-8.3,13.3c-5.2,3.7-11.4,6-18.1,6v5.8h61.8v-5.8c-7.9-0.4-14.1-2.7-18.5-6.4c-4.2-3.3-6.9-7.9-7.9-13.1
                                          c-1-9.4-1.5-18.9-1.2-28.3V32.5l68.9,154.8h6l68.5-154.8v109.9c0,14.4-0.4,23.7-1.2,27.7c-0.6,3.5-2.5,6.7-5.4,8.7
                                          c-2.9,1.9-7.9,2.9-15.2,2.9h-6v5.8H379v-6h-7.7c-7.9,0-13.1-1-15.8-3.1c-2.9-2.3-4.8-5.6-5.2-9.4
                                          c-1-8.9-1.2-17.7-1.2-26.6V57.6c0-14.4,0.4-23.5,1.2-27.3c0.4-3.3,2.5-6.2,5.2-7.9c2.7-1.5,8.1-2.1,16.6-2.1h6.4
                                          v-5.8h-52.8l-63,142.9L199.5,14.6z"/>
                                        <path class="st10" d="M588.7,87.6l-0.2-0.2c-0.2-0.2-0.4-0.2-0.6-0.4c-0.6-0.4-1-1-1.7-1.7
                                          c-0.8-0.4-1.7-0.8-2.5-0.8c-1.2,0-2.5,0-3.7,0.4c-0.4,0-1,0.2-1.5,0.4c-0.8,0.6-1.7,1.2-2.1,2.3
                                          c-0.2,0.8-0.2,1.5,0,2.3l0.4,1c0.2,1,0.6,1.9,1,2.9c0.4,1,0.8,2.1,1.2,3.1c0.4,1,1,2.1,1.7,2.9
                                          c0.8,0.8,1.9,1.2,2.9,1.2c1.5,0,2.7-0.4,4-1.2c0.4-0.4,0.8-0.6,1-1l0.6-0.6c0.2-0.4,0.4-1,0.4-1.7
                                          c0.2-1.7,0.2-3.3-0.2-4.8c-0.2-1,0.4-1.7,0-2.7c-0.2-0.4,0-1-0.2-1.2"/>
                                        <line class="st10" x1="587.7" y1="88" x2="587.7" y2="88"/>
                                        <path class="st11" d="M596,426.3c0.2,1.7,0.4,3.3,0.6,5h-72.8l0.4-5"/>
                                        <path class="st2" d="M899.8,497.9c-12.5,0-21.8-4.6-27.9-13.9c-6.2-9.2-9.2-22.1-9.2-38.5c0-15.8,2.9-27.7,8.5-35.6
                                          c5.8-7.9,14.4-11.9,25.6-11.9c6.4,0,10.6,1,12.9,2.9c2.3,1.9,3.7,5.4,4.6,10.2c1.2,6.4,4.6,9.8,10.4,9.8
                                          c2.3,0.2,4.6-0.8,6-2.9c1.2-1.7,2.1-3.7,2.1-6c0-5.6-3.7-10.4-11.4-14.4s-16.2-6-24.8-6c-14.6-0.2-28.5,5.6-38.9,16
                                          c-11,10.6-16.4,24.6-16.4,41.6c0,16.6,5,30,15.2,40.2c9.8,10,23.5,15.4,37.5,15.2c23.1,0,37.5-10,43.3-29.8h-5.6
                                          C927.3,490.2,916.4,497.9,899.8,497.9"/>
                                        <line class="st12" x1="893.8" y1="365" x2="904" y2="528.9"/>
                                        <path class="st11" d="M755.6,500.4v3.3h5c0.4-1.2,0.8-2.3,1.2-3.3 M775.8,500.4c5,2.9,10.4,4.4,16.2,4.4
                                          c5.8,0.2,11.7-1.2,16.9-4.2 M816.4,396.4v-2.5h-4.6c-0.4,0.8-0.8,1.9-1,2.5 M799.3,396.4c-4.6-2.9-9.8-4.4-15.2-4.4
                                          c-5.6-0.2-11,1.5-15.6,4.4"/>
                                        <path class="st11" d="M224.9,333.5c12.1,0,20.8,0.6,26.2,1.9c5.6,1.5,10.6,4.8,14.1,9.6c4,5,7.3,13.5,10,25.6h6
                                          l-3.5-37.2"/>
                                        <path class="st11" d="M1079.4,187.3h18.5v-5.8h-3.1c-5.4,0-9.2-0.8-11.4-2.3c-2.1-1.5-3.5-4-3.7-6.7
                                          c-0.2-2.9-0.4-10-0.4-21"/>
                                        <path class="st11" d="M1061,151.5c0.2,7.3,0,14.6-0.6,21.8c-0.4,2.5-1.9,4.6-4,6s-5.8,2.1-10.8,2.1h-3.5v5.8h18.9"
                                          />
                                        <path class="st11" d="M748.5,90.3c-0.4-4-1.5-7.9-3.1-11.7h-1.2c-9.8,2.9-19.8,5-30,5.8v5.8"/>
                                        <path class="st2" d="M610.4,172.5c-0.2,2.3-1.2,4.6-3.1,6.2c-1.9,1.7-5.8,2.7-11.9,2.7h-4v5.8h52.8v-5.8
                                          c-5.2,0-8.9-0.8-11-2.3c-2.1-1.7-3.5-4-3.7-6.7"/>
                                        <path class="st2" d="M661.4,163.6c5.6,6.7,8.5,10.8,8.5,12.3c0,3.5-4.4,5.4-12.9,5.6v5.8h52v-5.8
                                          c-3.5-0.2-6.9-1.2-10-3.3c-5-3.5-9.4-7.9-13.3-12.7"/>
                                        <path class="st2" d="M668,106.1c12.9-11.4,23.3-17.1,31-17.3V83h-42v5.8c6.4,0.2,9.8,2.1,9.8,5.8"/>
                                        <path class="st11" d="M709,181.4c-3.5-0.2-6.9-1.2-10-3.3c-5-3.7-9.4-7.9-13.3-12.9l13.9,16.2H709z"/>
                                        <path class="st11" d="M661.4,163.6c5.6,6.7,8.5,10.8,8.5,12.3c0,3.5-4.4,5.4-12.9,5.6h19.8L661.4,163.6z"/>
                                        <path class="st11" d="M644.5,181.4c-5.2,0-8.9-0.8-11-2.3c-2.1-1.7-3.5-4-3.7-6.7v8.9H644.5z"/>
                                        <path class="st11" d="M610.4,172.5c-0.2,2.3-1.2,4.6-3.1,6.2c-1.9,1.7-5.8,2.7-11.9,2.7h15V172.5z"/>
                                        <path class="st10" d="M588.7,87.6l-0.2-0.2c-0.2-0.2-0.4-0.2-0.6-0.4c-0.6-0.4-1-1-1.7-1.7
                                          c-0.8-0.4-1.7-0.8-2.5-0.8c-1.2,0-2.5,0-3.7,0.4c-0.4,0-1,0.2-1.5,0.4c-0.8,0.6-1.7,1.2-2.1,2.3
                                          c-0.2,0.8-0.2,1.5,0,2.3l0.4,1c0.2,1,0.6,1.9,1,2.9c0.4,1,0.8,2.1,1.2,3.1c0.4,1,1,2.1,1.7,2.9
                                          c0.8,0.8,1.9,1.2,2.9,1.2c1.5,0,2.7-0.4,4-1.2c0.4-0.4,0.8-0.6,1-1l0.6-0.6c0.2-0.4,0.4-1,0.4-1.7
                                          c0.2-1.7,0.2-3.3-0.2-4.8c-0.2-1,0.4-1.7,0-2.7c-0.2-0.4,0-1-0.2-1.2"/>
                                        <line class="st10" x1="587.7" y1="88" x2="587.7" y2="88"/>
                                        <path class="st11" d="M574.4,94.3c2.3,6.2,5.4,9.4,9.6,9.4c2.3,0,4.6-1,6-2.7c1.7-1.7,2.5-4,2.5-6.4
                                          c-0.2-4-1.9-7.9-4.8-10.6C585,81.6,571.3,77.4,574.4,94.3"/>
                                        <path class="st11" d="M415.6,113.2c2.9-19.1,12.3-28.7,27.7-28.7c6-0.2,11.9,2.1,16,6.2c4.4,4.2,6.4,10,6.4,17.5
                                          c0,1.7-0.2,3.5-0.4,5.2L415.6,113.2z"/>
                                        <line class="st3" x1="89.6" y1="63.9" x2="106.9" y2="63.9"/>
                                        <line class="st3" x1="106.5" y1="15" x2="106.5" y2="63.5"/>
                                        <text transform="matrix(6.123234e-17 -1 1 6.123234e-17 56.9058 324.5886)" class="st2 st6 st7">Durchschuss</text>
                                        <line class="st13" x1="135.8" y1="403.2" x2="135.8" y2="492.9"/>
                                        <polygon class="st11" points="135.8,396.4 132.7,405.5 135.8,403.2 139.1,405.5 																"/>
                                        <polygon class="st11" points="135.8,499.6 139.1,490.6 135.8,492.9 132.7,490.6 																"/>
                                        <line class="st13" x1="135.8" y1="507.1" x2="135.8" y2="556.8"/>
                                        <polygon class="st11" points="135.8,500.4 132.7,509.3 135.8,507.1 139.1,509.3 																"/>
                                        <polygon class="st11" points="135.8,563.4 139.1,554.5 135.8,556.8 132.7,554.5 																"/>
                                        <line class="st13" x1="99.6" y1="335" x2="99.6" y2="492.3"/>
                                        <polygon class="st11" points="99.6,328.1 96.3,337.1 99.6,335 102.9,337.1 																"/>
                                        <polygon class="st11" points="99.6,498.9 102.9,490 99.6,492.3 96.3,490 																"/>
                                        <line class="st13" x1="63.4" y1="258.2" x2="63.4" y2="318.3"/>
                                        <polygon class="st11" points="63.4,251.6 60.1,260.5 63.4,258.2 66.7,260.5 																"/>
                                        <polygon class="st11" points="63.4,325 66.7,316.1 63.4,318.3 60.1,316.1 																"/>
                                        <rect x="1251.4" y="396.2" class="st11" width="24.3" height="5"/>
                                        <rect x="1251.4" y="396.2" class="st14" width="24.3" height="5"/>
                                        <path class="st15" d="M1069.8,228.9c11,0,20.2-8.9,20.2-20.2c0-11.2-8.9-20.2-20.2-20.2c-11,0-20.2,8.9-20.2,20.2
                                          l0,0C1049.6,219.9,1058.5,228.9,1069.8,228.9L1069.8,228.9"/>
                                        <text transform="matrix(1 0 0 1 1065.5381 214.8371)" class="st2 st6 st16">7</text>
                                        <path class="st15" d="M646.8,228.9c11,0,20.2-8.9,20.2-20.2c0-11-8.9-20.2-20.2-20.2c-11,0-20.2,8.9-20.2,20.2l0,0
                                          C626.6,219.9,635.6,228.9,646.8,228.9L646.8,228.9"/>
                                        <text transform="matrix(1 0 0 1 642.4282 214.8566)" class="st2 st6 st16">5</text>
                                        <path class="st15" d="M449.3,166.5c11,0,20.2-8.9,20.2-20.2c0-11.2-8.9-20.2-20.2-20.2c-11,0-20.2,8.9-20.2,20.2
                                          S438.1,166.5,449.3,166.5L449.3,166.5L449.3,166.5"/>
                                        <text transform="matrix(1 0 0 1 445.021 152.4186)" class="st2 st6 st16">3</text>
                                        <path class="st15" d="M558.2,69.7c11,0,20.2-8.9,20.2-20.2c0-11-8.9-20.2-20.2-20.2c-11,0-20.2,8.9-20.2,20.2l0,0
                                          C538,60.8,546.9,69.7,558.2,69.7L558.2,69.7"/>
                                        <text transform="matrix(1 0 0 1 553.5659 55.7326)" class="st2 st6 st16">4</text>
                                        <path class="st15" d="M380.9,69.7c11,0,20.2-8.9,20.2-20.2s-8.9-20.2-20.2-20.2c-11,0-20.2,8.9-20.2,20.2l0,0
                                          C360.7,60.8,369.7,69.7,380.9,69.7L380.9,69.7"/>
                                        <text transform="matrix(1 0 0 1 376.6733 55.7326)" class="st2 st6 st16">2</text>
                                        <path class="st15" d="M139.1,69.7c11,0,20.2-8.9,20.2-20.2s-8.9-20.2-20.2-20.2s-20.2,8.9-20.2,20.2l0,0
                                          C118.9,60.8,128.1,69.7,139.1,69.7L139.1,69.7"/>
                                        <text transform="matrix(1 0 0 1 135.2407 55.7326)" class="st2 st6 st16">1</text>
                                        <path class="st15" d="M98.8,307.3c11,0,20.2-8.9,20.2-20.2S110,267,98.8,267c-11,0-20.2,8.9-20.2,20
                                          C78.8,298.2,87.7,307.3,98.8,307.3L98.8,307.3"/>
                                        <text transform="matrix(1 0 0 1 94.5435 293.4001)" class="st2 st6 st16">8</text>
                                        <path class="st15" d="M733.4,69.7c11,0,20.2-9.2,20-20.2s-9.2-20.2-20.2-20c-11,0-20,8.9-20,20.2
                                          C713.2,60.8,722.1,69.7,733.4,69.7L733.4,69.7"/>
                                        <text transform="matrix(1 0 0 1 728.9399 55.7326)" class="st2 st6 st16">6</text>
                                        <path class="st15" d="M229.8,381.8c11,0,20.2-8.9,20.2-20.2c0-11-8.9-20.2-20.2-20.2c-11,0-20.2,8.9-20.2,20.2
                                          S218.6,381.8,229.8,381.8L229.8,381.8"/>
                                        <text transform="matrix(1 0 0 1 225.3931 367.9274)" class="st2 st6 st16">9</text>
                                        <path class="st15" d="M356.8,323.5c11,0,20.2-8.9,20.2-20.2s-8.9-20.2-20.2-20.2c-11,0-20.2,8.9-20.2,20.2l0,0
                                          C336.6,314.4,345.5,323.5,356.8,323.5L356.8,323.5"/>
                                        <text transform="matrix(1 0 0 1 348.2109 309.5241)" class="st2 st6 st16">10</text>
                                        <path class="st15" d="M64.9,161.7c11,0,20.2-8.9,20.2-20.2c0-11.2-8.9-20.2-20.2-20.2c-11,0-20.2,8.9-20.2,20
                                          C44.7,152.5,53.8,161.7,64.9,161.7L64.9,161.7"/>
                                        <text transform="matrix(1 0 0 1 56.4072 147.7575)" class="st2 st6 st16">16</text>
                                        <path class="st15" d="M550,381.8c11,0,20.2-8.9,20.2-20.2c0-11-8.9-20.2-20.2-20.2c-11,0-20.2,8.9-20.2,20.2l0,0
                                          C529.9,372.9,538.8,381.8,550,381.8L550,381.8"/>
                                        <text transform="matrix(1 0 0 1 542.1177 367.9274)" class="st2 st6 st16">11</text>
                                        <path class="st15" d="M795.8,381.8c11,0,20.2-8.9,20.2-20.2c0-11-8.9-20.2-20.2-20.2c-11,0-20.2,8.9-20.2,20.2l0,0
                                          C775.6,372.9,784.5,381.8,795.8,381.8L795.8,381.8"/>
                                        <text transform="matrix(1 0 0 1 787.2798 367.9274)" class="st2 st6 st16">10</text>
                                        <path class="st15" d="M1266.8,381.6c11,0,20.2-8.9,20.2-20.2c0-11.2-8.9-20.2-20.2-20.2c-11.2,0-20.2,8.9-20.2,20.2
                                          l0,0C1246.6,372.4,1255.8,381.6,1266.8,381.6L1266.8,381.6"/>
                                        <text transform="matrix(1 0 0 1 1258.6592 367.5104)" class="st2 st6 st16">15</text>
                                        <path class="st15" d="M1536,381.8c11,0,20.2-8.9,20.2-20.2s-8.9-20.2-20.2-20.2c-11.2,0-20.2,8.9-20.2,20.2l0,0
                                          C1515.9,372.9,1524.8,381.8,1536,381.8L1536,381.8"/>
                                        <text transform="matrix(1 0 0 1 1531.6348 367.9274)" class="st2 st6 st16">3</text>
                                        <path class="st15" d="M1192.5,553c11,0,20.2-8.9,20.2-20.2c0-11-8.9-20.2-20.2-20.2c-11,0-20.2,8.9-20.2,20.2l0,0
                                          C1172.4,544.1,1181.5,553,1192.5,553L1192.5,553"/>
                                        <text transform="matrix(1 0 0 1 1184.1113 539.1188)" class="st2 st6 st16">14</text>
                                        <path class="st15" d="M878.4,553c11,0,20.2-8.9,20.2-20.2c0-11-8.9-20.2-20.2-20.2c-11,0-20.2,8.9-20.2,20.2l0,0
                                          C858.2,544.1,867.1,553,878.4,553L878.4,553"/>
                                        <text transform="matrix(1 0 0 1 870.1289 539.1188)" class="st2 st6 st16">13</text>
                                        <path class="st15" d="M675.9,553c11,0,20.2-8.9,20.2-20.2c0-11-8.9-20.2-20.2-20.2c-11,0-20.2,8.9-20.2,20.2l0,0
                                          C655.7,544.1,664.7,553,675.9,553L675.9,553"/>
                                        <text transform="matrix(1 0 0 1 667.833 539.1188)" class="st2 st6 st16">12</text>
                                        <path class="st11" d="M1522.5,500.4v-5.8c-6,0-10.2-0.6-12.5-1.9c-2.3-1.2-3.7-3.3-4.2-6
                                          c-0.6-7.3-0.8-14.8-0.6-22.1v-42.4c4.2-6.7,9.6-12.3,16-16.6c5.2-3.5,11.4-5.4,17.7-5.6c4.8-0.2,9.6,1.2,13.5,4.2
                                          c3.1,2.3,5.4,5.6,6.4,9.4c1,5.8,1.5,11.7,1.2,17.7v33.7c0,11.7-0.2,18.7-0.4,21c-0.2,2.5-1.5,4.6-3.1,6.2
                                          c-1.9,1.9-5.8,2.7-12.1,2.7h-2.5v5.8"/>
                                        <path class="st11" d="M1191.1,499.4c4.8-3.5,7.5-9.6,7.9-18.1h-4.6c-1,6-3.1,9.8-6.2,11.4"/>
                                        <line class="st3" x1="89.6" y1="12.3" x2="1598.5" y2="11.3"/>
                                        <line class="st3" x1="106" y1="14.6" x2="1598.5" y2="13.7"/>
                                        <line class="st3" x1="89.6" y1="83.2" x2="1598.5" y2="82.6"/>
                                        <line class="st3" x1="9.1" y1="251.1" x2="1598.5" y2="251.1"/>
                                        <line class="st3" x1="9.1" y1="327.9" x2="1598.5" y2="326.7"/>
                                        <line class="st3" x1="129.6" y1="396.2" x2="1598.5" y2="395.5"/>
                                        <line class="st3" x1="9.1" y1="500" x2="1598.5" y2="500.4"/>
                                        <line class="st3" x1="9.1" y1="563.9" x2="1598.5" y2="564.3"/>
                                        <line class="st3" x1="89.6" y1="187.3" x2="1598.5" y2="187.3"/>
                                        <line class="st3" x1="9.1" y1="325.4" x2="1598.5" y2="324.4"/>
                                        <line class="st13" x1="135.8" y1="332.5" x2="135.8" y2="388.7"/>
                                        <polygon class="st11" points="135.8,325.8 132.7,334.8 135.8,332.5 139.1,334.8 																"/>
                                        <polygon class="st11" points="135.8,395.3 139.1,386.4 135.8,388.7 132.7,386.4 																"/>
                                        <line class="st13" x1="63.4" y1="332.5" x2="63.4" y2="556.8"/>
                                        <polygon class="st11" points="63.4,325.8 60.1,334.8 63.4,332.5 66.7,334.8 																"/>
                                        <polygon class="st11" points="63.4,563.4 66.7,554.5 63.4,556.8 60.1,554.5 																"/>
                                        <rect x="740.8" y="382.2" class="st11" width="5.6" height="130.5"/>
                                        <rect x="740.8" y="382.2" class="st14" width="5.6" height="130.5"/>
                                        <rect x="606" y="382.2" class="st11" width="6.2" height="130.5"/>
                                        <rect x="606" y="382.2" class="st14" width="6.2" height="130.5"/>
                                      </g>
                                    </g>
                                    


                                    <a class="pulse" data-open="reveal1">
                                      <g id="1">
                                        <path id="Haarstrich" class="st11 pulse" d="M182.2,162.7c-1-9.4-1.5-18.9-1.2-28.3V33.3h-6.9c0.8,8.3,1,16.9,0.8,25.4
                                          v74.9c0,14.4-0.4,24.1-1.5,29.3"/>
                                        <path class="st15" d="M139.1,69.7c11,0,20.2-8.9,20.2-20.2s-8.9-20.2-20.2-20.2s-20.2,8.9-20.2,20.2l0,0
                                            C118.9,60.8,128.1,69.7,139.1,69.7L139.1,69.7"/>   
                                        <text transform="matrix(1 0 0 1 135.2407 55.7326)" class="st2 st6 st16">1</text>
                                      </g>
                                    </a>

                                    <a class="pulse" data-open="reveal2">
                                      <g id="2">
                                        <path id="Grundstrich" class="st11" d="M324.3,33.3v109.9c0.2,8.9-0.2,17.9-1,26.6h26.8c-0.2,0-1-13.1-1-26.6V58.5
                                        c-0.2-8.3,0.2-16.9,0.8-25.2"/>

                                        <path class="st15" d="M380.9,69.7c11,0,20.2-8.9,20.2-20.2s-8.9-20.2-20.2-20.2c-11,0-20.2,8.9-20.2,20.2l0,0
                                          C360.7,60.8,369.7,69.7,380.9,69.7L380.9,69.7"/>
                                        <text transform="matrix(1 0 0 1 376.6733 55.7326)" class="st2 st6 st16">2</text>
                                        </g>
                                    </a>
                                   
                                    <a class="pulse" data-open="reveal3">
                                      <g id="3">
                                      <path id="Punze" class="st11" d="M415.6,113.2c2.9-19.1,12.3-28.7,27.7-28.7c6-0.2,11.9,2.1,16,6.2
                                        c4.4,4.2,6.4,10,6.4,17.5c0,1.7-0.2,3.5-0.4,5.2L415.6,113.2z"/>
                                        <path class="st11" d="M1522.5,500.4v-5.8c-6,0-10.2-0.6-12.5-1.9c-2.3-1.2-3.7-3.3-4.2-6c-0.6-7.3-0.8-14.8-0.6-22.1
                                        v-42.4c4.2-6.7,9.6-12.3,16-16.6c5.2-3.5,11.4-5.4,17.7-5.6c4.8-0.2,9.6,1.2,13.5,4.2c3.1,2.3,5.4,5.6,6.4,9.4
                                        c1,5.8,1.5,11.7,1.2,17.7v33.7c0,11.7-0.2,18.7-0.4,21c-0.2,2.5-1.5,4.6-3.1,6.2c-1.9,1.9-5.8,2.7-12.1,2.7h-2.5v5.8
                                        "/>
                                        <path class="st15" d="M1536,381.8c11,0,20.2-8.9,20.2-20.2s-8.9-20.2-20.2-20.2c-11.2,0-20.2,8.9-20.2,20.2l0,0
                                          C1515.9,372.9,1524.8,381.8,1536,381.8L1536,381.8"/>
                                        <text transform="matrix(1 0 0 1 1531.6348 367.9274)" class="st2 st6 st16">3</text>
                                        <path class="st15" d="M449.3,166.5c11,0,20.2-8.9,20.2-20.2c0-11.2-8.9-20.2-20.2-20.2c-11,0-20.2,8.9-20.2,20.2
                                          S438.1,166.5,449.3,166.5L449.3,166.5L449.3,166.5"/>
                                        <text transform="matrix(1 0 0 1 445.021 152.4186)" class="st2 st6 st16">3</text>   
                                      </g>
                                    </a>

                                   <a class="pulse" data-open="reveal4">
                                    <g id="4">
                                      <path id="Auslaufpunkt" class="st11" d="M574.4,94.3c2.3,6.2,5.4,9.4,9.6,9.4c2.3,0,4.6-1,6-2.7c1.7-1.7,2.5-4,2.5-6.4
                                        c-0.2-4-1.9-7.9-4.8-10.6C585,81.6,571.3,77.4,574.4,94.3"/>
                                       <path class="st15" d="M558.2,69.7c11,0,20.2-8.9,20.2-20.2c0-11-8.9-20.2-20.2-20.2c-11,0-20.2,8.9-20.2,20.2l0,0
                                          C538,60.8,546.9,69.7,558.2,69.7L558.2,69.7"/>
                                        <text transform="matrix(1 0 0 1 553.5659 55.7326)" class="st2 st6 st16">4</text> 

                                    </g>
                                   </a>

                                   <a class="pulse" data-open="reveal5">
                                    <g id="5">
                                      <path id="Kehlung" class="st11" d="M661.4,163.6c5.6,6.7,8.5,10.8,8.5,12.3c0,3.5-4.4,5.4-12.9,5.6h19.8
                                        L661.4,163.6z"/>
                                      <path id="Kehlung" class="st11" d="M644.5,181.4c-5.2,0-8.9-0.8-11-2.3c-2.1-1.7-3.5-4-3.7-6.7v8.9H644.5z"/>
                                      <path id="Kehlung" class="st11" d="M610.4,172.5c-0.2,2.3-1.2,4.6-3.1,6.2c-1.9,1.7-5.8,2.7-11.9,2.7h15V172.5z"/>
                                      <path id="Kehlung" class="st11" d="M709,181.2c-3.5-0.2-6.9-1.2-10-3.3c-5-3.7-9.4-7.9-13.3-12.9l13.9,16L709,181.2
                                        z"/>
                                        <path class="st15" d="M646.8,228.9c11,0,20.2-8.9,20.2-20.2c0-11-8.9-20.2-20.2-20.2c-11,0-20.2,8.9-20.2,20.2l0,0
                                          C626.6,219.9,635.6,228.9,646.8,228.9L646.8,228.9"/>
                                        <text transform="matrix(1 0 0 1 642.4282 214.8566)" class="st2 st6 st16">5</text>


                                    </g>
                                   </a>

                                   <a class="pulse" data-open="reveal6">
                                    <g id="6">
                                      <path id="Anstrich" class="st11" d="M748.5,90.3c-0.4-4-1.5-7.9-3.1-11.7h-1.2c-9.8,2.9-19.8,5-30,5.8v5.8"/>
                                      <path class="st15" d="M733.4,69.7c11,0,20.2-9.2,20-20.2s-9.2-20.2-20.2-20c-11,0-20,8.9-20,20.2
                                          C713.2,60.8,722.1,69.7,733.4,69.7L733.4,69.7"/>
                                      <text transform="matrix(1 0 0 1 728.9399 55.7326)" class="st2 st6 st16">6</text>

                                    </g>
                                   </a>

                                   <a class="pulse" data-open="reveal7">
                                    <g id="7">
                                      <path id="Serife" class="st11" d="M1061,151.5c0.2,7.3,0,14.6-0.6,21.8c-0.4,2.5-1.9,4.6-4,6s-5.8,2.1-10.8,2.1
                                        h-3.5v5.8h18.9"/>
                                      <path id="Serife" class="st11" d="M1079.4,187.3h18.5v-5.8h-3.1c-5.4,0-9.2-0.8-11.4-2.3c-2.1-1.5-3.5-4-3.7-6.7
                                        c-0.2-2.9-0.4-10-0.4-21"/>
                                        <path class="st15" d="M1069.8,228.9c11,0,20.2-8.9,20.2-20.2c0-11.2-8.9-20.2-20.2-20.2c-11,0-20.2,8.9-20.2,20.2
                                          l0,0C1049.6,219.9,1058.5,228.9,1069.8,228.9L1069.8,228.9"/>
                                        <text transform="matrix(1 0 0 1 1065.5381 214.8371)" class="st2 st6 st16">7</text>

                                    </g>
                                   </a>

                                   <a class="pulse" data-open="reveal8">
                                    <g id="8">
                                      <text transform="matrix(6.123234e-17 -1 1 6.123234e-17 130.3091 393.0407)" class="st2 st6 st7">Oberlnge</text>
                                      <text transform="matrix(6.123234e-17 -1 1 6.123234e-17 130.1016 483.3171)" class="st2 st6 st7">Mittellnge</text>
                                      <text transform="matrix(6.123234e-17 -1 1 6.123234e-17 130.1016 563.4636)" class="st2 st6 st7">Unterlnge</text>
                                      <text transform="matrix(6.123234e-17 -1 1 6.123234e-17 94.3984 438.4811)" class="st2 st6 st7">V</text>
                                      <text transform="matrix(6.123234e-17 -1 1 6.123234e-17 94.3984 431.655)" class="st2 st6 st7">ersalhhe</text>
                                      <text transform="matrix(6.123234e-17 -1 1 6.123234e-17 57.9043 483.5671)" class="st2 st6 st7">K</text>
                                      <text transform="matrix(6.123234e-17 -1 1 6.123234e-17 57.9043 475.7438)" class="st2 st6 st7">egelgre</text>
                                      <text transform="matrix(6.123234e-17 -1 1 6.123234e-17 57.9043 418.152)" class="st2 st6 st7">/</text>
                                      <text transform="matrix(6.123234e-17 -1 1 6.123234e-17 57.9043 412.1823)" class="st2 st6 st7">Schriftgre</text>
                                      <text transform="matrix(6.123234e-17 -1 1 6.123234e-17 56.9058 324.5886)" class="st2 st6 st7">Durchschuss</text> 
                                      <line class="st13" x1="135.8" y1="403.2" x2="135.8" y2="492.9"/>
                                      <polygon class="st11" points="135.8,396.4 132.7,405.5 135.8,403.2 139.1,405.5 																"/>
                                      <polygon class="st11" points="135.8,499.6 139.1,490.6 135.8,492.9 132.7,490.6 																"/>
                                      <line class="st13" x1="135.8" y1="507.1" x2="135.8" y2="556.8"/>
                                      <polygon class="st11" points="135.8,500.4 132.7,509.3 135.8,507.1 139.1,509.3 																"/>
                                      <polygon class="st11" points="135.8,563.4 139.1,554.5 135.8,556.8 132.7,554.5 																"/>
                                      <line class="st13" x1="99.6" y1="335" x2="99.6" y2="492.3"/>
                                      <polygon class="st11" points="99.6,328.1 96.3,337.1 99.6,335 102.9,337.1 																"/>
                                      <polygon class="st11" points="99.6,498.9 102.9,490 99.6,492.3 96.3,490 																"/>
                                      <line class="st13" x1="63.4" y1="258.2" x2="63.4" y2="318.3"/>
                                      <polygon class="st11" points="63.4,251.6 60.1,260.5 63.4,258.2 66.7,260.5 																"/>
                                      <polygon class="st11" points="63.4,325 66.7,316.1 63.4,318.3 60.1,316.1 																"/>
                                      <line class="st13" x1="135.8" y1="332.5" x2="135.8" y2="388.7"/>
                                      <polygon class="st11" points="135.8,325.8 132.7,334.8 135.8,332.5 139.1,334.8 																"/>
                                      <polygon class="st11" points="135.8,395.3 139.1,386.4 135.8,388.7 132.7,386.4 																"/>
                                      <line class="st13" x1="63.4" y1="332.5" x2="63.4" y2="556.8"/>
                                      <polygon class="st11" points="63.4,325.8 60.1,334.8 63.4,332.5 66.7,334.8 																"/>
                                      <polygon class="st11" points="63.4,563.4 66.7,554.5 63.4,556.8 60.1,554.5 																"/>
                                      <path class="st15" d="M98.8,307.3c11,0,20.2-8.9,20.2-20.2S110,267,98.8,267c-11,0-20.2,8.9-20.2,20
                                          C78.8,298.2,87.7,307.3,98.8,307.3L98.8,307.3"/>
                                      <text transform="matrix(1 0 0 1 94.5435 293.4001)" class="st2 st6 st16">8</text>

                                    </g>
                                   </a>

                                   <a class="pulse" data-open="reveal9">
                                    <g id="9">
                                      <path id="Halbserife" class="st11" d="M224.9,333.1c12.1,0,20.8,0.6,26.2,1.9c5.6,1.5,10.6,4.8,14.1,9.6
                                        c4,5,7.3,13.5,10,25.6h6l-3.5-37.2"/>
                                        <path class="st15" d="M229.8,381.8c11,0,20.2-8.9,20.2-20.2c0-11-8.9-20.2-20.2-20.2c-11,0-20.2,8.9-20.2,20.2
                                          S218.6,381.8,229.8,381.8L229.8,381.8"/>
                                        <text transform="matrix(1 0 0 1 225.3931 367.9274)" class="st2 st6 st16">9</text>

                                    </g>
                                   </a>

                                   <a class="pulse" data-open="reveal10">
                                    <g id="10">
                                      <path id="Ueberhang2" class="st11" d="M755.6,500.4v3.3h5c0.4-1.2,0.8-2.3,1.2-3.3 M775.8,500.4
                                        c5,2.9,10.4,4.4,16.2,4.4c5.8,0.2,11.7-1.2,16.9-4.2 M816.4,396.4v-2.5h-4.6c-0.4,0.8-0.8,1.9-1,2.5 M799.3,396.4
                                        c-4.6-2.9-9.8-4.4-15.2-4.4c-5.6-0.2-11,1.5-15.6,4.4"/>
                                      <path id="Ueberhang1" class="st11" d="M342.6,327.3c-2.1-1.5-4.6-2.1-7.1-2.1c-2.5,0-5,0.6-7.1,2.1"/>
                                      <path class="st15" d="M356.8,323.5c11,0,20.2-8.9,20.2-20.2s-8.9-20.2-20.2-20.2c-11,0-20.2,8.9-20.2,20.2l0,0
                                          C336.6,314.4,345.5,323.5,356.8,323.5L356.8,323.5"/>
                                      <text transform="matrix(1 0 0 1 348.2109 309.5241)" class="st2 st6 st16">10</text>
                                      <path class="st15" d="M795.8,381.8c11,0,20.2-8.9,20.2-20.2c0-11-8.9-20.2-20.2-20.2c-11,0-20.2,8.9-20.2,20.2l0,0
                                        C775.6,372.9,784.5,381.8,795.8,381.8L795.8,381.8"/>
                                      <text transform="matrix(1 0 0 1 787.2798 367.9274)" class="st2 st6 st16">10</text>
                                    </g>
                                   </a>

                                   <a class="pulse" data-open="reveal11">
                                    <g id="11">
                                      <path class="st11" d="M596,426.3c0.2,1.7,0.4,3.3,0.6,5h-72.8l0.4-5"></path>
                                      <path class="st15" d="M550,381.8c11,0,20.2-8.9,20.2-20.2c0-11-8.9-20.2-20.2-20.2c-11,0-20.2,8.9-20.2,20.2l0,0
                                          C529.9,372.9,538.8,381.8,550,381.8L550,381.8"/>
                                        <text transform="matrix(1 0 0 1 542.1177 367.9274)" class="st2 st6 st16">11</text>
                                    </g>
                                   </a>

                                   <a class="pulse" data-open="reveal12">
                                    <g id="12">
                                      <rect id="Zeichenbreite2" x="740.4" y="381.6" class="st11" width="6.4" height="131.1"/>
                                      <rect id="Zeichenbreite1" x="605.6" y="382.2" class="st11" width="7.5" height="130.5"/>
                                      <path class="st15" d="M675.9,553c11,0,20.2-8.9,20.2-20.2c0-11-8.9-20.2-20.2-20.2c-11,0-20.2,8.9-20.2,20.2l0,0
                                          C655.7,544.1,664.7,553,675.9,553L675.9,553"/>
                                        <text transform="matrix(1 0 0 1 667.833 539.1188)" class="st2 st6 st16">12</text>

                                    </g>
                                   </a>

                                   <a class="pulse" data-open="reveal13">
                                    <g id="13">
                                      <line class="st12" x1="893.8" y1="365" x2="904" y2="528.9"/>
                                      <path class="st15" d="M878.4,553c11,0,20.2-8.9,20.2-20.2c0-11-8.9-20.2-20.2-20.2c-11,0-20.2,8.9-20.2,20.2l0,0
                                          C858.2,544.1,867.1,553,878.4,553L878.4,553"/>
                                        <text transform="matrix(1 0 0 1 870.1289 539.1188)" class="st2 st6 st16">13</text>
                                    </g>
                                   </a>

                                   <a class="pulse" data-open="reveal14">
                                    <g id="14">
                                      <path class="st11" d="M1191.1,499.2c4.8-3.5,7.5-9.6,7.9-18.1h-4.6c-1,6-3.1,9.8-6.2,11.4"/>
                                      <path class="st15" d="M1192.5,553c11,0,20.2-8.9,20.2-20.2c0-11-8.9-20.2-20.2-20.2c-11,0-20.2,8.9-20.2,20.2l0,0
                                          C1172.4,544.1,1181.5,553,1192.5,553L1192.5,553"/>
                                        <text transform="matrix(1 0 0 1 1184.1113 539.1188)" class="st2 st6 st16">14</text>
                                    </g>
                                   </a>

                                   <a class="pulse" data-open="reveal15">
                                    <g id="15">
                                      <rect id="Lingatur" x="1251.4" y="396.2" class="st11" width="24.3" height="5.2"/>
                                      <path class="st15" d="M1266.8,381.6c11,0,20.2-8.9,20.2-20.2c0-11.2-8.9-20.2-20.2-20.2c-11.2,0-20.2,8.9-20.2,20.2
                                          l0,0C1246.6,372.4,1255.8,381.6,1266.8,381.6L1266.8,381.6"/>
                                        <text transform="matrix(1 0 0 1 1258.6592 367.5104)" class="st2 st6 st16">15</text>

                                    </g>
                                   </a>

                                   <a class="pulse" data-open="reveal16">
                                     <g id="16">
                                      <text transform="matrix(1 0 0 1 9.0317 187.0402)" class="st2 st6 st7">Grundlinie</text>
                                      <text transform="matrix(1 0 0 1 9.0317 21.9645)" class="st2 st6 st7">K-Linie</text>
                                      <text transform="matrix(1 0 0 1 47.9385 21.9645)" class="st2 st6 st7 st8"></text>
                                      <text transform="matrix(1 0 0 1 50.0195 21.9645)" class="st2 st6 st7">/</text>
                                      <text transform="matrix(1 0 0 1 9.0317 41.8767)" class="st2 st6 st7">Oberlinie</text>
                                      <text transform="matrix(1 0 0 1 9.0317 64.2844)" class="st2 st6 st7">H-Linie</text>
                                      <text transform="matrix(1 0 0 1 9.0317 87.5666)" class="st2 st6 st7">Mittellinie</text>
                                      <text transform="matrix(1 0 0 1 64.1675 87.5666)" class="st2 st6 st7 st8"></text>
                                      <text transform="matrix(1 0 0 1 66.2485 87.5666)" class="st2 st6 st7">/</text>
                                      <text transform="matrix(1 0 0 1 9.0317 107.4772)" class="st2 st6 st7">X-Linie</text>
                                      <text transform="matrix(1 0 0 1 8.8853 215.8771)" class="st2 st6 st7">Unterlinie</text>
                                      <text transform="matrix(1 0 0 1 62.981 215.8771)" class="st2 st6 st7 st8"></text>
                                      <text transform="matrix(1 0 0 1 65.062 215.8771)" class="st2 st6 st7">/</text>
                                      <text transform="matrix(1 0 0 1 69.4312 215.8771)" class="st2 st6 st7 st8"></text>
                                      <text transform="matrix(1 0 0 1 71.5117 215.8771)" class="st2 st6 st7">P-Linie</text>
                                      <path class="st15" d="M64.9,161.7c11,0,20.2-8.9,20.2-20.2c0-11.2-8.9-20.2-20.2-20.2c-11,0-20.2,8.9-20.2,20
                                                C44.7,152.5,53.8,161.7,64.9,161.7L64.9,161.7"/>
                                      <text transform="matrix(1 0 0 1 56.4072 147.7575)" class="st2 st6 st16">16</text>
                                    

                                    </g>
                                   </a>             
                  </g>
                </g>
              </g>
            </g>
          </g>
        </g>
      </svg>