<?xml version="1.0" encoding="utf-8"?>
<!-- Generator: Adobe Illustrator 21.0.2, SVG Export Plug-In . SVG Version: 6.00 Build 0)  -->
<svg version="1.1" id="merkmale-eigenschaften" xmlns="http://www.w3.org/2000/svg" xmlns:xlink="http://www.w3.org/1999/xlink"
	 x="0px" y="0px" viewBox="0 0 764 266.2" style="enable-background:new 0 0 764 266.2;" xml:space="preserve">
<style type="text/css">
	.st0{fill:#E4007D;}
	.st1{clip-path:url(#SVGID_2_);}
	.st2{clip-path:url(#SVGID_4_);}
	.st3{fill:#181716;}
	.st4{fill:none;stroke:#181716;stroke-width:0.5;}
	.st5{opacity:0.7;enable-background:new    ;}
	.st6{clip-path:url(#SVGID_6_);}
	.st7{font-family:'Flama-Book';}
	.st8{font-size:6.15px;}
	.st9{enable-background:new    ;}
	.st10{font-family:'Flama-Book';}
	.st11{clip-path:url(#SVGID_8_);}
	.st12{fill:none;stroke:#181716;}
	.st13{fill:none;stroke:#E4007D;stroke-dasharray:2.95,1.95;}
	.st14{fill:none;stroke:#E4007D;stroke-width:0.5;}
	.st15{fill:none;stroke:#E4007D;}
	.st16{fill:#EBECEC;}
	.st17{font-size:7.52px;}
</style>
<g id="e2">
	<path id="Querstrich" class="st0" d="M282.2,199.6c0.1,0.8,0.2,1.6,0.3,2.4h-35l0.2-2.4"/>
</g>
<g>
	<g>
		<defs>
			<rect id="SVGID_1_" x="-6.1" y="-4.3" width="773.1" height="270.8"/>
		</defs>
		<clipPath id="SVGID_2_">
			<use xlink:href="#SVGID_1_"  style="overflow:visible;"/>
		</clipPath>
		<g class="st1">
			<g>
				<g>
					<defs>
						<rect id="SVGID_3_" x="-6.1" y="-4.3" width="773.1" height="270.8"/>
					</defs>
					<clipPath id="SVGID_4_">
						<use xlink:href="#SVGID_3_"  style="overflow:visible;"/>
					</clipPath>
					<g class="st2">
						<path class="st3" d="M361.3,236.9c0.5-1.9,1.4-3.7,2.7-5.3c3.6,3.8,7.7,5.7,12.3,5.7c4,0.1,7.9-1.3,10.9-4.1
							c2.9-2.8,4.4-6.7,4.3-10.6c-0.1-3-0.9-6-2.3-8.7c-1.6-3-5.8-6.1-12.7-9.2c-4.6-2.1-7.7-3.9-9.4-5.6c-1.6-1.5-2.5-3.5-2.5-5.7
							c0-2,0.8-3.9,2.2-5.3c1.6-1.5,3.7-2.4,5.9-2.2c3.2,0,6.3,1.5,8.3,4c2.4,2.7,4,6,4.8,9.6h2.2V184h-2.2
							c-0.6,1.6-1.4,3.1-2.4,4.5c-2.6-3.4-6.6-5.4-10.8-5.3c-4.3,0-7.6,1.5-10,4.5c-2.2,2.6-3.5,6-3.5,9.4c-0.1,3.2,1.1,6.4,3.4,8.7
							c2.2,2.4,5.8,4.9,10.9,7.4c4.8,2.4,8.1,4.4,9.7,6.1c1.7,1.7,2.6,4,2.5,6.4c0,2.3-0.8,4.5-2.3,6.2c-1.5,1.9-3.8,2.8-7,2.8
							c-7.1,0-12.1-4.8-14.9-14.3H359v16.5L361.3,236.9z M290.7,185.9v2.8c2.9,0,4.9,0.3,6,0.9c1.1,0.6,1.8,1.6,2,2.8
							c0.3,3.5,0.4,7.1,0.3,10.6v14.9c0,6.1-0.1,9.8-0.4,10.9c-0.2,1.1-1,2.1-2,2.6c-1.1,0.6-3.1,0.9-5.9,0.9v2.8h25.4v-2.8
							c-2.9,0-4.9-0.3-6-0.9c-1.1-0.6-1.8-1.6-2-2.9c-0.3-3.5-0.4-7.1-0.3-10.6v-20.5c2-3.2,4.6-5.9,7.7-8c2.5-1.7,5.5-2.6,8.5-2.7
							c2.3-0.1,4.6,0.6,6.5,2c1.5,1.1,2.6,2.7,3.1,4.5c0.5,2.8,0.7,5.6,0.6,8.5v16.2c0,5.6-0.1,9-0.2,10.1c-0.1,1.2-0.7,2.2-1.5,3
							c-0.9,0.9-2.8,1.3-5.8,1.3h-1.2v2.8h25.6v-2.8c-2.9,0-4.9-0.3-6-0.9c-1.1-0.6-1.8-1.6-1.9-2.9c-0.3-3.5-0.4-7.1-0.3-10.6
							v-15.7c0.1-3.6-0.2-7.1-1.1-10.6c-0.9-2.6-2.6-4.8-5-6.2c-3-1.8-6.4-2.7-9.8-2.5c-3.5,0-7,0.9-10.1,2.6
							c-3.5,2-6.7,4.6-9.2,7.8c0-3.5-0.5-7-1.6-10.4h-1.6C300,184.5,295.3,185.4,290.7,185.9 M247.7,199.7
							c1.4-9.2,5.9-13.9,13.3-13.9c2.9-0.1,5.7,1,7.7,3c2.1,2,3.1,4.8,3.1,8.4c0,0.8-0.1,1.7-0.2,2.5H247.7z M276.7,189.1
							c-3.6-4-8.7-6-15.2-6c-6.7-0.1-13.1,2.8-17.5,7.9c-4.7,5.2-7,11.8-7,19.8c-0.2,5,1.1,9.9,3.6,14.3c2.3,3.8,5.5,6.9,9.3,9.1
							c7.7,4.4,17.1,4.3,24.7-0.3c3.7-2.2,6.5-5.6,7.8-9.8h-2.9c-3.1,6.7-8.3,10-15.8,10c-5.5,0-9.6-2.2-12.3-6.6
							s-4.1-11.1-4.1-19.9c0-1.2,0.1-3,0.2-5.4h35C282.1,197.2,280.1,192.6,276.7,189.1"/>
						<path class="st3" d="M282.2,199.7c0.1,0.8,0.2,1.6,0.3,2.4h-35l0.2-2.4"/>
						<path class="st3" d="M358.9,235.3v1.6h2.4c0.2-0.6,0.4-1.1,0.6-1.6 M368.6,235.3c2.4,1.4,5,2.1,7.8,2.1c2.8,0.1,5.6-0.6,8.1-2
							 M388.1,185.3v-1.2h-2.2c-0.2,0.4-0.4,0.9-0.5,1.2 M379.9,185.3c-2.2-1.4-4.7-2.1-7.3-2.1c-2.7-0.1-5.3,0.7-7.5,2.1"/>
						<line class="st4" x1="282.5" y1="178.1" x2="282.5" y2="241.5"/>
						<g>
							<g>
								<g>
									<g class="st5">
										<defs>
											<rect id="SVGID_5_" x="284.3" y="173.4" class="st5" width="12.6" height="68.8"/>
										</defs>
										<clipPath id="SVGID_6_">
											<use xlink:href="#SVGID_5_"  style="overflow:visible;"/>
										</clipPath>
										<g class="st6">
											<line class="st4" x1="290.6" y1="178.1" x2="290.6" y2="241.5"/>
										</g>
									</g>
									<line class="st4" x1="351.3" y1="178.1" x2="351.3" y2="241.5"/>
									<line class="st4" x1="358.8" y1="178.1" x2="358.8" y2="241.5"/>
									<line class="st4" x1="355" y1="178.1" x2="355" y2="241.5"/>
									<line class="st4" x1="286.5" y1="178.1" x2="286.5" y2="241.5"/>
									<text transform="matrix(1 0 0 1 6.999969e-02 84.69)" class="st3 st7 st8">Grundlinie</text>
									<text transform="matrix(1 0 0 1 6.999969e-02 5.35)" class="st9"><tspan x="0" y="0" class="st3 st7 st8">K-Linie</tspan><tspan x="18.7" y="0" class="st3 st7 st8"> </tspan><tspan x="19.7" y="0" class="st3 st7 st8">/</tspan></text>
									<text transform="matrix(1 0 0 1 6.999969e-02 14.92)" class="st3 st7 st8">Oberlinie</text>
									<text transform="matrix(1 0 0 1 6.999969e-02 25.69)" class="st3 st7 st8">H-Linie</text>
									<text transform="matrix(1 0 0 1 6.999969e-02 36.88)" class="st9"><tspan x="0" y="0" class="st3 st7 st8">Mittellinie</tspan><tspan x="26.5" y="0" class="st3 st7 st8"> </tspan><tspan x="27.5" y="0" class="st3 st7 st8">/</tspan></text>
									<text transform="matrix(1 0 0 1 6.999969e-02 46.45)" class="st3 st7 st8">X-Linie</text>
									<text transform="matrix(1 0 0 1 0 98.55)" class="st9"><tspan x="0" y="0" class="st3 st7 st8">Unterlinie</tspan><tspan x="26" y="0" class="st3 st7 st8"> </tspan><tspan x="27" y="0" class="st3 st7 st8">/</tspan><tspan x="29.1" y="0" class="st3 st7 st8"> </tspan><tspan x="30.1" y="0" class="st3 st7 st8">P-Linie</tspan></text>
									<text transform="matrix(6.123234e-17 -1 1 6.123234e-17 58.36 183.7002)" class="st3 st7 st8">Oberlänge</text>
									<text transform="matrix(6.123234e-17 -1 1 6.123234e-17 58.26 227.0898)" class="st3 st7 st8">Mittellänge</text>
									<text transform="matrix(6.123234e-17 -1 1 6.123234e-17 58.26 265.6104)" class="st3 st7 st8">Unterlänge</text>
									<g>
										<text transform="matrix(6.123234e-17 -1 1 6.123234e-17 41.1 205.54)" class="st3 st7 st8">V</text>
										<text transform="matrix(6.123234e-17 -1 1 6.123234e-17 41.1 202.2598)" class="st3 st7 st8">ersalhöhe</text>
									</g>
									<g>
										<text transform="matrix(6.123234e-17 -1 1 6.123234e-17 23.56 227.21)" class="st3 st7 st8">K</text>
										<text transform="matrix(6.123234e-17 -1 1 6.123234e-17 23.56 223.4502)" class="st3 st7 st8">egelgröße</text>
									</g>
									<text transform="matrix(6.123234e-17 -1 1 6.123234e-17 23.56 195.7695)" class="st3 st10 st8">/</text>
									<text transform="matrix(6.123234e-17 -1 1 6.123234e-17 23.56 192.9004)" class="st3 st10 st8">Schriftgröße</text>
									<g>
										<g id="font-complete">
											<defs>
												<rect id="SVGID_7_" x="-6.1" y="-4.3" width="773.1" height="270.8"/>
											</defs>
											<clipPath id="SVGID_8_">
												<use xlink:href="#SVGID_7_"  style="overflow:visible;"/>
											</clipPath>
											<g class="st11">
												<path class="st3" d="M702.1,185.9v2.8c2.9,0,4.9,0.3,6,0.9c1.1,0.6,1.8,1.6,2,2.8c0.3,3.5,0.4,7.1,0.3,10.6v14.9
													c0,6.1-0.1,9.8-0.4,10.9c-0.2,1.1-1,2.1-2,2.6c-1.1,0.6-3.1,0.9-5.9,0.9v2.8h25.3v-2.8c-2.9,0-4.9-0.3-6-0.9
													c-1.1-0.6-1.8-1.6-2-2.9c-0.3-3.5-0.4-7.1-0.3-10.6v-20.5c2-3.2,4.6-5.9,7.7-8c2.5-1.7,5.5-2.6,8.5-2.7
													c2.3-0.1,4.6,0.6,6.5,2c1.5,1.1,2.6,2.7,3.1,4.5c0.5,2.8,0.7,5.6,0.6,8.5v16.2c0,5.6-0.1,9-0.2,10.1
													c-0.1,1.2-0.7,2.2-1.5,3c-0.9,0.9-2.8,1.3-5.8,1.3h-1.2v2.8h25.7v-2.8c-2.9,0-4.9-0.3-6-0.9c-1.1-0.6-1.8-1.6-1.9-2.9
													c-0.3-3.5-0.4-7.1-0.3-10.6v-15.7c0.1-3.6-0.2-7.1-1.1-10.6c-0.9-2.6-2.6-4.8-5-6.1c-3-1.8-6.4-2.7-9.8-2.5
													c-3.5,0-7,0.9-10.1,2.6c-3.5,2-6.7,4.6-9.2,7.8c0-3.5-0.5-7-1.6-10.4h-1.7c-4.5,1.3-9.1,2.3-13.8,2.8 M659,199.7
													c1.5-9.2,6-13.9,13.4-13.9c2.9-0.1,5.7,1,7.7,3c2.1,2,3.2,4.8,3.2,8.4c0,0.8-0.1,1.7-0.2,2.5H659z M688,189.1
													c-3.6-4-8.7-6-15.2-6c-6.6-0.1-13,2.8-17.3,7.8c-4.7,5.2-7,11.8-7,19.8c-0.2,5,1.1,9.9,3.6,14.3
													c2.3,3.8,5.5,6.9,9.3,9.1c7.7,4.4,17.1,4.3,24.7-0.3c3.7-2.2,6.5-5.6,7.8-9.8H691c-3.1,6.7-8.4,10-15.8,10
													c-5.5,0-9.6-2.2-12.3-6.6c-2.8-4.4-4.1-11.1-4.1-19.9c0-1.2,0.1-3,0.2-5.4h35c-0.3-4.9-2.3-9.5-5.7-13 M641.7,185.1
													h-15.2v-15.7h-2c-0.7,5-2.4,8.8-5,11.6c-2.3,2.6-5.5,4.1-9,4.2v2.8h7.3v28.4c0,5.8,0.3,9.9,0.8,12.2
													c0.6,2.5,2.1,4.6,4.2,6.1c2.2,1.7,4.9,2.6,7.7,2.6c2.6,0,5.2-0.7,7.5-2.1c2.5-1.4,4.4-3.5,5.6-6.1l-2-1.2
													c-2.2,3.3-4.7,5-7.7,5c-1.5,0-3-0.5-4.3-1.5c-1.3-0.9-2.2-2.3-2.6-3.9c-0.5-3.1-0.7-6.3-0.6-9.4v-30.3h15.1L641.7,185.1
													z M593.3,185.1v-3.8c0-9.1,0.2-15.1,0.5-17.9c0.3-2.7,1.5-5.1,3.5-6.9c1.8-1.8,4.2-2.8,6.8-2.8c3.2,0,5.8,1.8,7.8,5.5
													c1.8,3.3,3.8,5,5.9,5c1.1,0,2.1-0.4,2.9-1.2c0.8-0.8,1.3-1.8,1.2-2.9c0-2.1-1.5-4.1-4.3-6.1c-2.9-2-6.8-3-11.6-3
													c-3.6-0.1-7.1,0.7-10.3,2.4c-2.9,1.6-5.4,4-7.2,6.8c-1.8,2.6-2.9,5.5-3.5,8.6c-0.5,3.9-0.7,7.8-0.6,11.8v4.5H575v2.8
													h9.4V218c0,6.1-0.1,9.8-0.4,10.9c-0.2,1.1-1,2.1-2,2.6c-1.1,0.6-3,0.9-5.8,0.9v2.8h27.1v-2.8h-2.6
													c-2.6,0-4.4-0.4-5.5-1.1c-1-0.7-1.7-1.9-1.8-3.2c-0.1-1.4-0.2-4.8-0.2-10.1v-30.1h18.2V185L593.3,185.1z M552,224.4
													c-2.6,2.2-5.5,4.1-8.5,5.7c-2,1.1-4.3,1.8-6.7,1.9c-2,0.1-4-0.8-5.3-2.4c-1.4-1.8-2.1-4-2-6.2c0-6.5,5.3-11.9,15.8-16.2
													l6.7-2.7V224.4z M564.7,232c-1.4,0.2-2.7-0.7-3.2-2s-0.7-4.4-0.7-9.1v-20.2c0-4.3-0.5-7.5-1.4-9.6s-2.8-3.9-5.7-5.6
													s-6.9-2.4-12.1-2.4c-7,0-12.1,1.3-15.4,4c-3.3,2.7-5,5.2-5,7.5c0,2.4,1.2,3.5,3.7,3.6c2.8,0,4.5-2.1,5.1-6.2
													c0.7-4.2,4-6.2,10.2-6.1c2.6-0.1,5.2,0.5,7.4,1.8c1.6,0.9,2.9,2.4,3.5,4.2c0.5,2.5,0.8,5,0.7,7.5v2.5l-9.5,3.9
													c-7.2,3-12.9,6-17,9.2c-4.1,3.1-6.2,6.8-6.2,11c-0.1,3,1.3,5.9,3.7,7.8c2.5,2,5.6,3,8.8,2.9c3.1-0.1,6.2-0.9,9-2.2
													c4-1.8,7.7-4,11.2-6.5c0.3,2.5,1.4,4.8,3.2,6.6c1.8,1.5,4.2,2.3,6.6,2.2c6.5,0,9.9-3.5,10.3-10.5h-2.2
													C569,230.1,567.3,232.1,564.7,232 M468.3,151.1H467c-4.2,1.7-9.5,2.6-15.8,2.6v2.8c3.6,0,5.9,0.7,6.9,2s1.4,4.5,1.4,9.6
													v50c0,5.6-0.1,9-0.2,10.1c-0.1,1.2-0.7,2.2-1.5,3c-0.9,0.8-2.8,1.3-5.7,1.3h-1.3v2.8h25.5v-2.8c-2.8,0-4.8-0.3-5.8-1
													c-1.1-0.7-1.7-1.8-1.9-3c-0.2-1.3-0.3-4.8-0.3-10.4V198c1.6-3.3,3.8-6.1,6.7-8.4c2.5-1.8,5.5-2.8,8.5-2.8
													c2.4-0.1,4.8,0.6,6.8,2c1.7,1.2,3,2.9,3.5,4.9c0.6,3,0.8,6.1,0.7,9.2V218c0,5.6-0.1,8.9-0.2,10.1
													c-0.1,1.1-0.7,2.2-1.5,3c-0.9,0.9-2.8,1.3-5.8,1.3h-1.2v2.8h25.9v-2.8c-3,0-5-0.3-6.1-0.9c-1.1-0.6-1.8-1.6-2-2.8
													c-0.3-3.6-0.4-7.1-0.3-10.7v-13.8c0-5.6-0.4-9.7-1.2-12.2c-1-2.7-2.8-4.9-5.3-6.3c-3.1-1.8-6.7-2.7-10.3-2.6
													c-3.5,0-6.9,0.9-10,2.6c-3.3,1.9-6.1,4.6-8.2,7.7L468.3,151.1z M428.2,234.1c-6,0-10.5-2.2-13.4-6.7
													c-3-4.4-4.4-10.6-4.4-18.5c0-7.6,1.4-13.3,4.1-17.1s6.9-5.7,12.3-5.7c3.1,0,5.1,0.5,6.2,1.4s1.8,2.6,2.2,4.9
													c0.6,3.1,2.2,4.7,5,4.7c1.1,0.1,2.2-0.4,2.9-1.4c0.6-0.8,1-1.8,1-2.9c0-2.7-1.8-5.1-5.5-6.9c-3.7-1.9-7.8-2.9-11.9-2.9
													c-7-0.1-13.8,2.7-18.7,7.7c-5.2,5.1-7.9,11.8-7.9,20c0,8,2.4,14.4,7.3,19.3c4.7,4.8,11.3,7.4,18,7.3
													c11.1,0,18-4.8,20.8-14.3h-2.7C441.4,230.4,436.2,234.1,428.2,234.1 M361.3,236.9c0.5-1.9,1.4-3.7,2.7-5.3
													c3.6,3.8,7.7,5.7,12.3,5.7c4,0.1,7.9-1.3,10.9-4.1c2.9-2.8,4.5-6.7,4.3-10.7c-0.1-3-0.9-6-2.3-8.7
													c-1.6-3-5.8-6.1-12.7-9.2c-4.6-2.1-7.7-3.9-9.4-5.6c-1.6-1.5-2.5-3.5-2.5-5.7c0-2,0.8-3.9,2.2-5.3
													c1.6-1.5,3.7-2.4,5.9-2.2c3.2,0,6.3,1.5,8.3,4c2.4,2.7,4,6,4.8,9.6h2.2V184h-2.2c-0.6,1.6-1.4,3.1-2.4,4.5
													c-2.6-3.4-6.6-5.4-10.8-5.3c-4.3,0-7.6,1.5-10,4.5c-2.2,2.6-3.5,6-3.5,9.4c-0.1,3.2,1.1,6.4,3.4,8.7
													c2.2,2.4,5.8,4.9,10.9,7.4c4.8,2.4,8.1,4.4,9.7,6.1c1.7,1.7,2.6,4,2.5,6.4c0,2.3-0.8,4.5-2.3,6.2
													c-1.5,1.9-3.8,2.8-7,2.8c-7.1,0-12.1-4.8-14.9-14.3H359v16.5L361.3,236.9z M290.7,186v2.8c2.9,0,4.9,0.3,6,0.9
													c1.1,0.6,1.8,1.6,2,2.8c0.3,3.5,0.4,7.1,0.3,10.6V218c0,6.1-0.1,9.8-0.4,10.9c-0.2,1.1-1,2.1-2,2.6
													c-1.1,0.6-3.1,0.9-5.9,0.9v2.8h25.4v-2.8c-2.9,0-4.9-0.3-6-0.9c-1.1-0.6-1.8-1.6-2-2.9c-0.3-3.5-0.4-7.1-0.3-10.6v-20.5
													c2-3.2,4.6-5.9,7.7-8c2.5-1.7,5.5-2.6,8.5-2.7c2.3-0.1,4.6,0.6,6.5,2c1.5,1.1,2.6,2.7,3.1,4.5c0.5,2.8,0.7,5.6,0.6,8.5
													V218c0,5.6-0.1,9-0.2,10.1c-0.1,1.2-0.7,2.2-1.5,3c-0.9,0.9-2.8,1.3-5.8,1.3h-1.2v2.8h25.6v-2.8c-2.9,0-4.9-0.3-6-0.9
													c-1.1-0.6-1.8-1.6-1.9-2.9c-0.3-3.5-0.4-7.1-0.3-10.6v-15.7c0.1-3.6-0.2-7.1-1.1-10.6c-0.9-2.6-2.6-4.8-5-6.1
													c-3-1.8-6.4-2.7-9.8-2.5c-3.5,0-7,0.9-10.1,2.6c-3.5,2-6.7,4.6-9.2,7.8c0-3.5-0.5-7-1.6-10.4h-1.6
													C300,184.5,295.3,185.4,290.7,186 M247.7,199.7c1.4-9.2,5.9-13.9,13.3-13.9c2.9-0.1,5.7,1,7.7,3c2.1,2,3.1,4.8,3.1,8.4
													c0,0.8-0.1,1.7-0.2,2.5H247.7z M276.7,189.1c-3.6-4-8.7-6-15.2-6c-6.7-0.1-13.1,2.8-17.5,7.9c-4.7,5.2-7,11.8-7,19.8
													c-0.2,5,1.1,9.9,3.6,14.3c2.3,3.8,5.5,6.9,9.3,9.1c7.7,4.4,17.1,4.3,24.7-0.3c3.7-2.2,6.5-5.6,7.8-9.8h-2.9
													c-3.1,6.7-8.3,10-15.8,10c-5.5,0-9.6-2.2-12.3-6.6s-4.1-11.1-4.1-19.9c0-1.2,0.1-3,0.2-5.4h35
													C282.1,197.2,280.1,192.6,276.7,189.1 M208.5,214.5c-4,4.5-10.8,4.9-15.3,0.9c-0.3-0.3-0.6-0.6-0.9-0.9
													c-2.2-2.4-3.2-6.3-3.2-11.6c0-5.7,0.9-9.9,2.8-12.7c1.9-2.8,5.1-4.4,8.5-4.2c3,0,5.9,1.3,8,3.4 M200.1,183.2
													c-5.3-0.1-10.4,1.8-14.3,5.4c-3.8,3.2-6,8-6,13c0,3.5,1,6.9,2.9,9.9c2.3,3.2,5.3,5.9,8.8,7.8
													c-7.5,1.4-11.2,4.8-11.2,10.1c0,2.8,1.5,5.4,3.9,6.8c2.6,1.8,8.3,2.8,17.1,3.2c7.6,0.3,12.9,1.3,15.9,2.9
													c3,1.6,4.5,4.5,4.5,8.6c0,3.7-1.9,7.2-5,9.1c-3.3,2.4-8,3.6-14,3.6c-6.7,0-11.7-1.2-15.1-3.5c-3.4-2.3-5.1-5.3-5.1-8.9
													c0.1-3.3,1.4-6.5,3.8-8.8c-0.6-0.2-1.2-0.3-1.8-0.3c-2.1-0.1-4.2,0.8-5.6,2.4c-1.4,1.7-2.1,3.9-2,6.1
													c0,4.5,2.3,8.2,6.9,11.1c4.6,2.9,10.7,4.4,18.2,4.4c8.3,0,14.6-1.6,19-5c7.2-5.1,8.9-15.1,3.8-22.3
													c-2.2-3.1-5.4-5.3-9.1-6.3c-5.1-1.1-10.2-1.7-15.4-1.9c-6.2-0.3-10.2-0.8-12.1-1.5s-2.9-1.7-2.9-3.2c0-3.2,4.3-5,13-5.3
													c8.3-0.3,14.2-2.3,17.8-6.1c3.4-3.5,5.3-8.1,5.3-13c0-3.8-1.1-7.5-3.2-10.7c1.9-2.1,3.6-3.2,5.1-3.2
													c1,0,1.9,0.8,2.8,2.3c1,1.7,2.1,2.5,3.5,2.5c2.4,0,3.7-1.3,3.7-4c0-1.3-0.6-2.6-1.6-3.5c-1.2-1.1-2.9-1.7-4.6-1.6
													c-3.6,0-7.1,2-10.5,5.9C212.5,185.3,207,183.1,200.1,183.2 M161.1,183.1c-4,1.4-9.6,2.5-16.9,3.2v2.8h1.6
													c1.6-0.1,3.2,0.1,4.8,0.5c1.1,0.5,1.9,1.4,2.2,2.4c0.6,1.3,0.8,4.9,0.8,10.8V218c0,5.6-0.1,9-0.2,10.1
													c-0.1,1.2-0.7,2.2-1.5,3c-0.9,0.8-2.8,1.3-5.7,1.3h-2.1v2.8h27v-2.8h-1.3c-2.6,0-4.4-0.4-5.5-1.1
													c-1-0.7-1.7-1.9-1.8-3.2c-0.2-1.4-0.2-4.8-0.2-10.1v-35h-1.2V183.1z M152.5,162.1c1.2,1.2,2.8,1.9,4.5,1.9
													s3.3-0.7,4.5-1.9c2.4-2.5,2.4-6.6,0-9.1c-1.2-1.2-2.8-1.9-4.5-1.9s-3.3,0.7-4.5,1.9s-1.9,2.8-1.9,4.5
													C150.6,159.3,151.3,160.9,152.5,162.1 M129.4,223.9c-2.6,3.5-5.2,5.8-8,6.9c-3.5,1.2-7.1,1.8-10.8,1.7h-6.2
													c-5.6,0-9-0.9-10.2-2.6c-1.3-1.7-1.9-7.5-1.9-17.4v-19.7h9.1c2.5-0.1,5.1,0.1,7.6,0.7c1.5,0.5,2.8,1.6,3.4,3.1
													c0.8,1.6,1.2,4.7,1.2,9.3h2.9v-28.4h-3c0,4.1-0.3,6.8-0.8,8.2c-0.6,1.5-1.7,2.6-3.2,3.1c-1.6,0.7-4.4,1.1-8.5,1.1h-8.8
													v-34.8h11.6c5.8,0,10,0.3,12.6,0.9c2.7,0.7,5.1,2.3,6.8,4.6c1.9,2.4,3.5,6.5,4.8,12.3h2.9l-2-20.7H69.5v2.8
													c4,0,6.6,0.4,7.9,1.2c1.4,1,2.2,2.5,2.4,4.2c0.5,4.1,0.6,8.3,0.5,12.5v40.7c0,6.9-0.2,11.3-0.5,13
													c-0.3,1.6-1.1,3.1-2.3,4.2c-1.2,1.1-3.9,1.6-8,1.6h-1.7v2.8h68.8l1.8-25.8h-2.9C134,215.6,132,220.4,129.4,223.9"/>
												<path class="st3" d="M649.3,54.5c3.7,5.3,7.7,11.2,12,17.8c-4.9,5.6-10.1,8.4-15.8,8.4c-5.1,0-9.7-2.2-13.7-6.7
													s-6.1-9.2-6.1-14.2c0.1-3.6,1.4-7.2,3.5-10.1c2.6-3.7,6-6.9,9.9-9.2C642.3,44.6,645.7,49.3,649.3,54.5 M637.9,16.8
													c-0.1-2.7,0.8-5.3,2.6-7.3s4.4-3,7.1-2.9c1.4,0,2.8,0.3,4,0.8s2.3,1.3,3.2,2.2c0.9,1,1.6,2.2,2,3.5
													c0.5,1.5,0.7,3,0.7,4.5c0,5.6-4.1,10.7-12.2,15.5C640.3,26.2,637.8,20.7,637.9,16.8 M665.6,37.5
													c6.4,0.7,9.5,3.4,9.5,8.2c-0.2,2.8-0.9,5.6-2,8.2c-1.4,3.6-3.3,7-5.5,10.1c-3.2-4.6-6.5-9.3-10-14
													c-3.4-4.7-7-9.6-10.6-14.5c11.8-5.9,17.6-12,17.6-18.3c0-4-2-7.7-5.3-9.8c-3.5-2.5-7.7-3.8-11.9-3.7
													c-4.6-0.2-9.1,1.7-12.3,5c-3.1,3-4.8,7.1-4.9,11.4c0,5.4,2.4,11.4,7.2,18.1c-8,5.3-13.3,9.7-16.1,13.2
													c-2.9,3.7-4.3,8.3-4.2,12.9c-0.1,3.2,0.5,6.3,1.9,9.2c1.3,2.7,3.1,5.2,5.3,7.2s4.8,3.6,7.5,4.7s5.6,1.6,8.5,1.6
													c8,0,15.6-4,22.8-12c6,8,13,12,21,12c3.5,0.1,6.9-1,9.7-3.1c2.7-2,4.7-4.9,5.5-8.2h-2.9c-2.1,3.6-5,5.4-8.9,5.4
													c-2.9,0-5.6-0.9-8-2.5c-2.5-1.6-5.9-5.6-10.3-11.9c2.5-3.6,4.6-7.4,6.2-11.5c2.7-6.4,5.2-10.7,7.6-12.9
													c2.5-2.3,5.5-3.9,8.7-4.8v-2.8h-26.2L665.6,37.5z M540.7,49.2c1.4-9.2,5.9-13.8,13.3-13.8c2.9-0.1,5.7,1,7.7,3
													c2.1,2,3.2,4.8,3.2,8.4c0,0.8-0.1,1.7-0.2,2.5L540.7,49.2z M569.7,38.6c-3.6-4-8.7-6-15.2-6c-6.7-0.1-13.1,2.8-17.5,7.9
													c-4.7,5.2-7,11.8-7,19.8c-0.2,5,1.1,9.9,3.6,14.3c2.3,3.8,5.5,6.9,9.3,9.1c7.7,4.4,17.1,4.3,24.7-0.3
													c3.8-2.1,6.6-5.6,7.9-9.8h-3c-3.1,6.7-8.4,10-15.8,10c-5.5,0-9.6-2.2-12.3-6.6s-4.1-11.1-4.1-19.9c0-1.2,0.1-3,0.2-5.4
													h35C575.1,46.8,573.1,42.1,569.7,38.6 M513.2,0.6c-2.2,0.8-4.6,1.4-7,1.7c-2.9,0.5-5.8,0.8-8.8,0.9V6
													c3.6,0,5.9,0.7,6.9,2c0.9,1.4,1.4,4.7,1.4,9.9v49.6c0.1,3.5,0,7-0.3,10.5c-0.2,1.2-0.9,2.2-1.9,2.9c-1,0.7-2.8,1-5.2,1
													h-1.7v2.8h26.8V82h-1.5c-2.6,0-4.4-0.4-5.5-1.1c-1-0.7-1.7-1.9-1.8-3.2c-0.1-1.4-0.2-4.8-0.2-10.1v-67L513.2,0.6z
													 M473.9,74c-2.6,2.2-5.5,4.1-8.5,5.7c-2,1.1-4.3,1.8-6.7,1.9c-2,0.1-4-0.8-5.3-2.4c-1.4-1.8-2.1-4-2-6.2
													c0-6.5,5.3-11.9,15.8-16.2l6.7-2.7V74z M486.7,81.6c-1.4,0.2-2.7-0.7-3.2-2s-0.7-4.4-0.7-9.1V50.2
													c0-4.3-0.5-7.5-1.4-9.5c-0.9-2.1-2.8-3.9-5.7-5.6c-2.8-1.6-6.9-2.5-12.1-2.5c-7,0-12.1,1.3-15.4,4s-5,5.2-5,7.5
													c0,2.4,1.2,3.5,3.7,3.5c2.8,0,4.5-2.1,5.1-6.2s4.1-6.2,10.2-6.1c2.6-0.1,5.2,0.5,7.4,1.8c1.6,0.9,2.9,2.4,3.5,4.2
													c0.5,2.5,0.8,5,0.7,7.5v2.4l-9.5,3.9c-7.2,3-12.9,6-17,9.2s-6.2,6.8-6.2,11c-0.1,3,1.3,5.9,3.7,7.8c2.5,2,5.6,3,8.8,2.9
													c3.1-0.1,6.2-0.9,9-2.2c3.9-1.8,7.7-4,11.2-6.6c0.3,2.5,1.4,4.8,3.1,6.6c1.8,1.5,4.2,2.3,6.6,2.2
													c6.5,0,9.9-3.5,10.3-10.5h-2.2C491,79.6,489.3,81.6,486.7,81.6 M339,35.4v2.8c2.8,0,4.8,0.3,5.9,1
													c1.1,0.6,1.8,1.7,1.9,2.9c0.2,1.3,0.3,4.8,0.3,10.5v15c0.1,3.6,0,7.2-0.4,10.8c-0.2,1.1-1,2.1-2,2.7
													c-1.1,0.6-3,0.9-5.7,0.9v2.8h24.5V82c-2.7,0-4.6-0.3-5.7-1s-1.7-1.8-1.8-3.1c-0.2-1.3-0.2-4.8-0.2-10.3V46.7
													c2.3-2.9,5-5.3,8-7.3c2.3-1.5,5-2.4,7.7-2.5c2.4-0.1,4.7,0.7,6.5,2.1c1.6,1.2,2.8,3.1,3.1,5.1c0.4,3.2,0.6,6.4,0.5,9.6
													v13.9c0,6.1-0.1,9.7-0.4,10.9c-0.2,1.1-1,2.1-2,2.6c-1.1,0.6-3,0.9-5.7,0.8v2.8H398V82c-2.6,0-4.4-0.4-5.4-1.1
													c-1-0.8-1.6-1.9-1.7-3.2c-0.1-1.4-0.2-4.7-0.2-10.1V47.8c2.2-3.1,4.9-5.9,8-8.2c2.3-1.7,5.1-2.6,8-2.7
													c2.3-0.1,4.5,0.6,6.4,1.9c1.5,1.1,2.6,2.6,3,4.4c0.5,2.5,0.6,5.1,0.6,7.6v16.7c0.1,3.6,0,7.2-0.4,10.8
													c-0.2,1.2-1,2.2-2,2.7c-1.1,0.6-2.9,0.9-5.6,0.9v2.8h25V82c-2.9,0-4.9-0.3-6-0.9s-1.8-1.6-2-2.8
													c-0.3-3.5-0.4-7.1-0.2-10.6V52.5c0.1-3.7-0.2-7.4-0.9-11.1c-0.6-2.3-2.2-4.3-4.9-6.1c-2.9-1.9-6.4-2.8-9.9-2.7
													c-3.5,0-7,1-10,2.8c-3.7,2.2-6.9,5.1-9.5,8.5c-0.8-3.4-2.7-6.3-5.4-8.5c-2.9-2-6.5-3-10-2.8c-3.6,0-7.1,0.9-10.2,2.6
													c-3.5,2-6.5,4.7-8.9,7.9c0.1-3.6-0.5-7.2-1.8-10.5h-0.6C348.8,34.1,343.9,35,339,35.4 M311.5,37.5
													c3.1,0.1,4.7,1,4.7,2.8c0,2.7-4.3,7-12.8,13l-5.3,3.7V0.6h-1.3c-2.2,0.8-4.5,1.4-6.9,1.7c-2.9,0.5-5.8,0.8-8.7,0.9V6
													c3.5,0,5.7,0.7,6.6,2s1.4,4.4,1.4,9.3v50.3c0,5.6-0.1,9-0.2,10.1s-0.6,2.2-1.5,3s-2.8,1.3-5.7,1.3H280v2.8h25.5V82
													c-2.5,0-4.3-0.4-5.3-1.1c-1-0.8-1.7-1.9-1.8-3.2c-0.1-1.4-0.2-4.7-0.2-10.1v-7.2l2.6-2l12.9,15c2.7,3.2,4.1,5.2,4.1,5.9
													c0,1.7-2.1,2.6-6.2,2.7v2.8h25V82c-1.7-0.1-3.3-0.6-4.8-1.6c-2.4-1.7-4.5-3.8-6.4-6.1l-17.9-20.9
													c4.2-3.3,7.3-5.8,9.3-7.5c6.2-5.5,11.2-8.2,14.9-8.3v-2.8h-20.2V37.5z M254,32.6c-4.9,1.7-9.9,2.9-15.1,3.6V39h1.3
													c2.6,0,4.4,0.4,5.5,1.1c1,0.8,1.7,1.9,1.8,3.2c0.1,1.4,0.2,4.7,0.2,10.1v14.2c0.1,3.5,0,7-0.3,10.5
													c-0.2,1.2-0.9,2.2-1.9,2.9c-1,0.7-2.8,1-5.2,1H239v2.8h26.6V82h-1.7c-2.6,0-4.4-0.4-5.5-1.1c-1-0.7-1.7-1.9-1.8-3.2
													c-0.1-1.4-0.2-4.8-0.2-10.1v-8.9c-0.1-3.6,0.2-7.1,1-10.6c0.9-2.9,2.5-5.4,4.7-7.4c2.4-2.4,4.5-3.6,6.3-3.6
													c1.5,0,2.6,1,3.3,3.1c1.1,3,2.6,4.5,4.6,4.5c1.1,0,2.2-0.5,2.9-1.3c0.8-0.8,1.2-1.9,1.2-3.1c-0.1-1.9-0.9-3.8-2.3-5.1
													c-1.7-1.7-4-2.6-6.4-2.5c-3,0-6,1.2-9.1,3.7c-3,2.4-5.4,5.5-6.8,9.1C255.9,41.1,255.2,36.7,254,32.6 M195.5,49.2
													c1.4-9.2,5.9-13.8,13.3-13.8c2.9-0.1,5.7,1,7.7,3c2.1,2,3.1,4.8,3.1,8.4c0,0.8-0.1,1.7-0.2,2.5L195.5,49.2z M224.5,38.6
													c-3.6-4-8.7-6-15.2-6c-6.7-0.1-13.1,2.8-17.4,7.9c-4.7,5.3-7,11.8-7,19.7c-0.1,5,1.1,9.9,3.6,14.3
													c2.3,3.8,5.5,6.9,9.3,9.1c7.7,4.4,17.1,4.3,24.7-0.3c3.7-2.2,6.5-5.6,7.8-9.8h-2.9c-3.1,6.7-8.4,10-15.8,10
													c-5.5,0-9.6-2.2-12.3-6.6S195,65.9,195,57c0-1.2,0.1-3,0.2-5.4h35C230,46.8,228,42.1,224.5,38.6 M91.6,1.8H66.3v2.8h2.2
													c4.2,0,6.9,0.4,8.2,1.1c1.4,0.9,2.3,2.4,2.4,4c0.4,1.9,0.6,6.2,0.6,12.8v36.1c0,6.9-0.2,11.6-0.7,14.1
													c-0.5,2.6-1.9,4.8-4,6.4c-2.5,1.8-5.5,2.9-8.7,2.9v2.8H96V82c-3.8-0.2-6.8-1.3-8.9-3.1c-2-1.6-3.3-3.8-3.8-6.3
													c-0.5-4.5-0.7-9.1-0.6-13.6V10.4l33.1,74.4h2.9l32.9-74.4v52.8c0,6.9-0.2,11.4-0.6,13.3c-0.3,1.7-1.2,3.2-2.6,4.2
													c-1.4,0.9-3.8,1.4-7.3,1.4h-2.9v2.8h39.7V82h-3.7c-3.8,0-6.3-0.5-7.6-1.5c-1.4-1.1-2.3-2.7-2.5-4.5
													c-0.5-4.3-0.6-8.5-0.6-12.8V22.5c0-6.9,0.2-11.3,0.6-13.1c0.2-1.6,1.2-3,2.5-3.8c1.3-0.7,3.9-1,8-1h3.1V1.8h-25.4
													L122,70.5L91.6,1.8z"/>
												<path class="st12" d="M278.7,36.9l-0.1-0.1c-0.1-0.1-0.2-0.1-0.3-0.2c-0.3-0.2-0.5-0.5-0.8-0.8
													c-0.4-0.2-0.8-0.4-1.2-0.4c-0.6,0-1.2,0-1.8,0.2c-0.2,0-0.5,0.1-0.7,0.2c-0.4,0.3-0.8,0.6-1,1.1c-0.1,0.4-0.1,0.7,0,1.1
													l0.2,0.5c0.1,0.5,0.3,0.9,0.5,1.4s0.4,1,0.6,1.5s0.5,1,0.8,1.4c0.4,0.4,0.9,0.6,1.4,0.6c0.7,0,1.3-0.2,1.9-0.6
													c0.2-0.2,0.4-0.3,0.5-0.5L279,42c0.1-0.2,0.2-0.5,0.2-0.8c0.1-0.8,0.1-1.6-0.1-2.3c-0.1-0.5,0.2-0.8,0-1.3
													c-0.1-0.2,0-0.5-0.1-0.6"/>
												<line class="st12" x1="278.2" y1="37.1" x2="278.2" y2="37.1"/>
												<path class="st0" d="M282.2,199.7c0.1,0.8,0.2,1.6,0.3,2.4h-35l0.2-2.4"/>
												<path class="st3" d="M428.2,234.1c-6,0-10.5-2.2-13.4-6.7c-3-4.4-4.4-10.6-4.4-18.5c0-7.6,1.4-13.3,4.1-17.1
													c2.8-3.8,6.9-5.7,12.3-5.7c3.1,0,5.1,0.5,6.2,1.4s1.8,2.6,2.2,4.9c0.6,3.1,2.2,4.7,5,4.7c1.1,0.1,2.2-0.4,2.9-1.4
													c0.6-0.8,1-1.8,1-2.9c0-2.7-1.8-5-5.5-6.9s-7.8-2.9-11.9-2.9c-7-0.1-13.7,2.7-18.7,7.7c-5.3,5.1-7.9,11.8-7.9,20
													c0,8,2.4,14.4,7.3,19.3c4.7,4.8,11.3,7.4,18,7.3c11.1,0,18-4.8,20.8-14.3h-2.7C441.4,230.4,436.2,234.1,428.2,234.1"/>
												<line class="st13" x1="425.3" y1="170.2" x2="430.2" y2="249"/>
												<path class="st0" d="M358.9,235.3v1.6h2.4c0.2-0.6,0.4-1.1,0.6-1.6 M368.6,235.3c2.4,1.4,5,2.1,7.8,2.1
													c2.8,0.1,5.6-0.6,8.1-2 M388.1,185.3v-1.2h-2.2c-0.2,0.4-0.4,0.9-0.5,1.2 M379.9,185.3c-2.2-1.4-4.7-2.1-7.3-2.1
													c-2.7-0.1-5.3,0.7-7.5,2.1"/>
												<path class="st0" d="M103.8,155.1c5.8,0,10,0.3,12.6,0.9c2.7,0.7,5.1,2.3,6.8,4.6c1.9,2.4,3.5,6.5,4.8,12.3h2.9
													l-1.7-17.9"/>
												<path class="st0" d="M514.5,84.8h8.9V82h-1.5c-2.6,0-4.4-0.4-5.5-1.1c-1-0.7-1.7-1.9-1.8-3.2c-0.1-1.4-0.2-4.8-0.2-10.1
													"/>
												<path class="st0" d="M505.7,67.6c0.1,3.5,0,7-0.3,10.5c-0.2,1.2-0.9,2.2-1.9,2.9c-1,0.7-2.8,1-5.2,1h-1.7v2.8h9.1"/>
												<path class="st0" d="M355.5,38.2c-0.2-1.9-0.7-3.8-1.5-5.6h-0.6c-4.7,1.4-9.5,2.4-14.4,2.8v2.8"/>
												<path class="st3" d="M289.1,77.7c-0.1,1.1-0.6,2.2-1.5,3s-2.8,1.3-5.7,1.3H280v2.8h25.4V82c-2.5,0-4.3-0.4-5.3-1.1
													c-1-0.8-1.7-1.9-1.8-3.2"/>
												<path class="st3" d="M313.6,73.4c2.7,3.2,4.1,5.2,4.1,5.9c0,1.7-2.1,2.6-6.2,2.7v2.8h25V82c-1.7-0.1-3.3-0.6-4.8-1.6
													c-2.4-1.7-4.5-3.8-6.4-6.1"/>
												<path class="st3" d="M316.8,45.8c6.2-5.5,11.2-8.2,14.9-8.3v-2.8h-20.2v2.8c3.1,0.1,4.7,1,4.7,2.8"/>
												<path class="st0" d="M336.5,82c-1.7-0.1-3.3-0.6-4.8-1.6c-2.4-1.8-4.5-3.8-6.4-6.2L332,82H336.5z"/>
												<path class="st0" d="M313.6,73.4c2.7,3.2,4.1,5.2,4.1,5.9c0,1.7-2.1,2.6-6.2,2.7h9.5L313.6,73.4z"/>
												<path class="st0" d="M305.5,82c-2.5,0-4.3-0.4-5.3-1.1c-1-0.8-1.7-1.9-1.8-3.2V82H305.5z"/>
												<path class="st0" d="M289.1,77.7c-0.1,1.1-0.6,2.2-1.5,3s-2.8,1.3-5.7,1.3h7.2V77.7z"/>
												<path class="st12" d="M278.7,36.9l-0.1-0.1c-0.1-0.1-0.2-0.1-0.3-0.2c-0.3-0.2-0.5-0.5-0.8-0.8
													c-0.4-0.2-0.8-0.4-1.2-0.4c-0.6,0-1.2,0-1.8,0.2c-0.2,0-0.5,0.1-0.7,0.2c-0.4,0.3-0.8,0.6-1,1.1c-0.1,0.4-0.1,0.7,0,1.1
													l0.2,0.5c0.1,0.5,0.3,0.9,0.5,1.4s0.4,1,0.6,1.5s0.5,1,0.8,1.4c0.4,0.4,0.9,0.6,1.4,0.6c0.7,0,1.3-0.2,1.9-0.6
													c0.2-0.2,0.4-0.3,0.5-0.5L279,42c0.1-0.2,0.2-0.5,0.2-0.8c0.1-0.8,0.1-1.6-0.1-2.3c-0.1-0.5,0.2-0.8,0-1.3
													c-0.1-0.2,0-0.5-0.1-0.6"/>
												<line class="st12" x1="278.2" y1="37.1" x2="278.2" y2="37.1"/>
												<path class="st0" d="M271.8,40.1c1.1,3,2.6,4.5,4.6,4.5c1.1,0,2.2-0.5,2.9-1.3c0.8-0.8,1.2-1.9,1.2-3.1
													c-0.1-1.9-0.9-3.8-2.3-5.1C276.9,34,270.3,32,271.8,40.1"/>
												<path class="st0" d="M195.5,49.2c1.4-9.2,5.9-13.8,13.3-13.8c2.9-0.1,5.7,1,7.7,3c2.1,2,3.1,4.8,3.1,8.4
													c0,0.8-0.1,1.7-0.2,2.5L195.5,49.2z"/>
												<line class="st4" x1="38.8" y1="25.5" x2="47.1" y2="25.5"/>
												<line class="st4" x1="46.9" y1="2" x2="46.9" y2="25.3"/>
												<text transform="matrix(6.123234e-17 -1 1 6.123234e-17 23.08 150.7998)" class="st3 st7 st8">Durchschuss</text>
												<line class="st14" x1="61" y1="188.6" x2="61" y2="231.7"/>
												<polygon class="st0" points="61,185.3 59.5,189.7 61,188.6 62.6,189.7 												"/>
												<polygon class="st0" points="61,234.9 62.6,230.6 61,231.7 59.5,230.6 												"/>
												<line class="st14" x1="61" y1="238.5" x2="61" y2="262.4"/>
												<polygon class="st0" points="61,235.3 59.5,239.6 61,238.5 62.6,239.6 												"/>
												<polygon class="st0" points="61,265.6 62.6,261.3 61,262.4 59.5,261.3 												"/>
												<line class="st14" x1="43.6" y1="155.8" x2="43.6" y2="231.4"/>
												<polygon class="st0" points="43.6,152.5 42,156.8 43.6,155.8 45.2,156.8 												"/>
												<polygon class="st0" points="43.6,234.6 45.2,230.3 43.6,231.4 42,230.3 												"/>
												<line class="st14" x1="26.2" y1="118.9" x2="26.2" y2="147.8"/>
												<polygon class="st0" points="26.2,115.7 24.6,120 26.2,118.9 27.8,120 												"/>
												<polygon class="st0" points="26.2,151 27.8,146.7 26.2,147.8 24.6,146.7 												"/>
												<rect x="597.2" y="185.2" class="st0" width="11.7" height="2.4"/>
												<rect x="597.2" y="185.2" class="st15" width="11.7" height="2.4"/>
												<path class="st16" d="M509.9,104.8c5.3,0,9.7-4.3,9.7-9.7s-4.3-9.7-9.7-9.7c-5.3,0-9.7,4.3-9.7,9.7l0,0
													C500.2,100.5,504.5,104.8,509.9,104.8L509.9,104.8"/>
												<text transform="matrix(1 0 0 1 507.86 98.05)" class="st3 st7 st17">7</text>
												<path class="st16" d="M306.6,104.8c5.3,0,9.7-4.3,9.7-9.7c0-5.3-4.3-9.7-9.7-9.7c-5.3,0-9.7,4.3-9.7,9.7l0,0
													C296.9,100.5,301.2,104.8,306.6,104.8L306.6,104.8"/>
												<text transform="matrix(1 0 0 1 304.5 98.06)" class="st3 st7 st17">5</text>
												<path class="st16" d="M211.7,74.8c5.3,0,9.7-4.3,9.7-9.7s-4.3-9.7-9.7-9.7c-5.3,0-9.7,4.3-9.7,9.7
													S206.3,74.8,211.7,74.8L211.7,74.8L211.7,74.8"/>
												<text transform="matrix(1 0 0 1 209.62 68.05)" class="st3 st7 st17">3</text>
												<path class="st16" d="M264,28.3c5.3,0,9.7-4.3,9.7-9.7c0-5.3-4.3-9.7-9.7-9.7c-5.3,0-9.7,4.3-9.7,9.7l0,0
													C254.3,24,258.6,28.3,264,28.3L264,28.3"/>
												<text transform="matrix(1 0 0 1 261.79 21.58)" class="st3 st7 st17">4</text>
												<path class="st16" d="M178.8,28.3c5.3,0,9.7-4.3,9.7-9.7s-4.3-9.7-9.7-9.7c-5.3,0-9.7,4.3-9.7,9.7l0,0
													C169.1,24,173.4,28.3,178.8,28.3L178.8,28.3"/>
												<text transform="matrix(1 0 0 1 176.77 21.58)" class="st3 st7 st17">2</text>
												<path class="st16" d="M62.6,28.3c5.3,0,9.7-4.3,9.7-9.7S68,8.9,62.6,8.9s-9.7,4.3-9.7,9.7l0,0
													C52.9,24,57.3,28.3,62.6,28.3L62.6,28.3"/>
												<text transform="matrix(1 0 0 1 60.73 21.58)" class="st3 st7 st17">1</text>
												<path class="st16" d="M43.2,142.5c5.3,0,9.7-4.3,9.7-9.7s-4.3-9.7-9.7-9.7c-5.3,0-9.7,4.3-9.7,9.6
													C33.6,138.1,37.9,142.5,43.2,142.5L43.2,142.5"/>
												<text transform="matrix(1 0 0 1 41.17 135.81)" class="st3 st7 st17">8</text>
												<path class="st16" d="M348.2,28.3c5.3,0,9.7-4.4,9.6-9.7s-4.4-9.7-9.7-9.6c-5.3,0-9.6,4.3-9.6,9.7
													C338.5,24,342.8,28.3,348.2,28.3L348.2,28.3"/>
												<text transform="matrix(1 0 0 1 346.08 21.58)" class="st3 st7 st17">6</text>
												<path class="st16" d="M106.2,178.3c5.3,0,9.7-4.3,9.7-9.7c0-5.3-4.3-9.7-9.7-9.7c-5.3,0-9.7,4.3-9.7,9.7
													S100.8,178.3,106.2,178.3L106.2,178.3"/>
												<text transform="matrix(1 0 0 1 104.06 171.63)" class="st3 st7 st17">9</text>
												<path class="st16" d="M167.2,150.3c5.3,0,9.7-4.3,9.7-9.7s-4.3-9.7-9.7-9.7c-5.3,0-9.7,4.3-9.7,9.7l0,0
													C157.5,145.9,161.8,150.3,167.2,150.3L167.2,150.3"/>
												<text transform="matrix(1 0 0 1 163.09 143.56)" class="st3 st7 st17">10</text>
												<path class="st16" d="M26.9,72.5c5.3,0,9.7-4.3,9.7-9.7s-4.3-9.7-9.7-9.7c-5.3,0-9.7,4.3-9.7,9.6
													C17.2,68.1,21.6,72.5,26.9,72.5L26.9,72.5"/>
												<text transform="matrix(1 0 0 1 22.84 65.81)" class="st3 st7 st17">16</text>
												<path class="st16" d="M260.1,178.3c5.3,0,9.7-4.3,9.7-9.7c0-5.3-4.3-9.7-9.7-9.7c-5.3,0-9.7,4.3-9.7,9.7l0,0
													C250.4,174,254.7,178.3,260.1,178.3L260.1,178.3"/>
												<text transform="matrix(1 0 0 1 258.21 171.63)" class="st3 st7 st17">1</text>
												<path class="st16" d="M378.2,178.3c5.3,0,9.7-4.3,9.7-9.7c0-5.3-4.3-9.7-9.7-9.7c-5.3,0-9.7,4.3-9.7,9.7l0,0
													C368.5,174,372.8,178.3,378.2,178.3L378.2,178.3"/>
												<text transform="matrix(1 0 0 1 374.12 171.63)" class="st3 st7 st17">10</text>
												<path class="st16" d="M604.6,178.2c5.3,0,9.7-4.3,9.7-9.7s-4.3-9.7-9.7-9.7s-9.7,4.3-9.7,9.7l0,0
													C594.9,173.8,599.3,178.2,604.6,178.2L604.6,178.2"/>
												<text transform="matrix(1 0 0 1 600.68 171.43)" class="st3 st7 st17">15</text>
												<path class="st16" d="M734,178.3c5.3,0,9.7-4.3,9.7-9.7s-4.3-9.7-9.7-9.7s-9.7,4.3-9.7,9.7l0,0
													C724.3,174,728.6,178.3,734,178.3L734,178.3"/>
												<text transform="matrix(1 0 0 1 731.88 171.63)" class="st3 st7 st17">3</text>
												<path class="st16" d="M568.9,260.6c5.3,0,9.7-4.3,9.7-9.7c0-5.3-4.3-9.7-9.7-9.7c-5.3,0-9.7,4.3-9.7,9.7l0,0
													C559.2,256.3,563.6,260.6,568.9,260.6L568.9,260.6"/>
												<text transform="matrix(1 0 0 1 564.85 253.91)" class="st3 st7 st17">14</text>
												<path class="st16" d="M417.9,260.6c5.3,0,9.7-4.3,9.7-9.7c0-5.3-4.3-9.7-9.7-9.7c-5.3,0-9.7,4.3-9.7,9.7l0,0
													C408.2,256.3,412.5,260.6,417.9,260.6L417.9,260.6"/>
												<text transform="matrix(1 0 0 1 413.94 253.91)" class="st3 st7 st17">13</text>
												<path class="st16" d="M320.6,260.6c5.3,0,9.7-4.3,9.7-9.7c0-5.3-4.3-9.7-9.7-9.7c-5.3,0-9.7,4.3-9.7,9.7l0,0
													C310.9,256.3,315.2,260.6,320.6,260.6L320.6,260.6"/>
												<text transform="matrix(1 0 0 1 316.71 253.91)" class="st3 st7 st17">12</text>
												<path class="st0" d="M727.5,235.3v-2.8c-2.9,0-4.9-0.3-6-0.9c-1.1-0.6-1.8-1.6-2-2.9c-0.3-3.5-0.4-7.1-0.3-10.6v-20.4
													c2-3.2,4.6-5.9,7.7-8c2.5-1.7,5.5-2.6,8.5-2.7c2.3-0.1,4.6,0.6,6.5,2c1.5,1.1,2.6,2.7,3.1,4.5c0.5,2.8,0.7,5.6,0.6,8.5
													v16.2c0,5.6-0.1,9-0.2,10.1c-0.1,1.2-0.7,2.2-1.5,3c-0.9,0.9-2.8,1.3-5.8,1.3h-1.2v2.8"/>
												<path class="st0" d="M568.2,234.8c2.3-1.7,3.6-4.6,3.8-8.7h-2.2c-0.5,2.9-1.5,4.7-3,5.5"/>
												<line class="st4" x1="38.8" y1="0.7" x2="764" y2="0.2"/>
												<line class="st4" x1="46.7" y1="1.8" x2="764" y2="1.4"/>
												<line class="st4" x1="38.8" y1="34.8" x2="764" y2="34.5"/>
												<line class="st4" x1="0.1" y1="115.5" x2="764" y2="115.5"/>
												<line class="st4" x1="0.1" y1="152.4" x2="764" y2="151.8"/>
												<line class="st4" x1="58" y1="185.2" x2="764" y2="184.9"/>
												<line class="st4" x1="0.1" y1="235.1" x2="764" y2="235.3"/>
												<line class="st4" x1="0.1" y1="265.8" x2="764" y2="266"/>
												<line class="st4" x1="38.8" y1="84.8" x2="764" y2="84.8"/>
												<line class="st4" x1="0.1" y1="151.2" x2="764" y2="150.7"/>
												<line class="st14" x1="61" y1="154.6" x2="61" y2="181.6"/>
												<polygon class="st0" points="61,151.4 59.5,155.7 61,154.6 62.6,155.7 												"/>
												<polygon class="st0" points="61,184.8 62.6,180.5 61,181.6 59.5,180.5 												"/>
												<line class="st14" x1="26.2" y1="154.6" x2="26.2" y2="262.4"/>
												<polygon class="st0" points="26.2,151.4 24.6,155.7 26.2,154.6 27.8,155.7 												"/>
												<polygon class="st0" points="26.2,265.6 27.8,261.3 26.2,262.4 24.6,261.3 												"/>
												<rect x="351.8" y="178.5" class="st0" width="2.7" height="62.7"/>
												<rect x="351.8" y="178.5" class="st15" width="2.7" height="62.7"/>
												<rect x="287" y="178.5" class="st0" width="3" height="62.7"/>
												<rect x="287" y="178.5" class="st15" width="3" height="62.7"/>
											</g>
										</g>
										<g id="n1">
											<path class="st0" d="M727.5,235.3v-2.8c-2.9,0-4.9-0.3-6-0.9c-1.1-0.6-1.8-1.6-2-2.9c-0.3-3.5-0.4-7.1-0.3-10.6v-20.4
												c2-3.2,4.6-5.9,7.7-8c2.5-1.7,5.5-2.6,8.5-2.7c2.3-0.1,4.6,0.6,6.5,2c1.5,1.1,2.6,2.7,3.1,4.5c0.5,2.8,0.7,5.6,0.6,8.5
												v16.2c0,5.6-0.1,9-0.2,10.1c-0.1,1.2-0.7,2.2-1.5,3c-0.9,0.9-2.8,1.3-5.8,1.3h-1.2v2.8"/>
										</g>
										<g id="n2">
											<line id="Zeichenbreite7" class="st4" x1="282.5" y1="178.1" x2="282.5" y2="241.5"/>
											<line id="Zeichenbreite6" class="st4" x1="351.3" y1="178.1" x2="351.3" y2="241.5"/>
											<line id="Zeichenbreite5" class="st4" x1="358.8" y1="178.1" x2="358.8" y2="241.5"/>
											<line id="Zeichenbreite4" class="st4" x1="355" y1="178.1" x2="355" y2="241.5"/>
											<line id="Zeichenbreite3" class="st4" x1="286.5" y1="178.1" x2="286.5" y2="241.5"/>
											<rect id="Zeichenbreite2" x="351.6" y="178.2" class="st0" width="3.1" height="63"/>
											<rect id="Zeichenbreite1" x="286.8" y="178.5" class="st0" width="3.6" height="62.7"/>
										</g>
										<g id="s">
											<path id="Ueberhang2" class="st0" d="M358.9,235.3v1.6h2.4c0.2-0.6,0.4-1.1,0.6-1.6 M368.6,235.3c2.4,1.4,5,2.1,7.8,2.1
												c2.8,0.1,5.6-0.6,8.1-2 M388.1,185.3v-1.2h-2.2c-0.2,0.4-0.4,0.9-0.5,1.2 M379.9,185.3c-2.2-1.4-4.7-2.1-7.3-2.1
												c-2.7-0.1-5.3,0.7-7.5,2.1"/>
										</g>
										<g id="c">
											<line class="st13" x1="425.3" y1="170.2" x2="430.2" y2="249"/>
										</g>
										<g id="a">
											<path class="st0" d="M568.2,234.7c2.3-1.7,3.6-4.6,3.8-8.7h-2.2c-0.5,2.9-1.5,4.7-3,5.5"/>
										</g>
										<g id="ft">
											<rect id="Lingatur" x="597.2" y="185.2" class="st0" width="11.7" height="2.5"/>
										</g>
										<g id="i">
											<path id="Ueberhang1" class="st0" d="M160.4,152.1c-1-0.7-2.2-1-3.4-1s-2.4,0.3-3.4,1"/>
										</g>
										<g id="E">
											<path id="Halbserife" class="st0" d="M103.8,154.9c5.8,0,10,0.3,12.6,0.9c2.7,0.7,5.1,2.3,6.8,4.6
												c1.9,2.4,3.5,6.5,4.8,12.3h2.9l-1.7-17.9"/>
										</g>
										<g id="m">
											<path id="Anstrich" class="st0" d="M355.5,38.2c-0.2-1.9-0.7-3.8-1.5-5.6h-0.6c-4.7,1.4-9.5,2.4-14.4,2.8v2.8"/>
										</g>
										<g id="l">
											<path id="Serife1" class="st0" d="M505.7,67.6c0.1,3.5,0,7-0.3,10.5c-0.2,1.2-0.9,2.2-1.9,2.9c-1,0.7-2.8,1-5.2,1h-1.7
												v2.8h9.1"/>
											<path id="Serife2" class="st0" d="M514.5,84.8h8.9V82h-1.5c-2.6,0-4.4-0.4-5.5-1.1c-1-0.7-1.7-1.9-1.8-3.2
												c-0.1-1.4-0.2-4.8-0.2-10.1"/>
										</g>
										<g id="k">
											<path id="Kehlung4" class="st0" d="M313.6,73.4c2.7,3.2,4.1,5.2,4.1,5.9c0,1.7-2.1,2.6-6.2,2.7h9.5L313.6,73.4z"/>
											<path id="Kehlung3" class="st0" d="M305.5,82c-2.5,0-4.3-0.4-5.3-1.1c-1-0.8-1.7-1.9-1.8-3.2V82H305.5z"/>
											<path id="Kehlung2" class="st0" d="M289.1,77.7c-0.1,1.1-0.6,2.2-1.5,3s-2.8,1.3-5.7,1.3h7.2V77.7z"/>
											<path id="Kehlung1" class="st0" d="M336.5,81.9c-1.7-0.1-3.3-0.6-4.8-1.6c-2.4-1.8-4.5-3.8-6.4-6.2l6.7,7.7L336.5,81.9z"
												/>
										</g>
										<g id="r">
											<path id="Tropfen" class="st0" d="M271.8,40.1c1.1,3,2.6,4.5,4.6,4.5c1.1,0,2.2-0.5,2.9-1.3c0.8-0.8,1.2-1.9,1.2-3.1
												c-0.1-1.9-0.9-3.8-2.3-5.1C276.9,34,270.3,32,271.8,40.1"/>
										</g>
										<g id="e-2">
											<path id="Punze" class="st0" d="M195.5,49.2c1.4-9.2,5.9-13.8,13.3-13.8c2.9-0.1,5.7,1,7.7,3c2.1,2,3.1,4.8,3.1,8.4
												c0,0.8-0.1,1.7-0.2,2.5L195.5,49.2z"/>
										</g>
										<g id="M-2">
											<path id="Grundstrich" class="st0" d="M151.6,10.8v52.8c0.1,4.3-0.1,8.6-0.5,12.8H164c-0.1,0-0.5-6.3-0.5-12.8V22.9
												c-0.1-4,0.1-8.1,0.4-12.1"/>
											<path id="Haarstrich" class="st0" d="M83.3,73c-0.5-4.5-0.7-9.1-0.6-13.6V10.8h-3.3c0.4,4,0.5,8.1,0.4,12.2v36
												c0,6.9-0.2,11.6-0.7,14.1"/>
										</g>
									</g>
								</g>
							</g>
						</g>
					</g>
				</g>
			</g>
		</g>
	</g>
</g>
</svg>
