<?xml version="1.0" encoding="utf-8"?>
<!-- Generator: Adobe Illustrator 21.0.2, SVG Export Plug-In . SVG Version: 6.00 Build 0)  -->
<svg version="1.1" id="Ebene_1" xmlns="http://www.w3.org/2000/svg" xmlns:xlink="http://www.w3.org/1999/xlink" x="0px" y="0px"
	 viewBox="0 0 1024 768" width="1024" height="768"  xml:space="preserve">
<style type="text/css">
	.st0{clip-path:url(#SVGID_2_);}
	.st1{clip-path:url(#SVGID_7_);}
	.st2{clip-path:url(#SVGID_8_);}
	.st3{clip-path:url(#SVGID_9_);}
	.st4{clip-path:url(#SVGID_10_);}
	.st5{opacity:0.8;}
	.st6{clip-path:url(#SVGID_12_);fill:none;stroke:#E5007D;stroke-width:0.5;}
	.st7{clip-path:url(#SVGID_14_);}
	.st8{clip-path:url(#SVGID_16_);fill:none;stroke:#E5007D;stroke-width:0.5;}
	.st9{clip-path:url(#SVGID_18_);}
	.st10{clip-path:url(#SVGID_21_);}
	.st11{clip-path:url(#SVGID_22_);fill:#E5007D;}
	.st12{clip-path:url(#SVGID_22_);fill:none;stroke:#E5007D;stroke-width:0.5;}
	.st13{clip-path:url(#SVGID_24_);}
	.st14{clip-path:url(#SVGID_26_);fill:none;stroke:#E5007D;stroke-width:0.5;}
	.st15{clip-path:url(#SVGID_28_);}
	.st16{clip-path:url(#SVGID_30_);fill:none;stroke:#E5007D;stroke-width:0.5;}
	.st17{clip-path:url(#SVGID_33_);}
	.st18{clip-path:url(#SVGID_34_);}
	.st19{clip-path:url(#SVGID_36_);fill:none;stroke:#000000;}
	.st20{clip-path:url(#SVGID_38_);fill:none;stroke:#000000;}
	.st21{clip-path:url(#SVGID_40_);}
	.st22{clip-path:url(#SVGID_42_);fill:none;stroke:#000000;}
	.st23{clip-path:url(#SVGID_44_);fill:none;stroke:#000000;}
	.st24{clip-path:url(#SVGID_46_);}
	.st25{clip-path:url(#SVGID_48_);}
	.st26{opacity:0.5;}
	.st27{clip-path:url(#SVGID_51_);}
	.st28{clip-path:url(#SVGID_52_);fill:#E5007D;}
	.st29{clip-path:url(#SVGID_52_);fill:none;stroke:#43BDD6;stroke-width:2;}
	.st30{clip-path:url(#SVGID_54_);}
	.st31{clip-path:url(#SVGID_56_);fill:none;stroke:#43BDD6;stroke-width:2;}
	.st32{clip-path:url(#SVGID_58_);}
	.st33{clip-path:url(#SVGID_60_);fill:none;stroke:#43BDD6;stroke-width:2;}
	.st34{clip-path:url(#SVGID_62_);}
	.st35{clip-path:url(#SVGID_64_);fill:none;stroke:#000000;}
	.st36{clip-path:url(#SVGID_66_);}
	.st37{clip-path:url(#SVGID_68_);}
	.st38{fill:none;stroke:#43BDD6;stroke-width:2;}
	.st39{clip-path:url(#SVGID_76_);}
	.st40{clip-path:url(#SVGID_77_);}
	.st41{clip-path:url(#SVGID_78_);}
	.st42{clip-path:url(#SVGID_79_);}
	.st43{clip-path:url(#SVGID_80_);}
	.st44{clip-path:url(#SVGID_81_);}
	.st45{clip-path:url(#SVGID_82_);}
	.st46{clip-path:url(#SVGID_82_);fill:#E5007D;}
	.st47{clip-path:url(#SVGID_88_);}
	.st48{clip-path:url(#SVGID_89_);}
	.st49{clip-path:url(#SVGID_90_);}
	.st50{clip-path:url(#SVGID_91_);}
	.st51{clip-path:url(#SVGID_92_);fill:none;stroke:#000000;}
	.st52{clip-path:url(#SVGID_95_);}
	.st53{clip-path:url(#SVGID_96_);fill:none;stroke:#000000;}
	.st54{clip-path:url(#SVGID_99_);}
	.st55{clip-path:url(#SVGID_100_);fill:none;stroke:#000000;}
	.st56{clip-path:url(#SVGID_124_);}
	.st57{clip-path:url(#SVGID_125_);}
	.st58{clip-path:url(#SVGID_126_);}
	.st59{clip-path:url(#SVGID_127_);}
	.st60{clip-path:url(#SVGID_128_);}
	.st61{clip-path:url(#SVGID_129_);}
	.st62{clip-path:url(#SVGID_130_);}
	.st63{clip-path:url(#SVGID_131_);}
	.st64{clip-path:url(#SVGID_132_);}
	.st65{clip-path:url(#SVGID_133_);}
	.st66{clip-path:url(#SVGID_134_);}
	.st67{clip-path:url(#SVGID_135_);}
	.st68{clip-path:url(#SVGID_136_);}
	.st69{clip-path:url(#SVGID_137_);}
	.st70{clip-path:url(#SVGID_138_);}
	.st71{clip-path:url(#SVGID_139_);}
	.st72{clip-path:url(#SVGID_140_);}
	.st73{clip-path:url(#SVGID_141_);}
	.st74{clip-path:url(#SVGID_142_);}
	.st75{clip-path:url(#SVGID_143_);}
	.st76{clip-path:url(#SVGID_144_);}
	.st77{clip-path:url(#SVGID_145_);}
	.st78{clip-path:url(#SVGID_146_);fill:none;stroke:#000000;}
	.st79{fill:none;}
</style>
<g>
	<g>
		<defs>
			<rect id="SVGID_1_" y="96" width="1024" height="576"/>
		</defs>
		<clipPath id="SVGID_2_">
			<use xlink:href="#SVGID_1_"  style="overflow:visible;"/>
		</clipPath>
		<g class="st0">
			<g>
				<defs>
					<rect id="SVGID_3_" y="96" width="1024" height="576"/>
				</defs>
				<defs>
					<rect id="SVGID_4_" y="96" width="1024" height="576"/>
				</defs>
				<defs>
					<rect id="SVGID_5_" y="96" width="1024" height="576"/>
				</defs>
				<defs>
					<rect id="SVGID_6_" y="96" width="1024" height="576"/>
				</defs>
				<clipPath id="SVGID_7_">
					<use xlink:href="#SVGID_3_"  style="overflow:visible;"/>
				</clipPath>
				<clipPath id="SVGID_8_" class="st1">
					<use xlink:href="#SVGID_4_"  style="overflow:visible;"/>
				</clipPath>
				<clipPath id="SVGID_9_" class="st2">
					<use xlink:href="#SVGID_5_"  style="overflow:visible;"/>
				</clipPath>
				<clipPath id="SVGID_10_" class="st3">
					<use xlink:href="#SVGID_6_"  style="overflow:visible;"/>
				</clipPath>
				<path class="st4" d="M476.4,430.9c0.9-2.9,2-5.1,3.4-6.7c4.5,4.8,9.8,7.2,15.6,7.2c5.5,0,10.1-1.7,13.8-5.2s5.4-7.9,5.4-13.5
					c0-3.5-1-7.2-2.9-11c-2-3.8-7.4-7.6-16.1-11.6c-5.8-2.6-9.8-5-11.8-7c-2.1-2-3.2-4.4-3.2-7.2c0-2.5,1-4.7,2.9-6.7
					c1.9-1.9,4.4-2.9,7.5-2.9c4.1,0,7.5,1.7,10.5,5.1c3,3.4,5,7.4,6,12.1h2.9v-19.6h-2.9c-1.2,3-2.2,4.9-3,5.7
					c-3.6-4.5-8.2-6.7-13.7-6.7c-5.4,0-9.7,1.9-12.6,5.7c-3,3.8-4.5,7.8-4.5,11.9c0,4.4,1.4,8.1,4.2,11.1c2.8,3,7.4,6.1,13.8,9.3
					c6.1,3,10.2,5.5,12.3,7.7c2.1,2.1,3.1,4.9,3.1,8.2c0,2.8-1,5.4-2.9,7.8c-1.9,2.4-4.9,3.6-8.8,3.6c-9.1,0-15.3-6-18.8-18.1h-3
					v20.9H476.4z M387.1,366.4v3.6c3.7,0,6.2,0.4,7.6,1.2s2.2,2,2.5,3.6c0.3,1.6,0.4,6.1,0.4,13.4v18.9c0,7.7-0.2,12.4-0.5,13.8
					c-0.3,1.5-1.2,2.6-2.6,3.3c-1.4,0.7-3.9,1.1-7.4,1.1v3.6h32.1v-3.6c-3.7,0-6.2-0.4-7.6-1.2c-1.4-0.8-2.2-2-2.5-3.6
					c-0.3-1.6-0.4-6.1-0.4-13.4v-25.9c3-4.5,6.3-7.8,9.7-10.1c3.4-2.2,7-3.4,10.8-3.4c3.3,0,6,0.8,8.2,2.5c2.1,1.7,3.5,3.6,3.9,5.7
					s0.7,5.7,0.7,10.7v20.5c0,7.1-0.1,11.4-0.2,12.8s-0.8,2.7-1.9,3.8c-1.1,1.1-3.6,1.7-7.3,1.7h-1.5v3.6h32.5v-3.6
					c-3.7,0-6.2-0.4-7.6-1.2c-1.4-0.8-2.2-2-2.5-3.6c-0.3-1.6-0.4-6.1-0.4-13.4v-19.8c0-5.9-0.5-10.3-1.4-13.4
					c-0.9-3.1-3-5.7-6.2-7.8s-7.4-3.2-12.4-3.2c-4.4,0-8.7,1.1-12.8,3.3c-4.1,2.2-8,5.4-11.7,9.9c-0.2-5.5-0.9-9.9-2-13.1h-2.1
					C398.6,364.6,392.7,365.8,387.1,366.4 M332.7,383.8c1.8-11.7,7.4-17.5,16.8-17.5c3.9,0,7.1,1.2,9.8,3.7c2.7,2.5,4,6,4,10.6
					c0,0.9-0.1,2-0.2,3.2H332.7z M369.4,370.5c-4.5-5.1-11-7.6-19.3-7.6c-8.9,0-16.2,3.3-22.1,10c-5.9,6.6-8.9,15-8.9,25
					c0,7.1,1.5,13.1,4.6,18.1c3,5,7,8.8,11.7,11.5c4.8,2.7,9.9,4.1,15.2,4.1c5.8,0,11.1-1.5,16.1-4.5c4.9-3,8.2-7.1,9.9-12.4h-3.7
					c-3.9,8.4-10.6,12.6-20,12.6c-6.9,0-12.1-2.8-15.6-8.4c-3.5-5.6-5.2-14-5.2-25.1c0-1.5,0.1-3.8,0.3-6.8h44.3
					C376.4,381,374,375.5,369.4,370.5"/>
				<path class="st4" d="M376.3,383.8c0.2,1,0.3,2,0.3,3.1h-44.1h-0.2l0.3-3.1"/>
				<path class="st4" d="M473.4,428.9v2h3c0.2-0.7,0.5-1.4,0.7-2.1 M485.7,428.8c3,1.7,6.3,2.6,9.8,2.6c3.9,0,7.3-0.9,10.3-2.6
					 M510.3,365.5v-1.5h-2.9c-0.2,0.6-0.5,1.1-0.7,1.6 M500,365.5c-2.7-1.8-5.8-2.7-9.3-2.7c-3.7,0-6.9,0.9-9.5,2.7"/>
				<g class="st4">
					<g class="st5">
						<g>
							<defs>
								<rect id="SVGID_11_" x="981.3" y="127.7" width="9.6" height="4.3"/>
							</defs>
							<clipPath id="SVGID_12_">
								<use xlink:href="#SVGID_11_"  style="overflow:visible;"/>
							</clipPath>
							<path class="st6" d="M986.1,131.4"/>
						</g>
					</g>
					<g>
						<defs>
							<rect id="SVGID_13_" y="96" width="1024" height="576"/>
						</defs>
						<clipPath id="SVGID_14_">
							<use xlink:href="#SVGID_13_"  style="overflow:visible;"/>
						</clipPath>
						<g class="st7">
							<g class="st5">
								<g>
									<defs>
										<rect id="SVGID_15_" x="981.3" y="129.1" width="9.6" height="4.3"/>
									</defs>
									<clipPath id="SVGID_16_">
										<use xlink:href="#SVGID_15_"  style="overflow:visible;"/>
									</clipPath>
									<path class="st8" d="M986.1,132.8"/>
								</g>
							</g>
							<g>
								<defs>
									<rect id="SVGID_17_" y="96" width="1024" height="576"/>
								</defs>
								<clipPath id="SVGID_18_">
									<use xlink:href="#SVGID_17_"  style="overflow:visible;"/>
								</clipPath>
								<g class="st9">
									<g class="st5">
										<g>
											<defs>
												<rect id="SVGID_19_" x="981.3" y="171" width="9.6" height="4.3"/>
											</defs>
											<defs>
												<rect id="SVGID_20_" x="981.3" y="171" width="9.6" height="4.3"/>
											</defs>
											<clipPath id="SVGID_21_">
												<use xlink:href="#SVGID_19_"  style="overflow:visible;"/>
											</clipPath>
											<clipPath id="SVGID_22_" class="st10">
												<use xlink:href="#SVGID_20_"  style="overflow:visible;"/>
											</clipPath>
											<path class="st11" d="M986.1,174.8"/>
											<path class="st12" d="M986.1,174.8"/>
										</g>
									</g>
									<g>
										<defs>
											<rect id="SVGID_23_" y="96" width="1024" height="576"/>
										</defs>
										<clipPath id="SVGID_24_">
											<use xlink:href="#SVGID_23_"  style="overflow:visible;"/>
										</clipPath>
										<g class="st13">
											<g class="st5">
												<g>
													<defs>
														<rect id="SVGID_25_" x="981.3" y="273.5" width="9.6" height="4.3"/>
													</defs>
													<clipPath id="SVGID_26_">
														<use xlink:href="#SVGID_25_"  style="overflow:visible;"/>
													</clipPath>
													<path class="st14" d="M986.1,277.3"/>
												</g>
											</g>
											<g>
												<defs>
													<rect id="SVGID_27_" y="96" width="1024" height="576"/>
												</defs>
												<clipPath id="SVGID_28_">
													<use xlink:href="#SVGID_27_"  style="overflow:visible;"/>
												</clipPath>
												<g class="st15">
													<g class="st5">
														<g>
															<defs>
																<rect id="SVGID_29_" x="981.3" y="234.8" width="9.6" height="4.3"/>
															</defs>
															<clipPath id="SVGID_30_">
																<use xlink:href="#SVGID_29_"  style="overflow:visible;"/>
															</clipPath>
															<path class="st16" d="M986.1,238.5"/>
														</g>
													</g>
													<g>
														<defs>
															<rect id="SVGID_31_" y="96" width="1024" height="576"/>
														</defs>
														<defs>
															<rect id="SVGID_32_" y="96" width="1024" height="576"/>
														</defs>
														<clipPath id="SVGID_33_">
															<use xlink:href="#SVGID_31_"  style="overflow:visible;"/>
														</clipPath>
														<clipPath id="SVGID_34_" class="st17">
															<use xlink:href="#SVGID_32_"  style="overflow:visible;"/>
														</clipPath>
														<path class="st18" d="M907.7,366.4v3.6c3.7,0,6.2,0.4,7.6,1.2c1.4,0.8,2.2,2,2.5,3.6s0.4,6.1,0.4,13.4v18.9
															c0,7.7-0.2,12.4-0.5,13.8c-0.3,1.5-1.2,2.6-2.6,3.3s-3.9,1.1-7.4,1.1v3.6h32.1v-3.6c-3.7,0-6.2-0.4-7.6-1.2
															c-1.4-0.8-2.2-2-2.5-3.6c-0.3-1.6-0.4-6.1-0.4-13.4v-25.9c3-4.5,6.3-7.8,9.7-10.1c3.4-2.2,7-3.4,10.8-3.4
															c3.3,0,6,0.8,8.2,2.5c2.1,1.7,3.5,3.6,3.9,5.7c0.5,2.1,0.7,5.7,0.7,10.7v20.5c0,7.1-0.1,11.4-0.2,12.8
															c-0.2,1.4-0.8,2.7-1.9,3.8c-1.1,1.1-3.6,1.7-7.3,1.7h-1.5v3.6h32.5v-3.6c-3.7,0-6.2-0.4-7.6-1.2
															c-1.4-0.8-2.2-2-2.5-3.6c-0.3-1.6-0.4-6.1-0.4-13.4v-19.8c0-5.9-0.5-10.3-1.4-13.4c-0.9-3.1-3-5.7-6.2-7.8
															c-3.3-2.1-7.4-3.2-12.4-3.2c-4.4,0-8.7,1.1-12.8,3.3c-4.1,2.2-8,5.4-11.7,9.9c-0.2-5.5-0.9-9.9-2-13.1h-2.1
															C919.3,364.6,913.4,365.8,907.7,366.4 M853.3,383.8c1.8-11.7,7.4-17.5,16.8-17.5c3.9,0,7.1,1.2,9.8,3.7s4,6,4,10.6
															c0,0.9-0.1,2-0.2,3.2H853.3z M890.1,370.5c-4.5-5.1-11-7.6-19.3-7.6c-8.9,0-16.2,3.3-22.1,10c-5.9,6.6-8.9,15-8.9,25
															c0,7.1,1.5,13.1,4.6,18.1c3,5,7,8.8,11.7,11.5c4.8,2.7,9.9,4.1,15.3,4.1c5.8,0,11.1-1.5,16.1-4.5
															c4.9-3,8.2-7.1,9.9-12.4h-3.7c-3.9,8.4-10.6,12.6-20,12.6c-6.9,0-12.1-2.8-15.6-8.4c-3.5-5.6-5.2-14-5.2-25.1
															c0-1.5,0.1-3.8,0.3-6.8h44.3C897,381,894.6,375.5,890.1,370.5 M831.2,365.4h-19.1v-19.9h-2.5
															c-0.9,6.2-3.1,11.1-6.5,14.6s-7.1,5.2-11.4,5.3v3.6h9.2v35.9c0,7.4,0.4,12.5,1.1,15.5c0.7,3,2.5,5.5,5.3,7.7
															c2.8,2.2,6.1,3.3,9.8,3.3c3.2,0,6.3-0.9,9.5-2.6c3.1-1.7,5.5-4.3,7.1-7.7l-2.5-1.5c-2.7,4.2-6,6.3-9.7,6.3
															c-1.9,0-3.7-0.6-5.4-1.9s-2.8-2.9-3.3-4.9c-0.5-2-0.8-6-0.8-11.9V369h19.1v-3.6H831.2z M770,365.4v-4.8
															c0-11.6,0.2-19.1,0.7-22.6c0.5-3.5,1.9-6.5,4.4-8.8c2.5-2.3,5.3-3.5,8.6-3.5c4.1,0,7.3,2.3,9.9,7
															c2.3,4.2,4.8,6.3,7.5,6.3c1.4,0,2.6-0.5,3.6-1.5c1-1,1.5-2.2,1.5-3.7c0-2.6-1.8-5.2-5.5-7.7
															c-3.7-2.5-8.5-3.8-14.7-3.8c-5,0-9.3,1-13,3c-3.6,2-6.7,4.9-9.1,8.6c-2.4,3.7-3.8,7.4-4.4,10.9
															c-0.5,3.5-0.8,8.5-0.8,14.9v5.8H747v3.6h11.8v38.1c0,7.7-0.2,12.4-0.5,13.8c-0.3,1.5-1.2,2.6-2.6,3.3
															c-1.4,0.7-3.8,1.1-7.4,1.1v3.6h34.3v-3.6h-3.3c-3.3,0-5.6-0.5-6.9-1.4c-1.3-0.9-2-2.3-2.2-4.1
															c-0.2-1.8-0.3-6-0.3-12.8V369h23v-3.6L770,365.4L770,365.4z M717.7,415.2c-4,3.2-7.6,5.6-10.8,7.2s-6,2.4-8.4,2.4
															c-2.7,0-5-1-6.7-3c-1.7-2-2.6-4.6-2.6-7.8c0-8.2,6.7-15,20-20.5l8.4-3.4V415.2z M733.8,424.9c-2.1,0-3.4-0.9-4.1-2.6
															c-0.6-1.7-0.9-5.5-0.9-11.5v-25.7c0-5.4-0.6-9.4-1.8-12.1c-1.2-2.6-3.6-5-7.1-7c-3.6-2.1-8.7-3.1-15.3-3.1
															c-8.9,0-15.4,1.7-19.5,5.1c-4.2,3.4-6.3,6.6-6.3,9.5c0,3,1.6,4.5,4.7,4.5c3.5,0,5.7-2.6,6.5-7.9
															c0.9-5.2,5.2-7.7,13-7.7c3.9,0,7,0.8,9.4,2.3c2.4,1.5,3.8,3.3,4.4,5.3c0.6,2,0.9,5.1,0.9,9.5v3.1l-12,4.9
															c-9.1,3.8-16.3,7.6-21.5,11.6c-5.2,4-7.8,8.6-7.8,14c0,4.1,1.5,7.4,4.6,9.9s6.8,3.7,11.1,3.7c3.4,0,7.1-0.9,11.4-2.8
															s9-4.6,14.1-8.3c0.6,3.7,2,6.5,4,8.3c2,1.9,4.8,2.8,8.3,2.8c8.2,0,12.5-4.4,13-13.2h-2.9
															C739.3,422.3,737.2,424.9,733.8,424.9 M611.8,322.3h-1.7c-5.3,2.2-12,3.3-20,3.3v3.6c4.6,0,7.5,0.9,8.7,2.6
															c1.2,1.7,1.8,5.8,1.8,12.2v63.3c0,7.1-0.1,11.4-0.3,12.8c-0.2,1.5-0.9,2.7-1.9,3.8c-1.1,1.1-3.5,1.6-7.3,1.6h-1.7v3.6
															h32.2v-3.6c-3.6,0-6-0.4-7.4-1.3c-1.3-0.9-2.1-2.1-2.3-3.7c-0.2-1.7-0.4-6-0.4-13.2v-25.4c2.5-4.7,5.2-8.2,8.4-10.6
															c3.2-2.3,6.8-3.5,10.8-3.5c3.5,0,6.3,0.9,8.6,2.5c2.3,1.7,3.7,3.7,4.4,6.3c0.6,2.5,0.9,6.5,0.9,11.7v19
															c0,7-0.1,11.3-0.3,12.7c-0.2,1.5-0.9,2.8-1.9,3.8c-1.1,1.1-3.6,1.7-7.3,1.7h-1.5v3.6h32.8v-3.6
															c-3.8,0-6.3-0.4-7.7-1.1c-1.4-0.7-2.2-1.9-2.5-3.5c-0.3-1.6-0.4-6.1-0.4-13.5v-17.5c0-7.1-0.5-12.3-1.5-15.5
															c-1-3.2-3.3-5.9-6.7-8c-3.4-2.2-7.8-3.3-13-3.3c-4.6,0-8.8,1.1-12.7,3.3c-3.8,2.2-7.3,5.4-10.4,9.8v-53.6H611.8z
															 M561.1,427.3c-7.6,0-13.3-2.8-17-8.4c-3.7-5.7-5.6-13.4-5.6-23.4c0-9.7,1.8-16.9,5.2-21.7s8.7-7.2,15.6-7.2
															c3.9,0,6.5,0.6,7.8,1.8c1.3,1.2,2.2,3.3,2.9,6.3c0.8,4,2.9,6,6.3,6c1.6,0,2.8-0.6,3.7-1.7c0.9-1.1,1.3-2.3,1.3-3.6
															c0-3.5-2.3-6.4-6.9-8.8s-9.7-3.6-15.1-3.6c-9.1,0-17,3.3-23.6,9.7c-6.7,6.5-10,14.9-10,25.3c0,10.1,3.1,18.2,9.3,24.4
															c6.2,6.1,13.8,9.2,22.8,9.2c14,0,22.8-6,26.3-18.1h-3.4C577.8,422.7,571.3,427.3,561.1,427.3 M476.4,430.9
															c0.9-2.9,2-5.1,3.4-6.7c4.5,4.8,9.8,7.2,15.6,7.2c5.5,0,10.1-1.7,13.8-5.2s5.4-7.9,5.4-13.5c0-3.5-1-7.2-2.9-11
															c-2-3.8-7.4-7.6-16.1-11.6c-5.8-2.6-9.8-5-11.8-7c-2.1-2-3.2-4.4-3.2-7.2c0-2.5,1-4.7,2.9-6.7
															c1.9-1.9,4.4-2.9,7.5-2.9c4.1,0,7.5,1.7,10.5,5.1c3,3.4,5,7.4,6,12.1h2.9v-19.6h-2.9c-1.2,3-2.2,4.9-3,5.7
															c-3.6-4.5-8.2-6.7-13.7-6.7c-5.4,0-9.7,1.9-12.6,5.7c-3,3.8-4.5,7.8-4.5,11.9c0,4.4,1.4,8.1,4.2,11.1
															c2.8,3,7.4,6.1,13.8,9.3c6.1,3,10.2,5.5,12.3,7.7c2.1,2.1,3.1,4.9,3.1,8.2c0,2.8-1,5.4-2.9,7.8
															c-1.9,2.4-4.9,3.6-8.8,3.6c-9.1,0-15.3-6-18.8-18.1h-3v20.9H476.4z M387.1,366.4v3.6c3.7,0,6.2,0.4,7.6,1.2
															s2.2,2,2.5,3.6c0.3,1.6,0.4,6.1,0.4,13.4v18.9c0,7.7-0.2,12.4-0.5,13.8c-0.3,1.5-1.2,2.6-2.6,3.3
															c-1.4,0.7-3.9,1.1-7.4,1.1v3.6h32.1v-3.6c-3.7,0-6.2-0.4-7.6-1.2c-1.4-0.8-2.2-2-2.5-3.6c-0.3-1.6-0.4-6.1-0.4-13.4
															v-25.9c3-4.5,6.3-7.8,9.7-10.1c3.4-2.2,7-3.4,10.8-3.4c3.3,0,6,0.8,8.2,2.5c2.1,1.7,3.5,3.6,3.9,5.7s0.7,5.7,0.7,10.7
															v20.5c0,7.1-0.1,11.4-0.2,12.8s-0.8,2.7-1.9,3.8c-1.1,1.1-3.6,1.7-7.3,1.7h-1.5v3.6h32.5v-3.6c-3.7,0-6.2-0.4-7.6-1.2
															c-1.4-0.8-2.2-2-2.5-3.6c-0.3-1.6-0.4-6.1-0.4-13.4v-19.8c0-5.9-0.5-10.3-1.4-13.4c-0.9-3.1-3-5.7-6.2-7.8
															s-7.4-3.2-12.4-3.2c-4.4,0-8.7,1.1-12.8,3.3c-4.1,2.2-8,5.4-11.7,9.9c-0.2-5.5-0.9-9.9-2-13.1h-2.1
															C398.6,364.6,392.7,365.8,387.1,366.4 M332.7,383.8c1.8-11.7,7.4-17.5,16.8-17.5c3.9,0,7.1,1.2,9.8,3.7
															c2.7,2.5,4,6,4,10.6c0,0.9-0.1,2-0.2,3.2H332.7z M369.4,370.5c-4.5-5.1-11-7.6-19.3-7.6c-8.9,0-16.2,3.3-22.1,10
															c-5.9,6.6-8.9,15-8.9,25c0,7.1,1.5,13.1,4.6,18.1c3,5,7,8.8,11.7,11.5c4.8,2.7,9.9,4.1,15.2,4.1
															c5.8,0,11.1-1.5,16.1-4.5c4.9-3,8.2-7.1,9.9-12.4h-3.7c-3.9,8.4-10.6,12.6-20,12.6c-6.9,0-12.1-2.8-15.6-8.4
															c-3.5-5.6-5.2-14-5.2-25.1c0-1.5,0.1-3.8,0.3-6.8h44.3C376.4,381,374,375.5,369.4,370.5 M283,402.6
															c-2.8,3.1-6.2,4.6-10.1,4.6c-4.2,0-7.7-1.5-10.5-4.6s-4.1-8-4.1-14.7c0-7.2,1.2-12.5,3.6-16.1s5.9-5.3,10.7-5.3
															c3.8,0,7.1,1.4,10.1,4.3 M272.5,362.8c-7,0-13,2.2-18.1,6.8c-5.1,4.5-7.6,10-7.6,16.5c0,4.6,1.2,8.7,3.7,12.5
															c2.5,3.7,6.2,7,11.1,9.9c-9.4,1.8-14.2,6-14.2,12.8c0,3.5,1.7,6.4,5,8.6c3.3,2.3,10.5,3.6,21.6,4.1
															c9.7,0.4,16.4,1.7,20.2,3.7c3.8,2.1,5.7,5.8,5.7,10.9c0,4.7-2.1,8.6-6.3,11.6c-4.2,3-10.1,4.5-17.7,4.5
															c-8.5,0-14.8-1.5-19.1-4.5c-4.3-3-6.4-6.7-6.4-11.3c0-3.9,1.6-7.6,4.8-11.1c-0.7-0.3-1.4-0.4-2.2-0.4c-3,0-5.4,1-7,3
															c-1.7,2-2.5,4.6-2.5,7.7c0,5.7,2.9,10.4,8.7,14.1c5.8,3.7,13.5,5.6,23.1,5.6c10.5,0,18.5-2.1,24.1-6.3
															c5.6-4.2,8.4-9.7,8.4-16.5c0-4.9-1.4-9.1-4.1-12.5c-2.7-3.5-6.4-5.9-11-7c-4.6-1.2-11.1-2-19.7-2.3
															c-7.8-0.4-12.9-1-15.4-1.9c-2.5-0.8-3.7-2.1-3.7-4.1c0-4.1,5.5-6.3,16.4-6.7c10.6-0.4,18-2.9,22.5-7.7
															c4.4-4.7,6.7-10.2,6.7-16.4c0-4.7-1.3-9.2-4.1-13.5c2.4-2.7,4.5-4.1,6.5-4.1c1.2,0,2.5,1,3.6,2.9
															c1.2,2.1,2.7,3.2,4.4,3.2c3.1,0,4.6-1.7,4.6-5.1c0-1.6-0.7-3.1-2.1-4.4c-1.4-1.3-3.3-2-5.8-2c-4.5,0-9,2.5-13.3,7.4
															C288.1,365.5,281.1,362.8,272.5,362.8 M223,362.8c-5.1,1.8-12.2,3.2-21.4,4.1v3.6h2.1c2.9,0,4.9,0.2,6.1,0.6
															c1.2,0.4,2.1,1.4,2.8,3.1c0.7,1.7,1.1,6.2,1.1,13.7v19.2c0,7.1-0.1,11.4-0.3,12.8c-0.2,1.5-0.8,2.7-1.9,3.8
															c-1.1,1.1-3.5,1.6-7.1,1.6h-2.6v3.6h34.2v-3.6h-1.7c-3.3,0-5.6-0.5-6.9-1.4c-1.3-0.9-2-2.3-2.2-4.1
															c-0.2-1.8-0.3-6-0.3-12.8v-44.3L223,362.8L223,362.8z M212.2,336.3c1.6,1.6,3.5,2.4,5.7,2.4s4.1-0.8,5.7-2.4
															c1.5-1.6,2.3-3.5,2.3-5.8c0-2.2-0.8-4.1-2.3-5.8c-1.5-1.6-3.4-2.4-5.7-2.4s-4.1,0.8-5.7,2.4s-2.3,3.5-2.3,5.8
															C209.8,332.7,210.6,334.7,212.2,336.3 M182.9,414.4c-3.3,4.4-6.6,7.4-10.2,8.7c-3.6,1.4-8.1,2.1-13.7,2.1h-7.8
															c-7,0-11.4-1.1-13-3.3c-1.6-2.2-2.4-9.5-2.4-22v-24.9h11.5c4.5,0,7.7,0.3,9.5,0.9c1.9,0.6,3.3,1.9,4.3,3.9
															c1,2,1.5,5.9,1.5,11.7h3.6v-35.9h-3.6c0,5.2-0.3,8.6-1,10.4c-0.6,1.8-2,3.1-4.1,4c-2,0.9-5.6,1.3-10.7,1.3h-11.1
															v-44.1h14.6c7.4,0,12.6,0.4,15.9,1.2c3.3,0.8,6.2,2.7,8.6,5.8s4.4,8.3,6.1,15.6h3.6l-2.5-26.2h-75v3.6
															c5.1,0,8.4,0.5,10,1.5s2.6,2.8,3,5.3c0.4,2.5,0.6,7.8,0.6,15.8v51.5c0,8.8-0.2,14.2-0.6,16.4
															c-0.4,2.1-1.4,3.9-2.9,5.3c-1.5,1.4-4.9,2.1-10.1,2.1H105v3.6h87l2.2-32.7h-3.7C188.7,403.9,186.2,410,182.9,414.4"/>
														<path class="st18" d="M840.9,200.1c4.6,6.7,9.7,14.2,15.2,22.5c-6.1,7.1-12.8,10.6-19.9,10.6
															c-6.5,0-12.3-2.8-17.3-8.4c-5.1-5.7-7.7-11.6-7.7-18.1c0-4.1,1.5-8.3,4.4-12.8c2.9-4.4,7.1-8.3,12.5-11.6
															C832,187.5,836.3,193.4,840.9,200.1 M826.5,152.3c0-3.7,1.1-6.8,3.3-9.2c2.2-2.5,5.2-3.7,9-3.7c1.9,0,3.6,0.3,5.1,1
															c1.5,0.7,2.9,1.7,4,2.9c1.1,1.2,2,2.7,2.6,4.5c0.6,1.7,0.9,3.6,0.9,5.7c0,7-5.2,13.5-15.5,19.6
															C829.5,164.2,826.5,157.3,826.5,152.3 M861.4,178.5c8.1,0.9,12.1,4.4,12.1,10.3c0,2.5-0.9,6-2.6,10.4
															c-1.7,4.4-4.1,8.7-7,12.8c-4.1-5.8-8.3-11.7-12.6-17.8c-4.3-6-8.8-12.1-13.4-18.3c14.9-7.5,22.3-15.2,22.3-23.1
															c0-5.1-2.2-9.2-6.7-12.4c-4.4-3.1-9.5-4.7-15.1-4.7c-6.3,0-11.5,2.1-15.6,6.3c-4.2,4.2-6.2,9-6.2,14.3
															c0,6.8,3,14.5,9.1,22.9c-10.1,6.8-16.9,12.4-20.4,16.7c-3.5,4.4-5.3,9.9-5.3,16.4c-0.1,4.2,0.7,8.1,2.4,11.7
															c1.7,3.5,3.9,6.6,6.7,9.1c2.8,2.6,6,4.5,9.5,5.9c3.6,1.4,7.2,2.1,10.8,2c10.2,0,19.8-5.1,28.8-15.2
															c7.6,10.1,16.5,15.2,26.6,15.2c4.6,0,8.7-1.3,12.3-3.9c3.6-2.6,5.9-6.1,7-10.3h-3.6c-2.6,4.6-6.4,6.9-11.3,6.9
															c-3.5,0-6.9-1.1-10.1-3.2c-3.1-2.1-7.5-7.1-13-15c2.3-3,4.9-7.9,7.7-14.6c3.4-8.1,6.6-13.5,9.6-16.4
															c3.2-2.9,6.9-4.9,11-6v-3.6h-33.2L861.4,178.5L861.4,178.5z M703.5,193.3c1.8-11.7,7.4-17.5,16.8-17.5
															c3.9,0,7.1,1.2,9.8,3.7c2.7,2.5,4,6,4,10.6c0,0.9-0.1,2-0.2,3.2H703.5z M740.2,180c-4.5-5.1-11-7.6-19.3-7.6
															c-8.9,0-16.2,3.3-22.1,10c-5.9,6.6-8.9,15-8.9,25c0,7.1,1.5,13.1,4.6,18.1c3,5,7,8.8,11.7,11.5
															c4.8,2.7,9.9,4.1,15.3,4.1c5.8,0,11.1-1.5,16.1-4.5c4.9-3,8.2-7.1,9.9-12.4h-3.7c-3.9,8.4-10.6,12.6-20,12.6
															c-6.9,0-12.1-2.8-15.6-8.4c-3.5-5.6-5.2-14-5.2-25.1c0-1.5,0.1-3.8,0.3-6.8h44.3C747.1,190.5,744.7,185.1,740.2,180
															 M668.6,131.9c-1.6,0.7-4.5,1.4-8.8,2.2s-7.9,1.1-11.1,1.1v3.5c4.6,0,7.5,0.9,8.7,2.6c1.2,1.7,1.8,5.9,1.8,12.6v62.8
															c0,7.4-0.1,11.8-0.4,13.3c-0.3,1.5-1.1,2.8-2.3,3.6c-1.3,0.9-3.5,1.3-6.6,1.3h-2.2v3.6h33.9v-3.6h-1.9
															c-3.3,0-5.6-0.5-6.9-1.4s-2-2.3-2.2-4.1c-0.2-1.8-0.3-6-0.3-12.8v-84.8L668.6,131.9L668.6,131.9z M619,224.8
															c-4,3.2-7.6,5.6-10.8,7.2c-3.2,1.6-6,2.4-8.4,2.4c-2.7,0-5-1-6.7-3c-1.7-2-2.6-4.6-2.6-7.8c0-8.2,6.7-15,20-20.5
															l8.4-3.4V224.8z M635.1,234.4c-2.1,0-3.4-0.9-4.1-2.6c-0.6-1.7-0.9-5.5-0.9-11.5v-25.7c0-5.4-0.6-9.4-1.8-12.1
															c-1.2-2.6-3.6-5-7.1-7c-3.6-2.1-8.7-3.1-15.3-3.1c-8.9,0-15.4,1.7-19.5,5.1c-4.2,3.4-6.3,6.6-6.3,9.5
															c0,3,1.6,4.5,4.7,4.5c3.5,0,5.7-2.6,6.5-7.9c0.9-5.2,5.2-7.7,13-7.7c3.9,0,7,0.8,9.4,2.3c2.4,1.5,3.8,3.3,4.4,5.3
															c0.6,2,0.9,5.1,0.9,9.5v3.1l-12,4.9c-9.1,3.8-16.3,7.6-21.5,11.6c-5.2,4-7.8,8.6-7.8,14c0,4.1,1.5,7.4,4.6,9.9
															c3.1,2.5,6.8,3.7,11.1,3.7c3.4,0,7.1-0.9,11.4-2.8c4.3-1.9,9-4.6,14.1-8.3c0.6,3.7,2,6.5,4,8.3c2,1.9,4.8,2.8,8.3,2.8
															c8.2,0,12.5-4.4,13-13.2h-2.9C640.6,231.8,638.5,234.4,635.1,234.4 M448.3,175.9v3.6c3.6,0,6,0.4,7.4,1.2
															c1.4,0.9,2.2,2.1,2.4,3.7c0.2,1.7,0.4,6.1,0.4,13.3v19c0,7.6-0.2,12.2-0.5,13.7c-0.3,1.5-1.2,2.6-2.5,3.4
															c-1.4,0.7-3.7,1.1-7.1,1.1v3.6h31.1v-3.6c-3.5,0-5.9-0.4-7.2-1.3c-1.3-0.9-2.1-2.2-2.3-3.9s-0.3-6-0.3-13v-26.4
															c3.5-4.1,6.9-7.3,10.2-9.3c3.3-2.1,6.6-3.1,9.8-3.1c3.3,0,6.1,0.9,8.3,2.7c2.2,1.8,3.6,3.9,4,6.5
															c0.4,2.5,0.6,6.6,0.6,12.1v17.6c0,7.7-0.2,12.3-0.5,13.8c-0.3,1.5-1.2,2.6-2.6,3.3c-1.4,0.7-3.8,1.1-7.3,1.1v3.6h30.7
															v-3.6c-3.3,0-5.5-0.5-6.8-1.4c-1.3-1-2-2.3-2.2-4.1c-0.2-1.7-0.3-6-0.3-12.7v-25c3.4-4.6,6.8-8.1,10.2-10.3
															c3.4-2.3,6.8-3.4,10.1-3.4c3.3,0,6,0.8,8.1,2.3c2.1,1.5,3.4,3.4,3.8,5.6c0.5,2.2,0.7,5.4,0.7,9.7v21.2
															c0,7.6-0.2,12.2-0.5,13.7c-0.3,1.5-1.2,2.7-2.5,3.4c-1.4,0.7-3.7,1.1-7.1,1.1v3.6h31.7v-3.6c-3.7,0-6.2-0.4-7.6-1.2
															c-1.4-0.8-2.2-2-2.5-3.6c-0.3-1.6-0.4-6.1-0.4-13.5v-19c0-6.5-0.4-11.1-1.1-14c-0.7-2.9-2.8-5.5-6.2-7.7
															c-3.4-2.3-7.6-3.4-12.5-3.4c-4.3,0-8.5,1.2-12.6,3.6c-4.2,2.4-8.2,5.9-12.1,10.7c-1.3-4.7-3.6-8.3-6.8-10.7
															c-3.3-2.4-7.5-3.6-12.7-3.6c-4.6,0-8.9,1.1-12.9,3.3c-4,2.2-7.7,5.5-11.2,10c0-5.4-0.7-9.9-2.2-13.3h-0.8
															C461.7,174,455.6,175.1,448.3,175.9 M413.4,178.5c4,0.1,6,1.3,6,3.6c0,3.4-5.4,8.9-16.2,16.5l-6.7,4.6v-71.3h-1.7
															c-1.5,0.7-4.5,1.4-8.7,2.2c-4.3,0.7-7.9,1.1-11,1.1v3.5c4.4,0,7.3,0.9,8.4,2.6s1.8,5.7,1.8,11.8v63.6
															c0,7.1-0.1,11.4-0.2,12.8c-0.2,1.5-0.8,2.7-1.9,3.8c-1.1,1.1-3.5,1.6-7.3,1.6h-2.4v3.6h32.2v-3.6
															c-3.2,0-5.4-0.5-6.7-1.4c-1.3-1-2-2.3-2.2-4.1c-0.2-1.7-0.3-6-0.3-12.7v-9.1l3.3-2.5l16.3,18.9
															c3.5,4.1,5.2,6.6,5.2,7.5c0,2.2-2.6,3.3-7.9,3.4v3.6H445v-3.6c-2.1-0.1-4.1-0.7-6-2c-2-1.2-4.6-3.8-8.1-7.8
															l-22.6-26.5c5.3-4.2,9.2-7.4,11.8-9.5c7.9-6.9,14.2-10.5,18.9-10.6v-3.6h-25.5v3.6H413.4z M340.6,172.4
															c-7.8,2.5-14.2,4-19,4.6v3.5h1.7c3.3,0,5.6,0.5,6.9,1.4c1.3,1,2,2.3,2.2,4.1c0.2,1.7,0.3,6,0.3,12.8v17.9
															c0,7.4-0.1,11.8-0.4,13.3s-1.1,2.8-2.3,3.6c-1.3,0.9-3.5,1.3-6.6,1.3h-1.7v3.6h33.7v-3.6h-2.1c-3.3,0-5.6-0.5-6.9-1.4
															c-1.3-0.9-2-2.3-2.2-4.1c-0.2-1.8-0.3-6-0.3-12.8v-11.3c0-5.7,0.4-10.1,1.3-13.4c0.9-3.3,2.9-6.4,6-9.4
															c3.1-3,5.8-4.5,8-4.5c1.9,0,3.3,1.3,4.2,3.9c1.3,3.8,3.3,5.8,5.9,5.8c1.4,0,2.7-0.5,3.7-1.7c1-1.1,1.5-2.4,1.5-3.9
															c0-2.2-1-4.4-2.9-6.5c-2-2.1-4.6-3.2-8.1-3.2c-3.8,0-7.6,1.5-11.6,4.6s-6.8,6.9-8.6,11.5
															C342.9,181.9,342.1,176.5,340.6,172.4 M266.7,193.3c1.8-11.7,7.4-17.5,16.8-17.5c3.9,0,7.1,1.2,9.8,3.7s4,6,4,10.6
															c0,0.9-0.1,2-0.2,3.2H266.7z M303.4,180c-4.5-5.1-11-7.6-19.3-7.6c-8.9,0-16.2,3.3-22.1,10c-5.9,6.6-8.9,15-8.9,25
															c0,7.1,1.5,13.1,4.6,18.1c3,5,7,8.8,11.7,11.5c4.8,2.7,9.9,4.1,15.2,4.1c5.8,0,11.1-1.5,16.1-4.5
															c4.9-3,8.2-7.1,9.9-12.4h-3.7c-3.9,8.4-10.6,12.6-20,12.6c-6.9,0-12.1-2.8-15.6-8.4c-3.5-5.6-5.2-14-5.2-25.1
															c0-1.5,0.1-3.8,0.3-6.8h44.3C310.3,190.5,307.9,185.1,303.4,180 M135.1,133.3h-32v3.6h2.9c5.3,0,8.7,0.5,10.3,1.4
															s2.6,2.6,3.1,5c0.5,2.5,0.7,7.8,0.7,16.2v45.7c0,8.7-0.3,14.6-0.9,17.8c-0.6,3.2-2.3,5.9-5.2,8.1s-6.5,3.4-11,3.7v3.6
															h37.6v-3.6c-4.9-0.3-8.6-1.6-11.3-3.9c-2.7-2.3-4.3-5-4.8-8c-0.5-3-0.8-8.8-0.8-17.2v-61.5l41.9,94.2h3.6l41.6-94.2
															V211c0,8.8-0.3,14.4-0.7,16.8c-0.5,2.4-1.6,4.2-3.3,5.3c-1.7,1.1-4.8,1.7-9.3,1.7h-3.7v3.6h50.2v-3.6h-4.6
															c-4.7,0-7.9-0.6-9.7-1.9c-1.7-1.2-2.7-3.1-3.1-5.7c-0.4-2.6-0.6-7.9-0.6-16.2v-51.5c0-8.7,0.3-14.2,0.8-16.6
															c0.5-2.3,1.6-3.9,3.2-4.7s5-1.3,10.1-1.3h3.9v-3.6h-32.2l-38.3,86.9L135.1,133.3z"/>
													</g>
													<g>
														<defs>
															<rect id="SVGID_35_" y="96" width="1024" height="576"/>
														</defs>
														<clipPath id="SVGID_36_">
															<use xlink:href="#SVGID_35_"  style="overflow:visible;"/>
														</clipPath>
														<path class="st19" d="M171.9,317.4"/>
													</g>
													<g>
														<defs>
															<rect id="SVGID_37_" y="96" width="1024" height="576"/>
														</defs>
														<clipPath id="SVGID_38_">
															<use xlink:href="#SVGID_37_"  style="overflow:visible;"/>
														</clipPath>
														<path class="st20" d="M107.5,155.1"/>
													</g>
													<g>
														<defs>
															<rect id="SVGID_39_" y="96" width="1024" height="576"/>
														</defs>
														<clipPath id="SVGID_40_">
															<use xlink:href="#SVGID_39_"  style="overflow:visible;"/>
														</clipPath>
														<g class="st21">
															<g>
																<defs>
																	<rect id="SVGID_41_" y="96" width="1024" height="576"/>
																</defs>
																<clipPath id="SVGID_42_">
																	<use xlink:href="#SVGID_41_"  style="overflow:visible;"/>
																</clipPath>
																<path class="st22" d="M372.1,177.8c0-0.1-0.1-0.1-0.1-0.1c-0.2-0.1-0.3-0.2-0.4-0.3c-0.4-0.3-0.7-0.7-1.1-1
																	c-0.5-0.4-1-0.4-1.6-0.5c-0.8-0.1-1.7,0.1-2.4,0.2c-0.3,0.1-0.6,0.1-0.9,0.2c-0.5,0.2-0.6,0.4-1,0.8
																	c-0.2,0.2-0.3,0.4-0.4,0.6c-0.2,0.4-0.2,1-0.1,1.4c0.1,0.3,0.2,0.5,0.2,0.7c0.2,0.6,0.4,1.2,0.6,1.8
																	c0.3,0.6,0.5,1.3,0.8,1.9s0.5,1.4,1.1,1.9c0.5,0.5,1.2,0.8,1.9,0.9c0.9,0,1.8-0.3,2.5-0.8c0.3-0.2,0.5-0.4,0.7-0.7
																	c0.1-0.2,0.2-0.3,0.4-0.5c0.2-0.3,0.3-0.6,0.3-1c0.1-1,0.2-2.1-0.1-3c-0.2-0.7,0.2-1,0.1-1.7
																	c-0.1-0.3,0-0.6-0.2-0.8"/>
															</g>
															<g>
																<defs>
																	<rect id="SVGID_43_" y="96" width="1024" height="576"/>
																</defs>
																<clipPath id="SVGID_44_">
																	<use xlink:href="#SVGID_43_"  style="overflow:visible;"/>
																</clipPath>
																<line class="st23" x1="371.3" y1="178" x2="371.3" y2="178"/>
															</g>
															<g>
																<defs>
																	<rect id="SVGID_45_" y="96" width="1024" height="576"/>
																</defs>
																<clipPath id="SVGID_46_">
																	<use xlink:href="#SVGID_45_"  style="overflow:visible;"/>
																</clipPath>
																<g class="st24">
																	<g>
																		<defs>
																			<rect id="SVGID_47_" y="96" width="1024" height="576"/>
																		</defs>
																		<clipPath id="SVGID_48_">
																			<use xlink:href="#SVGID_47_"  style="overflow:visible;"/>
																		</clipPath>
																		<g class="st25">
																			<g class="st26">
																				<g>
																					<defs>
																						<rect id="SVGID_49_" x="953.2" y="319.9" width="9.6" height="4.3"/>
																					</defs>
																					<defs>
																						<rect id="SVGID_50_" x="953.2" y="319.9" width="9.6" height="4.3"/>
																					</defs>
																					<clipPath id="SVGID_51_">
																						<use xlink:href="#SVGID_49_"  style="overflow:visible;"/>
																					</clipPath>
																					<clipPath id="SVGID_52_" class="st27">
																						<use xlink:href="#SVGID_50_"  style="overflow:visible;"/>
																					</clipPath>
																					<path class="st28" d="M958.1,323.6"/>
																					<path class="st29" d="M958.1,323.6"/>
																				</g>
																			</g>
																			<g>
																				<defs>
																					<rect id="SVGID_53_" y="96" width="1024" height="576"/>
																				</defs>
																				<clipPath id="SVGID_54_">
																					<use xlink:href="#SVGID_53_"  style="overflow:visible;"/>
																				</clipPath>
																				<g class="st30">
																					<g class="st26">
																						<g>
																							<defs>
																								<rect id="SVGID_55_" x="985" y="425.1" width="9.6" height="4.3"/>
																							</defs>
																							<clipPath id="SVGID_56_">
																								<use xlink:href="#SVGID_55_"  style="overflow:visible;"/>
																							</clipPath>
																							<path class="st31" d="M989.8,428.8"/>
																						</g>
																					</g>
																					<g>
																						<defs>
																							<rect id="SVGID_57_" y="96" width="1024" height="576"/>
																						</defs>
																						<clipPath id="SVGID_58_">
																							<use xlink:href="#SVGID_57_"  style="overflow:visible;"/>
																						</clipPath>
																						<g class="st32">
																							<g class="st26">
																								<g>
																									<defs>
																										<rect id="SVGID_59_" x="984" y="319.9" width="9.6" height="4.3"/>
																									</defs>
																									<clipPath id="SVGID_60_">
																										<use xlink:href="#SVGID_59_"  style="overflow:visible;"/>
																									</clipPath>
																									<path class="st33" d="M988.8,323.6"/>
																								</g>
																							</g>
																							<g>
																								<defs>
																									<rect id="SVGID_61_" y="96" width="1024" height="576"/>
																								</defs>
																								<clipPath id="SVGID_62_">
																									<use xlink:href="#SVGID_61_"  style="overflow:visible;"/>
																								</clipPath>
																								<path class="st34" d="M561.1,427.3c-7.6,0-13.3-2.8-17-8.4c-3.7-5.7-5.6-13.4-5.6-23.4
																									c0-9.7,1.8-16.9,5.2-21.7s8.7-7.2,15.6-7.2c3.9,0,6.5,0.6,7.8,1.8c1.3,1.2,2.2,3.3,2.9,6.3
																									c0.8,4,2.9,6,6.3,6c1.6,0,2.8-0.6,3.7-1.7s1.3-2.3,1.3-3.6c0-3.5-2.3-6.4-6.9-8.8
																									c-4.6-2.4-9.7-3.6-15.1-3.6c-9.1,0-17,3.3-23.6,9.7c-6.7,6.5-10,14.9-10,25.3c0,10.1,3.1,18.2,9.3,24.4
																									c6.2,6.1,13.8,9.2,22.8,9.2c14,0,22.8-6,26.3-18.1h-3.4C577.9,422.7,571.4,427.3,561.1,427.3"/>
																							</g>
																							<g>
																								<defs>
																									<rect id="SVGID_63_" y="96" width="1024" height="576"/>
																								</defs>
																								<clipPath id="SVGID_64_">
																									<use xlink:href="#SVGID_63_"  style="overflow:visible;"/>
																								</clipPath>
																								<path class="st35" d="M171.9,317.4"/>
																							</g>
																							<g>
																								<defs>
																									<rect id="SVGID_65_" y="96" width="1024" height="576"/>
																								</defs>
																								<clipPath id="SVGID_66_">
																									<use xlink:href="#SVGID_65_"  style="overflow:visible;"/>
																								</clipPath>
																								<g class="st36">
																									<g>
																										<defs>
																											<rect id="SVGID_67_" y="96" width="1024" height="576"/>
																										</defs>
																										<clipPath id="SVGID_68_">
																											<use xlink:href="#SVGID_67_"  style="overflow:visible;"/>
																										</clipPath>
																										<g class="st37">
																											<g class="st26">
																												<g>
																													<path class="st38" d="M989.8,428.8"/>
																												</g>
																											</g>
																											<g>
																												<defs>
																													<rect id="SVGID_69_" y="96" width="1024" height="576"/>
																												</defs>
																												<defs>
																													<rect id="SVGID_70_" y="96" width="1024" height="576"/>
																												</defs>
																												<defs>
																													<rect id="SVGID_71_" y="96" width="1024" height="576"/>
																												</defs>
																												<defs>
																													<rect id="SVGID_72_" y="96" width="1024" height="576"/>
																												</defs>
																												<defs>
																													<rect id="SVGID_73_" y="96" width="1024" height="576"/>
																												</defs>
																												<defs>
																													<rect id="SVGID_74_" y="96" width="1024" height="576"/>
																												</defs>
																												<defs>
																													<rect id="SVGID_75_" y="96" width="1024" height="576"/>
																												</defs>
																												<clipPath id="SVGID_76_">
																													<use xlink:href="#SVGID_69_"  style="overflow:visible;"/>
																												</clipPath>
																												<clipPath id="SVGID_77_" class="st39">
																													<use xlink:href="#SVGID_70_"  style="overflow:visible;"/>
																												</clipPath>
																												<clipPath id="SVGID_78_" class="st40">
																													<use xlink:href="#SVGID_71_"  style="overflow:visible;"/>
																												</clipPath>
																												<clipPath id="SVGID_79_" class="st41">
																													<use xlink:href="#SVGID_72_"  style="overflow:visible;"/>
																												</clipPath>
																												<clipPath id="SVGID_80_" class="st42">
																													<use xlink:href="#SVGID_73_"  style="overflow:visible;"/>
																												</clipPath>
																												<clipPath id="SVGID_81_" class="st43">
																													<use xlink:href="#SVGID_74_"  style="overflow:visible;"/>
																												</clipPath>
																												<clipPath id="SVGID_82_" class="st44">
																													<use xlink:href="#SVGID_75_"  style="overflow:visible;"/>
																												</clipPath>
																												<path class="st45" d="M469.5,190.2"/>
																												<path class="st45" d="M385.1,229.5c-0.2,1.5-0.8,2.7-1.9,3.8c-1.1,1.1-3.5,1.6-7.3,1.6h-2.4v3.6h32.2
																													v-3.6c-3.2,0-5.4-0.5-6.7-1.4s-2-2.3-2.2-4.1"/>
																												<path class="st45" d="M416.1,223.9c3.5,4.1,5.2,6.6,5.2,7.5c0,2.2-2.6,3.3-7.9,3.4v3.6H445v-3.6
																													c-2.1-0.1-4.1-0.7-6-2c-2-1.2-4.6-3.8-8.1-7.8"/>
																												<path class="st45" d="M420.1,189.1c7.9-6.9,14.2-10.5,18.9-10.6v-3.6h-25.5v3.6c4,0.1,6,1.3,6,3.6"/>
																												<path class="st46" d="M437.4,234.4"/>
																											</g>
																											<g>
																												<defs>
																													<rect id="SVGID_83_" y="96" width="1024" height="576"/>
																												</defs>
																												<defs>
																													<rect id="SVGID_84_" y="96" width="1024" height="576"/>
																												</defs>
																												<defs>
																													<rect id="SVGID_85_" y="96" width="1024" height="576"/>
																												</defs>
																												<defs>
																													<rect id="SVGID_86_" y="96" width="1024" height="576"/>
																												</defs>
																												<defs>
																													<rect id="SVGID_87_" y="96" width="1024" height="576"/>
																												</defs>
																												<clipPath id="SVGID_88_">
																													<use xlink:href="#SVGID_83_"  style="overflow:visible;"/>
																												</clipPath>
																												<clipPath id="SVGID_89_" class="st47">
																													<use xlink:href="#SVGID_84_"  style="overflow:visible;"/>
																												</clipPath>
																												<clipPath id="SVGID_90_" class="st48">
																													<use xlink:href="#SVGID_85_"  style="overflow:visible;"/>
																												</clipPath>
																												<clipPath id="SVGID_91_" class="st49">
																													<use xlink:href="#SVGID_86_"  style="overflow:visible;"/>
																												</clipPath>
																												<clipPath id="SVGID_92_" class="st50">
																													<use xlink:href="#SVGID_87_"  style="overflow:visible;"/>
																												</clipPath>
																												<path class="st51" d="M437.4,234.4"/>
																											</g>
																											<g>
																												<defs>
																													<rect id="SVGID_93_" y="96" width="1024" height="576"/>
																												</defs>
																												<defs>
																													<rect id="SVGID_94_" y="96" width="1024" height="576"/>
																												</defs>
																												<clipPath id="SVGID_95_">
																													<use xlink:href="#SVGID_93_"  style="overflow:visible;"/>
																												</clipPath>
																												<clipPath id="SVGID_96_" class="st52">
																													<use xlink:href="#SVGID_94_"  style="overflow:visible;"/>
																												</clipPath>
																												<path class="st53" d="M171.9,317.4"/>
																												<path class="st53" d="M372.1,177.8c0-0.1-0.1-0.1-0.1-0.1c-0.2-0.1-0.3-0.2-0.4-0.3
																													c-0.4-0.3-0.7-0.7-1.1-1c-0.5-0.4-1-0.4-1.6-0.5c-0.8-0.1-1.7,0.1-2.4,0.2c-0.3,0.1-0.6,0.1-0.9,0.2
																													c-0.5,0.2-0.6,0.4-1,0.8c-0.2,0.2-0.3,0.4-0.4,0.6c-0.2,0.4-0.2,1-0.1,1.4c0.1,0.3,0.2,0.5,0.2,0.7
																													c0.2,0.6,0.4,1.2,0.6,1.8c0.3,0.6,0.5,1.3,0.8,1.9s0.5,1.4,1.1,1.9c0.5,0.5,1.2,0.8,1.9,0.9
																													c0.9,0,1.8-0.3,2.5-0.8c0.3-0.2,0.5-0.4,0.7-0.7c0.1-0.2,0.2-0.3,0.4-0.5c0.2-0.3,0.3-0.6,0.3-1
																													c0.1-1,0.2-2.1-0.1-3c-0.2-0.7,0.2-1,0.1-1.7c-0.1-0.3,0-0.6-0.2-0.8"/>
																											</g>
																											<g>
																												<defs>
																													<rect id="SVGID_97_" y="96" width="1024" height="576"/>
																												</defs>
																												<defs>
																													<rect id="SVGID_98_" y="96" width="1024" height="576"/>
																												</defs>
																												<clipPath id="SVGID_99_">
																													<use xlink:href="#SVGID_97_"  style="overflow:visible;"/>
																												</clipPath>
																												<clipPath id="SVGID_100_" class="st54">
																													<use xlink:href="#SVGID_98_"  style="overflow:visible;"/>
																												</clipPath>
																												<line class="st55" x1="371.3" y1="178" x2="371.3" y2="178"/>
																											</g>
																											<g>
																												<defs>
																													<rect id="SVGID_101_" y="96" width="1024" height="576"/>
																												</defs>
																												<defs>
																													<rect id="SVGID_102_" y="96" width="1024" height="576"/>
																												</defs>
																												<defs>
																													<rect id="SVGID_103_" y="96" width="1024" height="576"/>
																												</defs>
																												<defs>
																													<rect id="SVGID_104_" y="96" width="1024" height="576"/>
																												</defs>
																												<defs>
																													<rect id="SVGID_105_" y="96" width="1024" height="576"/>
																												</defs>
																												<defs>
																													<rect id="SVGID_106_" y="96" width="1024" height="576"/>
																												</defs>
																												<defs>
																													<rect id="SVGID_107_" y="96" width="1024" height="576"/>
																												</defs>
																												<defs>
																													<rect id="SVGID_108_" y="96" width="1024" height="576"/>
																												</defs>
																												<defs>
																													<rect id="SVGID_109_" y="96" width="1024" height="576"/>
																												</defs>
																												<defs>
																													<rect id="SVGID_110_" y="96" width="1024" height="576"/>
																												</defs>
																												<defs>
																													<rect id="SVGID_111_" y="96" width="1024" height="576"/>
																												</defs>
																												<defs>
																													<rect id="SVGID_112_" y="96" width="1024" height="576"/>
																												</defs>
																												<defs>
																													<rect id="SVGID_113_" y="96" width="1024" height="576"/>
																												</defs>
																												<defs>
																													<rect id="SVGID_114_" y="96" width="1024" height="576"/>
																												</defs>
																												<defs>
																													<rect id="SVGID_115_" y="96" width="1024" height="576"/>
																												</defs>
																												<defs>
																													<rect id="SVGID_116_" y="96" width="1024" height="576"/>
																												</defs>
																												<defs>
																													<rect id="SVGID_117_" y="96" width="1024" height="576"/>
																												</defs>
																												<defs>
																													<rect id="SVGID_118_" y="96" width="1024" height="576"/>
																												</defs>
																												<defs>
																													<rect id="SVGID_119_" y="96" width="1024" height="576"/>
																												</defs>
																												<defs>
																													<rect id="SVGID_120_" y="96" width="1024" height="576"/>
																												</defs>
																												<defs>
																													<rect id="SVGID_121_" y="96" width="1024" height="576"/>
																												</defs>
																												<defs>
																													<rect id="SVGID_122_" y="96" width="1024" height="576"/>
																												</defs>
																												<defs>
																													<rect id="SVGID_123_" y="96" width="1024" height="576"/>
																												</defs>
																												<clipPath id="SVGID_124_">
																													<use xlink:href="#SVGID_101_"  style="overflow:visible;"/>
																												</clipPath>
																												<clipPath id="SVGID_125_" class="st56">
																													<use xlink:href="#SVGID_102_"  style="overflow:visible;"/>
																												</clipPath>
																												<clipPath id="SVGID_126_" class="st57">
																													<use xlink:href="#SVGID_103_"  style="overflow:visible;"/>
																												</clipPath>
																												<clipPath id="SVGID_127_" class="st58">
																													<use xlink:href="#SVGID_104_"  style="overflow:visible;"/>
																												</clipPath>
																												<clipPath id="SVGID_128_" class="st59">
																													<use xlink:href="#SVGID_105_"  style="overflow:visible;"/>
																												</clipPath>
																												<clipPath id="SVGID_129_" class="st60">
																													<use xlink:href="#SVGID_106_"  style="overflow:visible;"/>
																												</clipPath>
																												<clipPath id="SVGID_130_" class="st61">
																													<use xlink:href="#SVGID_107_"  style="overflow:visible;"/>
																												</clipPath>
																												<clipPath id="SVGID_131_" class="st62">
																													<use xlink:href="#SVGID_108_"  style="overflow:visible;"/>
																												</clipPath>
																												<clipPath id="SVGID_132_" class="st63">
																													<use xlink:href="#SVGID_109_"  style="overflow:visible;"/>
																												</clipPath>
																												<clipPath id="SVGID_133_" class="st64">
																													<use xlink:href="#SVGID_110_"  style="overflow:visible;"/>
																												</clipPath>
																												<clipPath id="SVGID_134_" class="st65">
																													<use xlink:href="#SVGID_111_"  style="overflow:visible;"/>
																												</clipPath>
																												<clipPath id="SVGID_135_" class="st66">
																													<use xlink:href="#SVGID_112_"  style="overflow:visible;"/>
																												</clipPath>
																												<clipPath id="SVGID_136_" class="st67">
																													<use xlink:href="#SVGID_113_"  style="overflow:visible;"/>
																												</clipPath>
																												<clipPath id="SVGID_137_" class="st68">
																													<use xlink:href="#SVGID_114_"  style="overflow:visible;"/>
																												</clipPath>
																												<clipPath id="SVGID_138_" class="st69">
																													<use xlink:href="#SVGID_115_"  style="overflow:visible;"/>
																												</clipPath>
																												<clipPath id="SVGID_139_" class="st70">
																													<use xlink:href="#SVGID_116_"  style="overflow:visible;"/>
																												</clipPath>
																												<clipPath id="SVGID_140_" class="st71">
																													<use xlink:href="#SVGID_117_"  style="overflow:visible;"/>
																												</clipPath>
																												<clipPath id="SVGID_141_" class="st72">
																													<use xlink:href="#SVGID_118_"  style="overflow:visible;"/>
																												</clipPath>
																												<clipPath id="SVGID_142_" class="st73">
																													<use xlink:href="#SVGID_119_"  style="overflow:visible;"/>
																												</clipPath>
																												<clipPath id="SVGID_143_" class="st74">
																													<use xlink:href="#SVGID_120_"  style="overflow:visible;"/>
																												</clipPath>
																												<clipPath id="SVGID_144_" class="st75">
																													<use xlink:href="#SVGID_121_"  style="overflow:visible;"/>
																												</clipPath>
																												<clipPath id="SVGID_145_" class="st76">
																													<use xlink:href="#SVGID_122_"  style="overflow:visible;"/>
																												</clipPath>
																												<clipPath id="SVGID_146_" class="st77">
																													<use xlink:href="#SVGID_123_"  style="overflow:visible;"/>
																												</clipPath>
																												<path class="st78" d="M171.9,317.4"/>
																											</g>
																										</g>
																									</g>
																								</g>
																							</g>
																						</g>
																					</g>
																				</g>
																			</g>
																		</g>
																	</g>
																</g>
															</g>
														</g>
													</g>
												</g>
											</g>
										</g>
									</g>
								</g>
							</g>
						</g>
					</g>
				</g>
			</g>
		</g>
	</g>
</g>
<rect x="985" y="425.1" class="st79" width="9.6" height="4.3"/>
<rect y="96" class="st79" width="1024" height="576"/>
<rect y="96" class="st79" width="1024" height="576"/>
<rect y="96" class="st79" width="1024" height="576"/>
<rect y="96" class="st79" width="1024" height="576"/>
<rect y="96" class="st79" width="1024" height="576"/>
</svg>
