<svg id="Ebene_1" xmlns="http://www.w3.org/2000/svg" xmlns:xlink="http://www.w3.org/1999/xlink" viewBox="0 0 1024 768" width="1024" height="768"><style>.st0{clip-path:url(#SVGID_2_)}.st1{clip-path:url(#SVGID_7_)}.st2{clip-path:url(#SVGID_8_)}.st3{clip-path:url(#SVGID_9_)}.st4{clip-path:url(#SVGID_10_)}.st5{opacity:.8}.st6{clip-path:url(#SVGID_12_);fill:none;stroke:#e5007d;stroke-width:.5}.st7{clip-path:url(#SVGID_14_)}.st8{clip-path:url(#SVGID_16_);fill:none;stroke:#e5007d;stroke-width:.5}.st9{clip-path:url(#SVGID_18_)}.st10{clip-path:url(#SVGID_21_)}.st11,.st12{clip-path:url(#SVGID_22_);fill:#e5007d}.st12{fill:none;stroke:#e5007d;stroke-width:.5}.st13{clip-path:url(#SVGID_24_)}.st14{clip-path:url(#SVGID_26_);fill:none;stroke:#e5007d;stroke-width:.5}.st15{clip-path:url(#SVGID_28_)}.st16{clip-path:url(#SVGID_30_);fill:none;stroke:#e5007d;stroke-width:.5}.st17{clip-path:url(#SVGID_33_)}.st18{clip-path:url(#SVGID_34_)}.st19,.st20{clip-path:url(#SVGID_36_);fill:none;stroke:#000}.st20{clip-path:url(#SVGID_38_)}.st21{clip-path:url(#SVGID_40_)}.st22,.st23{clip-path:url(#SVGID_42_);fill:none;stroke:#000}.st23{clip-path:url(#SVGID_44_)}.st24{clip-path:url(#SVGID_46_)}.st25{clip-path:url(#SVGID_48_)}.st26{opacity:.5}.st27{clip-path:url(#SVGID_51_)}.st28,.st29{clip-path:url(#SVGID_52_);fill:#e5007d}.st29{fill:none;stroke:#43bdd6;stroke-width:2}.st30{clip-path:url(#SVGID_54_)}.st31{clip-path:url(#SVGID_56_);fill:none;stroke:#43bdd6;stroke-width:2}.st32{clip-path:url(#SVGID_58_)}.st33{clip-path:url(#SVGID_60_);fill:none;stroke:#43bdd6;stroke-width:2}.st34{clip-path:url(#SVGID_62_)}.st35{clip-path:url(#SVGID_64_);fill:none;stroke:#000}.st36{clip-path:url(#SVGID_66_)}.st37{clip-path:url(#SVGID_68_)}.st38{fill:none;stroke:#43bdd6;stroke-width:2}.st39{clip-path:url(#SVGID_76_)}.st40{clip-path:url(#SVGID_77_)}.st41{clip-path:url(#SVGID_78_)}.st42{clip-path:url(#SVGID_79_)}.st43{clip-path:url(#SVGID_80_)}.st44{clip-path:url(#SVGID_81_)}.st45,.st46{clip-path:url(#SVGID_82_)}.st46{fill:#e5007d}.st47{clip-path:url(#SVGID_88_)}.st48{clip-path:url(#SVGID_89_)}.st49{clip-path:url(#SVGID_90_)}.st50{clip-path:url(#SVGID_91_)}.st51{clip-path:url(#SVGID_92_);fill:none;stroke:#000}.st52{clip-path:url(#SVGID_95_)}.st53{clip-path:url(#SVGID_96_);fill:none;stroke:#000}.st54{clip-path:url(#SVGID_99_)}.st55{clip-path:url(#SVGID_100_);fill:none;stroke:#000}.st56{clip-path:url(#SVGID_124_)}.st57{clip-path:url(#SVGID_125_)}.st58{clip-path:url(#SVGID_126_)}.st59{clip-path:url(#SVGID_127_)}.st60{clip-path:url(#SVGID_128_)}.st61{clip-path:url(#SVGID_129_)}.st62{clip-path:url(#SVGID_130_)}.st63{clip-path:url(#SVGID_131_)}.st64{clip-path:url(#SVGID_132_)}.st65{clip-path:url(#SVGID_133_)}.st66{clip-path:url(#SVGID_134_)}.st67{clip-path:url(#SVGID_135_)}.st68{clip-path:url(#SVGID_136_)}.st69{clip-path:url(#SVGID_137_)}.st70{clip-path:url(#SVGID_138_)}.st71{clip-path:url(#SVGID_139_)}.st72{clip-path:url(#SVGID_140_)}.st73{clip-path:url(#SVGID_141_)}.st74{clip-path:url(#SVGID_142_)}.st75{clip-path:url(#SVGID_143_)}.st76{clip-path:url(#SVGID_144_)}.st77{clip-path:url(#SVGID_145_)}.st78{clip-path:url(#SVGID_146_);stroke:#000}.st78,.st79{fill:none}</style><defs><path id="SVGID_1_" d="M0 96h1024v576H0z"/></defs><clipPath id="SVGID_2_"><use xlink:href="#SVGID_1_" overflow="visible"/></clipPath><g class="st0"><defs><path id="SVGID_3_" d="M0 96h1024v576H0z"/></defs><defs><path id="SVGID_4_" d="M0 96h1024v576H0z"/></defs><defs><path id="SVGID_5_" d="M0 96h1024v576H0z"/></defs><defs><path id="SVGID_6_" d="M0 96h1024v576H0z"/></defs><clipPath id="SVGID_7_"><use xlink:href="#SVGID_3_" overflow="visible"/></clipPath><clipPath id="SVGID_8_" class="st1"><use xlink:href="#SVGID_4_" overflow="visible"/></clipPath><clipPath id="SVGID_9_" class="st2"><use xlink:href="#SVGID_5_" overflow="visible"/></clipPath><clipPath id="SVGID_10_" class="st3"><use xlink:href="#SVGID_6_" overflow="visible"/></clipPath><path class="st4" d="M476.4 430.9c.9-2.9 2-5.1 3.4-6.7 4.5 4.8 9.8 7.2 15.6 7.2 5.5 0 10.1-1.7 13.8-5.2s5.4-7.9 5.4-13.5c0-3.5-1-7.2-2.9-11-2-3.8-7.4-7.6-16.1-11.6-5.8-2.6-9.8-5-11.8-7-2.1-2-3.2-4.4-3.2-7.2 0-2.5 1-4.7 2.9-6.7 1.9-1.9 4.4-2.9 7.5-2.9 4.1 0 7.5 1.7 10.5 5.1 3 3.4 5 7.4 6 12.1h2.9v-19.6h-2.9c-1.2 3-2.2 4.9-3 5.7-3.6-4.5-8.2-6.7-13.7-6.7-5.4 0-9.7 1.9-12.6 5.7-3 3.8-4.5 7.8-4.5 11.9 0 4.4 1.4 8.1 4.2 11.1 2.8 3 7.4 6.1 13.8 9.3 6.1 3 10.2 5.5 12.3 7.7 2.1 2.1 3.1 4.9 3.1 8.2 0 2.8-1 5.4-2.9 7.8-1.9 2.4-4.9 3.6-8.8 3.6-9.1 0-15.3-6-18.8-18.1h-3V431h2.8zm-89.3-64.5v3.6c3.7 0 6.2.4 7.6 1.2s2.2 2 2.5 3.6c.3 1.6.4 6.1.4 13.4v18.9c0 7.7-.2 12.4-.5 13.8-.3 1.5-1.2 2.6-2.6 3.3-1.4.7-3.9 1.1-7.4 1.1v3.6h32.1v-3.6c-3.7 0-6.2-.4-7.6-1.2-1.4-.8-2.2-2-2.5-3.6-.3-1.6-.4-6.1-.4-13.4v-25.9c3-4.5 6.3-7.8 9.7-10.1 3.4-2.2 7-3.4 10.8-3.4 3.3 0 6 .8 8.2 2.5 2.1 1.7 3.5 3.6 3.9 5.7s.7 5.7.7 10.7v20.5c0 7.1-.1 11.4-.2 12.8s-.8 2.7-1.9 3.8c-1.1 1.1-3.6 1.7-7.3 1.7h-1.5v3.6h32.5v-3.6c-3.7 0-6.2-.4-7.6-1.2-1.4-.8-2.2-2-2.5-3.6-.3-1.6-.4-6.1-.4-13.4v-19.8c0-5.9-.5-10.3-1.4-13.4-.9-3.1-3-5.7-6.2-7.8s-7.4-3.2-12.4-3.2c-4.4 0-8.7 1.1-12.8 3.3-4.1 2.2-8 5.4-11.7 9.9-.2-5.5-.9-9.9-2-13.1h-2.1c-5.9 1.5-11.8 2.7-17.4 3.3m-54.4 17.4c1.8-11.7 7.4-17.5 16.8-17.5 3.9 0 7.1 1.2 9.8 3.7 2.7 2.5 4 6 4 10.6 0 .9-.1 2-.2 3.2h-30.4zm36.7-13.3c-4.5-5.1-11-7.6-19.3-7.6-8.9 0-16.2 3.3-22.1 10-5.9 6.6-8.9 15-8.9 25 0 7.1 1.5 13.1 4.6 18.1 3 5 7 8.8 11.7 11.5 4.8 2.7 9.9 4.1 15.2 4.1 5.8 0 11.1-1.5 16.1-4.5 4.9-3 8.2-7.1 9.9-12.4h-3.7c-3.9 8.4-10.6 12.6-20 12.6-6.9 0-12.1-2.8-15.6-8.4-3.5-5.6-5.2-14-5.2-25.1 0-1.5.1-3.8.3-6.8h44.3c-.3-6-2.7-11.5-7.3-16.5"/><path class="st4" d="M376.3 383.8c.2 1 .3 2 .3 3.1H332.3l.3-3.1M473.4 428.9v2h3c.2-.7.5-1.4.7-2.1m8.6 0c3 1.7 6.3 2.6 9.8 2.6 3.9 0 7.3-.9 10.3-2.6m4.5-63.3V364h-2.9c-.2.6-.5 1.1-.7 1.6m-6.7-.1c-2.7-1.8-5.8-2.7-9.3-2.7-3.7 0-6.9.9-9.5 2.7"/><g class="st4"><g class="st5"><defs><path id="SVGID_11_" d="M981.3 127.7h9.6v4.3h-9.6z"/></defs><clipPath id="SVGID_12_"><use xlink:href="#SVGID_11_" overflow="visible"/></clipPath></g><defs><path id="SVGID_13_" d="M0 96h1024v576H0z"/></defs><clipPath id="SVGID_14_"><use xlink:href="#SVGID_13_" overflow="visible"/></clipPath><g class="st7"><g class="st5"><defs><path id="SVGID_15_" d="M981.3 129.1h9.6v4.3h-9.6z"/></defs><clipPath id="SVGID_16_"><use xlink:href="#SVGID_15_" overflow="visible"/></clipPath></g><defs><path id="SVGID_17_" d="M0 96h1024v576H0z"/></defs><clipPath id="SVGID_18_"><use xlink:href="#SVGID_17_" overflow="visible"/></clipPath><g class="st9"><g class="st5"><defs><path id="SVGID_19_" d="M981.3 171h9.6v4.3h-9.6z"/></defs><defs><path id="SVGID_20_" d="M981.3 171h9.6v4.3h-9.6z"/></defs><clipPath id="SVGID_21_"><use xlink:href="#SVGID_19_" overflow="visible"/></clipPath><clipPath id="SVGID_22_" class="st10"><use xlink:href="#SVGID_20_" overflow="visible"/></clipPath></g><defs><path id="SVGID_23_" d="M0 96h1024v576H0z"/></defs><clipPath id="SVGID_24_"><use xlink:href="#SVGID_23_" overflow="visible"/></clipPath><g class="st13"><g class="st5"><defs><path id="SVGID_25_" d="M981.3 273.5h9.6v4.3h-9.6z"/></defs><clipPath id="SVGID_26_"><use xlink:href="#SVGID_25_" overflow="visible"/></clipPath></g><defs><path id="SVGID_27_" d="M0 96h1024v576H0z"/></defs><clipPath id="SVGID_28_"><use xlink:href="#SVGID_27_" overflow="visible"/></clipPath><g class="st15"><g class="st5"><defs><path id="SVGID_29_" d="M981.3 234.8h9.6v4.3h-9.6z"/></defs><clipPath id="SVGID_30_"><use xlink:href="#SVGID_29_" overflow="visible"/></clipPath></g><defs><path id="SVGID_31_" d="M0 96h1024v576H0z"/></defs><defs><path id="SVGID_32_" d="M0 96h1024v576H0z"/></defs><clipPath id="SVGID_33_"><use xlink:href="#SVGID_31_" overflow="visible"/></clipPath><clipPath id="SVGID_34_" class="st17"><use xlink:href="#SVGID_32_" overflow="visible"/></clipPath><path class="st18" d="M907.7 366.4v3.6c3.7 0 6.2.4 7.6 1.2 1.4.8 2.2 2 2.5 3.6s.4 6.1.4 13.4v18.9c0 7.7-.2 12.4-.5 13.8-.3 1.5-1.2 2.6-2.6 3.3s-3.9 1.1-7.4 1.1v3.6h32.1v-3.6c-3.7 0-6.2-.4-7.6-1.2-1.4-.8-2.2-2-2.5-3.6-.3-1.6-.4-6.1-.4-13.4v-25.9c3-4.5 6.3-7.8 9.7-10.1 3.4-2.2 7-3.4 10.8-3.4 3.3 0 6 .8 8.2 2.5 2.1 1.7 3.5 3.6 3.9 5.7.5 2.1.7 5.7.7 10.7v20.5c0 7.1-.1 11.4-.2 12.8-.2 1.4-.8 2.7-1.9 3.8-1.1 1.1-3.6 1.7-7.3 1.7h-1.5v3.6h32.5v-3.6c-3.7 0-6.2-.4-7.6-1.2-1.4-.8-2.2-2-2.5-3.6-.3-1.6-.4-6.1-.4-13.4v-19.8c0-5.9-.5-10.3-1.4-13.4-.9-3.1-3-5.7-6.2-7.8-3.3-2.1-7.4-3.2-12.4-3.2-4.4 0-8.7 1.1-12.8 3.3-4.1 2.2-8 5.4-11.7 9.9-.2-5.5-.9-9.9-2-13.1h-2.1c-5.8 1.5-11.7 2.7-17.4 3.3m-54.4 17.4c1.8-11.7 7.4-17.5 16.8-17.5 3.9 0 7.1 1.2 9.8 3.7s4 6 4 10.6c0 .9-.1 2-.2 3.2h-30.4zm36.8-13.3c-4.5-5.1-11-7.6-19.3-7.6-8.9 0-16.2 3.3-22.1 10-5.9 6.6-8.9 15-8.9 25 0 7.1 1.5 13.1 4.6 18.1 3 5 7 8.8 11.7 11.5 4.8 2.7 9.9 4.1 15.3 4.1 5.8 0 11.1-1.5 16.1-4.5 4.9-3 8.2-7.1 9.9-12.4h-3.7c-3.9 8.4-10.6 12.6-20 12.6-6.9 0-12.1-2.8-15.6-8.4-3.5-5.6-5.2-14-5.2-25.1 0-1.5.1-3.8.3-6.8h44.3c-.5-6-2.9-11.5-7.4-16.5m-58.9-5.1h-19.1v-19.9h-2.5c-.9 6.2-3.1 11.1-6.5 14.6s-7.1 5.2-11.4 5.3v3.6h9.2v35.9c0 7.4.4 12.5 1.1 15.5.7 3 2.5 5.5 5.3 7.7s6.1 3.3 9.8 3.3c3.2 0 6.3-.9 9.5-2.6 3.1-1.7 5.5-4.3 7.1-7.7l-2.5-1.5c-2.7 4.2-6 6.3-9.7 6.3-1.9 0-3.7-.6-5.4-1.9s-2.8-2.9-3.3-4.9c-.5-2-.8-6-.8-11.9V369h19.1v-3.6h.1zm-61.2 0v-4.8c0-11.6.2-19.1.7-22.6.5-3.5 1.9-6.5 4.4-8.8 2.5-2.3 5.3-3.5 8.6-3.5 4.1 0 7.3 2.3 9.9 7 2.3 4.2 4.8 6.3 7.5 6.3 1.4 0 2.6-.5 3.6-1.5s1.5-2.2 1.5-3.7c0-2.6-1.8-5.2-5.5-7.7s-8.5-3.8-14.7-3.8c-5 0-9.3 1-13 3-3.6 2-6.7 4.9-9.1 8.6-2.4 3.7-3.8 7.4-4.4 10.9-.5 3.5-.8 8.5-.8 14.9v5.8H747v3.6h11.8v38.1c0 7.7-.2 12.4-.5 13.8-.3 1.5-1.2 2.6-2.6 3.3-1.4.7-3.8 1.1-7.4 1.1v3.6h34.3v-3.6h-3.3c-3.3 0-5.6-.5-6.9-1.4-1.3-.9-2-2.3-2.2-4.1-.2-1.8-.3-6-.3-12.8V369h23v-3.6H770zm-52.3 49.8c-4 3.2-7.6 5.6-10.8 7.2s-6 2.4-8.4 2.4c-2.7 0-5-1-6.7-3-1.7-2-2.6-4.6-2.6-7.8 0-8.2 6.7-15 20-20.5l8.4-3.4v25.1zm16.1 9.7c-2.1 0-3.4-.9-4.1-2.6-.6-1.7-.9-5.5-.9-11.5v-25.7c0-5.4-.6-9.4-1.8-12.1-1.2-2.6-3.6-5-7.1-7-3.6-2.1-8.7-3.1-15.3-3.1-8.9 0-15.4 1.7-19.5 5.1-4.2 3.4-6.3 6.6-6.3 9.5 0 3 1.6 4.5 4.7 4.5 3.5 0 5.7-2.6 6.5-7.9.9-5.2 5.2-7.7 13-7.7 3.9 0 7 .8 9.4 2.3 2.4 1.5 3.8 3.3 4.4 5.3.6 2 .9 5.1.9 9.5v3.1l-12 4.9c-9.1 3.8-16.3 7.6-21.5 11.6-5.2 4-7.8 8.6-7.8 14 0 4.1 1.5 7.4 4.6 9.9s6.8 3.7 11.1 3.7c3.4 0 7.1-.9 11.4-2.8s9-4.6 14.1-8.3c.6 3.7 2 6.5 4 8.3 2 1.9 4.8 2.8 8.3 2.8 8.2 0 12.5-4.4 13-13.2H740c-.7 4.8-2.8 7.4-6.2 7.4m-122-102.6h-1.7c-5.3 2.2-12 3.3-20 3.3v3.6c4.6 0 7.5.9 8.7 2.6 1.2 1.7 1.8 5.8 1.8 12.2v63.3c0 7.1-.1 11.4-.3 12.8-.2 1.5-.9 2.7-1.9 3.8-1.1 1.1-3.5 1.6-7.3 1.6h-1.7v3.6h32.2v-3.6c-3.6 0-6-.4-7.4-1.3-1.3-.9-2.1-2.1-2.3-3.7-.2-1.7-.4-6-.4-13.2v-25.4c2.5-4.7 5.2-8.2 8.4-10.6 3.2-2.3 6.8-3.5 10.8-3.5 3.5 0 6.3.9 8.6 2.5 2.3 1.7 3.7 3.7 4.4 6.3.6 2.5.9 6.5.9 11.7v19c0 7-.1 11.3-.3 12.7-.2 1.5-.9 2.8-1.9 3.8-1.1 1.1-3.6 1.7-7.3 1.7h-1.5v3.6h32.8v-3.6c-3.8 0-6.3-.4-7.7-1.1-1.4-.7-2.2-1.9-2.5-3.5-.3-1.6-.4-6.1-.4-13.5v-17.5c0-7.1-.5-12.3-1.5-15.5-1-3.2-3.3-5.9-6.7-8-3.4-2.2-7.8-3.3-13-3.3-4.6 0-8.8 1.1-12.7 3.3-3.8 2.2-7.3 5.4-10.4 9.8v-53.6h.3zm-50.7 105c-7.6 0-13.3-2.8-17-8.4-3.7-5.7-5.6-13.4-5.6-23.4 0-9.7 1.8-16.9 5.2-21.7s8.7-7.2 15.6-7.2c3.9 0 6.5.6 7.8 1.8 1.3 1.2 2.2 3.3 2.9 6.3.8 4 2.9 6 6.3 6 1.6 0 2.8-.6 3.7-1.7.9-1.1 1.3-2.3 1.3-3.6 0-3.5-2.3-6.4-6.9-8.8s-9.7-3.6-15.1-3.6c-9.1 0-17 3.3-23.6 9.7-6.7 6.5-10 14.9-10 25.3 0 10.1 3.1 18.2 9.3 24.4 6.2 6.1 13.8 9.2 22.8 9.2 14 0 22.8-6 26.3-18.1h-3.4c-2.9 9.2-9.4 13.8-19.6 13.8m-84.7 3.6c.9-2.9 2-5.1 3.4-6.7 4.5 4.8 9.8 7.2 15.6 7.2 5.5 0 10.1-1.7 13.8-5.2s5.4-7.9 5.4-13.5c0-3.5-1-7.2-2.9-11-2-3.8-7.4-7.6-16.1-11.6-5.8-2.6-9.8-5-11.8-7-2.1-2-3.2-4.4-3.2-7.2 0-2.5 1-4.7 2.9-6.7 1.9-1.9 4.4-2.9 7.5-2.9 4.1 0 7.5 1.7 10.5 5.1 3 3.4 5 7.4 6 12.1h2.9v-19.6h-2.9c-1.2 3-2.2 4.9-3 5.7-3.6-4.5-8.2-6.7-13.7-6.7-5.4 0-9.7 1.9-12.6 5.7-3 3.8-4.5 7.8-4.5 11.9 0 4.4 1.4 8.1 4.2 11.1 2.8 3 7.4 6.1 13.8 9.3 6.1 3 10.2 5.5 12.3 7.7 2.1 2.1 3.1 4.9 3.1 8.2 0 2.8-1 5.4-2.9 7.8-1.9 2.4-4.9 3.6-8.8 3.6-9.1 0-15.3-6-18.8-18.1h-3V431h2.8zm-89.3-64.5v3.6c3.7 0 6.2.4 7.6 1.2s2.2 2 2.5 3.6c.3 1.6.4 6.1.4 13.4v18.9c0 7.7-.2 12.4-.5 13.8-.3 1.5-1.2 2.6-2.6 3.3-1.4.7-3.9 1.1-7.4 1.1v3.6h32.1v-3.6c-3.7 0-6.2-.4-7.6-1.2-1.4-.8-2.2-2-2.5-3.6-.3-1.6-.4-6.1-.4-13.4v-25.9c3-4.5 6.3-7.8 9.7-10.1 3.4-2.2 7-3.4 10.8-3.4 3.3 0 6 .8 8.2 2.5 2.1 1.7 3.5 3.6 3.9 5.7s.7 5.7.7 10.7v20.5c0 7.1-.1 11.4-.2 12.8s-.8 2.7-1.9 3.8c-1.1 1.1-3.6 1.7-7.3 1.7h-1.5v3.6h32.5v-3.6c-3.7 0-6.2-.4-7.6-1.2-1.4-.8-2.2-2-2.5-3.6-.3-1.6-.4-6.1-.4-13.4v-19.8c0-5.9-.5-10.3-1.4-13.4-.9-3.1-3-5.7-6.2-7.8s-7.4-3.2-12.4-3.2c-4.4 0-8.7 1.1-12.8 3.3-4.1 2.2-8 5.4-11.7 9.9-.2-5.5-.9-9.9-2-13.1h-2.1c-5.9 1.5-11.8 2.7-17.4 3.3m-54.4 17.4c1.8-11.7 7.4-17.5 16.8-17.5 3.9 0 7.1 1.2 9.8 3.7 2.7 2.5 4 6 4 10.6 0 .9-.1 2-.2 3.2h-30.4zm36.7-13.3c-4.5-5.1-11-7.6-19.3-7.6-8.9 0-16.2 3.3-22.1 10-5.9 6.6-8.9 15-8.9 25 0 7.1 1.5 13.1 4.6 18.1 3 5 7 8.8 11.7 11.5 4.8 2.7 9.9 4.1 15.2 4.1 5.8 0 11.1-1.5 16.1-4.5 4.9-3 8.2-7.1 9.9-12.4h-3.7c-3.9 8.4-10.6 12.6-20 12.6-6.9 0-12.1-2.8-15.6-8.4-3.5-5.6-5.2-14-5.2-25.1 0-1.5.1-3.8.3-6.8h44.3c-.3-6-2.7-11.5-7.3-16.5M283 402.6c-2.8 3.1-6.2 4.6-10.1 4.6-4.2 0-7.7-1.5-10.5-4.6s-4.1-8-4.1-14.7c0-7.2 1.2-12.5 3.6-16.1s5.9-5.3 10.7-5.3c3.8 0 7.1 1.4 10.1 4.3m-10.2-8c-7 0-13 2.2-18.1 6.8-5.1 4.5-7.6 10-7.6 16.5 0 4.6 1.2 8.7 3.7 12.5 2.5 3.7 6.2 7 11.1 9.9-9.4 1.8-14.2 6-14.2 12.8 0 3.5 1.7 6.4 5 8.6 3.3 2.3 10.5 3.6 21.6 4.1 9.7.4 16.4 1.7 20.2 3.7 3.8 2.1 5.7 5.8 5.7 10.9 0 4.7-2.1 8.6-6.3 11.6-4.2 3-10.1 4.5-17.7 4.5-8.5 0-14.8-1.5-19.1-4.5-4.3-3-6.4-6.7-6.4-11.3 0-3.9 1.6-7.6 4.8-11.1-.7-.3-1.4-.4-2.2-.4-3 0-5.4 1-7 3-1.7 2-2.5 4.6-2.5 7.7 0 5.7 2.9 10.4 8.7 14.1 5.8 3.7 13.5 5.6 23.1 5.6 10.5 0 18.5-2.1 24.1-6.3 5.6-4.2 8.4-9.7 8.4-16.5 0-4.9-1.4-9.1-4.1-12.5-2.7-3.5-6.4-5.9-11-7-4.6-1.2-11.1-2-19.7-2.3-7.8-.4-12.9-1-15.4-1.9-2.5-.8-3.7-2.1-3.7-4.1 0-4.1 5.5-6.3 16.4-6.7 10.6-.4 18-2.9 22.5-7.7 4.4-4.7 6.7-10.2 6.7-16.4 0-4.7-1.3-9.2-4.1-13.5 2.4-2.7 4.5-4.1 6.5-4.1 1.2 0 2.5 1 3.6 2.9 1.2 2.1 2.7 3.2 4.4 3.2 3.1 0 4.6-1.7 4.6-5.1 0-1.6-.7-3.1-2.1-4.4-1.4-1.3-3.3-2-5.8-2-4.5 0-9 2.5-13.3 7.4-5.2-5.3-12.2-8-20.8-8m-49.5 0c-5.1 1.8-12.2 3.2-21.4 4.1v3.6h2.1c2.9 0 4.9.2 6.1.6 1.2.4 2.1 1.4 2.8 3.1.7 1.7 1.1 6.2 1.1 13.7v19.2c0 7.1-.1 11.4-.3 12.8-.2 1.5-.8 2.7-1.9 3.8-1.1 1.1-3.5 1.6-7.1 1.6h-2.6v3.6H236v-3.6h-1.7c-3.3 0-5.6-.5-6.9-1.4-1.3-.9-2-2.3-2.2-4.1-.2-1.8-.3-6-.3-12.8v-44.3l-1.9.1zm-10.8-26.5c1.6 1.6 3.5 2.4 5.7 2.4s4.1-.8 5.7-2.4c1.5-1.6 2.3-3.5 2.3-5.8 0-2.2-.8-4.1-2.3-5.8-1.5-1.6-3.4-2.4-5.7-2.4s-4.1.8-5.7 2.4-2.3 3.5-2.3 5.8c-.1 2.2.7 4.2 2.3 5.8m-29.3 78.1c-3.3 4.4-6.6 7.4-10.2 8.7-3.6 1.4-8.1 2.1-13.7 2.1h-7.8c-7 0-11.4-1.1-13-3.3-1.6-2.2-2.4-9.5-2.4-22V375h11.5c4.5 0 7.7.3 9.5.9 1.9.6 3.3 1.9 4.3 3.9s1.5 5.9 1.5 11.7h3.6v-35.9h-3.6c0 5.2-.3 8.6-1 10.4-.6 1.8-2 3.1-4.1 4-2 .9-5.6 1.3-10.7 1.3h-11.1v-44.1h14.6c7.4 0 12.6.4 15.9 1.2 3.3.8 6.2 2.7 8.6 5.8s4.4 8.3 6.1 15.6h3.6l-2.5-26.2h-75v3.6c5.1 0 8.4.5 10 1.5s2.6 2.8 3 5.3c.4 2.5.6 7.8.6 15.8v51.5c0 8.8-.2 14.2-.6 16.4-.4 2.1-1.4 3.9-2.9 5.3s-4.9 2.1-10.1 2.1h-2v3.6h87l2.2-32.7h-3.7c-1.8 7.9-4.3 14-7.6 18.4M840.9 200.1c4.6 6.7 9.7 14.2 15.2 22.5-6.1 7.1-12.8 10.6-19.9 10.6-6.5 0-12.3-2.8-17.3-8.4-5.1-5.7-7.7-11.6-7.7-18.1 0-4.1 1.5-8.3 4.4-12.8 2.9-4.4 7.1-8.3 12.5-11.6 3.9 5.2 8.2 11.1 12.8 17.8m-14.4-47.8c0-3.7 1.1-6.8 3.3-9.2 2.2-2.5 5.2-3.7 9-3.7 1.9 0 3.6.3 5.1 1 1.5.7 2.9 1.7 4 2.9s2 2.7 2.6 4.5c.6 1.7.9 3.6.9 5.7 0 7-5.2 13.5-15.5 19.6-6.4-8.9-9.4-15.8-9.4-20.8m34.9 26.2c8.1.9 12.1 4.4 12.1 10.3 0 2.5-.9 6-2.6 10.4-1.7 4.4-4.1 8.7-7 12.8-4.1-5.8-8.3-11.7-12.6-17.8-4.3-6-8.8-12.1-13.4-18.3 14.9-7.5 22.3-15.2 22.3-23.1 0-5.1-2.2-9.2-6.7-12.4-4.4-3.1-9.5-4.7-15.1-4.7-6.3 0-11.5 2.1-15.6 6.3-4.2 4.2-6.2 9-6.2 14.3 0 6.8 3 14.5 9.1 22.9-10.1 6.8-16.9 12.4-20.4 16.7-3.5 4.4-5.3 9.9-5.3 16.4-.1 4.2.7 8.1 2.4 11.7 1.7 3.5 3.9 6.6 6.7 9.1 2.8 2.6 6 4.5 9.5 5.9 3.6 1.4 7.2 2.1 10.8 2 10.2 0 19.8-5.1 28.8-15.2 7.6 10.1 16.5 15.2 26.6 15.2 4.6 0 8.7-1.3 12.3-3.9 3.6-2.6 5.9-6.1 7-10.3h-3.6c-2.6 4.6-6.4 6.9-11.3 6.9-3.5 0-6.9-1.1-10.1-3.2-3.1-2.1-7.5-7.1-13-15 2.3-3 4.9-7.9 7.7-14.6 3.4-8.1 6.6-13.5 9.6-16.4 3.2-2.9 6.9-4.9 11-6v-3.6h-33.2l.2 3.6zm-157.9 14.8c1.8-11.7 7.4-17.5 16.8-17.5 3.9 0 7.1 1.2 9.8 3.7 2.7 2.5 4 6 4 10.6 0 .9-.1 2-.2 3.2h-30.4zm36.7-13.3c-4.5-5.1-11-7.6-19.3-7.6-8.9 0-16.2 3.3-22.1 10-5.9 6.6-8.9 15-8.9 25 0 7.1 1.5 13.1 4.6 18.1 3 5 7 8.8 11.7 11.5 4.8 2.7 9.9 4.1 15.3 4.1 5.8 0 11.1-1.5 16.1-4.5 4.9-3 8.2-7.1 9.9-12.4h-3.7c-3.9 8.4-10.6 12.6-20 12.6-6.9 0-12.1-2.8-15.6-8.4-3.5-5.6-5.2-14-5.2-25.1 0-1.5.1-3.8.3-6.8h44.3c-.5-6-2.9-11.4-7.4-16.5m-71.6-48.1c-1.6.7-4.5 1.4-8.8 2.2s-7.9 1.1-11.1 1.1v3.5c4.6 0 7.5.9 8.7 2.6 1.2 1.7 1.8 5.9 1.8 12.6v62.8c0 7.4-.1 11.8-.4 13.3-.3 1.5-1.1 2.8-2.3 3.6-1.3.9-3.5 1.3-6.6 1.3h-2.2v3.6h33.9v-3.6h-1.9c-3.3 0-5.6-.5-6.9-1.4s-2-2.3-2.2-4.1c-.2-1.8-.3-6-.3-12.8v-84.8l-1.7.1zM619 224.8c-4 3.2-7.6 5.6-10.8 7.2-3.2 1.6-6 2.4-8.4 2.4-2.7 0-5-1-6.7-3-1.7-2-2.6-4.6-2.6-7.8 0-8.2 6.7-15 20-20.5l8.4-3.4v25.1zm16.1 9.6c-2.1 0-3.4-.9-4.1-2.6-.6-1.7-.9-5.5-.9-11.5v-25.7c0-5.4-.6-9.4-1.8-12.1-1.2-2.6-3.6-5-7.1-7-3.6-2.1-8.7-3.1-15.3-3.1-8.9 0-15.4 1.7-19.5 5.1-4.2 3.4-6.3 6.6-6.3 9.5 0 3 1.6 4.5 4.7 4.5 3.5 0 5.7-2.6 6.5-7.9.9-5.2 5.2-7.7 13-7.7 3.9 0 7 .8 9.4 2.3 2.4 1.5 3.8 3.3 4.4 5.3.6 2 .9 5.1.9 9.5v3.1l-12 4.9c-9.1 3.8-16.3 7.6-21.5 11.6-5.2 4-7.8 8.6-7.8 14 0 4.1 1.5 7.4 4.6 9.9 3.1 2.5 6.8 3.7 11.1 3.7 3.4 0 7.1-.9 11.4-2.8 4.3-1.9 9-4.6 14.1-8.3.6 3.7 2 6.5 4 8.3 2 1.9 4.8 2.8 8.3 2.8 8.2 0 12.5-4.4 13-13.2h-2.9c-.7 4.8-2.8 7.4-6.2 7.4m-186.8-58.5v3.6c3.6 0 6 .4 7.4 1.2 1.4.9 2.2 2.1 2.4 3.7.2 1.7.4 6.1.4 13.3v19c0 7.6-.2 12.2-.5 13.7s-1.2 2.6-2.5 3.4c-1.4.7-3.7 1.1-7.1 1.1v3.6h31.1v-3.6c-3.5 0-5.9-.4-7.2-1.3-1.3-.9-2.1-2.2-2.3-3.9s-.3-6-.3-13v-26.4c3.5-4.1 6.9-7.3 10.2-9.3 3.3-2.1 6.6-3.1 9.8-3.1 3.3 0 6.1.9 8.3 2.7 2.2 1.8 3.6 3.9 4 6.5.4 2.5.6 6.6.6 12.1v17.6c0 7.7-.2 12.3-.5 13.8s-1.2 2.6-2.6 3.3c-1.4.7-3.8 1.1-7.3 1.1v3.6h30.7V235c-3.3 0-5.5-.5-6.8-1.4-1.3-1-2-2.3-2.2-4.1-.2-1.7-.3-6-.3-12.7v-25c3.4-4.6 6.8-8.1 10.2-10.3 3.4-2.3 6.8-3.4 10.1-3.4s6 .8 8.1 2.3c2.1 1.5 3.4 3.4 3.8 5.6.5 2.2.7 5.4.7 9.7v21.2c0 7.6-.2 12.2-.5 13.7s-1.2 2.7-2.5 3.4c-1.4.7-3.7 1.1-7.1 1.1v3.6h31.7v-3.6c-3.7 0-6.2-.4-7.6-1.2-1.4-.8-2.2-2-2.5-3.6-.3-1.6-.4-6.1-.4-13.5v-19c0-6.5-.4-11.1-1.1-14-.7-2.9-2.8-5.5-6.2-7.7-3.4-2.3-7.6-3.4-12.5-3.4-4.3 0-8.5 1.2-12.6 3.6-4.2 2.4-8.2 5.9-12.1 10.7-1.3-4.7-3.6-8.3-6.8-10.7-3.3-2.4-7.5-3.6-12.7-3.6-4.6 0-8.9 1.1-12.9 3.3-4 2.2-7.7 5.5-11.2 10 0-5.4-.7-9.9-2.2-13.3h-.8c-4.8 1.3-10.9 2.4-18.2 3.2m-34.9 2.6c4 .1 6 1.3 6 3.6 0 3.4-5.4 8.9-16.2 16.5l-6.7 4.6v-71.3h-1.7c-1.5.7-4.5 1.4-8.7 2.2-4.3.7-7.9 1.1-11 1.1v3.5c4.4 0 7.3.9 8.4 2.6s1.8 5.7 1.8 11.8v63.6c0 7.1-.1 11.4-.2 12.8-.2 1.5-.8 2.7-1.9 3.8-1.1 1.1-3.5 1.6-7.3 1.6h-2.4v3.6h32.2v-3.6c-3.2 0-5.4-.5-6.7-1.4-1.3-1-2-2.3-2.2-4.1-.2-1.7-.3-6-.3-12.7v-9.1l3.3-2.5 16.3 18.9c3.5 4.1 5.2 6.6 5.2 7.5 0 2.2-2.6 3.3-7.9 3.4v3.6H445v-3.6c-2.1-.1-4.1-.7-6-2-2-1.2-4.6-3.8-8.1-7.8l-22.6-26.5c5.3-4.2 9.2-7.4 11.8-9.5 7.9-6.9 14.2-10.5 18.9-10.6v-3.6h-25.5v3.6h-.1zm-72.8-6.1c-7.8 2.5-14.2 4-19 4.6v3.5h1.7c3.3 0 5.6.5 6.9 1.4 1.3 1 2 2.3 2.2 4.1.2 1.7.3 6 .3 12.8v17.9c0 7.4-.1 11.8-.4 13.3s-1.1 2.8-2.3 3.6c-1.3.9-3.5 1.3-6.6 1.3h-1.7v3.6h33.7v-3.6h-2.1c-3.3 0-5.6-.5-6.9-1.4-1.3-.9-2-2.3-2.2-4.1-.2-1.8-.3-6-.3-12.8v-11.3c0-5.7.4-10.1 1.3-13.4.9-3.3 2.9-6.4 6-9.4s5.8-4.5 8-4.5c1.9 0 3.3 1.3 4.2 3.9 1.3 3.8 3.3 5.8 5.9 5.8 1.4 0 2.7-.5 3.7-1.7 1-1.1 1.5-2.4 1.5-3.9 0-2.2-1-4.4-2.9-6.5-2-2.1-4.6-3.2-8.1-3.2-3.8 0-7.6 1.5-11.6 4.6s-6.8 6.9-8.6 11.5c-.4-6.6-1.2-12-2.7-16.1m-73.9 20.9c1.8-11.7 7.4-17.5 16.8-17.5 3.9 0 7.1 1.2 9.8 3.7s4 6 4 10.6c0 .9-.1 2-.2 3.2h-30.4zm36.7-13.3c-4.5-5.1-11-7.6-19.3-7.6-8.9 0-16.2 3.3-22.1 10-5.9 6.6-8.9 15-8.9 25 0 7.1 1.5 13.1 4.6 18.1 3 5 7 8.8 11.7 11.5 4.8 2.7 9.9 4.1 15.2 4.1 5.8 0 11.1-1.5 16.1-4.5 4.9-3 8.2-7.1 9.9-12.4h-3.7c-3.9 8.4-10.6 12.6-20 12.6-6.9 0-12.1-2.8-15.6-8.4-3.5-5.6-5.2-14-5.2-25.1 0-1.5.1-3.8.3-6.8h44.3c-.4-6-2.8-11.4-7.3-16.5m-168.3-46.7h-32v3.6h2.9c5.3 0 8.7.5 10.3 1.4s2.6 2.6 3.1 5c.5 2.5.7 7.8.7 16.2v45.7c0 8.7-.3 14.6-.9 17.8-.6 3.2-2.3 5.9-5.2 8.1s-6.5 3.4-11 3.7v3.6h37.6v-3.6c-4.9-.3-8.6-1.6-11.3-3.9-2.7-2.3-4.3-5-4.8-8s-.8-8.8-.8-17.2v-61.5l41.9 94.2h3.6l41.6-94.2V211c0 8.8-.3 14.4-.7 16.8-.5 2.4-1.6 4.2-3.3 5.3-1.7 1.1-4.8 1.7-9.3 1.7h-3.7v3.6H244v-3.6h-4.6c-4.7 0-7.9-.6-9.7-1.9-1.7-1.2-2.7-3.1-3.1-5.7-.4-2.6-.6-7.9-.6-16.2v-51.5c0-8.7.3-14.2.8-16.6.5-2.3 1.6-3.9 3.2-4.7s5-1.3 10.1-1.3h3.9v-3.6h-32.2l-38.3 86.9-38.4-86.9z"/><g><defs><path id="SVGID_35_" d="M0 96h1024v576H0z"/></defs><clipPath id="SVGID_36_"><use xlink:href="#SVGID_35_" overflow="visible"/></clipPath></g><g><defs><path id="SVGID_37_" d="M0 96h1024v576H0z"/></defs><clipPath id="SVGID_38_"><use xlink:href="#SVGID_37_" overflow="visible"/></clipPath></g><g><defs><path id="SVGID_39_" d="M0 96h1024v576H0z"/></defs><clipPath id="SVGID_40_"><use xlink:href="#SVGID_39_" overflow="visible"/></clipPath><g class="st21"><defs><path id="SVGID_41_" d="M0 96h1024v576H0z"/></defs><clipPath id="SVGID_42_"><use xlink:href="#SVGID_41_" overflow="visible"/></clipPath><path class="st22" d="M372.1 177.8c0-.1-.1-.1-.1-.1-.2-.1-.3-.2-.4-.3-.4-.3-.7-.7-1.1-1-.5-.4-1-.4-1.6-.5-.8-.1-1.7.1-2.4.2-.3.1-.6.1-.9.2-.5.2-.6.4-1 .8-.2.2-.3.4-.4.6-.2.4-.2 1-.1 1.4.1.3.2.5.2.7l.6 1.8c.3.6.5 1.3.8 1.9s.5 1.4 1.1 1.9c.5.5 1.2.8 1.9.9.9 0 1.8-.3 2.5-.8.3-.2.5-.4.7-.7.1-.2.2-.3.4-.5.2-.3.3-.6.3-1 .1-1 .2-2.1-.1-3-.2-.7.2-1 .1-1.7-.1-.3 0-.6-.2-.8"/><g><defs><path id="SVGID_43_" d="M0 96h1024v576H0z"/></defs><clipPath id="SVGID_44_"><use xlink:href="#SVGID_43_" overflow="visible"/></clipPath><path class="st23" d="M371.3 178"/></g><g><defs><path id="SVGID_45_" d="M0 96h1024v576H0z"/></defs><clipPath id="SVGID_46_"><use xlink:href="#SVGID_45_" overflow="visible"/></clipPath><g class="st24"><defs><path id="SVGID_47_" d="M0 96h1024v576H0z"/></defs><clipPath id="SVGID_48_"><use xlink:href="#SVGID_47_" overflow="visible"/></clipPath><g class="st25"><g class="st26"><defs><path id="SVGID_49_" d="M953.2 319.9h9.6v4.3h-9.6z"/></defs><defs><path id="SVGID_50_" d="M953.2 319.9h9.6v4.3h-9.6z"/></defs><clipPath id="SVGID_51_"><use xlink:href="#SVGID_49_" overflow="visible"/></clipPath><clipPath id="SVGID_52_" class="st27"><use xlink:href="#SVGID_50_" overflow="visible"/></clipPath></g><defs><path id="SVGID_53_" d="M0 96h1024v576H0z"/></defs><clipPath id="SVGID_54_"><use xlink:href="#SVGID_53_" overflow="visible"/></clipPath><g class="st30"><g class="st26"><defs><path id="SVGID_55_" d="M985 425.1h9.6v4.3H985z"/></defs><clipPath id="SVGID_56_"><use xlink:href="#SVGID_55_" overflow="visible"/></clipPath></g><defs><path id="SVGID_57_" d="M0 96h1024v576H0z"/></defs><clipPath id="SVGID_58_"><use xlink:href="#SVGID_57_" overflow="visible"/></clipPath><g class="st32"><g class="st26"><defs><path id="SVGID_59_" d="M984 319.9h9.6v4.3H984z"/></defs><clipPath id="SVGID_60_"><use xlink:href="#SVGID_59_" overflow="visible"/></clipPath></g><defs><path id="SVGID_61_" d="M0 96h1024v576H0z"/></defs><clipPath id="SVGID_62_"><use xlink:href="#SVGID_61_" overflow="visible"/></clipPath><path class="st34" d="M561.1 427.3c-7.6 0-13.3-2.8-17-8.4-3.7-5.7-5.6-13.4-5.6-23.4 0-9.7 1.8-16.9 5.2-21.7s8.7-7.2 15.6-7.2c3.9 0 6.5.6 7.8 1.8 1.3 1.2 2.2 3.3 2.9 6.3.8 4 2.9 6 6.3 6 1.6 0 2.8-.6 3.7-1.7s1.3-2.3 1.3-3.6c0-3.5-2.3-6.4-6.9-8.8-4.6-2.4-9.7-3.6-15.1-3.6-9.1 0-17 3.3-23.6 9.7-6.7 6.5-10 14.9-10 25.3 0 10.1 3.1 18.2 9.3 24.4 6.2 6.1 13.8 9.2 22.8 9.2 14 0 22.8-6 26.3-18.1h-3.4c-2.8 9.2-9.3 13.8-19.6 13.8"/><g><defs><path id="SVGID_63_" d="M0 96h1024v576H0z"/></defs><clipPath id="SVGID_64_"><use xlink:href="#SVGID_63_" overflow="visible"/></clipPath></g><g><defs><path id="SVGID_65_" d="M0 96h1024v576H0z"/></defs><clipPath id="SVGID_66_"><use xlink:href="#SVGID_65_" overflow="visible"/></clipPath><g class="st36"><defs><path id="SVGID_67_" d="M0 96h1024v576H0z"/></defs><clipPath id="SVGID_68_"><use xlink:href="#SVGID_67_" overflow="visible"/></clipPath><g class="st37"><defs><path id="SVGID_69_" d="M0 96h1024v576H0z"/></defs><defs><path id="SVGID_70_" d="M0 96h1024v576H0z"/></defs><defs><path id="SVGID_71_" d="M0 96h1024v576H0z"/></defs><defs><path id="SVGID_72_" d="M0 96h1024v576H0z"/></defs><defs><path id="SVGID_73_" d="M0 96h1024v576H0z"/></defs><defs><path id="SVGID_74_" d="M0 96h1024v576H0z"/></defs><defs><path id="SVGID_75_" d="M0 96h1024v576H0z"/></defs><clipPath id="SVGID_76_"><use xlink:href="#SVGID_69_" overflow="visible"/></clipPath><clipPath id="SVGID_77_" class="st39"><use xlink:href="#SVGID_70_" overflow="visible"/></clipPath><clipPath id="SVGID_78_" class="st40"><use xlink:href="#SVGID_71_" overflow="visible"/></clipPath><clipPath id="SVGID_79_" class="st41"><use xlink:href="#SVGID_72_" overflow="visible"/></clipPath><clipPath id="SVGID_80_" class="st42"><use xlink:href="#SVGID_73_" overflow="visible"/></clipPath><clipPath id="SVGID_81_" class="st43"><use xlink:href="#SVGID_74_" overflow="visible"/></clipPath><clipPath id="SVGID_82_" class="st44"><use xlink:href="#SVGID_75_" overflow="visible"/></clipPath><path class="st45" d="M385.1 229.5c-.2 1.5-.8 2.7-1.9 3.8-1.1 1.1-3.5 1.6-7.3 1.6h-2.4v3.6h32.2v-3.6c-3.2 0-5.4-.5-6.7-1.4s-2-2.3-2.2-4.1M416.1 223.9c3.5 4.1 5.2 6.6 5.2 7.5 0 2.2-2.6 3.3-7.9 3.4v3.6H445v-3.6c-2.1-.1-4.1-.7-6-2-2-1.2-4.6-3.8-8.1-7.8M420.1 189.1c7.9-6.9 14.2-10.5 18.9-10.6v-3.6h-25.5v3.6c4 .1 6 1.3 6 3.6"/><g><defs><path id="SVGID_83_" d="M0 96h1024v576H0z"/></defs><defs><path id="SVGID_84_" d="M0 96h1024v576H0z"/></defs><defs><path id="SVGID_85_" d="M0 96h1024v576H0z"/></defs><defs><path id="SVGID_86_" d="M0 96h1024v576H0z"/></defs><defs><path id="SVGID_87_" d="M0 96h1024v576H0z"/></defs><clipPath id="SVGID_88_"><use xlink:href="#SVGID_83_" overflow="visible"/></clipPath><clipPath id="SVGID_89_" class="st47"><use xlink:href="#SVGID_84_" overflow="visible"/></clipPath><clipPath id="SVGID_90_" class="st48"><use xlink:href="#SVGID_85_" overflow="visible"/></clipPath><clipPath id="SVGID_91_" class="st49"><use xlink:href="#SVGID_86_" overflow="visible"/></clipPath><clipPath id="SVGID_92_" class="st50"><use xlink:href="#SVGID_87_" overflow="visible"/></clipPath></g><g><defs><path id="SVGID_93_" d="M0 96h1024v576H0z"/></defs><defs><path id="SVGID_94_" d="M0 96h1024v576H0z"/></defs><clipPath id="SVGID_95_"><use xlink:href="#SVGID_93_" overflow="visible"/></clipPath><clipPath id="SVGID_96_" class="st52"><use xlink:href="#SVGID_94_" overflow="visible"/></clipPath><path class="st53" d="M372.1 177.8c0-.1-.1-.1-.1-.1-.2-.1-.3-.2-.4-.3-.4-.3-.7-.7-1.1-1-.5-.4-1-.4-1.6-.5-.8-.1-1.7.1-2.4.2-.3.1-.6.1-.9.2-.5.2-.6.4-1 .8-.2.2-.3.4-.4.6-.2.4-.2 1-.1 1.4.1.3.2.5.2.7l.6 1.8c.3.6.5 1.3.8 1.9s.5 1.4 1.1 1.9c.5.5 1.2.8 1.9.9.9 0 1.8-.3 2.5-.8.3-.2.5-.4.7-.7.1-.2.2-.3.4-.5.2-.3.3-.6.3-1 .1-1 .2-2.1-.1-3-.2-.7.2-1 .1-1.7-.1-.3 0-.6-.2-.8"/></g><g><defs><path id="SVGID_97_" d="M0 96h1024v576H0z"/></defs><defs><path id="SVGID_98_" d="M0 96h1024v576H0z"/></defs><clipPath id="SVGID_99_"><use xlink:href="#SVGID_97_" overflow="visible"/></clipPath><clipPath id="SVGID_100_" class="st54"><use xlink:href="#SVGID_98_" overflow="visible"/></clipPath><path class="st55" d="M371.3 178"/></g><g><defs><path id="SVGID_101_" d="M0 96h1024v576H0z"/></defs><defs><path id="SVGID_102_" d="M0 96h1024v576H0z"/></defs><defs><path id="SVGID_103_" d="M0 96h1024v576H0z"/></defs><defs><path id="SVGID_104_" d="M0 96h1024v576H0z"/></defs><defs><path id="SVGID_105_" d="M0 96h1024v576H0z"/></defs><defs><path id="SVGID_106_" d="M0 96h1024v576H0z"/></defs><defs><path id="SVGID_107_" d="M0 96h1024v576H0z"/></defs><defs><path id="SVGID_108_" d="M0 96h1024v576H0z"/></defs><defs><path id="SVGID_109_" d="M0 96h1024v576H0z"/></defs><defs><path id="SVGID_110_" d="M0 96h1024v576H0z"/></defs><defs><path id="SVGID_111_" d="M0 96h1024v576H0z"/></defs><defs><path id="SVGID_112_" d="M0 96h1024v576H0z"/></defs><defs><path id="SVGID_113_" d="M0 96h1024v576H0z"/></defs><defs><path id="SVGID_114_" d="M0 96h1024v576H0z"/></defs><defs><path id="SVGID_115_" d="M0 96h1024v576H0z"/></defs><defs><path id="SVGID_116_" d="M0 96h1024v576H0z"/></defs><defs><path id="SVGID_117_" d="M0 96h1024v576H0z"/></defs><defs><path id="SVGID_118_" d="M0 96h1024v576H0z"/></defs><defs><path id="SVGID_119_" d="M0 96h1024v576H0z"/></defs><defs><path id="SVGID_120_" d="M0 96h1024v576H0z"/></defs><defs><path id="SVGID_121_" d="M0 96h1024v576H0z"/></defs><defs><path id="SVGID_122_" d="M0 96h1024v576H0z"/></defs><defs><path id="SVGID_123_" d="M0 96h1024v576H0z"/></defs><clipPath id="SVGID_124_"><use xlink:href="#SVGID_101_" overflow="visible"/></clipPath><clipPath id="SVGID_125_" class="st56"><use xlink:href="#SVGID_102_" overflow="visible"/></clipPath><clipPath id="SVGID_126_" class="st57"><use xlink:href="#SVGID_103_" overflow="visible"/></clipPath><clipPath id="SVGID_127_" class="st58"><use xlink:href="#SVGID_104_" overflow="visible"/></clipPath><clipPath id="SVGID_128_" class="st59"><use xlink:href="#SVGID_105_" overflow="visible"/></clipPath><clipPath id="SVGID_129_" class="st60"><use xlink:href="#SVGID_106_" overflow="visible"/></clipPath><clipPath id="SVGID_130_" class="st61"><use xlink:href="#SVGID_107_" overflow="visible"/></clipPath><clipPath id="SVGID_131_" class="st62"><use xlink:href="#SVGID_108_" overflow="visible"/></clipPath><clipPath id="SVGID_132_" class="st63"><use xlink:href="#SVGID_109_" overflow="visible"/></clipPath><clipPath id="SVGID_133_" class="st64"><use xlink:href="#SVGID_110_" overflow="visible"/></clipPath><clipPath id="SVGID_134_" class="st65"><use xlink:href="#SVGID_111_" overflow="visible"/></clipPath><clipPath id="SVGID_135_" class="st66"><use xlink:href="#SVGID_112_" overflow="visible"/></clipPath><clipPath id="SVGID_136_" class="st67"><use xlink:href="#SVGID_113_" overflow="visible"/></clipPath><clipPath id="SVGID_137_" class="st68"><use xlink:href="#SVGID_114_" overflow="visible"/></clipPath><clipPath id="SVGID_138_" class="st69"><use xlink:href="#SVGID_115_" overflow="visible"/></clipPath><clipPath id="SVGID_139_" class="st70"><use xlink:href="#SVGID_116_" overflow="visible"/></clipPath><clipPath id="SVGID_140_" class="st71"><use xlink:href="#SVGID_117_" overflow="visible"/></clipPath><clipPath id="SVGID_141_" class="st72"><use xlink:href="#SVGID_118_" overflow="visible"/></clipPath><clipPath id="SVGID_142_" class="st73"><use xlink:href="#SVGID_119_" overflow="visible"/></clipPath><clipPath id="SVGID_143_" class="st74"><use xlink:href="#SVGID_120_" overflow="visible"/></clipPath><clipPath id="SVGID_144_" class="st75"><use xlink:href="#SVGID_121_" overflow="visible"/></clipPath><clipPath id="SVGID_145_" class="st76"><use xlink:href="#SVGID_122_" overflow="visible"/></clipPath><clipPath id="SVGID_146_" class="st77"><use xlink:href="#SVGID_123_" overflow="visible"/></clipPath></g></g></g></g></g></g></g></g></g></g></g></g></g></g></g></g></g><path class="st79" d="M985 425.1h9.6v4.3H985z"/><path class="st79" d="M0 96h1024v576H0z"/><path class="st79" d="M0 96h1024v576H0z"/><path class="st79" d="M0 96h1024v576H0z"/><path class="st79" d="M0 96h1024v576H0z"/><path class="st79" d="M0 96h1024v576H0z"/></svg>