<svg id="merkmale-eigenschaften" xmlns="http://www.w3.org/2000/svg" xmlns:xlink="http://www.w3.org/1999/xlink" viewBox="0 0 1600 570" width="800" height="300"><style>.st0{clip-path:url(#SVGID_2_)}.st1{clip-path:url(#SVGID_4_)}.st2{fill:#181716}.st3{fill:none;stroke:#181716;stroke-width:.5}.st4{opacity:.7;enable-background:new}.st5{clip-path:url(#SVGID_6_)}.st6{font-family:&amp;apos;Flama-Book&amp;apos;}.st7{font-size:12.7957px}.st8{letter-spacing:-2}.st9{clip-path:url(#SVGID_8_)}.st10{fill:none;stroke:#181716}.st11{fill:#e4007d}.st12{fill:none;stroke:#e4007d;stroke-dasharray:2.95,1.95}.st13{stroke-width:.5}.st13,.st14{fill:none;stroke:#e4007d}.st15{fill:#ebecec}.st16{font-size:15.6461px}</style><defs><path id="SVGID_1_" d="M-3.8 1.9h1608.5v563.4H-3.8z"/></defs><clipPath id="SVGID_2_"><use xlink:href="#SVGID_1_" overflow="visible"/></clipPath><g class="st0"><defs><path id="SVGID_3_" d="M-3.8 1.9h1608.5v563.4H-3.8z"/></defs><clipPath id="SVGID_4_"><use xlink:href="#SVGID_3_" overflow="visible"/></clipPath><g class="st1"><path class="st2" d="M760.6 503.7c1-4 2.9-7.7 5.6-11 7.5 7.9 16 11.9 25.6 11.9 8.3.2 16.4-2.7 22.7-8.5 6-5.8 9.2-13.9 8.9-22.1-.2-6.2-1.9-12.5-4.8-18.1-3.3-6.2-12.1-12.7-26.4-19.1-9.6-4.4-16-8.1-19.6-11.7-3.3-3.1-5.2-7.3-5.2-11.9 0-4.2 1.7-8.1 4.6-11 3.3-3.1 7.7-5 12.3-4.6 6.7 0 13.1 3.1 17.3 8.3 5 5.6 8.3 12.5 10 20h4.6v-32.2h-4.6c-1.2 3.3-2.9 6.4-5 9.4-5.4-7.1-13.7-11.2-22.5-11-8.9 0-15.8 3.1-20.8 9.4-4.6 5.4-7.3 12.5-7.3 19.6-.2 6.7 2.3 13.3 7.1 18.1 4.6 5 12.1 10.2 22.7 15.4 10 5 16.9 9.2 20.2 12.7 3.5 3.5 5.4 8.3 5.2 13.3 0 4.8-1.7 9.4-4.8 12.9-3.1 4-7.9 5.8-14.6 5.8-14.8 0-25.2-10-31-29.8h-5v34.3l4.8-.1zM613.7 397.6v5.8c6 0 10.2.6 12.5 1.9 2.3 1.2 3.7 3.3 4.2 5.8.6 7.3.8 14.8.6 22.1v31c0 12.7-.2 20.4-.8 22.7-.4 2.3-2.1 4.4-4.2 5.4-2.3 1.2-6.4 1.9-12.3 1.9v5.8h52.8v-5.8c-6 0-10.2-.6-12.5-1.9-2.3-1.2-3.7-3.3-4.2-6-.6-7.3-.8-14.8-.6-22.1v-42.7c4.2-6.7 9.6-12.3 16-16.6 5.2-3.5 11.4-5.4 17.7-5.6 4.8-.2 9.6 1.2 13.5 4.2 3.1 2.3 5.4 5.6 6.4 9.4 1 5.8 1.5 11.7 1.2 17.7v33.7c0 11.7-.2 18.7-.4 21-.2 2.5-1.5 4.6-3.1 6.2-1.9 1.9-5.8 2.7-12.1 2.7h-2.5v5.8h53.3v-5.8c-6 0-10.2-.6-12.5-1.9-2.3-1.2-3.7-3.3-4-6-.6-7.3-.8-14.8-.6-22.1v-32.7c.2-7.5-.4-14.8-2.3-22.1-1.9-5.4-5.4-10-10.4-12.9-6.2-3.7-13.3-5.6-20.4-5.2-7.3 0-14.6 1.9-21 5.4-7.3 4.2-13.9 9.6-19.1 16.2 0-7.3-1-14.6-3.3-21.6h-3.3c-9.2 3.4-19 5.3-28.6 6.3m-89.4 28.7c2.9-19.1 12.3-28.9 27.7-28.9 6-.2 11.9 2.1 16 6.2 4.4 4.2 6.4 10 6.4 17.5 0 1.7-.2 3.5-.4 5.2h-49.7zm60.3-22c-7.5-8.3-18.1-12.5-31.6-12.5-13.9-.2-27.3 5.8-36.4 16.4-9.8 10.8-14.6 24.6-14.6 41.2-.4 10.4 2.3 20.6 7.5 29.8 4.8 7.9 11.4 14.4 19.3 18.9 16 9.2 35.6 8.9 51.4-.6 7.7-4.6 13.5-11.7 16.2-20.4h-6c-6.4 13.9-17.3 20.8-32.9 20.8-11.4 0-20-4.6-25.6-13.7-5.6-9.2-8.5-23.1-8.5-41.4 0-2.5.2-6.2.4-11.2h72.8c-.8-10.5-4.9-20-12-27.3"/><path class="st2" d="M596 426.3c.2 1.7.4 3.3.6 5h-72.8l.4-5M755.6 500.4v3.3h5c.4-1.2.8-2.3 1.2-3.3m14 0c5 2.9 10.4 4.4 16.2 4.4 5.8.2 11.7-1.2 16.9-4.2m7.5-104.2v-2.5h-4.6c-.4.8-.8 1.9-1 2.5m-11.5 0c-4.6-2.9-9.8-4.4-15.2-4.4-5.6-.2-11 1.5-15.6 4.4"/><path class="st3" d="M596.7 381.4v131.9"/><g class="st4"><defs><path id="SVGID_5_" class="st4" d="M600.4 371.6h26.2v143.1h-26.2z"/></defs><clipPath id="SVGID_6_"><use xlink:href="#SVGID_5_" overflow="visible"/></clipPath><path class="st5 st3" d="M613.5 381.4v131.9"/></g><path class="st3" d="M739.8 381.4v131.9M755.4 381.4v131.9M747.5 381.4v131.9M605 381.4v131.9"/><text transform="translate(9.032 187.04)" class="st2 st6 st7">Grundlinie</text><text transform="translate(9.032 21.965)" class="st2 st6 st7">K-Linie</text><text transform="translate(47.938 21.965)" class="st2 st6 st7 st8"></text><text transform="translate(50.02 21.965)" class="st2 st6 st7">/</text><text transform="translate(9.032 41.877)" class="st2 st6 st7">Oberlinie</text><text transform="translate(9.032 64.284)" class="st2 st6 st7">H-Linie</text><text transform="translate(9.032 87.567)" class="st2 st6 st7">Mittellinie</text><text transform="translate(64.168 87.567)" class="st2 st6 st7 st8"></text><text transform="translate(66.249 87.567)" class="st2 st6 st7">/</text><text transform="translate(9.032 107.477)" class="st2 st6 st7">X-Linie</text><text transform="translate(8.885 215.877)" class="st2 st6 st7">Unterlinie</text><text transform="translate(62.981 215.877)" class="st2 st6 st7 st8"></text><text transform="translate(65.062 215.877)" class="st2 st6 st7">/</text><text transform="translate(69.431 215.877)" class="st2 st6 st7 st8"></text><text transform="translate(71.512 215.877)" class="st2 st6 st7">P-Linie</text><text transform="rotate(-90 261.675 131.366)" class="st2 st6 st7">Oberlänge</text><text transform="rotate(-90 306.71 176.608)" class="st2 st6 st7">Mittellänge</text><text transform="rotate(-90 346.783 216.681)" class="st2 st6 st7">Unterlänge</text><text transform="rotate(-90 266.44 172.041)" class="st2 st6 st7">V</text><text transform="rotate(-90 263.027 168.628)" class="st2 st6 st7">ersalhöhe</text><text transform="rotate(-90 270.736 212.831)" class="st2 st6 st7">K</text><text transform="rotate(-90 266.824 208.92)" class="st2 st6 st7">egelgröße</text><text transform="rotate(-90 238.028 180.124)" class="st2 st6 st7">/</text><text transform="rotate(-90 235.043 177.139)" class="st2 st6 st7">Schriftgröße</text><g><g id="font-complete"><defs><path id="SVGID_7_" d="M-3.8 1.9h1608.5v563.4H-3.8z"/></defs><clipPath id="SVGID_8_"><use xlink:href="#SVGID_7_" overflow="visible"/></clipPath><g class="st9"><path class="st2" d="M1469.7 397.6v5.8c6 0 10.2.6 12.5 1.9 2.3 1.2 3.7 3.3 4.2 5.8.6 7.3.8 14.8.6 22.1v31c0 12.7-.2 20.4-.8 22.7-.4 2.3-2.1 4.4-4.2 5.4-2.3 1.2-6.4 1.9-12.3 1.9v5.8h52.6v-5.8c-6 0-10.2-.6-12.5-1.9-2.3-1.2-3.7-3.3-4.2-6-.6-7.3-.8-14.8-.6-22.1v-42.7c4.2-6.7 9.6-12.3 16-16.6 5.2-3.5 11.4-5.4 17.7-5.6 4.8-.2 9.6 1.2 13.5 4.2 3.1 2.3 5.4 5.6 6.4 9.4 1 5.8 1.5 11.7 1.2 17.7v33.7c0 11.7-.2 18.7-.4 21-.2 2.5-1.5 4.6-3.1 6.2-1.9 1.9-5.8 2.7-12.1 2.7h-2.5v5.8h53.5v-5.8c-6 0-10.2-.6-12.5-1.9-2.3-1.2-3.7-3.3-4-6-.6-7.3-.8-14.8-.6-22.1v-32.7c.2-7.5-.4-14.8-2.3-22.1-1.9-5.4-5.4-10-10.4-12.7-6.2-3.7-13.3-5.6-20.4-5.2-7.3 0-14.6 1.9-21 5.4-7.3 4.2-13.9 9.6-19.1 16.2 0-7.3-1-14.6-3.3-21.6h-3.5c-9.4 2.7-18.9 4.8-28.7 5.8m-89.4 29c3.1-19.1 12.5-28.9 27.9-28.9 6-.2 11.9 2.1 16 6.2 4.4 4.2 6.7 10 6.7 17.5 0 1.7-.2 3.5-.4 5.2H1380zm60.3-22c-7.5-8.3-18.1-12.5-31.6-12.5-13.7-.2-27 5.8-36 16.2-9.8 10.8-14.6 24.6-14.6 41.2-.4 10.4 2.3 20.6 7.5 29.8 4.8 7.9 11.4 14.4 19.3 18.9 16 9.2 35.6 8.9 51.4-.6 7.7-4.6 13.5-11.7 16.2-20.4h-6c-6.4 13.9-17.5 20.8-32.9 20.8-11.4 0-20-4.6-25.6-13.7-5.8-9.2-8.5-23.1-8.5-41.4 0-2.5.2-6.2.4-11.2h72.8c-.6-10.2-4.8-19.8-11.9-27M1344 396h-31.6v-32.7h-4.2c-1.5 10.4-5 18.3-10.4 24.1-4.8 5.4-11.4 8.5-18.7 8.7v5.8h15.2V461c0 12.1.6 20.6 1.7 25.4 1.2 5.2 4.4 9.6 8.7 12.7 4.6 3.5 10.2 5.4 16 5.4 5.4 0 10.8-1.5 15.6-4.4 5.2-2.9 9.2-7.3 11.7-12.7l-4.2-2.5c-4.6 6.9-9.8 10.4-16 10.4-3.1 0-6.2-1-8.9-3.1-2.7-1.9-4.6-4.8-5.4-8.1-1-6.4-1.5-13.1-1.2-19.6v-63h31.4l.3-5.5zm-100.7 0v-8c0-18.9.4-31.4 1-37.2.6-5.6 3.1-10.6 7.3-14.4 3.7-3.7 8.7-5.8 14.1-5.8 6.7 0 12.1 3.7 16.2 11.4 3.7 6.9 7.9 10.4 12.3 10.4 2.3 0 4.4-.8 6-2.5 1.7-1.7 2.7-3.7 2.5-6 0-4.4-3.1-8.5-8.9-12.7-6-4.2-14.1-6.2-24.1-6.2-7.5-.2-14.8 1.5-21.4 5-6 3.3-11.2 8.3-15 14.1-3.7 5.4-6 11.4-7.3 17.9-1 8.1-1.5 16.2-1.2 24.6v9.4h-19.6v5.8h19.6v62.6c0 12.7-.2 20.4-.8 22.7-.4 2.3-2.1 4.4-4.2 5.4-2.3 1.2-6.2 1.9-12.1 1.9v5.8h56.4v-5.8h-5.4c-5.4 0-9.2-.8-11.4-2.3-2.1-1.5-3.5-4-3.7-6.7-.2-2.9-.4-10-.4-21v-62.6h37.9v-6l-37.8.2zm-85.9 81.7c-5.4 4.6-11.4 8.5-17.7 11.9-4.2 2.3-8.9 3.7-13.9 4-4.2.2-8.3-1.7-11-5-2.9-3.7-4.4-8.3-4.2-12.9 0-13.5 11-24.8 32.9-33.7l13.9-5.6v41.3zm26.4 15.8c-2.9.4-5.6-1.5-6.7-4.2-1-2.7-1.5-9.2-1.5-18.9v-42c0-8.9-1-15.6-2.9-20s-5.8-8.1-11.9-11.7-14.4-5-25.2-5c-14.6 0-25.2 2.7-32 8.3-6.9 5.6-10.4 10.8-10.4 15.6 0 5 2.5 7.3 7.7 7.5 5.8 0 9.4-4.4 10.6-12.9 1.5-8.7 8.3-12.9 21.2-12.7 5.4-.2 10.8 1 15.4 3.7 3.3 1.9 6 5 7.3 8.7 1 5.2 1.7 10.4 1.5 15.6v5.2l-19.8 8.1c-15 6.2-26.8 12.5-35.4 19.1-8.5 6.4-12.9 14.1-12.9 22.9-.2 6.2 2.7 12.3 7.7 16.2 5.2 4.2 11.7 6.2 18.3 6 6.4-.2 12.9-1.9 18.7-4.6 8.3-3.7 16-8.3 23.3-13.5.6 5.2 2.9 10 6.7 13.7 3.7 3.1 8.7 4.8 13.7 4.6 13.5 0 20.6-7.3 21.4-21.8h-4.6c-1.3 8.2-4.8 12.3-10.2 12.1M983.2 325.2h-2.7c-8.7 3.5-19.8 5.4-32.9 5.4v5.8c7.5 0 12.3 1.5 14.4 4.2 2.1 2.7 2.9 9.4 2.9 20v104c0 11.7-.2 18.7-.4 21-.2 2.5-1.5 4.6-3.1 6.2-1.9 1.7-5.8 2.7-11.9 2.7h-2.7v5.8h53.1v-5.8c-5.8 0-10-.6-12.1-2.1-2.3-1.5-3.5-3.7-4-6.2-.4-2.7-.6-10-.6-21.6v-41.8c3.3-6.9 7.9-12.7 13.9-17.5 5.2-3.7 11.4-5.8 17.7-5.8 5-.2 10 1.2 14.1 4.2 3.5 2.5 6.2 6 7.3 10.2 1.2 6.2 1.7 12.7 1.5 19.1v31.4c0 11.7-.2 18.5-.4 21-.2 2.3-1.5 4.6-3.1 6.2-1.9 1.9-5.8 2.7-12.1 2.7h-2.5v5.8h53.9v-5.8c-6.2 0-10.4-.6-12.7-1.9-2.3-1.2-3.7-3.3-4.2-5.8-.6-7.5-.8-14.8-.6-22.3v-28.7c0-11.7-.8-20.2-2.5-25.4-2.1-5.6-5.8-10.2-11-13.1-6.4-3.7-13.9-5.6-21.4-5.4-7.3 0-14.4 1.9-20.8 5.4-6.9 4-12.7 9.6-17.1 16v-87.9zm-83.4 172.7c-12.5 0-21.8-4.6-27.9-13.9-6.2-9.2-9.2-22.1-9.2-38.5 0-15.8 2.9-27.7 8.5-35.6 5.6-7.9 14.4-11.9 25.6-11.9 6.4 0 10.6 1 12.9 2.9 2.3 1.9 3.7 5.4 4.6 10.2 1.2 6.4 4.6 9.8 10.4 9.8 2.3.2 4.6-.8 6-2.9 1.2-1.7 2.1-3.7 2.1-6 0-5.6-3.7-10.6-11.4-14.4-7.7-4-16.2-6-24.8-6-14.6-.2-28.7 5.6-38.9 16-10.8 10.6-16.4 24.6-16.4 41.6 0 16.6 5 30 15.2 40.2 9.8 10 23.5 15.4 37.5 15.2 23.1 0 37.5-10 43.3-29.8h-5.6c-4.4 15.4-15.3 23.1-31.9 23.1m-139.2 5.8c1-4 2.9-7.7 5.6-11 7.5 7.9 16 11.9 25.6 11.9 8.3.2 16.4-2.7 22.7-8.5 6-5.8 9.4-13.9 8.9-22.3-.2-6.2-1.9-12.5-4.8-18.1-3.3-6.2-12.1-12.7-26.4-19.1-9.6-4.4-16-8.1-19.6-11.7-3.3-3.1-5.2-7.3-5.2-11.9 0-4.2 1.7-8.1 4.6-11 3.3-3.1 7.7-5 12.3-4.6 6.7 0 13.1 3.1 17.3 8.3 5 5.6 8.3 12.5 10 20h4.6v-32h-4.6c-1.2 3.3-2.9 6.4-5 9.4-5.4-7.1-13.7-11.2-22.5-11-8.9 0-15.8 3.1-20.8 9.4-4.6 5.4-7.3 12.5-7.3 19.6-.2 6.7 2.3 13.3 7.1 18.1 4.6 5 12.1 10.2 22.7 15.4 10 5 16.9 9.2 20.2 12.7 3.5 3.5 5.4 8.3 5.2 13.3 0 4.8-1.7 9.4-4.8 12.9-3.1 4-7.9 5.8-14.6 5.8-14.8 0-25.2-10-31-29.8h-5v34.3l4.8-.1zM613.7 397.8v5.8c6 0 10.2.6 12.5 1.9 2.3 1.2 3.7 3.3 4.2 5.8.6 7.3.8 14.8.6 22.1v31c0 12.7-.2 20.4-.8 22.7-.4 2.3-2.1 4.4-4.2 5.4-2.3 1.2-6.4 1.9-12.3 1.9v5.8h52.8v-5.8c-6 0-10.2-.6-12.5-1.9-2.3-1.2-3.7-3.3-4.2-6-.6-7.3-.8-14.8-.6-22.1v-42.7c4.2-6.7 9.6-12.3 16-16.6 5.2-3.5 11.4-5.4 17.7-5.6 4.8-.2 9.6 1.2 13.5 4.2 3.1 2.3 5.4 5.6 6.4 9.4 1 5.8 1.5 11.7 1.2 17.7v33.7c0 11.7-.2 18.7-.4 21-.2 2.5-1.5 4.6-3.1 6.2-1.9 1.9-5.8 2.7-12.1 2.7h-2.5v5.8h53.3v-5.8c-6 0-10.2-.6-12.5-1.9-2.3-1.2-3.7-3.3-4-6-.6-7.3-.8-14.8-.6-22.1v-32.7c.2-7.5-.4-14.8-2.3-22.1-1.9-5.4-5.4-10-10.4-12.7-6.2-3.7-13.3-5.6-20.4-5.2-7.3 0-14.6 1.9-21 5.4-7.3 4.2-13.9 9.6-19.1 16.2 0-7.3-1-14.6-3.3-21.6h-3.3c-9.2 3-19 4.9-28.6 6.1m-89.4 28.5c2.9-19.1 12.3-28.9 27.7-28.9 6-.2 11.9 2.1 16 6.2 4.4 4.2 6.4 10 6.4 17.5 0 1.7-.2 3.5-.4 5.2h-49.7zm60.3-22c-7.5-8.3-18.1-12.5-31.6-12.5-13.9-.2-27.3 5.8-36.4 16.4-9.8 10.8-14.6 24.6-14.6 41.2-.4 10.4 2.3 20.6 7.5 29.8 4.8 7.9 11.4 14.4 19.3 18.9 16 9.2 35.6 8.9 51.4-.6 7.7-4.6 13.5-11.7 16.2-20.4h-6c-6.4 13.9-17.3 20.8-32.9 20.8-11.4 0-20-4.6-25.6-13.7-5.6-9.2-8.5-23.1-8.5-41.4 0-2.5.2-6.2.4-11.2h72.8c-.8-10.5-4.9-20-12-27.3m-141.9 52.8c-8.3 9.4-22.5 10.2-31.8 1.9l-1.9-1.9c-4.6-5-6.7-13.1-6.7-24.1 0-11.9 1.9-20.6 5.8-26.4 4-5.8 10.6-9.2 17.7-8.7 6.2 0 12.3 2.7 16.6 7.1m-17.2-13c-11-.2-21.6 3.7-29.8 11.2-7.9 6.7-12.5 16.6-12.5 27 0 7.3 2.1 14.4 6 20.6 4.8 6.7 11 12.3 18.3 16.2-15.6 2.9-23.3 10-23.3 21 0 5.8 3.1 11.2 8.1 14.1 5.4 3.7 17.3 5.8 35.6 6.7 15.8.6 26.8 2.7 33.1 6 6.2 3.3 9.4 9.4 9.4 17.9 0 7.7-4 15-10.4 18.9-6.9 5-16.6 7.5-29.1 7.5-13.9 0-24.3-2.5-31.4-7.3-7.1-4.8-10.6-11-10.6-18.5.2-6.9 2.9-13.5 7.9-18.3-1.2-.4-2.5-.6-3.7-.6-4.4-.2-8.7 1.7-11.7 5-2.9 3.5-4.4 8.1-4.2 12.7 0 9.4 4.8 17.1 14.4 23.1 9.6 6 22.3 9.2 37.9 9.2 17.3 0 30.4-3.3 39.5-10.4 15-10.6 18.5-31.4 7.9-46.4-4.6-6.4-11.2-11-18.9-13.1-10.6-2.3-21.2-3.5-32-4-12.9-.6-21.2-1.7-25.2-3.1s-6-3.5-6-6.7c0-6.7 8.9-10.4 27-11 17.3-.6 29.5-4.8 37-12.7 7.1-7.3 11-16.9 11-27 0-7.9-2.3-15.6-6.7-22.3 4-4.4 7.5-6.7 10.6-6.7 2.1 0 4 1.7 5.8 4.8 2.1 3.5 4.4 5.2 7.3 5.2 5 0 7.7-2.7 7.7-8.3 0-2.7-1.2-5.4-3.3-7.3-2.5-2.3-6-3.5-9.6-3.3-7.5 0-14.8 4.2-21.8 12.3-8.5-8-19.9-12.6-34.3-12.4m-81.1-.2c-8.3 2.9-20 5.2-35.2 6.7v5.8h3.3c3.3-.2 6.7.2 10 1 2.3 1 4 2.9 4.6 5 1.2 2.7 1.7 10.2 1.7 22.5v31.6c0 11.7-.2 18.7-.4 21-.2 2.5-1.5 4.6-3.1 6.2-1.9 1.7-5.8 2.7-11.9 2.7h-4.4v5.8h56.2v-5.8h-2.7c-5.4 0-9.2-.8-11.4-2.3-2.1-1.5-3.5-4-3.7-6.7-.4-2.9-.4-10-.4-21v-72.8h-2.5l-.1.3zm-17.9-43.7c2.5 2.5 5.8 4 9.4 4 3.5 0 6.9-1.5 9.4-4 5-5.2 5-13.7 0-18.9-2.5-2.5-5.8-4-9.4-4-3.5 0-6.9 1.5-9.4 4s-4 5.8-4 9.4c0 3.7 1.5 7 4 9.5m-48.1 128.6c-5.4 7.3-10.8 12.1-16.6 14.4-7.3 2.5-14.8 3.7-22.5 3.5h-12.9c-11.7 0-18.7-1.9-21.2-5.4-2.7-3.5-4-15.6-4-36.2v-41h18.9c5.2-.2 10.6.2 15.8 1.5 3.1 1 5.8 3.3 7.1 6.4 1.7 3.3 2.5 9.8 2.5 19.3h6v-59.1H245c0 8.5-.6 14.1-1.7 17.1-1.2 3.1-3.5 5.4-6.7 6.4-3.3 1.5-9.2 2.3-17.7 2.3h-18.3v-72.4h24.1c12.1 0 20.8.6 26.2 1.9 5.6 1.5 10.6 4.8 14.1 9.6 4 5 7.3 13.5 10 25.6h6l-4.2-43.1H153.5v5.8c8.3 0 13.7.8 16.4 2.5 2.9 2.1 4.6 5.2 5 8.7 1 8.5 1.2 17.3 1 26v84.7c0 14.4-.4 23.5-1 27-.6 3.3-2.3 6.4-4.8 8.7-2.5 2.3-8.1 3.3-16.6 3.3H150v5.8h143.1l3.7-53.7h-6c-3.1 13.1-7.3 23.1-12.7 30.4M1359.8 124.2c7.7 11 16 23.3 25 37-10.2 11.7-21 17.5-32.9 17.5-10.6 0-20.2-4.6-28.5-13.9s-12.7-19.1-12.7-29.5c.2-7.5 2.9-15 7.3-21 5.4-7.7 12.5-14.4 20.6-19.1 6.7 8.4 13.7 18.2 21.2 29m-23.7-78.4c-.2-5.6 1.7-11 5.4-15.2 3.7-4.2 9.2-6.2 14.8-6 2.9 0 5.8.6 8.3 1.7 2.5 1 4.8 2.7 6.7 4.6 1.9 2.1 3.3 4.6 4.2 7.3 1 3.1 1.5 6.2 1.5 9.4 0 11.7-8.5 22.3-25.4 32.2-10.5-14.5-15.7-25.9-15.5-34m57.6 43.1c13.3 1.5 19.8 7.1 19.8 17.1-.4 5.8-1.9 11.7-4.2 17.1-2.9 7.5-6.9 14.6-11.4 21-6.7-9.6-13.5-19.3-20.8-29.1-7.1-9.8-14.6-20-22.1-30.2 24.6-12.3 36.6-25 36.6-38.1 0-8.3-4.2-16-11-20.4-7.3-5.2-16-7.9-24.8-7.7-9.6-.4-18.9 3.5-25.6 10.4-6.4 6.2-10 14.8-10.2 23.7 0 11.2 5 23.7 15 37.7-16.6 11-27.7 20.2-33.5 27.5-6 7.7-8.9 17.3-8.7 26.8-.2 6.7 1 13.1 4 19.1 2.7 5.6 6.4 10.8 11 15 4.6 4.2 10 7.5 15.6 9.8s11.7 3.3 17.7 3.3c16.6 0 32.5-8.3 47.4-25 12.5 16.6 27 25 43.7 25 7.3.2 14.4-2.1 20.2-6.4 5.6-4.2 9.8-10.2 11.4-17.1h-6c-4.4 7.5-10.4 11.2-18.5 11.2-6 0-11.7-1.9-16.6-5.2-5.2-3.3-12.3-11.7-21.4-24.8 5.2-7.5 9.6-15.4 12.9-23.9 5.6-13.3 10.8-22.3 15.8-26.8 5.2-4.8 11.4-8.1 18.1-10V83h-54.5l.1 5.9zm-259.8 24.3c2.9-19.1 12.3-28.7 27.7-28.7 6-.2 11.9 2.1 16 6.2 4.4 4.2 6.7 10 6.7 17.5 0 1.7-.2 3.5-.4 5.2l-50-.2zm60.3-22.1c-7.5-8.3-18.1-12.5-31.6-12.5-13.9-.2-27.3 5.8-36.4 16.4-9.8 10.8-14.6 24.6-14.6 41.2-.4 10.4 2.3 20.6 7.5 29.8 4.8 7.9 11.4 14.4 19.3 18.9 16 9.2 35.6 8.9 51.4-.6 7.9-4.4 13.7-11.7 16.4-20.4h-6.2c-6.4 13.9-17.5 20.8-32.9 20.8-11.4 0-20-4.6-25.6-13.7-5.6-9.2-8.5-23.1-8.5-41.4 0-2.5.2-6.2.4-11.2h72.8c-.8-10.2-4.9-20-12-27.3m-117.6-79c-4.6 1.7-9.6 2.9-14.6 3.5-6 1-12.1 1.7-18.3 1.9v5.8c7.5 0 12.3 1.5 14.4 4.2 1.9 2.9 2.9 9.8 2.9 20.6v103.2c.2 7.3 0 14.6-.6 21.8-.4 2.5-1.9 4.6-4 6s-5.8 2.1-10.8 2.1h-3.5v5.8h55.8v-5.6h-3.1c-5.4 0-9.2-.8-11.4-2.3-2.1-1.5-3.5-4-3.7-6.7-.2-2.9-.4-10-.4-21V12.1h-2.7zm-81.7 152.7c-5.4 4.6-11.4 8.5-17.7 11.9-4.2 2.3-8.9 3.7-13.9 4-4.2.2-8.3-1.7-11-5-2.9-3.7-4.4-8.3-4.2-12.9 0-13.5 11-24.8 32.9-33.7l13.9-5.6v41.3zm26.6 15.8c-2.9.4-5.6-1.5-6.7-4.2s-1.5-9.2-1.5-18.9v-42.2c0-8.9-1-15.6-2.9-19.8-1.9-4.4-5.8-8.1-11.9-11.7-5.8-3.3-14.4-5.2-25.2-5.2-14.6 0-25.2 2.7-32 8.3-6.9 5.6-10.4 10.8-10.4 15.6 0 5 2.5 7.3 7.7 7.3 5.8 0 9.4-4.4 10.6-12.9 1.2-8.5 8.5-12.9 21.2-12.7 5.4-.2 10.8 1 15.4 3.7 3.3 1.9 6 5 7.3 8.7 1 5.2 1.7 10.4 1.5 15.6v5l-19.8 8.1c-15 6.2-26.8 12.5-35.4 19.1s-12.9 14.1-12.9 22.9c-.2 6.2 2.7 12.3 7.7 16.2 5.2 4.2 11.7 6.2 18.3 6 6.4-.2 12.9-1.9 18.7-4.6 8.1-3.7 16-8.3 23.3-13.7.6 5.2 2.9 10 6.4 13.7 3.7 3.1 8.7 4.8 13.7 4.6 13.5 0 20.6-7.3 21.4-21.8h-4.6c-.9 8.7-4.5 12.9-9.9 12.9M714.2 84.5v5.8c5.8 0 10 .6 12.3 2.1 2.3 1.2 3.7 3.5 4 6 .4 2.7.6 10 .6 21.8v31.2c.2 7.5 0 15-.8 22.5-.4 2.3-2.1 4.4-4.2 5.6-2.3 1.2-6.2 1.9-11.9 1.9v5.8h51v-5.8c-5.6 0-9.6-.6-11.9-2.1-2.3-1.5-3.5-3.7-3.7-6.4-.4-2.7-.4-10-.4-21.4V108c4.8-6 10.4-11 16.6-15.2 4.8-3.1 10.4-5 16-5.2 5-.2 9.8 1.5 13.5 4.4 3.3 2.5 5.8 6.4 6.4 10.6.8 6.7 1.2 13.3 1 20v28.9c0 12.7-.2 20.2-.8 22.7-.4 2.3-2.1 4.4-4.2 5.4-2.3 1.2-6.2 1.9-11.9 1.7v5.8h51v-5.6c-5.4 0-9.2-.8-11.2-2.3-2.1-1.7-3.3-4-3.5-6.7-.2-2.9-.4-9.8-.4-21v-41.2c4.6-6.4 10.2-12.3 16.6-17.1 4.8-3.5 10.6-5.4 16.6-5.6 4.8-.2 9.4 1.2 13.3 4 3.1 2.3 5.4 5.4 6.2 9.2 1 5.2 1.2 10.6 1.2 15.8v34.7c.2 7.5 0 15-.8 22.5-.4 2.5-2.1 4.6-4.2 5.6-2.3 1.2-6 1.9-11.7 1.9v5.8h52v-5.6c-6 0-10.2-.6-12.5-1.9-2.3-1.2-3.7-3.3-4.2-5.8-.6-7.3-.8-14.8-.4-22.1v-31.6c.2-7.7-.4-15.4-1.9-23.1-1.2-4.8-4.6-8.9-10.2-12.7-6-4-13.3-5.8-20.6-5.6-7.3 0-14.6 2.1-20.8 5.8-7.7 4.6-14.4 10.6-19.8 17.7-1.7-7.1-5.6-13.1-11.2-17.7-6-4.2-13.5-6.2-20.8-5.8-7.5 0-14.8 1.9-21.2 5.4-7.3 4.2-13.5 9.8-18.5 16.4.2-7.5-1-15-3.7-21.8h-1.2c-9.3 3.1-19.5 5-29.7 5.8M657 88.9c6.4.2 9.8 2.1 9.8 5.8 0 5.6-8.9 14.6-26.6 27l-11 7.7V12.1h-2.7c-4.6 1.7-9.4 2.9-14.4 3.5-6 1-12.1 1.7-18.1 1.9v5.8c7.3 0 11.9 1.5 13.7 4.2 1.9 2.7 2.9 9.2 2.9 19.3v104.7c0 11.7-.2 18.7-.4 21s-1.2 4.6-3.1 6.2c-1.9 1.7-5.8 2.7-11.9 2.7h-3.7v5.8h53.1v-5.8c-5.2 0-8.9-.8-11-2.3-2.1-1.7-3.5-4-3.7-6.7-.2-2.9-.4-9.8-.4-21v-15l5.4-4.2 26.8 31.2c5.6 6.7 8.5 10.8 8.5 12.3 0 3.5-4.4 5.4-12.9 5.6v5.8h52v-5.8c-3.5-.2-6.9-1.2-10-3.3-5-3.5-9.4-7.9-13.3-12.7l-37.2-43.5c8.7-6.9 15.2-12.1 19.3-15.6 12.9-11.4 23.3-17.1 31-17.3v-5.8h-42v5.8zM537.4 78.7c-10.2 3.5-20.6 6-31.4 7.5V92h2.7c5.4 0 9.2.8 11.4 2.3 2.1 1.7 3.5 4 3.7 6.7.2 2.9.4 9.8.4 21v29.5c.2 7.3 0 14.6-.6 21.8-.4 2.5-1.9 4.6-4 6-2.1 1.5-5.8 2.1-10.8 2.1h-2.7v5.8h55.3v-5.8H558c-5.4 0-9.2-.8-11.4-2.3-2.1-1.5-3.5-4-3.7-6.7-.2-2.9-.4-10-.4-21V133c-.2-7.5.4-14.8 2.1-22.1 1.9-6 5.2-11.2 9.8-15.4 5-5 9.4-7.5 13.1-7.5 3.1 0 5.4 2.1 6.9 6.4 2.3 6.2 5.4 9.4 9.6 9.4 2.3 0 4.6-1 6-2.7 1.7-1.7 2.5-4 2.5-6.4-.2-4-1.9-7.9-4.8-10.6-3.5-3.5-8.3-5.4-13.3-5.2-6.2 0-12.5 2.5-18.9 7.7-6.2 5-11.2 11.4-14.1 18.9-.1-9.2-1.5-18.3-4-26.8m-121.8 34.5c2.9-19.1 12.3-28.7 27.7-28.7 6-.2 11.9 2.1 16 6.2 4.4 4.2 6.4 10 6.4 17.5 0 1.7-.2 3.5-.4 5.2l-49.7-.2zM476 91.1c-7.5-8.3-18.1-12.5-31.6-12.5-13.9-.2-27.3 5.8-36.2 16.4-9.8 11-14.6 24.6-14.6 41-.2 10.4 2.3 20.6 7.5 29.8 4.8 7.9 11.4 14.4 19.3 18.9 16 9.2 35.6 8.9 51.4-.6 7.7-4.6 13.5-11.7 16.2-20.4h-6c-6.4 13.9-17.5 20.8-32.9 20.8-11.4 0-20-4.6-25.6-13.7-5.6-9.2-8.9-22.9-8.9-41.4 0-2.5.2-6.2.4-11.2h72.8c-.4-10-4.5-19.8-11.8-27.1M199.5 14.6h-52.6v5.8h4.6c8.7 0 14.4.8 17.1 2.3 2.9 1.9 4.8 5 5 8.3.8 4 1.2 12.9 1.2 26.6v75.1c0 14.4-.4 24.1-1.5 29.3-1 5.4-4 10-8.3 13.3-5.2 3.7-11.4 6-18.1 6v5.8h61.8v-5.8c-7.9-.4-14.1-2.7-18.5-6.4-4.2-3.3-6.9-7.9-7.9-13.1-1-9.4-1.5-18.9-1.2-28.3v-101L250 187.3h6l68.5-154.8v109.9c0 14.4-.4 23.7-1.2 27.7-.6 3.5-2.5 6.7-5.4 8.7-2.9 1.9-7.9 2.9-15.2 2.9h-6v5.8H379v-6h-7.7c-7.9 0-13.1-1-15.8-3.1-2.9-2.3-4.8-5.6-5.2-9.4-1-8.9-1.2-17.7-1.2-26.6V57.6c0-14.4.4-23.5 1.2-27.3.4-3.3 2.5-6.2 5.2-7.9 2.7-1.5 8.1-2.1 16.6-2.1h6.4v-5.8h-52.8l-63 142.9-63.2-142.8z"/><path class="st10" d="M588.7 87.6l-.2-.2c-.2-.2-.4-.2-.6-.4-.6-.4-1-1-1.7-1.7-.8-.4-1.7-.8-2.5-.8-1.2 0-2.5 0-3.7.4-.4 0-1 .2-1.5.4-.8.6-1.7 1.2-2.1 2.3-.2.8-.2 1.5 0 2.3l.4 1c.2 1 .6 1.9 1 2.9s.8 2.1 1.2 3.1c.4 1 1 2.1 1.7 2.9.8.8 1.9 1.2 2.9 1.2 1.5 0 2.7-.4 4-1.2.4-.4.8-.6 1-1l.6-.6c.2-.4.4-1 .4-1.7.2-1.7.2-3.3-.2-4.8-.2-1 .4-1.7 0-2.7-.2-.4 0-1-.2-1.2M587.7 88"/><path class="st11" d="M596 426.3c.2 1.7.4 3.3.6 5h-72.8l.4-5"/><path class="st2" d="M899.8 497.9c-12.5 0-21.8-4.6-27.9-13.9-6.2-9.2-9.2-22.1-9.2-38.5 0-15.8 2.9-27.7 8.5-35.6 5.8-7.9 14.4-11.9 25.6-11.9 6.4 0 10.6 1 12.9 2.9 2.3 1.9 3.7 5.4 4.6 10.2 1.2 6.4 4.6 9.8 10.4 9.8 2.3.2 4.6-.8 6-2.9 1.2-1.7 2.1-3.7 2.1-6 0-5.6-3.7-10.4-11.4-14.4s-16.2-6-24.8-6c-14.6-.2-28.5 5.6-38.9 16-11 10.6-16.4 24.6-16.4 41.6 0 16.6 5 30 15.2 40.2 9.8 10 23.5 15.4 37.5 15.2 23.1 0 37.5-10 43.3-29.8h-5.6c-4.4 15.4-15.3 23.1-31.9 23.1"/><path class="st12" d="M893.8 365L904 528.9"/><path class="st11" d="M755.6 500.4v3.3h5c.4-1.2.8-2.3 1.2-3.3m14 0c5 2.9 10.4 4.4 16.2 4.4 5.8.2 11.7-1.2 16.9-4.2m7.5-104.2v-2.5h-4.6c-.4.8-.8 1.9-1 2.5m-11.5 0c-4.6-2.9-9.8-4.4-15.2-4.4-5.6-.2-11 1.5-15.6 4.4M224.9 333.5c12.1 0 20.8.6 26.2 1.9 5.6 1.5 10.6 4.8 14.1 9.6 4 5 7.3 13.5 10 25.6h6l-3.5-37.2M1079.4 187.3h18.5v-5.8h-3.1c-5.4 0-9.2-.8-11.4-2.3-2.1-1.5-3.5-4-3.7-6.7-.2-2.9-.4-10-.4-21M1061 151.5c.2 7.3 0 14.6-.6 21.8-.4 2.5-1.9 4.6-4 6s-5.8 2.1-10.8 2.1h-3.5v5.8h18.9M748.5 90.3c-.4-4-1.5-7.9-3.1-11.7h-1.2c-9.8 2.9-19.8 5-30 5.8v5.8"/><path class="st2" d="M610.4 172.5c-.2 2.3-1.2 4.6-3.1 6.2-1.9 1.7-5.8 2.7-11.9 2.7h-4v5.8h52.8v-5.8c-5.2 0-8.9-.8-11-2.3-2.1-1.7-3.5-4-3.7-6.7M661.4 163.6c5.6 6.7 8.5 10.8 8.5 12.3 0 3.5-4.4 5.4-12.9 5.6v5.8h52v-5.8c-3.5-.2-6.9-1.2-10-3.3-5-3.5-9.4-7.9-13.3-12.7M668 106.1c12.9-11.4 23.3-17.1 31-17.3V83h-42v5.8c6.4.2 9.8 2.1 9.8 5.8"/><path class="st11" d="M709 181.4c-3.5-.2-6.9-1.2-10-3.3-5-3.7-9.4-7.9-13.3-12.9l13.9 16.2h9.4zM661.4 163.6c5.6 6.7 8.5 10.8 8.5 12.3 0 3.5-4.4 5.4-12.9 5.6h19.8l-15.4-17.9zM644.5 181.4c-5.2 0-8.9-.8-11-2.3-2.1-1.7-3.5-4-3.7-6.7v8.9h14.7zM610.4 172.5c-.2 2.3-1.2 4.6-3.1 6.2-1.9 1.7-5.8 2.7-11.9 2.7h15v-8.9z"/><path class="st10" d="M588.7 87.6l-.2-.2c-.2-.2-.4-.2-.6-.4-.6-.4-1-1-1.7-1.7-.8-.4-1.7-.8-2.5-.8-1.2 0-2.5 0-3.7.4-.4 0-1 .2-1.5.4-.8.6-1.7 1.2-2.1 2.3-.2.8-.2 1.5 0 2.3l.4 1c.2 1 .6 1.9 1 2.9s.8 2.1 1.2 3.1c.4 1 1 2.1 1.7 2.9.8.8 1.9 1.2 2.9 1.2 1.5 0 2.7-.4 4-1.2.4-.4.8-.6 1-1l.6-.6c.2-.4.4-1 .4-1.7.2-1.7.2-3.3-.2-4.8-.2-1 .4-1.7 0-2.7-.2-.4 0-1-.2-1.2M587.7 88"/><path class="st11" d="M574.4 94.3c2.3 6.2 5.4 9.4 9.6 9.4 2.3 0 4.6-1 6-2.7 1.7-1.7 2.5-4 2.5-6.4-.2-4-1.9-7.9-4.8-10.6-2.7-2.4-16.4-6.6-13.3 10.3M415.6 113.2c2.9-19.1 12.3-28.7 27.7-28.7 6-.2 11.9 2.1 16 6.2 4.4 4.2 6.4 10 6.4 17.5 0 1.7-.2 3.5-.4 5.2l-49.7-.2z"/><path class="st3" d="M89.6 63.9h17.3M106.5 15v48.5"/><text transform="rotate(-90 190.747 133.841)" class="st2 st6 st7">Durchschuss</text><path class="st13" d="M135.8 403.2v89.7"/><path class="st11" d="M135.8 396.4l-3.1 9.1 3.1-2.3 3.3 2.3zM135.8 499.6l3.3-9-3.3 2.3-3.1-2.3z"/><path class="st13" d="M135.8 507.1v49.7"/><path class="st11" d="M135.8 500.4l-3.1 8.9 3.1-2.2 3.3 2.2zM135.8 563.4l3.3-8.9-3.3 2.3-3.1-2.3z"/><path class="st13" d="M99.6 335v157.3"/><path class="st11" d="M99.6 328.1l-3.3 9 3.3-2.1 3.3 2.1zM99.6 498.9l3.3-8.9-3.3 2.3-3.3-2.3z"/><path class="st13" d="M63.4 258.2v60.1"/><path class="st11" d="M63.4 251.6l-3.3 8.9 3.3-2.3 3.3 2.3zM63.4 325l3.3-8.9-3.3 2.2-3.3-2.2zM1251.4 396.2h24.3v5h-24.3z"/><path class="st14" d="M1251.4 396.2h24.3v5h-24.3z"/><path class="st15" d="M1069.8 228.9c11 0 20.2-8.9 20.2-20.2 0-11.2-8.9-20.2-20.2-20.2-11 0-20.2 8.9-20.2 20.2 0 11.2 8.9 20.2 20.2 20.2"/><text transform="translate(1065.538 214.837)" class="st2 st6 st16">7</text><path class="st15" d="M646.8 228.9c11 0 20.2-8.9 20.2-20.2 0-11-8.9-20.2-20.2-20.2-11 0-20.2 8.9-20.2 20.2 0 11.2 9 20.2 20.2 20.2"/><text transform="translate(642.428 214.857)" class="st2 st6 st16">5</text><path class="st15" d="M449.3 166.5c11 0 20.2-8.9 20.2-20.2 0-11.2-8.9-20.2-20.2-20.2-11 0-20.2 8.9-20.2 20.2s9 20.2 20.2 20.2"/><text transform="translate(445.021 152.419)" class="st2 st6 st16">3</text><path class="st15" d="M558.2 69.7c11 0 20.2-8.9 20.2-20.2 0-11-8.9-20.2-20.2-20.2-11 0-20.2 8.9-20.2 20.2 0 11.3 8.9 20.2 20.2 20.2"/><text transform="translate(553.566 55.733)" class="st2 st6 st16">4</text><path class="st15" d="M380.9 69.7c11 0 20.2-8.9 20.2-20.2s-8.9-20.2-20.2-20.2c-11 0-20.2 8.9-20.2 20.2 0 11.3 9 20.2 20.2 20.2"/><text transform="translate(376.673 55.733)" class="st2 st6 st16">2</text><path class="st15" d="M139.1 69.7c11 0 20.2-8.9 20.2-20.2s-8.9-20.2-20.2-20.2-20.2 8.9-20.2 20.2c0 11.3 9.2 20.2 20.2 20.2"/><text transform="translate(135.24 55.733)" class="st2 st6 st16">1</text><path class="st15" d="M98.8 307.3c11 0 20.2-8.9 20.2-20.2S110 267 98.8 267c-11 0-20.2 8.9-20.2 20 .2 11.2 9.1 20.3 20.2 20.3"/><text transform="translate(94.543 293.4)" class="st2 st6 st16">8</text><path class="st15" d="M733.4 69.7c11 0 20.2-9.2 20-20.2s-9.2-20.2-20.2-20c-11 0-20 8.9-20 20.2 0 11.1 8.9 20 20.2 20"/><text transform="translate(728.94 55.733)" class="st2 st6 st16">6</text><path class="st15" d="M229.8 381.8c11 0 20.2-8.9 20.2-20.2 0-11-8.9-20.2-20.2-20.2-11 0-20.2 8.9-20.2 20.2s9 20.2 20.2 20.2"/><text transform="translate(225.393 367.927)" class="st2 st6 st16">9</text><path class="st15" d="M356.8 323.5c11 0 20.2-8.9 20.2-20.2s-8.9-20.2-20.2-20.2c-11 0-20.2 8.9-20.2 20.2 0 11.1 8.9 20.2 20.2 20.2"/><text transform="translate(348.21 309.524)" class="st2 st6 st16">10</text><path class="st15" d="M64.9 161.7c11 0 20.2-8.9 20.2-20.2 0-11.2-8.9-20.2-20.2-20.2-11 0-20.2 8.9-20.2 20 0 11.2 9.1 20.4 20.2 20.4"/><text transform="translate(56.407 147.757)" class="st2 st6 st16">16</text><path class="st15" d="M550 381.8c11 0 20.2-8.9 20.2-20.2 0-11-8.9-20.2-20.2-20.2-11 0-20.2 8.9-20.2 20.2.1 11.3 9 20.2 20.2 20.2"/><text transform="translate(546.118 367.927)" class="st2 st6 st16">1</text><path class="st15" d="M795.8 381.8c11 0 20.2-8.9 20.2-20.2 0-11-8.9-20.2-20.2-20.2-11 0-20.2 8.9-20.2 20.2 0 11.3 8.9 20.2 20.2 20.2"/><text transform="translate(787.28 367.927)" class="st2 st6 st16">10</text><path class="st15" d="M1266.8 381.6c11 0 20.2-8.9 20.2-20.2 0-11.2-8.9-20.2-20.2-20.2-11.2 0-20.2 8.9-20.2 20.2 0 11 9.2 20.2 20.2 20.2"/><text transform="translate(1258.66 367.51)" class="st2 st6 st16">15</text><path class="st15" d="M1536 381.8c11 0 20.2-8.9 20.2-20.2s-8.9-20.2-20.2-20.2c-11.2 0-20.2 8.9-20.2 20.2.1 11.3 9 20.2 20.2 20.2"/><text transform="translate(1531.635 367.927)" class="st2 st6 st16">3</text><path class="st15" d="M1192.5 553c11 0 20.2-8.9 20.2-20.2 0-11-8.9-20.2-20.2-20.2-11 0-20.2 8.9-20.2 20.2.1 11.3 9.2 20.2 20.2 20.2"/><text transform="translate(1184.111 539.119)" class="st2 st6 st16">14</text><path class="st15" d="M878.4 553c11 0 20.2-8.9 20.2-20.2 0-11-8.9-20.2-20.2-20.2-11 0-20.2 8.9-20.2 20.2 0 11.3 8.9 20.2 20.2 20.2"/><text transform="translate(870.129 539.119)" class="st2 st6 st16">13</text><path class="st15" d="M675.9 553c11 0 20.2-8.9 20.2-20.2 0-11-8.9-20.2-20.2-20.2-11 0-20.2 8.9-20.2 20.2 0 11.3 9 20.2 20.2 20.2"/><text transform="translate(667.833 539.119)" class="st2 st6 st16">12</text><path class="st11" d="M1522.5 500.4v-5.8c-6 0-10.2-.6-12.5-1.9-2.3-1.2-3.7-3.3-4.2-6-.6-7.3-.8-14.8-.6-22.1v-42.4c4.2-6.7 9.6-12.3 16-16.6 5.2-3.5 11.4-5.4 17.7-5.6 4.8-.2 9.6 1.2 13.5 4.2 3.1 2.3 5.4 5.6 6.4 9.4 1 5.8 1.5 11.7 1.2 17.7V465c0 11.7-.2 18.7-.4 21-.2 2.5-1.5 4.6-3.1 6.2-1.9 1.9-5.8 2.7-12.1 2.7h-2.5v5.8M1191.1 499.4c4.8-3.5 7.5-9.6 7.9-18.1h-4.6c-1 6-3.1 9.8-6.2 11.4"/><path class="st3" d="M89.6 12.3l1508.9-1M106 14.6l1492.5-.9M89.6 83.2l1508.9-.6M9.1 251.1h1589.4M9.1 327.9l1589.4-1.2M129.6 396.2l1468.9-.7M9.1 500l1589.4.4M9.1 563.9l1589.4.4M89.6 187.3h1508.9M9.1 325.4l1589.4-1"/><path class="st13" d="M135.8 332.5v56.2"/><path class="st11" d="M135.8 325.8l-3.1 9 3.1-2.3 3.3 2.3zM135.8 395.3l3.3-8.9-3.3 2.3-3.1-2.3z"/><path class="st13" d="M63.4 332.5v224.3"/><path class="st11" d="M63.4 325.8l-3.3 9 3.3-2.3 3.3 2.3zM63.4 563.4l3.3-8.9-3.3 2.3-3.3-2.3zM740.8 382.2h5.6v130.5h-5.6z"/><path class="st14" d="M740.8 382.2h5.6v130.5h-5.6z"/><path class="st11" d="M606 382.2h6.2v130.5H606z"/><path class="st14" d="M606 382.2h6.2v130.5H606z"/></g></g><path class="st11" d="M1522.5 500.4v-5.8c-6 0-10.2-.6-12.5-1.9-2.3-1.2-3.7-3.3-4.2-6-.6-7.3-.8-14.8-.6-22.1v-42.4c4.2-6.7 9.6-12.3 16-16.6 5.2-3.5 11.4-5.4 17.7-5.6 4.8-.2 9.6 1.2 13.5 4.2 3.1 2.3 5.4 5.6 6.4 9.4 1 5.8 1.5 11.7 1.2 17.7V465c0 11.7-.2 18.7-.4 21-.2 2.5-1.5 4.6-3.1 6.2-1.9 1.9-5.8 2.7-12.1 2.7h-2.5v5.8" id="n1"/><g id="n2"><path id="Zeichenbreite7" class="st3" d="M596.7 381.4v131.9"/><path id="Zeichenbreite6" class="st3" d="M739.8 381.4v131.9"/><path id="Zeichenbreite5" class="st3" d="M755.4 381.4v131.9"/><path id="Zeichenbreite4" class="st3" d="M747.5 381.4v131.9"/><path id="Zeichenbreite3" class="st3" d="M605 381.4v131.9"/><path id="Zeichenbreite2" class="st11" d="M740.4 381.6h6.4v131.1h-6.4z"/><path id="Zeichenbreite1" class="st11" d="M605.6 382.2h7.5v130.5h-7.5z"/></g><g id="s"><path id="Ueberhang2" class="st11" d="M755.6 500.4v3.3h5c.4-1.2.8-2.3 1.2-3.3m14 0c5 2.9 10.4 4.4 16.2 4.4 5.8.2 11.7-1.2 16.9-4.2m7.5-104.2v-2.5h-4.6c-.4.8-.8 1.9-1 2.5m-11.5 0c-4.6-2.9-9.8-4.4-15.2-4.4-5.6-.2-11 1.5-15.6 4.4"/></g><path class="st12" d="M893.8 365L904 528.9" id="c"/><path class="st11" d="M1191.1 499.2c4.8-3.5 7.5-9.6 7.9-18.1h-4.6c-1 6-3.1 9.8-6.2 11.4" id="a"/><g id="ft"><path id="Lingatur" class="st11" d="M1251.4 396.2h24.3v5.2h-24.3z"/></g><g id="i"><path id="Ueberhang1" class="st11" d="M342.6 327.3c-2.1-1.5-4.6-2.1-7.1-2.1s-5 .6-7.1 2.1"/></g><g id="E"><path id="Halbserife" class="st11" d="M224.9 333.1c12.1 0 20.8.6 26.2 1.9 5.6 1.5 10.6 4.8 14.1 9.6 4 5 7.3 13.5 10 25.6h6l-3.5-37.2"/></g><g id="m"><path id="Anstrich" class="st11" d="M748.5 90.3c-.4-4-1.5-7.9-3.1-11.7h-1.2c-9.8 2.9-19.8 5-30 5.8v5.8"/></g><g id="l"><path id="Serife1" class="st11" d="M1061 151.5c.2 7.3 0 14.6-.6 21.8-.4 2.5-1.9 4.6-4 6s-5.8 2.1-10.8 2.1h-3.5v5.8h18.9"/><path id="Serife2" class="st11" d="M1079.4 187.3h18.5v-5.8h-3.1c-5.4 0-9.2-.8-11.4-2.3-2.1-1.5-3.5-4-3.7-6.7-.2-2.9-.4-10-.4-21"/></g><g id="k"><path id="Kehlung4" class="st11" d="M661.4 163.6c5.6 6.7 8.5 10.8 8.5 12.3 0 3.5-4.4 5.4-12.9 5.6h19.8l-15.4-17.9z"/><path id="Kehlung3" class="st11" d="M644.5 181.4c-5.2 0-8.9-.8-11-2.3-2.1-1.7-3.5-4-3.7-6.7v8.9h14.7z"/><path id="Kehlung2" class="st11" d="M610.4 172.5c-.2 2.3-1.2 4.6-3.1 6.2-1.9 1.7-5.8 2.7-11.9 2.7h15v-8.9z"/><path id="Kehlung1" class="st11" d="M709 181.2c-3.5-.2-6.9-1.2-10-3.3-5-3.7-9.4-7.9-13.3-12.9l13.9 16 9.4.2z"/></g><g id="r"><path id="Tropfen" class="st11" d="M574.4 94.3c2.3 6.2 5.4 9.4 9.6 9.4 2.3 0 4.6-1 6-2.7 1.7-1.7 2.5-4 2.5-6.4-.2-4-1.9-7.9-4.8-10.6-2.7-2.4-16.4-6.6-13.3 10.3"/></g><g id="e-2"><path id="Punze" class="st11" d="M415.6 113.2c2.9-19.1 12.3-28.7 27.7-28.7 6-.2 11.9 2.1 16 6.2 4.4 4.2 6.4 10 6.4 17.5 0 1.7-.2 3.5-.4 5.2l-49.7-.2z"/></g><g id="M-2"><path id="Grundstrich" class="st11" d="M324.3 33.3v109.9c.2 8.9-.2 17.9-1 26.6h26.8c-.2 0-1-13.1-1-26.6V58.5c-.2-8.3.2-16.9.8-25.2"/><path id="Haarstrich" class="st11" d="M182.2 162.7c-1-9.4-1.5-18.9-1.2-28.3V33.3h-6.9c.8 8.3 1 16.9.8 25.4v74.9c0 14.4-.4 24.1-1.5 29.3"/></g></g></g></g></svg>