<svg xmlns="http://www.w3.org/2000/svg" viewBox="0 0 3840 2160" width="1024" height="768"><defs><style>.cls-1,.cls-14,.cls-15,.cls-16,.cls-17,.cls-7{fill:none}.cls-2{fill:#e4007d}.cls-3{clip-path:url(#clip-path)}.cls-4{clip-path:url(#clip-path-2)}.cls-10,.cls-19,.cls-5{fill:#181716}.cls-6{opacity:.8}.cls-14,.cls-7{stroke:#181716}.cls-16,.cls-7{stroke-width:.5px}.cls-8{opacity:.7}.cls-9{clip-path:url(#clip-path-4)}.cls-10{font-size:13.66px}.cls-10,.cls-19{font-family:Flama-Book,Flama}.cls-11{letter-spacing:-.05em}.cls-12{letter-spacing:-.03em}.cls-13{opacity:.5}.cls-15,.cls-16,.cls-17{stroke:#e4007d}.cls-15{stroke-dasharray:2.95 1.95}.cls-18{fill:#ebecec}.cls-19{font-size:16.7px}.cls-20{clip-path:url(#clip-path-33)}</style><clipPath id="clip-path"><path class="cls-1" d="M60 239.45h1718V841.3H60z"/></clipPath><clipPath id="clip-path-2"><path class="cls-1" d="M60 239.45h1718V841.3H60z"/></clipPath><clipPath id="clip-path-4"><path class="cls-1" d="M705.39 634.22h28.08v152.96h-28.08z"/></clipPath><clipPath id="clip-path-33"/></defs><title>fontfon</title><g id="e2"><path id="Querstrich" class="cls-2" d="M700.77 692.56a41.31 41.31 0 0 1 .6 5.44h-77.69l.48-5.43"/></g><g class="cls-3" id="font-complete"><g class="cls-4"><path class="cls-5" d="M876.54 775.35q2.31-7.62 6-11.7 12 12.65 27.35 12.65 14.56 0 24.15-9.12t9.59-23.68q0-9.25-5.17-19.32t-28.3-20.41q-15.38-6.94-20.82-12.38a16.87 16.87 0 0 1-5.58-12.66 16 16 0 0 1 5-11.7q5-5 13.2-5 10.61 0 18.44 8.91a47 47 0 0 1 10.6 21.27h5v-34.42h-5q-3.27 7.89-5.31 9.93-9.53-11.84-24.08-11.84-14.29 0-22.18 10t-7.89 21a27.47 27.47 0 0 0 7.35 19.46q7.35 8 24.22 16.33 16.05 7.89 21.63 13.47t5.44 14.29a21.27 21.27 0 0 1-5.1 13.74q-5.1 6.26-15.44 6.26-23.81 0-33.06-31.7h-5.31v36.6zM719.65 662.14v6.26q9.8 0 13.4 2.11a8.72 8.72 0 0 1 4.35 6.26q.75 4.15.75 23.61v33.2q0 20.41-.88 24.29a8.37 8.37 0 0 1-4.56 5.78q-3.67 1.91-13.06 1.9v6.26H776v-6.26q-9.8 0-13.4-2.11a8.75 8.75 0 0 1-4.35-6.33q-.75-4.22-.75-23.54v-45.44q8-11.84 17.08-17.76a34.14 34.14 0 0 1 19-5.92q8.71 0 14.36 4.35t6.94 10q1.29 5.65 1.29 18.85v35.92q0 18.64-.41 22.45a10.59 10.59 0 0 1-3.4 6.67q-3 2.86-12.79 2.86h-2.58v6.26h57v-6.26q-9.66 0-13.27-2.11a8.55 8.55 0 0 1-4.29-6.33q-.68-4.22-.68-23.54v-34.83q0-15.51-2.45-23.61t-11-13.68q-8.51-5.58-21.84-5.58A47.2 47.2 0 0 0 778 661.6q-10.75 5.71-20.55 17.28-.41-14.56-3.54-23h-3.67a174.74 174.74 0 0 1-30.62 6.26m-95.52 30.48q4.76-30.75 29.53-30.75a24.17 24.17 0 0 1 17.21 6.6q7 6.6 7 18.57a43.74 43.74 0 0 1-.41 5.58zm64.5-23.4q-12-13.33-33.88-13.34-23.27 0-38.78 17.48t-15.51 43.88q0 18.64 8 31.7a57.08 57.08 0 0 0 20.61 20.21 54.13 54.13 0 0 0 54.9-.68 38 38 0 0 0 17.28-21.7h-6.53Q684.41 769 659.64 769q-18.24 0-27.42-14.76T623 710q0-3.95.54-12h77.69q-.68-15.51-12.65-28.85"/><path class="cls-5" d="M700.77 692.62a41.31 41.31 0 0 1 .6 5.44h-77.69l.48-5.43M871.32 771.76v3.58h5.31q.58-1.92 1.25-3.61m14.85 0A34.23 34.23 0 0 0 910 776.3a35.28 35.28 0 0 0 18-4.54m8.05-111.21v-2.76h-5q-.62 1.49-1.19 2.77m-11.94 0a29.18 29.18 0 0 0-16.27-4.65q-9.82 0-16.62 4.73"/></g><path class="cls-7" d="M701.37 644.84v140.82"/><path class="cls-4 cls-8 cls-9 cls-7" d="M719.43 644.84v140.82"/><path class="cls-7" d="M854.32 644.84v140.82M870.94 644.84v140.82M862.63 644.84v140.82M710.4 644.84v140.82"/><text class="cls-10" transform="translate(73.82 437.16)">Grundlinie</text><text class="cls-10" transform="translate(73.82 260.86)">K-Linie</text><text class="cls-10" transform="translate(115.41 260.86)"></text><text class="cls-10" transform="translate(117.11 260.86)">/</text><text class="cls-10" transform="translate(121.78 260.86)"></text><text class="cls-10" transform="translate(73.82 282.12)">Oberlinie</text><text class="cls-10" transform="translate(73.82 306.05)">H-Linie</text><text class="cls-10" transform="translate(73.82 330.92)">Mittellinie</text><text class="cls-10" transform="translate(132.62 330.92)"></text><text class="cls-10" transform="translate(134.32 330.92)">/</text><text class="cls-10" transform="translate(73.82 352.18)">X-Linie</text><text class="cls-10" transform="translate(73.66 467.96)">Unterlinie</text><text class="cls-10" transform="translate(131.47 467.96)"></text><text class="cls-10" transform="translate(133.18 467.96)">/</text><text class="cls-10" transform="translate(137.85 467.96)"></text><text class="cls-10" transform="translate(139.56 467.96)">P-Linie</text><text class="cls-10" transform="rotate(-90 430.265 226.915)">Oberlänge</text><text class="cls-10" transform="rotate(-90 478.375 275.245)">Mittellänge</text><text class="cls-10" transform="rotate(-90 521.17 318.04)">Unterlänge</text><text class="cls-10" transform="rotate(-90 435.365 270.365)"><tspan class="cls-11">V</tspan><tspan x="7.31" y="0">ersalhöhe</tspan></text><text class="cls-10" transform="rotate(-90 439.945 313.925)"><tspan class="cls-12">K</tspan><tspan x="8.35" y="0">egelgröße</tspan></text><text class="cls-10" transform="rotate(-90 405.87 279.85)"></text><text class="cls-10" transform="rotate(-90 405.015 278.995)">/</text><text class="cls-10" transform="rotate(-90 402.68 276.66)"></text><text class="cls-10" transform="rotate(-90 401.825 275.805)">Schriftgröße</text><g class="cls-4"><path class="cls-5" d="M1633.89 662.14v6.26q9.8 0 13.4 2.11a8.73 8.73 0 0 1 4.35 6.26q.75 4.15.75 23.61v33.2q0 20.41-.88 24.29a8.37 8.37 0 0 1-4.56 5.78q-3.67 1.91-13.06 1.9v6.26h56.33v-6.26q-9.8 0-13.4-2.11a8.74 8.74 0 0 1-4.35-6.33q-.75-4.21-.75-23.54v-45.44q8-11.84 17.08-17.76a34.14 34.14 0 0 1 19-5.92q8.71 0 14.36 4.35t6.94 10q1.29 5.65 1.29 18.84v35.92q0 18.64-.41 22.45a10.58 10.58 0 0 1-3.4 6.67q-3 2.86-12.79 2.86h-2.58v6.26h57v-6.26q-9.66 0-13.27-2.11a8.54 8.54 0 0 1-4.29-6.33q-.68-4.21-.68-23.54v-34.82q0-15.51-2.45-23.61t-11-13.67q-8.5-5.58-21.84-5.58a47.19 47.19 0 0 0-22.45 5.71q-10.75 5.71-20.55 17.28-.41-14.56-3.54-23h-3.67a174.91 174.91 0 0 1-30.62 6.26m-95.52 30.48q4.76-30.75 29.53-30.75a24.17 24.17 0 0 1 17.21 6.6q7 6.6 7 18.57a43.72 43.72 0 0 1-.41 5.58zm64.5-23.4q-12-13.33-33.88-13.34-23.27 0-38.78 17.48t-15.51 43.88q0 18.64 8 31.71a57.06 57.06 0 0 0 20.61 20.2 54.12 54.12 0 0 0 54.9-.68 38 38 0 0 0 17.28-21.7H1609Q1598.64 769 1573.88 769q-18.24 0-27.42-14.76t-9.18-44.24q0-3.95.54-12h77.69q-.68-15.51-12.65-28.85m-103.41-8.85h-33.61v-35h-4.35q-2.49 16.57-11.3 25.7t-20 9.39v6.26h16.19v63.14q0 19.46 1.84 27.21t9.25 13.54a27.21 27.21 0 0 0 17.21 5.78 34.1 34.1 0 0 0 16.67-4.56 29.2 29.2 0 0 0 12.45-13.54l-4.35-2.59q-7.21 11.16-17 11.16a15.63 15.63 0 0 1-9.46-3.26 15 15 0 0 1-5.78-8.64q-1.36-5.37-1.36-20.89v-67.37h33.61zm-107.49 0v-8.44q0-30.48 1.22-39.73a25.32 25.32 0 0 1 7.69-15.44 21.06 21.06 0 0 1 15-6.19q10.61 0 17.28 12.25 6 11.16 13.2 11.16a9 9 0 0 0 6.4-2.58 8.63 8.63 0 0 0 2.72-6.53q0-6.94-9.66-13.61t-25.72-6.67q-13.2 0-22.79 5.31a44.24 44.24 0 0 0-15.92 15.17q-6.33 9.87-7.69 19.12t-1.36 26.12v10.07h-20.82v6.26h20.82v66.95q0 20.41-.88 24.29a8.41 8.41 0 0 1-4.49 5.78q-3.61 1.91-13 1.9v6.26h60.28v-6.26h-5.85q-8.71 0-12.11-2.45a9.45 9.45 0 0 1-3.88-7.08q-.48-4.62-.48-22.45v-66.88h40.48v-6.26zm-91.85 87.49a108.56 108.56 0 0 1-18.91 12.66q-8.44 4.22-14.83 4.22a14.67 14.67 0 0 1-11.7-5.24q-4.49-5.24-4.49-13.81 0-21.64 35.1-35.92l14.83-6zm28.3 16.87q-5.44 0-7.08-4.49t-1.62-20.17v-45q0-14.29-3.06-21.23t-12.59-12.38q-9.53-5.44-26.81-5.44-23.27 0-34.29 8.91t-11 16.67q0 7.89 8.3 7.89 9.25 0 11.43-13.88 2.31-13.6 22.72-13.61 10.2 0 16.46 4.08t7.76 9.25q1.5 5.17 1.5 16.74v5.44L1279 706q-24.08 9.93-37.76 20.41t-13.68 24.49a21 21 0 0 0 8.16 17.28 30.19 30.19 0 0 0 19.46 6.53q8.84 0 20.07-4.9a142.08 142.08 0 0 0 24.83-14.56q1.63 9.66 7 14.56t14.63 4.9q21.64 0 22.86-23.27h-5q-2.18 13.34-11.16 13.34m-214.17-180h-2.86q-14 5.71-35.11 5.71v6.26q12.11 0 15.31 4.49t3.2 21.36v111q0 18.64-.48 22.52a10.81 10.81 0 0 1-3.4 6.67q-2.93 2.79-12.72 2.79h-2.86v6.26h56.6v-6.26q-9.39 0-12.93-2.25a8.88 8.88 0 0 1-4.15-6.6q-.61-4.35-.61-23.13v-44.65q6.4-12.38 14.83-18.57a31.4 31.4 0 0 1 19-6.19q9.11 0 15.17 4.35a18.87 18.87 0 0 1 7.69 11q1.63 6.67 1.63 20.55v33.47q0 18.51-.48 22.38a11.09 11.09 0 0 1-3.4 6.74q-2.93 2.86-12.86 2.86h-2.59v6.26h57.56v-6.26q-9.94 0-13.61-2a8.31 8.31 0 0 1-4.42-6.19q-.75-4.22-.75-23.81v-30.72q0-18.78-2.72-27.15t-11.77-14.08q-9.05-5.71-22.79-5.71a44.52 44.52 0 0 0-22.25 5.71q-10.14 5.71-18.3 17.14zm-89.12 184.37q-20 0-29.87-14.83t-9.87-41.09q0-25.44 9.19-38.1t27.43-12.72q10.2 0 13.74 3.13t5 11q2 10.48 11 10.48a7.59 7.59 0 0 0 6.46-3 10.46 10.46 0 0 0 2.24-6.39q0-9.12-12.11-15.44a56.43 56.43 0 0 0-26.53-6.33q-24 0-41.5 17t-17.5 44.39q0 26.67 16.26 42.86t40.07 16.19q37 0 46.26-31.7h-6q-7.35 24.49-34.29 24.49m-148.59 6.26q2.31-7.62 6-11.7 12 12.65 27.35 12.65 14.56 0 24.15-9.12t9.59-23.67q0-9.25-5.17-19.32t-28.3-20.41q-15.38-6.94-20.82-12.38a16.87 16.87 0 0 1-5.58-12.65 16 16 0 0 1 5-11.7q5-5 13.2-5 10.61 0 18.44 8.91A47 47 0 0 1 931 692.21h5v-34.42h-5q-3.27 7.89-5.31 9.93-9.53-11.84-24.08-11.84-14.29 0-22.18 10t-7.89 21a27.48 27.48 0 0 0 7.35 19.46q7.35 8 24.22 16.33 16.05 7.89 21.63 13.47t5.44 14.29a21.26 21.26 0 0 1-5.1 13.74q-5.1 6.26-15.44 6.26-23.81 0-33.06-31.7h-5.31v36.6zM719.65 662.14v6.26q9.8 0 13.4 2.11a8.73 8.73 0 0 1 4.35 6.26q.75 4.15.75 23.61v33.2q0 20.41-.88 24.29a8.37 8.37 0 0 1-4.56 5.78q-3.67 1.91-13.06 1.9v6.26H776v-6.26q-9.8 0-13.4-2.11a8.75 8.75 0 0 1-4.35-6.33q-.75-4.21-.75-23.54v-45.44q8-11.84 17.08-17.76a34.14 34.14 0 0 1 19-5.92q8.71 0 14.36 4.35t6.94 10q1.29 5.65 1.29 18.84v35.92q0 18.64-.41 22.45a10.59 10.59 0 0 1-3.4 6.67q-3 2.86-12.79 2.86h-2.58v6.26h57v-6.26q-9.66 0-13.27-2.11a8.55 8.55 0 0 1-4.29-6.33q-.68-4.21-.68-23.54v-34.82q0-15.51-2.45-23.61t-11-13.67q-8.51-5.58-21.84-5.58A47.2 47.2 0 0 0 778 661.6q-10.75 5.71-20.55 17.28-.41-14.56-3.54-23h-3.67a174.88 174.88 0 0 1-30.62 6.26m-95.52 30.48q4.76-30.75 29.53-30.75a24.17 24.17 0 0 1 17.21 6.6q7 6.6 7 18.57a43.71 43.71 0 0 1-.41 5.58zm64.5-23.4q-12-13.33-33.88-13.34-23.27 0-38.78 17.48t-15.51 43.88q0 18.64 8 31.71a57.06 57.06 0 0 0 20.61 20.2 54.12 54.12 0 0 0 54.9-.68 38 38 0 0 0 17.28-21.7h-6.53Q684.41 769 659.64 769q-18.24 0-27.42-14.76T623 710q0-3.95.54-12h77.69q-.68-15.51-12.65-28.85M537 725.62q-7.42 8.1-17.76 8.1a23.42 23.42 0 0 1-18.37-8.16q-7.21-8.16-7.21-25.72 0-18.91 6.26-28.3t18.78-9.39q9.93 0 17.82 7.62m-18.1-13.88a46.26 46.26 0 0 0-31.77 11.91q-13.41 11.91-13.4 28.92a38.61 38.61 0 0 0 6.53 21.91q6.53 9.8 19.46 17.42-24.9 4.63-24.9 22.45 0 9.25 8.71 15.1t38 7.21q25.44 1.09 35.38 6.53t9.93 19.19q0 12.38-11.09 20.34t-31 8q-22.32 0-33.54-7.82t-11.23-19.8q0-10.34 8.44-19.59a10.89 10.89 0 0 0-3.95-.68q-8 0-12.38 5.31t-4.35 13.61q0 15 15.24 24.76t40.55 9.8q27.62 0 42.32-11t14.7-29a34.79 34.79 0 0 0-7.21-22A34.39 34.39 0 0 0 553.51 766q-12.11-3.06-34.56-4.15-20.55-1.09-26.94-3.26t-6.53-7.08q0-10.75 28.85-11.7 27.76-.95 39.46-13.61t11.7-28.85a43.49 43.49 0 0 0-7.08-23.68q6.26-7.07 11.43-7.08 3.26 0 6.26 5.17 3.26 5.58 7.76 5.58 8.16 0 8.16-9a10.71 10.71 0 0 0-3.61-7.76q-3.61-3.54-10.14-3.54-11.84 0-23.4 13.06-13.75-14.29-36.47-14.29m-86.81 0q-13.34 4.77-37.55 7.21v6.26h3.67q7.62 0 10.68 1.09t4.9 5.44q1.84 4.36 1.84 23.95v33.74q0 18.64-.48 22.52a10.81 10.81 0 0 1-3.4 6.67q-2.93 2.79-12.59 2.79H394v6.26h60v-6.26h-2.86q-8.71 0-12.11-2.45a9.65 9.65 0 0 1-3.95-7.08q-.55-4.62-.54-22.45v-77.62zm-19.12-46.67a13.52 13.52 0 0 0 10 4.22 13.3 13.3 0 0 0 9.93-4.22 14.13 14.13 0 0 0 4.09-10.14 14 14 0 0 0-4.08-10.07 13.31 13.31 0 0 0-9.93-4.22 13.53 13.53 0 0 0-10 4.22 13.86 13.86 0 0 0-4.15 10.07 14 14 0 0 0 4.15 10.21m-51.3 137.22q-8.51 11.63-17.89 15.38t-23.95 3.74H305.6q-18.51 0-22.72-5.78t-4.22-38.58v-43.67h20.27q11.84 0 16.8 1.56a12.49 12.49 0 0 1 7.55 6.8q2.58 5.24 2.58 20.61h6.4v-63.13h-6.4q0 13.61-1.7 18.3a12.11 12.11 0 0 1-7.08 7q-5.36 2.34-18.83 2.34h-19.6v-77.44h25.58q19.32 0 28 2.11t15 10.2q6.33 8.1 10.68 27.42h6.4l-4.35-46H228.17v6.26q13.33 0 17.48 2.65t5.31 9.32q1.15 6.67 1.16 27.76v90.49q0 23.13-1.09 28.78a16.52 16.52 0 0 1-5.1 9.32q-4 3.67-17.76 3.67h-3.81v6.26h152.8l3.94-57.42h-6.53q-4.9 20.41-13.4 32M1516.55 370.12q12.25 17.62 26.67 39.53-16.19 18.64-35 18.64-17 0-30.48-14.83t-13.47-31.7q0-10.75 7.76-22.45T1494 338.9q10.34 13.61 22.59 31.23m-25.44-84q0-9.8 5.85-16.19t15.78-6.53a22.38 22.38 0 0 1 9 1.77 20 20 0 0 1 7 5 22.58 22.58 0 0 1 4.49 7.82 30.7 30.7 0 0 1 1.56 10q0 18.51-27.21 34.42-16.46-23-16.46-36.33m61.5 46.13q21.23 2.45 21.23 18.1 0 6.67-4.49 18.23a98.75 98.75 0 0 1-12.3 22.45q-10.75-15.37-22.11-31.16t-23.61-32.25q39.19-19.73 39.19-40.68 0-13.33-11.84-21.77a44.77 44.77 0 0 0-26.53-8.3q-16.6 0-27.35 11.16T1474 293.18q0 18 15.92 40.14-26.53 17.83-35.79 29.39t-9.25 28.71a44 44 0 0 0 4.22 20.48 52.37 52.37 0 0 0 11.8 16.1 53.28 53.28 0 0 0 16.74 10.41 49.92 49.92 0 0 0 19 3.54q26.81 0 50.62-26.67 20.13 26.67 46.67 26.67a35.32 35.32 0 0 0 21.5-6.8 31.68 31.68 0 0 0 12.25-18.1h-6.26q-6.94 12.11-19.73 12.11a31.57 31.57 0 0 1-17.69-5.58q-8.3-5.44-22.86-26.4 6.12-8 13.47-25.58 8.84-21.36 16.87-28.71a47.07 47.07 0 0 1 19.32-10.61V326h-58.24zm-277.44 26q4.76-30.75 29.53-30.75a24.17 24.17 0 0 1 17.21 6.6q7 6.6 7 18.57a43.72 43.72 0 0 1-.41 5.58zm64.5-23.4q-12-13.33-33.88-13.33-23.27 0-38.78 17.48t-15.51 43.88q0 18.64 8 31.7a57.07 57.07 0 0 0 20.61 20.21 54.12 54.12 0 0 0 54.9-.68 38 38 0 0 0 17.28-21.7h-6.53q-10.34 22.18-35.1 22.18-18.24 0-27.42-14.76t-9.19-44.15q0-3.95.54-12h77.69q-.68-15.51-12.65-28.85m-125.73-84.5q-4.22 1.91-15.44 3.81A118.66 118.66 0 0 1 1179 256v6.26q12.11 0 15.24 4.56t3.13 22.11v110.24q0 19.32-.68 23.4a9 9 0 0 1-4.15 6.33q-3.47 2.24-11.63 2.24h-3.81v6.26h59.6v-6.26h-3.26q-8.71 0-12.11-2.45a9.45 9.45 0 0 1-3.88-7.08q-.48-4.62-.48-22.45V250.32zm-87.08 163.14a108.45 108.45 0 0 1-18.91 12.65q-8.44 4.22-14.83 4.22a14.68 14.68 0 0 1-11.7-5.24q-4.49-5.24-4.49-13.81 0-21.64 35.1-35.92l14.83-6zm28.3 16.87q-5.44 0-7.08-4.49t-1.63-20.27v-45q0-14.29-3.06-21.23t-12.59-12.38q-9.53-5.44-26.81-5.44-23.27 0-34.29 8.91t-11 16.67q0 7.89 8.3 7.89 9.25 0 11.43-13.88 2.31-13.6 22.72-13.61 10.21 0 16.47 4.08t7.76 9.25q1.5 5.17 1.5 16.74V363l-21.09 8.57q-24.12 9.92-37.8 20.43t-13.68 24.49a21 21 0 0 0 8.16 17.28 30.18 30.18 0 0 0 19.46 6.53q8.84 0 20.07-4.9a142.18 142.18 0 0 0 24.83-14.56q1.63 9.66 7 14.56t14.63 4.9q21.64 0 22.86-23.27h-5q-2.18 13.34-11.16 13.34M827.1 327.6v6.26q9.39 0 13 2.18a8.6 8.6 0 0 1 4.22 6.46q.61 4.28.61 23.33v33.34q0 20.14-.82 24.08a8.41 8.41 0 0 1-4.42 5.92q-3.61 2-12.59 2v6.26h54.56v-6.26q-9.12 0-12.65-2.31a9 9 0 0 1-4.08-6.8q-.55-4.49-.54-22.86v-46.4q9.11-10.88 17.89-16.33t17.21-5.47q8.71 0 14.56 4.69a18.31 18.31 0 0 1 7 11.29q1.15 6.6 1.16 21.29v30.89q0 20.28-.88 24.22a8.42 8.42 0 0 1-4.49 5.85q-3.61 1.91-12.72 1.9v6.26H958v-6.26q-8.57 0-11.91-2.52a9.69 9.69 0 0 1-3.81-7.08q-.48-4.56-.48-22.38v-43.93q9-12.11 17.89-18.1t17.76-6q8.71 0 14.15 4.08a16.8 16.8 0 0 1 6.74 9.8q1.29 5.71 1.29 17v37.15q0 20-.82 24a8.45 8.45 0 0 1-4.42 6q-3.61 2-12.45 2v6.26h55.65v-6.26q-9.8 0-13.4-2a8.55 8.55 0 0 1-4.35-6.26q-.75-4.22-.75-23.68V365.7q0-17-1.9-24.63t-10.89-13.61q-9-6-21.91-6a44 44 0 0 0-22.18 6.26Q951.33 334 941 346.51q-3.4-12.52-12-18.78t-22.31-6.26a46 46 0 0 0-22.69 5.86q-10.55 5.85-19.66 17.55 0-14.29-3.95-23.4h-1.36q-12.66 4.22-32 6.12m-61.23 4.63q10.47.28 10.48 6.26 0 8.85-28.44 29l-11.7 8.16V250.32h-2.86q-4.08 1.91-15.31 3.81a117.48 117.48 0 0 1-19.25 1.9v6.26q11.7 0 14.76 4.49t3.06 20.68v111.71q0 18.64-.41 22.52a10.49 10.49 0 0 1-3.33 6.67q-2.93 2.79-12.72 2.79h-4.22v6.26h56.54v-6.26q-8.44 0-11.84-2.52a9.61 9.61 0 0 1-3.88-7.08q-.48-4.56-.48-22.38v-16.05l5.85-4.35L770.63 412q9.12 10.61 9.12 13.2 0 5.71-13.88 6v6.26h55.51v-6.26a22.07 22.07 0 0 1-10.61-3.47q-5.17-3.19-14.15-13.67l-39.73-46.54q14-11 20.68-16.74 20.82-18.23 33.2-18.5V326h-44.9zM638 321.48q-20.68 6.53-33.47 8v6.12h2.86q8.71 0 12.11 2.52a9.63 9.63 0 0 1 3.88 7.07q.48 4.56.48 22.52v31.43q0 19.32-.68 23.4a9 9 0 0 1-4.18 6.36q-3.47 2.24-11.63 2.24h-2.86v6.26h59.19v-6.26h-3.81q-8.71 0-12.11-2.45a9.45 9.45 0 0 1-3.88-7.08q-.48-4.62-.48-22.45v-19.85q0-15 2.31-23.54t10.48-16.53q8.16-8 14-8 4.9 0 7.35 6.8 3.54 10.07 10.34 10.07a8.49 8.49 0 0 0 6.46-2.86 9.65 9.65 0 0 0 2.65-6.8q0-5.85-5.17-11.43t-14.15-5.58q-9.93 0-20.34 8.16a46.41 46.41 0 0 0-15 20.27q-.41-17.69-4.35-28.44m-129.84 36.79q4.76-30.75 29.53-30.75a24.17 24.17 0 0 1 17.21 6.6q7 6.6 7 18.57a43.71 43.71 0 0 1-.41 5.58zm64.5-23.4q-12-13.33-33.88-13.33Q515.5 321.48 500 339t-15.51 43.88q0 18.64 8 31.7a57.07 57.07 0 0 0 20.61 20.21 54.12 54.12 0 0 0 54.9-.68 38 38 0 0 0 17.28-21.7h-6.53q-10.34 22.18-35.1 22.18-18.24 0-27.42-14.76t-9.18-44.15q0-3.95.54-12h77.69q-.68-15.51-12.65-28.85M277.25 252.9h-56.2v6.26h5q14 0 18.16 2.45t5.44 8.84q1.29 6.4 1.29 28.44v80.28q0 22.86-1.63 31.3a23.3 23.3 0 0 1-9 14.22q-7.42 5.79-19.25 6.46v6.26h66v-6.26q-12.79-.82-19.87-6.87t-8.44-14.08q-1.36-8-1.36-30.21V272L331 437.41h6.4L410.46 272v117.38q0 23.13-1.29 29.46t-5.85 9.32q-4.56 3-16.26 3h-6.53v6.26h88.17v-6.26h-8.16q-12.52 0-16.94-3.26t-5.51-10q-1.09-6.75-1.09-28.52v-90.49q0-23 1.43-29.12t5.65-8.37q4.22-2.24 17.82-2.24h6.8v-6.26h-56.6l-67.23 152.67z"/></g><path class="cls-4 cls-14" d="M693 331a.27.27 0 0 0-.22-.17 3.07 3.07 0 0 1-.68-.48c-.62-.53-1.17-1.17-1.82-1.66a4.75 4.75 0 0 0-2.7-.79 18 18 0 0 0-4.09.37 9.85 9.85 0 0 0-1.52.38 5.34 5.34 0 0 0-2.33 2.45 4.54 4.54 0 0 0-.07 2.47l.4 1.23c.32 1 .61 2 1 3.05s.91 2.2 1.38 3.29a9.15 9.15 0 0 0 1.83 3.16 4.86 4.86 0 0 0 3.15 1.42 6.39 6.39 0 0 0 4.15-1.4 15.82 15.82 0 0 0 1.17-1.18l.59-.78a3.28 3.28 0 0 0 .45-1.66 15.51 15.51 0 0 0-.14-5.2c-.29-1.21.39-1.66.08-2.86-.13-.51 0-1-.29-1.4"/><path class="cls-14" d="M691.97 331.33v.06"/><g class="cls-4"><path class="cls-2" d="M700.77 692.62a41.31 41.31 0 0 1 .6 5.44h-77.69l.48-5.43"/><path class="cls-5" d="M1025.21 769.09q-20 0-29.87-14.83t-9.86-41.09q0-25.44 9.18-38.1t27.42-12.65q10.21 0 13.74 3.13t5 11q2 10.48 11 10.48a7.59 7.59 0 0 0 6.46-3 10.46 10.46 0 0 0 2.25-6.4q0-9.11-12.11-15.44a56.43 56.43 0 0 0-26.53-6.33q-23.95 0-41.5 17t-17.55 44.36q0 26.67 16.26 42.86t40.07 16.19q37 0 46.26-31.7h-6q-7.35 24.49-34.29 24.49"/></g><path class="cls-15" d="M1018.79 627.2l10.91 175.06"/><g class="cls-4"><path class="cls-2" d="M871.32 771.76v3.58h5.31q.58-1.92 1.25-3.61m14.85 0A34.23 34.23 0 0 0 910 776.3a35.28 35.28 0 0 0 18-4.54m8.05-111.21v-2.76h-5q-.62 1.49-1.19 2.77m-11.94 0a29.18 29.18 0 0 0-16.27-4.65q-9.82 0-16.62 4.73M304.33 593.56q19.32 0 28 2.11t15 10.2q6.33 8.1 10.68 27.42h6.4l-3.76-39.72"/></g><g class="cls-4"><path class="cls-2" d="M1216.92 437.41h19.74v-6.26h-3.26q-8.71 0-12.11-2.45a9.45 9.45 0 0 1-3.88-7.08q-.48-4.62-.48-22.45M1197.34 399.17q0 19.32-.68 23.4a9 9 0 0 1-4.15 6.33q-3.47 2.24-11.64 2.24h-3.81v6.26h20.24M863.69 333.84a47.18 47.18 0 0 0-3.26-12.36h-1.36q-12.65 4.22-32 6.12v6.26"/><path class="cls-5" d="M716.2 421.69a10.49 10.49 0 0 1-3.33 6.67q-2.93 2.79-12.72 2.79h-4.22v6.26h56.47v-6.26q-8.44 0-11.84-2.52a9.61 9.61 0 0 1-3.88-7.08M770.63 412q9.11 10.61 9.12 13.2 0 5.71-13.88 6v6.26h55.52v-6.26a22.08 22.08 0 0 1-10.61-3.47q-5.17-3.19-14.15-13.67M777.57 350.73q20.82-18.23 33.2-18.5V326h-44.9v6.26q10.48.27 10.48 6.26"/><path class="cls-2" d="M821.38 431.15a22.08 22.08 0 0 1-10.61-3.47q-5.17-3.2-14.15-13.68l14.92 17.14z"/></g><g class="cls-4"><path class="cls-2" d="M770.63 412q9.11 10.61 9.12 13.2 0 5.71-13.88 6l21-.11zM752.4 431.15q-8.44 0-11.84-2.52a9.61 9.61 0 0 1-3.88-7.08v9.59zM716.2 421.69a10.49 10.49 0 0 1-3.33 6.67q-2.93 2.79-12.72 2.79h16.05z"/></g><path class="cls-4 cls-14" d="M693 331a.27.27 0 0 0-.22-.17 3.07 3.07 0 0 1-.68-.48c-.62-.53-1.17-1.17-1.82-1.66a4.75 4.75 0 0 0-2.7-.79 18 18 0 0 0-4.09.37 9.85 9.85 0 0 0-1.52.38 5.34 5.34 0 0 0-2.33 2.45 4.54 4.54 0 0 0-.07 2.47l.4 1.23c.32 1 .61 2 1 3.05s.91 2.2 1.38 3.29a9.15 9.15 0 0 0 1.83 3.16 4.86 4.86 0 0 0 3.15 1.42 6.39 6.39 0 0 0 4.15-1.4 15.82 15.82 0 0 0 1.17-1.18l.59-.78a3.28 3.28 0 0 0 .45-1.66 15.51 15.51 0 0 0-.14-5.2c-.29-1.21.39-1.66.08-2.86-.13-.51 0-1-.29-1.4"/><path class="cls-14" d="M691.97 331.33v.06"/><g class="cls-4"><path class="cls-2" d="M677.56 338.08q3.54 10.07 10.34 10.07a8.49 8.49 0 0 0 6.46-2.86 9.66 9.66 0 0 0 2.65-6.8 17.52 17.52 0 0 0-5.17-11.43c-2.76-2.48-17.46-6.87-14.29 11M508.16 358.22q4.76-30.75 29.53-30.75a24.17 24.17 0 0 1 17.21 6.6q7 6.6 7 18.57a43.71 43.71 0 0 1-.41 5.58z"/></g><path class="cls-7" d="M159.87 305.6h18.45M177.94 253.36v51.86"/><text class="cls-10" transform="rotate(-90 354.51 229.57)">Durchschuss</text><path class="cls-16" d="M209.3 668.01v95.87"/><path class="cls-2" d="M209.3 660.83l-3.5 9.6 3.5-2.42 3.49 2.42-3.49-9.6zM209.3 771.06l3.49-9.6-3.49 2.42-3.5-2.42 3.5 9.6z"/><path class="cls-16" d="M209.3 779.03v52.99"/><path class="cls-2" d="M209.3 771.85l-3.5 9.6 3.5-2.42 3.49 2.42-3.49-9.6zM209.3 839.2l3.49-9.6-3.49 2.42-3.5-2.42 3.5 9.6z"/><path class="cls-16" d="M170.58 595.07v168.15"/><path class="cls-2" d="M170.58 587.89l-3.5 9.6 3.5-2.42 3.49 2.42-3.49-9.6zM170.58 770.4l3.49-9.6-3.49 2.42-3.5-2.42 3.5 9.6z"/><path class="cls-16" d="M131.85 513.22v64.18"/><path class="cls-2" d="M131.85 506.04l-3.49 9.6 3.49-2.42 3.5 2.42-3.5-9.6zM131.85 584.58l3.5-9.6-3.5 2.42-3.49-2.42 3.49 9.6zM1400.79 660.49h25.93v5.37h-25.93z"/><path class="cls-17" d="M1400.79 660.49h25.93v5.37h-25.93z"/><path class="cls-4 cls-18" d="M1206.64 481.78a21.51 21.51 0 1 0-21.51-21.51 21.51 21.51 0 0 0 21.51 21.51"/><text class="cls-19" transform="translate(1202.23 466.86)">7</text><path class="cls-4 cls-18" d="M754.89 481.78a21.51 21.51 0 1 0-21.51-21.51 21.51 21.51 0 0 0 21.51 21.51"/><text class="cls-19" transform="translate(750.33 466.87)">5</text><path class="cls-4 cls-18" d="M544.07 415.1a21.51 21.51 0 1 0-21.51-21.51 21.51 21.51 0 0 0 21.51 21.51"/><text class="cls-19" transform="translate(539.48 400.18)">3</text><path class="cls-4 cls-18" d="M660.24 311.84a21.51 21.51 0 1 0-21.51-21.51 21.51 21.51 0 0 0 21.51 21.51"/><text class="cls-19" transform="translate(655.42 296.92)">4</text><path class="cls-4 cls-18" d="M470.93 311.84a21.51 21.51 0 1 0-21.51-21.51 21.51 21.51 0 0 0 21.51 21.51"/><text class="cls-19" transform="translate(466.48 296.92)">2</text><path class="cls-4 cls-18" d="M212.79 311.84a21.51 21.51 0 1 0-21.51-21.51 21.51 21.51 0 0 0 21.51 21.51"/><text class="cls-19" transform="translate(208.62 296.92)">1</text><path class="cls-4 cls-18" d="M169.77 565.68a21.51 21.51 0 1 0-21.51-21.51 21.51 21.51 0 0 0 21.51 21.51"/><text class="cls-19" transform="translate(165.15 550.76)">8</text><path class="cls-4 cls-18" d="M847.39 311.84a21.51 21.51 0 1 0-21.51-21.51 21.51 21.51 0 0 0 21.51 21.51"/><text class="cls-19" transform="translate(842.72 296.92)">6</text><path class="cls-4 cls-18" d="M309.59 645.27a21.51 21.51 0 1 0-21.51-21.51 21.51 21.51 0 0 0 21.51 21.51"/><text class="cls-19" transform="translate(304.9 630.36)">9</text><path class="cls-4 cls-18" d="M445.12 582.89a21.51 21.51 0 1 0-21.51-21.51 21.51 21.51 0 0 0 21.51 21.51"/><text class="cls-19" transform="translate(436.08 567.98)">10</text><path class="cls-4 cls-18" d="M651.63 645.27a21.51 21.51 0 1 0-21.51-21.51 21.51 21.51 0 0 0 21.51 21.51"/><text class="cls-19" transform="translate(647.46 630.36)">1</text><path class="cls-4 cls-18" d="M914.08 645.27a21.51 21.51 0 1 0-21.51-21.51 21.51 21.51 0 0 0 21.51 21.51"/><text class="cls-19" transform="translate(905.04 630.36)">10</text><path class="cls-4 cls-18" d="M1417.25 644.84a21.51 21.51 0 1 0-21.51-21.51 21.51 21.51 0 0 0 21.51 21.51"/><text class="cls-19" transform="translate(1408.5 629.92)">15</text><path class="cls-4 cls-18" d="M1704.65 645.27a21.51 21.51 0 1 0-21.51-21.51 21.51 21.51 0 0 0 21.51 21.51"/><text class="cls-19" transform="translate(1700.05 630.36)">3</text><path class="cls-4 cls-18" d="M1337.87 828.13a21.51 21.51 0 1 0-21.51-21.51 21.51 21.51 0 0 0 21.51 21.51"/><text class="cls-19" transform="translate(1328.88 813.21)">14</text><path class="cls-4 cls-18" d="M1002.28 828.13a21.51 21.51 0 1 0-21.51-21.51 21.51 21.51 0 0 0 21.51 21.51"/><text class="cls-19" transform="translate(993.52 813.21)">13</text><path class="cls-4 cls-18" d="M786.08 828.13a21.51 21.51 0 1 0-21.51-21.51 21.51 21.51 0 0 0 21.51 21.51"/><text class="cls-19" transform="translate(777.45 813.21)">12</text><g class="cls-4"><path class="cls-2" d="M1690.22 771.81v-6.26q-9.8 0-13.4-2.11a8.74 8.74 0 0 1-4.35-6.33q-.75-4.22-.75-23.54v-45.44q8-11.84 17.08-17.76a34.14 34.14 0 0 1 19-5.92q8.71 0 14.36 4.35t6.94 10q1.29 5.65 1.29 18.85v35.92q0 18.64-.41 22.45a10.58 10.58 0 0 1-3.4 6.67q-3 2.86-12.79 2.86h-2.58v6.26M1336.21 770.64q7.68-5.65 8.4-19.24h-5q-1.56 9.57-6.63 12.27"/></g><path class="cls-7" d="M159.84 250.46l1611.67-.94M177.53 252.99l1593.98-1M159.84 326.2l1611.67-.54M73.82 505.66h1697.69M73.82 587.51l1697.69-1.22M202.47 660.5l1569.08-.53M73.82 771.44l1697.69.38"/><path class="cls-20 cls-7" d="M73.82 839.58l1697.69.38"/><path class="cls-7" d="M159.84 437.52h1611.67M73.82 584.94l1697.73-1.03"/><path class="cls-16" d="M209.3 592.5v59.9"/><path class="cls-2" d="M209.3 585.32l-3.5 9.6 3.5-2.42 3.49 2.42-3.49-9.6zM209.3 659.59l3.49-9.6-3.49 2.41-3.5-2.41 3.5 9.6z"/><path class="cls-16" d="M131.85 592.5v239.52"/><path class="cls-2" d="M131.85 585.32l-3.49 9.6 3.49-2.42 3.5 2.42-3.5-9.6zM131.85 839.2l3.5-9.6-3.5 2.42-3.49-2.42 3.49 9.6zM855.46 645.6h6.03v139.3h-6.03z"/><path class="cls-17" d="M855.46 645.6h6.03v139.3h-6.03z"/><path class="cls-2" d="M711.54 645.6h6.71v139.3h-6.71z"/><path class="cls-17" d="M711.54 645.6h6.71v139.3h-6.71z"/></g><path class="cls-2" d="M1690.22 771.81v-6.26q-9.8 0-13.4-2.11a8.74 8.74 0 0 1-4.35-6.33q-.75-4.22-.75-23.54v-45.44q8-11.84 17.08-17.76a34.14 34.14 0 0 1 19-5.92q8.71 0 14.36 4.35t6.94 10q1.29 5.65 1.29 18.85v35.92q0 18.64-.41 22.45a10.58 10.58 0 0 1-3.4 6.67q-3 2.86-12.79 2.86h-2.58v6.26" id="n1"/><g id="n2"><path id="Zeichenbreite7" class="cls-7" d="M701.37 644.84v140.82"/><path id="Zeichenbreite6" class="cls-7" d="M854.32 644.84v140.82"/><path id="Zeichenbreite5" class="cls-7" d="M870.94 644.84v140.82"/><path id="Zeichenbreite4" class="cls-7" d="M862.63 644.84v140.82"/><path id="Zeichenbreite3" class="cls-7" d="M710.4 644.84v140.82"/><path id="Zeichenbreite2" class="cls-2" d="M855 645h7v140h-7z"/><path id="Zeichenbreite1" class="cls-2" d="M711 645.6h8v139.3h-8z"/></g><g id="s"><path id="Ueberhang2" class="cls-2" d="M871.32 771.76v3.58h5.31q.58-1.92 1.25-3.61m14.85 0A34.23 34.23 0 0 0 910 776.3a35.28 35.28 0 0 0 18-4.54m8.05-111.21v-2.76h-5q-.62 1.49-1.19 2.77m-11.94 0a29.18 29.18 0 0 0-16.27-4.65q-9.82 0-16.62 4.73"/></g><path class="cls-15" d="M1018.79 627.2l10.91 175.06" id="c"/><path class="cls-2" d="M1336.21 770.6q7.68-5.65 8.4-19.24h-5q-1.56 9.57-6.63 12.27" id="a"/><g id="ft"><path id="Lingatur" class="cls-2" d="M1400.79 660.49h25.93V666h-25.93z"/></g><g id="i"><path id="Ueberhang1" class="cls-2" d="M430.1 587a13.26 13.26 0 0 0-7.63-2.27 13.43 13.43 0 0 0-7.65 2.26"/></g><g id="E"><path id="Halbserife" class="cls-2" d="M304.33 593.27q19.32 0 28 2.11t15 10.2q6.33 8.1 10.68 27.42h6.4l-3.76-39.72"/></g><g id="m"><path id="Anstrich" class="cls-2" d="M863.69 333.84a47.18 47.18 0 0 0-3.26-12.36h-1.36q-12.65 4.22-32 6.12v6.26"/></g><g id="l"><path id="Serife1" class="cls-2" d="M1197.34 399.17q0 19.32-.68 23.4a9 9 0 0 1-4.15 6.33q-3.47 2.24-11.64 2.24h-3.81v6.26h20.24"/><path id="Serife2" class="cls-2" d="M1216.92 437.41h19.74v-6.26h-3.26q-8.71 0-12.11-2.45a9.45 9.45 0 0 1-3.88-7.08q-.48-4.62-.48-22.45"/></g><g id="k"><path id="Kehlung4" class="cls-2" d="M770.63 412q9.11 10.61 9.12 13.2 0 5.71-13.88 6l21-.11z"/><path id="Kehlung3" class="cls-2" d="M752.4 431.15q-8.44 0-11.84-2.52a9.61 9.61 0 0 1-3.88-7.08v9.59z"/><path id="Kehlung2" class="cls-2" d="M716.2 421.69a10.49 10.49 0 0 1-3.33 6.67q-2.93 2.79-12.72 2.79h16.05z"/><path id="Kehlung1" class="cls-2" d="M821.38 431a22.08 22.08 0 0 1-10.61-3.47q-5.17-3.2-14.15-13.68L811.54 431z"/></g><g id="r"><path id="Tropfen" class="cls-2" d="M677.56 338.08q3.54 10.07 10.34 10.07a8.49 8.49 0 0 0 6.46-2.86 9.66 9.66 0 0 0 2.65-6.8 17.52 17.52 0 0 0-5.17-11.43c-2.76-2.48-17.46-6.87-14.29 11"/></g><g id="e-2" data-name="e"><path id="Punze" class="cls-2" d="M508.18 358.26q4.76-30.75 29.53-30.75a24.17 24.17 0 0 1 17.21 6.6q7 6.6 7 18.57a43.71 43.71 0 0 1-.41 5.58z"/></g><g id="M-2" data-name="M"><a><path id="Grundstrich" class="cls-2" d="M410.46 272.95v117.43q0 21.54-1.12 28.5h28.74c-.23 0-1.09-14-1.09-28.51v-90.48q0-19.64 1-27"/></a><path id="Haarstrich" class="cls-2" d="M258.74 411.19q-1.36-8-1.36-30.21V272.89h-7.44q1 7.16 1 27v80.28q0 22.86-1.63 31.3"/></g></svg>