<svg id="merkmale-eigenschaften" xmlns="http://www.w3.org/2000/svg" xmlns:xlink="http://www.w3.org/1999/xlink" viewBox="0 0 764 266.2"><style>.st0{fill:#e4007d}.st1{clip-path:url(#SVGID_2_)}.st2{clip-path:url(#SVGID_4_)}.st3{fill:#181716}.st4{fill:none;stroke:#181716;stroke-width:.5}.st5{opacity:.7;enable-background:new}.st6{clip-path:url(#SVGID_6_)}.st7{font-family:&amp;apos;Flama-Book&amp;apos;}.st8{font-size:6.15px}.st9{enable-background:new}.st10{font-family:&amp;apos;Flama-Book&amp;apos;}.st11{clip-path:url(#SVGID_8_)}.st12,.st13{fill:none;stroke:#181716}.st13{stroke:#e4007d;stroke-dasharray:2.95,1.95}.st14{stroke-width:.5}.st14,.st15{fill:none;stroke:#e4007d}.st16{fill:#ebecec}.st17{font-size:7.52px}</style><g id="e2"><path id="Querstrich" class="st0" d="M282.2 199.6l.3 2.4h-35l.2-2.4"/></g><defs><path id="SVGID_1_" d="M-6.1-4.3H767v270.8H-6.1z"/></defs><clipPath id="SVGID_2_"><use xlink:href="#SVGID_1_" overflow="visible"/></clipPath><g class="st1"><defs><path id="SVGID_3_" d="M-6.1-4.3H767v270.8H-6.1z"/></defs><clipPath id="SVGID_4_"><use xlink:href="#SVGID_3_" overflow="visible"/></clipPath><g class="st2"><path class="st3" d="M361.3 236.9c.5-1.9 1.4-3.7 2.7-5.3 3.6 3.8 7.7 5.7 12.3 5.7 4 .1 7.9-1.3 10.9-4.1 2.9-2.8 4.4-6.7 4.3-10.6-.1-3-.9-6-2.3-8.7-1.6-3-5.8-6.1-12.7-9.2-4.6-2.1-7.7-3.9-9.4-5.6-1.6-1.5-2.5-3.5-2.5-5.7 0-2 .8-3.9 2.2-5.3 1.6-1.5 3.7-2.4 5.9-2.2 3.2 0 6.3 1.5 8.3 4 2.4 2.7 4 6 4.8 9.6h2.2V184h-2.2c-.6 1.6-1.4 3.1-2.4 4.5-2.6-3.4-6.6-5.4-10.8-5.3-4.3 0-7.6 1.5-10 4.5-2.2 2.6-3.5 6-3.5 9.4-.1 3.2 1.1 6.4 3.4 8.7 2.2 2.4 5.8 4.9 10.9 7.4 4.8 2.4 8.1 4.4 9.7 6.1 1.7 1.7 2.6 4 2.5 6.4 0 2.3-.8 4.5-2.3 6.2-1.5 1.9-3.8 2.8-7 2.8-7.1 0-12.1-4.8-14.9-14.3H359v16.5h2.3zm-70.6-51v2.8c2.9 0 4.9.3 6 .9 1.1.6 1.8 1.6 2 2.8.3 3.5.4 7.1.3 10.6v14.9c0 6.1-.1 9.8-.4 10.9-.2 1.1-1 2.1-2 2.6-1.1.6-3.1.9-5.9.9v2.8h25.4v-2.8c-2.9 0-4.9-.3-6-.9-1.1-.6-1.8-1.6-2-2.9-.3-3.5-.4-7.1-.3-10.6v-20.5c2-3.2 4.6-5.9 7.7-8 2.5-1.7 5.5-2.6 8.5-2.7 2.3-.1 4.6.6 6.5 2 1.5 1.1 2.6 2.7 3.1 4.5.5 2.8.7 5.6.6 8.5v16.2c0 5.6-.1 9-.2 10.1-.1 1.2-.7 2.2-1.5 3-.9.9-2.8 1.3-5.8 1.3h-1.2v2.8h25.6v-2.8c-2.9 0-4.9-.3-6-.9-1.1-.6-1.8-1.6-1.9-2.9-.3-3.5-.4-7.1-.3-10.6v-15.7c.1-3.6-.2-7.1-1.1-10.6-.9-2.6-2.6-4.8-5-6.2-3-1.8-6.4-2.7-9.8-2.5-3.5 0-7 .9-10.1 2.6-3.5 2-6.7 4.6-9.2 7.8 0-3.5-.5-7-1.6-10.4h-1.6c-4.5 1.6-9.2 2.5-13.8 3m-43 13.8c1.4-9.2 5.9-13.9 13.3-13.9 2.9-.1 5.7 1 7.7 3 2.1 2 3.1 4.8 3.1 8.4 0 .8-.1 1.7-.2 2.5h-23.9zm29-10.6c-3.6-4-8.7-6-15.2-6-6.7-.1-13.1 2.8-17.5 7.9-4.7 5.2-7 11.8-7 19.8-.2 5 1.1 9.9 3.6 14.3 2.3 3.8 5.5 6.9 9.3 9.1 7.7 4.4 17.1 4.3 24.7-.3 3.7-2.2 6.5-5.6 7.8-9.8h-2.9c-3.1 6.7-8.3 10-15.8 10-5.5 0-9.6-2.2-12.3-6.6s-4.1-11.1-4.1-19.9c0-1.2.1-3 .2-5.4h35c-.4-5-2.4-9.6-5.8-13.1"/><path class="st3" d="M282.2 199.7l.3 2.4h-35l.2-2.4M358.9 235.3v1.6h2.4c.2-.6.4-1.1.6-1.6m6.7 0c2.4 1.4 5 2.1 7.8 2.1 2.8.1 5.6-.6 8.1-2m3.6-50.1v-1.2h-2.2c-.2.4-.4.9-.5 1.2m-5.5 0c-2.2-1.4-4.7-2.1-7.3-2.1-2.7-.1-5.3.7-7.5 2.1"/><path class="st4" d="M282.5 178.1v63.4"/><g class="st5"><defs><path id="SVGID_5_" class="st5" d="M284.3 173.4h12.6v68.8h-12.6z"/></defs><clipPath id="SVGID_6_"><use xlink:href="#SVGID_5_" overflow="visible"/></clipPath><path class="st6 st4" d="M290.6 178.1v63.4"/></g><path class="st4" d="M351.3 178.1v63.4M358.8 178.1v63.4M355 178.1v63.4M286.5 178.1v63.4"/><text transform="translate(.07 84.69)" class="st3 st7 st8">Grundlinie</text><text transform="translate(.07 5.35)" class="st9"><tspan x="0" y="0" class="st3 st7 st8">K-Linie</tspan><tspan x="18.7" y="0" class="st3 st7 st8"> </tspan><tspan x="19.7" y="0" class="st3 st7 st8">/</tspan></text><text transform="translate(.07 14.92)" class="st3 st7 st8">Oberlinie</text><text transform="translate(.07 25.69)" class="st3 st7 st8">H-Linie</text><text transform="translate(.07 36.88)" class="st9"><tspan x="0" y="0" class="st3 st7 st8">Mittellinie</tspan><tspan x="26.5" y="0" class="st3 st7 st8"> </tspan><tspan x="27.5" y="0" class="st3 st7 st8">/</tspan></text><text transform="translate(.07 46.45)" class="st3 st7 st8">X-Linie</text><text transform="translate(0 98.55)" class="st9"><tspan x="0" y="0" class="st3 st7 st8">Unterlinie</tspan><tspan x="26" y="0" class="st3 st7 st8"> </tspan><tspan x="27" y="0" class="st3 st7 st8">/</tspan><tspan x="29.1" y="0" class="st3 st7 st8"> </tspan><tspan x="30.1" y="0" class="st3 st7 st8">P-Linie</tspan></text><text transform="rotate(-90 121.03 62.67)" class="st3 st7 st8">Oberlänge</text><text transform="rotate(-90 142.675 84.415)" class="st3 st7 st8">Mittellänge</text><text transform="rotate(-90 161.935 103.675)" class="st3 st7 st8">Unterlänge</text><text transform="rotate(-90 123.32 82.22)" class="st3 st7 st8">V</text><text transform="rotate(-90 121.68 80.58)" class="st3 st7 st8">ersalhöhe</text><text transform="rotate(-90 125.385 101.825)" class="st3 st7 st8">K</text><text transform="rotate(-90 123.505 99.945)" class="st3 st7 st8">egelgröße</text><text transform="rotate(-90 109.665 86.105)" class="st3 st10 st8">/</text><text transform="rotate(-90 108.23 84.67)" class="st3 st10 st8">Schriftgröße</text><g><g id="font-complete"><defs><path id="SVGID_7_" d="M-6.1-4.3H767v270.8H-6.1z"/></defs><clipPath id="SVGID_8_"><use xlink:href="#SVGID_7_" overflow="visible"/></clipPath><g class="st11"><path class="st3" d="M702.1 185.9v2.8c2.9 0 4.9.3 6 .9 1.1.6 1.8 1.6 2 2.8.3 3.5.4 7.1.3 10.6v14.9c0 6.1-.1 9.8-.4 10.9-.2 1.1-1 2.1-2 2.6-1.1.6-3.1.9-5.9.9v2.8h25.3v-2.8c-2.9 0-4.9-.3-6-.9-1.1-.6-1.8-1.6-2-2.9-.3-3.5-.4-7.1-.3-10.6v-20.5c2-3.2 4.6-5.9 7.7-8 2.5-1.7 5.5-2.6 8.5-2.7 2.3-.1 4.6.6 6.5 2 1.5 1.1 2.6 2.7 3.1 4.5.5 2.8.7 5.6.6 8.5v16.2c0 5.6-.1 9-.2 10.1-.1 1.2-.7 2.2-1.5 3-.9.9-2.8 1.3-5.8 1.3h-1.2v2.8h25.7v-2.8c-2.9 0-4.9-.3-6-.9-1.1-.6-1.8-1.6-1.9-2.9-.3-3.5-.4-7.1-.3-10.6v-15.7c.1-3.6-.2-7.1-1.1-10.6-.9-2.6-2.6-4.8-5-6.1-3-1.8-6.4-2.7-9.8-2.5-3.5 0-7 .9-10.1 2.6-3.5 2-6.7 4.6-9.2 7.8 0-3.5-.5-7-1.6-10.4h-1.7c-4.5 1.3-9.1 2.3-13.8 2.8m-43 13.9c1.5-9.2 6-13.9 13.4-13.9 2.9-.1 5.7 1 7.7 3 2.1 2 3.2 4.8 3.2 8.4 0 .8-.1 1.7-.2 2.5H659zm29-10.6c-3.6-4-8.7-6-15.2-6-6.6-.1-13 2.8-17.3 7.8-4.7 5.2-7 11.8-7 19.8-.2 5 1.1 9.9 3.6 14.3 2.3 3.8 5.5 6.9 9.3 9.1 7.7 4.4 17.1 4.3 24.7-.3 3.7-2.2 6.5-5.6 7.8-9.8H691c-3.1 6.7-8.4 10-15.8 10-5.5 0-9.6-2.2-12.3-6.6-2.8-4.4-4.1-11.1-4.1-19.9 0-1.2.1-3 .2-5.4h35c-.3-4.9-2.3-9.5-5.7-13m-46.6-4h-15.2v-15.7h-2c-.7 5-2.4 8.8-5 11.6-2.3 2.6-5.5 4.1-9 4.2v2.8h7.3v28.4c0 5.8.3 9.9.8 12.2.6 2.5 2.1 4.6 4.2 6.1 2.2 1.7 4.9 2.6 7.7 2.6 2.6 0 5.2-.7 7.5-2.1 2.5-1.4 4.4-3.5 5.6-6.1l-2-1.2c-2.2 3.3-4.7 5-7.7 5-1.5 0-3-.5-4.3-1.5-1.3-.9-2.2-2.3-2.6-3.9-.5-3.1-.7-6.3-.6-9.4v-30.3h15.1l.2-2.7zm-48.4 0v-3.8c0-9.1.2-15.1.5-17.9.3-2.7 1.5-5.1 3.5-6.9 1.8-1.8 4.2-2.8 6.8-2.8 3.2 0 5.8 1.8 7.8 5.5 1.8 3.3 3.8 5 5.9 5 1.1 0 2.1-.4 2.9-1.2.8-.8 1.3-1.8 1.2-2.9 0-2.1-1.5-4.1-4.3-6.1-2.9-2-6.8-3-11.6-3-3.6-.1-7.1.7-10.3 2.4-2.9 1.6-5.4 4-7.2 6.8-1.8 2.6-2.9 5.5-3.5 8.6-.5 3.9-.7 7.8-.6 11.8v4.5H575v2.8h9.4V218c0 6.1-.1 9.8-.4 10.9-.2 1.1-1 2.1-2 2.6-1.1.6-3 .9-5.8.9v2.8h27.1v-2.8h-2.6c-2.6 0-4.4-.4-5.5-1.1-1-.7-1.7-1.9-1.8-3.2-.1-1.4-.2-4.8-.2-10.1v-30.1h18.2V185l-18.1.1zM552 224.4c-2.6 2.2-5.5 4.1-8.5 5.7-2 1.1-4.3 1.8-6.7 1.9-2 .1-4-.8-5.3-2.4-1.4-1.8-2.1-4-2-6.2 0-6.5 5.3-11.9 15.8-16.2l6.7-2.7v19.9zm12.7 7.6c-1.4.2-2.7-.7-3.2-2s-.7-4.4-.7-9.1v-20.2c0-4.3-.5-7.5-1.4-9.6s-2.8-3.9-5.7-5.6-6.9-2.4-12.1-2.4c-7 0-12.1 1.3-15.4 4-3.3 2.7-5 5.2-5 7.5 0 2.4 1.2 3.5 3.7 3.6 2.8 0 4.5-2.1 5.1-6.2.7-4.2 4-6.2 10.2-6.1 2.6-.1 5.2.5 7.4 1.8 1.6.9 2.9 2.4 3.5 4.2.5 2.5.8 5 .7 7.5v2.5l-9.5 3.9c-7.2 3-12.9 6-17 9.2-4.1 3.1-6.2 6.8-6.2 11-.1 3 1.3 5.9 3.7 7.8 2.5 2 5.6 3 8.8 2.9 3.1-.1 6.2-.9 9-2.2 4-1.8 7.7-4 11.2-6.5.3 2.5 1.4 4.8 3.2 6.6 1.8 1.5 4.2 2.3 6.6 2.2 6.5 0 9.9-3.5 10.3-10.5h-2.2c-.7 3.8-2.4 5.8-5 5.7m-96.4-80.9H467c-4.2 1.7-9.5 2.6-15.8 2.6v2.8c3.6 0 5.9.7 6.9 2s1.4 4.5 1.4 9.6v50c0 5.6-.1 9-.2 10.1-.1 1.2-.7 2.2-1.5 3-.9.8-2.8 1.3-5.7 1.3h-1.3v2.8h25.5v-2.8c-2.8 0-4.8-.3-5.8-1-1.1-.7-1.7-1.8-1.9-3-.2-1.3-.3-4.8-.3-10.4V198c1.6-3.3 3.8-6.1 6.7-8.4 2.5-1.8 5.5-2.8 8.5-2.8 2.4-.1 4.8.6 6.8 2 1.7 1.2 3 2.9 3.5 4.9.6 3 .8 6.1.7 9.2V218c0 5.6-.1 8.9-.2 10.1-.1 1.1-.7 2.2-1.5 3-.9.9-2.8 1.3-5.8 1.3h-1.2v2.8h25.9v-2.8c-3 0-5-.3-6.1-.9-1.1-.6-1.8-1.6-2-2.8-.3-3.6-.4-7.1-.3-10.7v-13.8c0-5.6-.4-9.7-1.2-12.2-1-2.7-2.8-4.9-5.3-6.3-3.1-1.8-6.7-2.7-10.3-2.6-3.5 0-6.9.9-10 2.6-3.3 1.9-6.1 4.6-8.2 7.7v-42.3zm-40.1 83c-6 0-10.5-2.2-13.4-6.7-3-4.4-4.4-10.6-4.4-18.5 0-7.6 1.4-13.3 4.1-17.1s6.9-5.7 12.3-5.7c3.1 0 5.1.5 6.2 1.4s1.8 2.6 2.2 4.9c.6 3.1 2.2 4.7 5 4.7 1.1.1 2.2-.4 2.9-1.4.6-.8 1-1.8 1-2.9 0-2.7-1.8-5.1-5.5-6.9-3.7-1.9-7.8-2.9-11.9-2.9-7-.1-13.8 2.7-18.7 7.7-5.2 5.1-7.9 11.8-7.9 20 0 8 2.4 14.4 7.3 19.3 4.7 4.8 11.3 7.4 18 7.3 11.1 0 18-4.8 20.8-14.3h-2.7c-2.1 7.4-7.3 11.1-15.3 11.1m-66.9 2.8c.5-1.9 1.4-3.7 2.7-5.3 3.6 3.8 7.7 5.7 12.3 5.7 4 .1 7.9-1.3 10.9-4.1 2.9-2.8 4.5-6.7 4.3-10.7-.1-3-.9-6-2.3-8.7-1.6-3-5.8-6.1-12.7-9.2-4.6-2.1-7.7-3.9-9.4-5.6-1.6-1.5-2.5-3.5-2.5-5.7 0-2 .8-3.9 2.2-5.3 1.6-1.5 3.7-2.4 5.9-2.2 3.2 0 6.3 1.5 8.3 4 2.4 2.7 4 6 4.8 9.6h2.2V184h-2.2c-.6 1.6-1.4 3.1-2.4 4.5-2.6-3.4-6.6-5.4-10.8-5.3-4.3 0-7.6 1.5-10 4.5-2.2 2.6-3.5 6-3.5 9.4-.1 3.2 1.1 6.4 3.4 8.7 2.2 2.4 5.8 4.9 10.9 7.4 4.8 2.4 8.1 4.4 9.7 6.1 1.7 1.7 2.6 4 2.5 6.4 0 2.3-.8 4.5-2.3 6.2-1.5 1.9-3.8 2.8-7 2.8-7.1 0-12.1-4.8-14.9-14.3H359v16.5h2.3zM290.7 186v2.8c2.9 0 4.9.3 6 .9 1.1.6 1.8 1.6 2 2.8.3 3.5.4 7.1.3 10.6V218c0 6.1-.1 9.8-.4 10.9-.2 1.1-1 2.1-2 2.6-1.1.6-3.1.9-5.9.9v2.8h25.4v-2.8c-2.9 0-4.9-.3-6-.9-1.1-.6-1.8-1.6-2-2.9-.3-3.5-.4-7.1-.3-10.6v-20.5c2-3.2 4.6-5.9 7.7-8 2.5-1.7 5.5-2.6 8.5-2.7 2.3-.1 4.6.6 6.5 2 1.5 1.1 2.6 2.7 3.1 4.5.5 2.8.7 5.6.6 8.5V218c0 5.6-.1 9-.2 10.1-.1 1.2-.7 2.2-1.5 3-.9.9-2.8 1.3-5.8 1.3h-1.2v2.8h25.6v-2.8c-2.9 0-4.9-.3-6-.9-1.1-.6-1.8-1.6-1.9-2.9-.3-3.5-.4-7.1-.3-10.6v-15.7c.1-3.6-.2-7.1-1.1-10.6-.9-2.6-2.6-4.8-5-6.1-3-1.8-6.4-2.7-9.8-2.5-3.5 0-7 .9-10.1 2.6-3.5 2-6.7 4.6-9.2 7.8 0-3.5-.5-7-1.6-10.4h-1.6c-4.5 1.4-9.2 2.3-13.8 2.9m-43 13.7c1.4-9.2 5.9-13.9 13.3-13.9 2.9-.1 5.7 1 7.7 3 2.1 2 3.1 4.8 3.1 8.4 0 .8-.1 1.7-.2 2.5h-23.9zm29-10.6c-3.6-4-8.7-6-15.2-6-6.7-.1-13.1 2.8-17.5 7.9-4.7 5.2-7 11.8-7 19.8-.2 5 1.1 9.9 3.6 14.3 2.3 3.8 5.5 6.9 9.3 9.1 7.7 4.4 17.1 4.3 24.7-.3 3.7-2.2 6.5-5.6 7.8-9.8h-2.9c-3.1 6.7-8.3 10-15.8 10-5.5 0-9.6-2.2-12.3-6.6s-4.1-11.1-4.1-19.9c0-1.2.1-3 .2-5.4h35c-.4-5-2.4-9.6-5.8-13.1m-68.2 25.4c-4 4.5-10.8 4.9-15.3.9l-.9-.9c-2.2-2.4-3.2-6.3-3.2-11.6 0-5.7.9-9.9 2.8-12.7 1.9-2.8 5.1-4.4 8.5-4.2 3 0 5.9 1.3 8 3.4m-8.3-6.2c-5.3-.1-10.4 1.8-14.3 5.4-3.8 3.2-6 8-6 13 0 3.5 1 6.9 2.9 9.9 2.3 3.2 5.3 5.9 8.8 7.8-7.5 1.4-11.2 4.8-11.2 10.1 0 2.8 1.5 5.4 3.9 6.8 2.6 1.8 8.3 2.8 17.1 3.2 7.6.3 12.9 1.3 15.9 2.9 3 1.6 4.5 4.5 4.5 8.6 0 3.7-1.9 7.2-5 9.1-3.3 2.4-8 3.6-14 3.6-6.7 0-11.7-1.2-15.1-3.5-3.4-2.3-5.1-5.3-5.1-8.9.1-3.3 1.4-6.5 3.8-8.8-.6-.2-1.2-.3-1.8-.3-2.1-.1-4.2.8-5.6 2.4-1.4 1.7-2.1 3.9-2 6.1 0 4.5 2.3 8.2 6.9 11.1 4.6 2.9 10.7 4.4 18.2 4.4 8.3 0 14.6-1.6 19-5 7.2-5.1 8.9-15.1 3.8-22.3-2.2-3.1-5.4-5.3-9.1-6.3-5.1-1.1-10.2-1.7-15.4-1.9-6.2-.3-10.2-.8-12.1-1.5s-2.9-1.7-2.9-3.2c0-3.2 4.3-5 13-5.3 8.3-.3 14.2-2.3 17.8-6.1 3.4-3.5 5.3-8.1 5.3-13 0-3.8-1.1-7.5-3.2-10.7 1.9-2.1 3.6-3.2 5.1-3.2 1 0 1.9.8 2.8 2.3 1 1.7 2.1 2.5 3.5 2.5 2.4 0 3.7-1.3 3.7-4 0-1.3-.6-2.6-1.6-3.5-1.2-1.1-2.9-1.7-4.6-1.6-3.6 0-7.1 2-10.5 5.9-4.1-3.9-9.6-6.1-16.5-6m-39-.1c-4 1.4-9.6 2.5-16.9 3.2v2.8h1.6c1.6-.1 3.2.1 4.8.5 1.1.5 1.9 1.4 2.2 2.4.6 1.3.8 4.9.8 10.8V218c0 5.6-.1 9-.2 10.1-.1 1.2-.7 2.2-1.5 3-.9.8-2.8 1.3-5.7 1.3h-2.1v2.8h27v-2.8h-1.3c-2.6 0-4.4-.4-5.5-1.1-1-.7-1.7-1.9-1.8-3.2-.2-1.4-.2-4.8-.2-10.1v-35h-1.2v.1zm-8.6-21c1.2 1.2 2.8 1.9 4.5 1.9s3.3-.7 4.5-1.9c2.4-2.5 2.4-6.6 0-9.1-1.2-1.2-2.8-1.9-4.5-1.9s-3.3.7-4.5 1.9-1.9 2.8-1.9 4.5c0 1.8.7 3.4 1.9 4.6m-23.1 61.8c-2.6 3.5-5.2 5.8-8 6.9-3.5 1.2-7.1 1.8-10.8 1.7h-6.2c-5.6 0-9-.9-10.2-2.6-1.3-1.7-1.9-7.5-1.9-17.4v-19.7h9.1c2.5-.1 5.1.1 7.6.7 1.5.5 2.8 1.6 3.4 3.1.8 1.6 1.2 4.7 1.2 9.3h2.9v-28.4h-3c0 4.1-.3 6.8-.8 8.2-.6 1.5-1.7 2.6-3.2 3.1-1.6.7-4.4 1.1-8.5 1.1h-8.8v-34.8h11.6c5.8 0 10 .3 12.6.9 2.7.7 5.1 2.3 6.8 4.6 1.9 2.4 3.5 6.5 4.8 12.3h2.9l-2-20.7H69.5v2.8c4 0 6.6.4 7.9 1.2 1.4 1 2.2 2.5 2.4 4.2.5 4.1.6 8.3.5 12.5v40.7c0 6.9-.2 11.3-.5 13-.3 1.6-1.1 3.1-2.3 4.2-1.2 1.1-3.9 1.6-8 1.6h-1.7v2.8h68.8l1.8-25.8h-2.9c-1.5 6.2-3.5 11-6.1 14.5M649.3 54.5c3.7 5.3 7.7 11.2 12 17.8-4.9 5.6-10.1 8.4-15.8 8.4-5.1 0-9.7-2.2-13.7-6.7s-6.1-9.2-6.1-14.2c.1-3.6 1.4-7.2 3.5-10.1 2.6-3.7 6-6.9 9.9-9.2 3.2 4.1 6.6 8.8 10.2 14m-11.4-37.7c-.1-2.7.8-5.3 2.6-7.3s4.4-3 7.1-2.9c1.4 0 2.8.3 4 .8s2.3 1.3 3.2 2.2c.9 1 1.6 2.2 2 3.5.5 1.5.7 3 .7 4.5 0 5.6-4.1 10.7-12.2 15.5-5-6.9-7.5-12.4-7.4-16.3m27.7 20.7c6.4.7 9.5 3.4 9.5 8.2-.2 2.8-.9 5.6-2 8.2-1.4 3.6-3.3 7-5.5 10.1-3.2-4.6-6.5-9.3-10-14-3.4-4.7-7-9.6-10.6-14.5 11.8-5.9 17.6-12 17.6-18.3 0-4-2-7.7-5.3-9.8-3.5-2.5-7.7-3.8-11.9-3.7-4.6-.2-9.1 1.7-12.3 5-3.1 3-4.8 7.1-4.9 11.4 0 5.4 2.4 11.4 7.2 18.1-8 5.3-13.3 9.7-16.1 13.2-2.9 3.7-4.3 8.3-4.2 12.9-.1 3.2.5 6.3 1.9 9.2 1.3 2.7 3.1 5.2 5.3 7.2s4.8 3.6 7.5 4.7 5.6 1.6 8.5 1.6c8 0 15.6-4 22.8-12 6 8 13 12 21 12 3.5.1 6.9-1 9.7-3.1 2.7-2 4.7-4.9 5.5-8.2h-2.9c-2.1 3.6-5 5.4-8.9 5.4-2.9 0-5.6-.9-8-2.5-2.5-1.6-5.9-5.6-10.3-11.9 2.5-3.6 4.6-7.4 6.2-11.5 2.7-6.4 5.2-10.7 7.6-12.9 2.5-2.3 5.5-3.9 8.7-4.8v-2.8h-26.2l.1 2.8zM540.7 49.2c1.4-9.2 5.9-13.8 13.3-13.8 2.9-.1 5.7 1 7.7 3 2.1 2 3.2 4.8 3.2 8.4 0 .8-.1 1.7-.2 2.5l-24-.1zm29-10.6c-3.6-4-8.7-6-15.2-6-6.7-.1-13.1 2.8-17.5 7.9-4.7 5.2-7 11.8-7 19.8-.2 5 1.1 9.9 3.6 14.3 2.3 3.8 5.5 6.9 9.3 9.1 7.7 4.4 17.1 4.3 24.7-.3 3.8-2.1 6.6-5.6 7.9-9.8h-3c-3.1 6.7-8.4 10-15.8 10-5.5 0-9.6-2.2-12.3-6.6s-4.1-11.1-4.1-19.9c0-1.2.1-3 .2-5.4h35c-.4-4.9-2.4-9.6-5.8-13.1M513.2.6c-2.2.8-4.6 1.4-7 1.7-2.9.5-5.8.8-8.8.9V6c3.6 0 5.9.7 6.9 2 .9 1.4 1.4 4.7 1.4 9.9v49.6c.1 3.5 0 7-.3 10.5-.2 1.2-.9 2.2-1.9 2.9-1 .7-2.8 1-5.2 1h-1.7v2.8h26.8V82h-1.5c-2.6 0-4.4-.4-5.5-1.1-1-.7-1.7-1.9-1.8-3.2-.1-1.4-.2-4.8-.2-10.1V.6h-1.2zM473.9 74c-2.6 2.2-5.5 4.1-8.5 5.7-2 1.1-4.3 1.8-6.7 1.9-2 .1-4-.8-5.3-2.4-1.4-1.8-2.1-4-2-6.2 0-6.5 5.3-11.9 15.8-16.2l6.7-2.7V74zm12.8 7.6c-1.4.2-2.7-.7-3.2-2s-.7-4.4-.7-9.1V50.2c0-4.3-.5-7.5-1.4-9.5-.9-2.1-2.8-3.9-5.7-5.6-2.8-1.6-6.9-2.5-12.1-2.5-7 0-12.1 1.3-15.4 4s-5 5.2-5 7.5c0 2.4 1.2 3.5 3.7 3.5 2.8 0 4.5-2.1 5.1-6.2s4.1-6.2 10.2-6.1c2.6-.1 5.2.5 7.4 1.8 1.6.9 2.9 2.4 3.5 4.2.5 2.5.8 5 .7 7.5v2.4l-9.5 3.9c-7.2 3-12.9 6-17 9.2s-6.2 6.8-6.2 11c-.1 3 1.3 5.9 3.7 7.8 2.5 2 5.6 3 8.8 2.9 3.1-.1 6.2-.9 9-2.2 3.9-1.8 7.7-4 11.2-6.6.3 2.5 1.4 4.8 3.1 6.6 1.8 1.5 4.2 2.3 6.6 2.2 6.5 0 9.9-3.5 10.3-10.5h-2.2c-.6 4.1-2.3 6.1-4.9 6.1M339 35.4v2.8c2.8 0 4.8.3 5.9 1 1.1.6 1.8 1.7 1.9 2.9.2 1.3.3 4.8.3 10.5v15c.1 3.6 0 7.2-.4 10.8-.2 1.1-1 2.1-2 2.7-1.1.6-3 .9-5.7.9v2.8h24.5V82c-2.7 0-4.6-.3-5.7-1s-1.7-1.8-1.8-3.1c-.2-1.3-.2-4.8-.2-10.3V46.7c2.3-2.9 5-5.3 8-7.3 2.3-1.5 5-2.4 7.7-2.5 2.4-.1 4.7.7 6.5 2.1 1.6 1.2 2.8 3.1 3.1 5.1.4 3.2.6 6.4.5 9.6v13.9c0 6.1-.1 9.7-.4 10.9-.2 1.1-1 2.1-2 2.6-1.1.6-3 .9-5.7.8v2.8H398V82c-2.6 0-4.4-.4-5.4-1.1-1-.8-1.6-1.9-1.7-3.2-.1-1.4-.2-4.7-.2-10.1V47.8c2.2-3.1 4.9-5.9 8-8.2 2.3-1.7 5.1-2.6 8-2.7 2.3-.1 4.5.6 6.4 1.9 1.5 1.1 2.6 2.6 3 4.4.5 2.5.6 5.1.6 7.6v16.7c.1 3.6 0 7.2-.4 10.8-.2 1.2-1 2.2-2 2.7-1.1.6-2.9.9-5.6.9v2.8h25V82c-2.9 0-4.9-.3-6-.9s-1.8-1.6-2-2.8c-.3-3.5-.4-7.1-.2-10.6V52.5c.1-3.7-.2-7.4-.9-11.1-.6-2.3-2.2-4.3-4.9-6.1-2.9-1.9-6.4-2.8-9.9-2.7-3.5 0-7 1-10 2.8-3.7 2.2-6.9 5.1-9.5 8.5-.8-3.4-2.7-6.3-5.4-8.5-2.9-2-6.5-3-10-2.8-3.6 0-7.1.9-10.2 2.6-3.5 2-6.5 4.7-8.9 7.9.1-3.6-.5-7.2-1.8-10.5h-.6c-4.6 1.5-9.5 2.4-14.4 2.8m-27.5 2.1c3.1.1 4.7 1 4.7 2.8 0 2.7-4.3 7-12.8 13l-5.3 3.7V.6h-1.3c-2.2.8-4.5 1.4-6.9 1.7-2.9.5-5.8.8-8.7.9V6c3.5 0 5.7.7 6.6 2s1.4 4.4 1.4 9.3v50.3c0 5.6-.1 9-.2 10.1s-.6 2.2-1.5 3-2.8 1.3-5.7 1.3H280v2.8h25.5V82c-2.5 0-4.3-.4-5.3-1.1-1-.8-1.7-1.9-1.8-3.2-.1-1.4-.2-4.7-.2-10.1v-7.2l2.6-2 12.9 15c2.7 3.2 4.1 5.2 4.1 5.9 0 1.7-2.1 2.6-6.2 2.7v2.8h25V82c-1.7-.1-3.3-.6-4.8-1.6-2.4-1.7-4.5-3.8-6.4-6.1l-17.9-20.9c4.2-3.3 7.3-5.8 9.3-7.5 6.2-5.5 11.2-8.2 14.9-8.3v-2.8h-20.2v2.7zM254 32.6c-4.9 1.7-9.9 2.9-15.1 3.6V39h1.3c2.6 0 4.4.4 5.5 1.1 1 .8 1.7 1.9 1.8 3.2.1 1.4.2 4.7.2 10.1v14.2c.1 3.5 0 7-.3 10.5-.2 1.2-.9 2.2-1.9 2.9-1 .7-2.8 1-5.2 1H239v2.8h26.6V82h-1.7c-2.6 0-4.4-.4-5.5-1.1-1-.7-1.7-1.9-1.8-3.2-.1-1.4-.2-4.8-.2-10.1v-8.9c-.1-3.6.2-7.1 1-10.6.9-2.9 2.5-5.4 4.7-7.4 2.4-2.4 4.5-3.6 6.3-3.6 1.5 0 2.6 1 3.3 3.1 1.1 3 2.6 4.5 4.6 4.5 1.1 0 2.2-.5 2.9-1.3.8-.8 1.2-1.9 1.2-3.1-.1-1.9-.9-3.8-2.3-5.1-1.7-1.7-4-2.6-6.4-2.5-3 0-6 1.2-9.1 3.7-3 2.4-5.4 5.5-6.8 9.1.1-4.4-.6-8.8-1.8-12.9m-58.5 16.6c1.4-9.2 5.9-13.8 13.3-13.8 2.9-.1 5.7 1 7.7 3 2.1 2 3.1 4.8 3.1 8.4 0 .8-.1 1.7-.2 2.5l-23.9-.1zm29-10.6c-3.6-4-8.7-6-15.2-6-6.7-.1-13.1 2.8-17.4 7.9-4.7 5.3-7 11.8-7 19.7-.1 5 1.1 9.9 3.6 14.3 2.3 3.8 5.5 6.9 9.3 9.1 7.7 4.4 17.1 4.3 24.7-.3 3.7-2.2 6.5-5.6 7.8-9.8h-2.9c-3.1 6.7-8.4 10-15.8 10-5.5 0-9.6-2.2-12.3-6.6S195 65.9 195 57c0-1.2.1-3 .2-5.4h35c-.2-4.8-2.2-9.5-5.7-13M91.6 1.8H66.3v2.8h2.2c4.2 0 6.9.4 8.2 1.1 1.4.9 2.3 2.4 2.4 4 .4 1.9.6 6.2.6 12.8v36.1c0 6.9-.2 11.6-.7 14.1-.5 2.6-1.9 4.8-4 6.4-2.5 1.8-5.5 2.9-8.7 2.9v2.8H96V82c-3.8-.2-6.8-1.3-8.9-3.1-2-1.6-3.3-3.8-3.8-6.3-.5-4.5-.7-9.1-.6-13.6V10.4l33.1 74.4h2.9l32.9-74.4v52.8c0 6.9-.2 11.4-.6 13.3-.3 1.7-1.2 3.2-2.6 4.2-1.4.9-3.8 1.4-7.3 1.4h-2.9v2.8h39.7V82h-3.7c-3.8 0-6.3-.5-7.6-1.5a6.62 6.62 0 0 1-2.5-4.5c-.5-4.3-.6-8.5-.6-12.8V22.5c0-6.9.2-11.3.6-13.1.2-1.6 1.2-3 2.5-3.8 1.3-.7 3.9-1 8-1h3.1V1.8h-25.4L122 70.5 91.6 1.8z"/><path class="st12" d="M278.7 36.9l-.1-.1c-.1-.1-.2-.1-.3-.2-.3-.2-.5-.5-.8-.8-.4-.2-.8-.4-1.2-.4-.6 0-1.2 0-1.8.2-.2 0-.5.1-.7.2-.4.3-.8.6-1 1.1-.1.4-.1.7 0 1.1l.2.5c.1.5.3.9.5 1.4l.6 1.5c.2.5.5 1 .8 1.4.4.4.9.6 1.4.6.7 0 1.3-.2 1.9-.6.2-.2.4-.3.5-.5l.3-.3c.1-.2.2-.5.2-.8.1-.8.1-1.6-.1-2.3-.1-.5.2-.8 0-1.3-.1-.2 0-.5-.1-.6M278.2 37.1"/><path class="st0" d="M282.2 199.7l.3 2.4h-35l.2-2.4"/><path class="st3" d="M428.2 234.1c-6 0-10.5-2.2-13.4-6.7-3-4.4-4.4-10.6-4.4-18.5 0-7.6 1.4-13.3 4.1-17.1 2.8-3.8 6.9-5.7 12.3-5.7 3.1 0 5.1.5 6.2 1.4s1.8 2.6 2.2 4.9c.6 3.1 2.2 4.7 5 4.7 1.1.1 2.2-.4 2.9-1.4.6-.8 1-1.8 1-2.9 0-2.7-1.8-5-5.5-6.9s-7.8-2.9-11.9-2.9c-7-.1-13.7 2.7-18.7 7.7-5.3 5.1-7.9 11.8-7.9 20 0 8 2.4 14.4 7.3 19.3 4.7 4.8 11.3 7.4 18 7.3 11.1 0 18-4.8 20.8-14.3h-2.7c-2.1 7.4-7.3 11.1-15.3 11.1"/><path class="st13" d="M425.3 170.2l4.9 78.8"/><path class="st0" d="M358.9 235.3v1.6h2.4c.2-.6.4-1.1.6-1.6m6.7 0c2.4 1.4 5 2.1 7.8 2.1 2.8.1 5.6-.6 8.1-2m3.6-50.1v-1.2h-2.2c-.2.4-.4.9-.5 1.2m-5.5 0c-2.2-1.4-4.7-2.1-7.3-2.1-2.7-.1-5.3.7-7.5 2.1M103.8 155.1c5.8 0 10 .3 12.6.9 2.7.7 5.1 2.3 6.8 4.6 1.9 2.4 3.5 6.5 4.8 12.3h2.9l-1.7-17.9M514.5 84.8h8.9V82h-1.5c-2.6 0-4.4-.4-5.5-1.1-1-.7-1.7-1.9-1.8-3.2-.1-1.4-.2-4.8-.2-10.1M505.7 67.6c.1 3.5 0 7-.3 10.5-.2 1.2-.9 2.2-1.9 2.9-1 .7-2.8 1-5.2 1h-1.7v2.8h9.1M355.5 38.2c-.2-1.9-.7-3.8-1.5-5.6h-.6c-4.7 1.4-9.5 2.4-14.4 2.8v2.8"/><path class="st3" d="M289.1 77.7c-.1 1.1-.6 2.2-1.5 3s-2.8 1.3-5.7 1.3H280v2.8h25.4V82c-2.5 0-4.3-.4-5.3-1.1-1-.8-1.7-1.9-1.8-3.2M313.6 73.4c2.7 3.2 4.1 5.2 4.1 5.9 0 1.7-2.1 2.6-6.2 2.7v2.8h25V82c-1.7-.1-3.3-.6-4.8-1.6-2.4-1.7-4.5-3.8-6.4-6.1M316.8 45.8c6.2-5.5 11.2-8.2 14.9-8.3v-2.8h-20.2v2.8c3.1.1 4.7 1 4.7 2.8"/><path class="st0" d="M336.5 82c-1.7-.1-3.3-.6-4.8-1.6-2.4-1.8-4.5-3.8-6.4-6.2L332 82h4.5zM313.6 73.4c2.7 3.2 4.1 5.2 4.1 5.9 0 1.7-2.1 2.6-6.2 2.7h9.5l-7.4-8.6zM305.5 82c-2.5 0-4.3-.4-5.3-1.1-1-.8-1.7-1.9-1.8-3.2V82h7.1zM289.1 77.7c-.1 1.1-.6 2.2-1.5 3s-2.8 1.3-5.7 1.3h7.2v-4.3z"/><path class="st12" d="M278.7 36.9l-.1-.1c-.1-.1-.2-.1-.3-.2-.3-.2-.5-.5-.8-.8-.4-.2-.8-.4-1.2-.4-.6 0-1.2 0-1.8.2-.2 0-.5.1-.7.2-.4.3-.8.6-1 1.1-.1.4-.1.7 0 1.1l.2.5c.1.5.3.9.5 1.4l.6 1.5c.2.5.5 1 .8 1.4.4.4.9.6 1.4.6.7 0 1.3-.2 1.9-.6.2-.2.4-.3.5-.5l.3-.3c.1-.2.2-.5.2-.8.1-.8.1-1.6-.1-2.3-.1-.5.2-.8 0-1.3-.1-.2 0-.5-.1-.6M278.2 37.1"/><path class="st0" d="M271.8 40.1c1.1 3 2.6 4.5 4.6 4.5 1.1 0 2.2-.5 2.9-1.3.8-.8 1.2-1.9 1.2-3.1-.1-1.9-.9-3.8-2.3-5.1-1.3-1.1-7.9-3.1-6.4 5M195.5 49.2c1.4-9.2 5.9-13.8 13.3-13.8 2.9-.1 5.7 1 7.7 3 2.1 2 3.1 4.8 3.1 8.4 0 .8-.1 1.7-.2 2.5l-23.9-.1z"/><path class="st4" d="M38.8 25.5h8.3M46.9 2v23.3"/><text transform="rotate(-90 86.94 63.86)" class="st3 st7 st8">Durchschuss</text><path class="st14" d="M61 188.6v43.1"/><path class="st0" d="M61 185.3l-1.5 4.4 1.5-1.1 1.6 1.1zM61 234.9l1.6-4.3-1.6 1.1-1.5-1.1z"/><path class="st14" d="M61 238.5v23.9"/><path class="st0" d="M61 235.3l-1.5 4.3 1.5-1.1 1.6 1.1zM61 265.6l1.6-4.3-1.6 1.1-1.5-1.1z"/><path class="st14" d="M43.6 155.8v75.6"/><path class="st0" d="M43.6 152.5l-1.6 4.3 1.6-1 1.6 1zM43.6 234.6l1.6-4.3-1.6 1.1-1.6-1.1z"/><path class="st14" d="M26.2 118.9v28.9"/><path class="st0" d="M26.2 115.7l-1.6 4.3 1.6-1.1 1.6 1.1zM26.2 151l1.6-4.3-1.6 1.1-1.6-1.1zM597.2 185.2h11.7v2.4h-11.7z"/><path class="st15" d="M597.2 185.2h11.7v2.4h-11.7z"/><path class="st16" d="M509.9 104.8c5.3 0 9.7-4.3 9.7-9.7s-4.3-9.7-9.7-9.7c-5.3 0-9.7 4.3-9.7 9.7 0 5.4 4.3 9.7 9.7 9.7"/><text transform="translate(507.86 98.05)" class="st3 st7 st17">7</text><path class="st16" d="M306.6 104.8c5.3 0 9.7-4.3 9.7-9.7 0-5.3-4.3-9.7-9.7-9.7-5.3 0-9.7 4.3-9.7 9.7 0 5.4 4.3 9.7 9.7 9.7"/><text transform="translate(304.5 98.06)" class="st3 st7 st17">5</text><path class="st16" d="M211.7 74.8c5.3 0 9.7-4.3 9.7-9.7s-4.3-9.7-9.7-9.7c-5.3 0-9.7 4.3-9.7 9.7s4.3 9.7 9.7 9.7"/><text transform="translate(209.62 68.05)" class="st3 st7 st17">3</text><path class="st16" d="M264 28.3c5.3 0 9.7-4.3 9.7-9.7 0-5.3-4.3-9.7-9.7-9.7-5.3 0-9.7 4.3-9.7 9.7 0 5.4 4.3 9.7 9.7 9.7"/><text transform="translate(261.79 21.58)" class="st3 st7 st17">4</text><path class="st16" d="M178.8 28.3c5.3 0 9.7-4.3 9.7-9.7s-4.3-9.7-9.7-9.7c-5.3 0-9.7 4.3-9.7 9.7 0 5.4 4.3 9.7 9.7 9.7"/><text transform="translate(176.77 21.58)" class="st3 st7 st17">2</text><path class="st16" d="M62.6 28.3c5.3 0 9.7-4.3 9.7-9.7S68 8.9 62.6 8.9s-9.7 4.3-9.7 9.7c0 5.4 4.4 9.7 9.7 9.7"/><text transform="translate(60.73 21.58)" class="st3 st7 st17">1</text><path class="st16" d="M43.2 142.5c5.3 0 9.7-4.3 9.7-9.7s-4.3-9.7-9.7-9.7c-5.3 0-9.7 4.3-9.7 9.6.1 5.4 4.4 9.8 9.7 9.8"/><text transform="translate(41.17 135.81)" class="st3 st7 st17">8</text><path class="st16" d="M348.2 28.3c5.3 0 9.7-4.4 9.6-9.7s-4.4-9.7-9.7-9.6c-5.3 0-9.6 4.3-9.6 9.7 0 5.3 4.3 9.6 9.7 9.6"/><text transform="translate(346.08 21.58)" class="st3 st7 st17">6</text><path class="st16" d="M106.2 178.3c5.3 0 9.7-4.3 9.7-9.7 0-5.3-4.3-9.7-9.7-9.7-5.3 0-9.7 4.3-9.7 9.7s4.3 9.7 9.7 9.7"/><text transform="translate(104.06 171.63)" class="st3 st7 st17">9</text><path class="st16" d="M167.2 150.3c5.3 0 9.7-4.3 9.7-9.7s-4.3-9.7-9.7-9.7c-5.3 0-9.7 4.3-9.7 9.7 0 5.3 4.3 9.7 9.7 9.7"/><text transform="translate(163.09 143.56)" class="st3 st7 st17">10</text><path class="st16" d="M26.9 72.5c5.3 0 9.7-4.3 9.7-9.7s-4.3-9.7-9.7-9.7c-5.3 0-9.7 4.3-9.7 9.6 0 5.4 4.4 9.8 9.7 9.8"/><text transform="translate(22.84 65.81)" class="st3 st7 st17">16</text><path class="st16" d="M260.1 178.3c5.3 0 9.7-4.3 9.7-9.7 0-5.3-4.3-9.7-9.7-9.7-5.3 0-9.7 4.3-9.7 9.7 0 5.4 4.3 9.7 9.7 9.7"/><text transform="translate(258.21 171.63)" class="st3 st7 st17">1</text><path class="st16" d="M378.2 178.3c5.3 0 9.7-4.3 9.7-9.7 0-5.3-4.3-9.7-9.7-9.7-5.3 0-9.7 4.3-9.7 9.7 0 5.4 4.3 9.7 9.7 9.7"/><text transform="translate(374.12 171.63)" class="st3 st7 st17">10</text><path class="st16" d="M604.6 178.2c5.3 0 9.7-4.3 9.7-9.7s-4.3-9.7-9.7-9.7-9.7 4.3-9.7 9.7c0 5.3 4.4 9.7 9.7 9.7"/><text transform="translate(600.68 171.43)" class="st3 st7 st17">15</text><path class="st16" d="M734 178.3c5.3 0 9.7-4.3 9.7-9.7s-4.3-9.7-9.7-9.7-9.7 4.3-9.7 9.7c0 5.4 4.3 9.7 9.7 9.7"/><text transform="translate(731.88 171.63)" class="st3 st7 st17">3</text><path class="st16" d="M568.9 260.6c5.3 0 9.7-4.3 9.7-9.7 0-5.3-4.3-9.7-9.7-9.7-5.3 0-9.7 4.3-9.7 9.7 0 5.4 4.4 9.7 9.7 9.7"/><text transform="translate(564.85 253.91)" class="st3 st7 st17">14</text><path class="st16" d="M417.9 260.6c5.3 0 9.7-4.3 9.7-9.7 0-5.3-4.3-9.7-9.7-9.7-5.3 0-9.7 4.3-9.7 9.7 0 5.4 4.3 9.7 9.7 9.7"/><text transform="translate(413.94 253.91)" class="st3 st7 st17">13</text><path class="st16" d="M320.6 260.6c5.3 0 9.7-4.3 9.7-9.7 0-5.3-4.3-9.7-9.7-9.7-5.3 0-9.7 4.3-9.7 9.7 0 5.4 4.3 9.7 9.7 9.7"/><text transform="translate(316.71 253.91)" class="st3 st7 st17">12</text><path class="st0" d="M727.5 235.3v-2.8c-2.9 0-4.9-.3-6-.9-1.1-.6-1.8-1.6-2-2.9-.3-3.5-.4-7.1-.3-10.6v-20.4c2-3.2 4.6-5.9 7.7-8 2.5-1.7 5.5-2.6 8.5-2.7 2.3-.1 4.6.6 6.5 2 1.5 1.1 2.6 2.7 3.1 4.5.5 2.8.7 5.6.6 8.5v16.2c0 5.6-.1 9-.2 10.1-.1 1.2-.7 2.2-1.5 3-.9.9-2.8 1.3-5.8 1.3h-1.2v2.8M568.2 234.8c2.3-1.7 3.6-4.6 3.8-8.7h-2.2c-.5 2.9-1.5 4.7-3 5.5"/><path class="st4" d="M38.8.7L764 .2M46.7 1.8L764 1.4M38.8 34.8l725.2-.3M.1 115.5H764M.1 152.4l763.9-.6M58 185.2l706-.3M.1 235.1l763.9.2M.1 265.8l763.9.2M38.8 84.8H764M.1 151.2l763.9-.5"/><path class="st14" d="M61 154.6v27"/><path class="st0" d="M61 151.4l-1.5 4.3 1.5-1.1 1.6 1.1zM61 184.8l1.6-4.3-1.6 1.1-1.5-1.1z"/><path class="st14" d="M26.2 154.6v107.8"/><path class="st0" d="M26.2 151.4l-1.6 4.3 1.6-1.1 1.6 1.1zM26.2 265.6l1.6-4.3-1.6 1.1-1.6-1.1zM351.8 178.5h2.7v62.7h-2.7z"/><path class="st15" d="M351.8 178.5h2.7v62.7h-2.7z"/><path class="st0" d="M287 178.5h3v62.7h-3z"/><path class="st15" d="M287 178.5h3v62.7h-3z"/></g></g><path class="st0" d="M727.5 235.3v-2.8c-2.9 0-4.9-.3-6-.9-1.1-.6-1.8-1.6-2-2.9-.3-3.5-.4-7.1-.3-10.6v-20.4c2-3.2 4.6-5.9 7.7-8 2.5-1.7 5.5-2.6 8.5-2.7 2.3-.1 4.6.6 6.5 2 1.5 1.1 2.6 2.7 3.1 4.5.5 2.8.7 5.6.6 8.5v16.2c0 5.6-.1 9-.2 10.1-.1 1.2-.7 2.2-1.5 3-.9.9-2.8 1.3-5.8 1.3h-1.2v2.8" id="n1"/><g id="n2"><path id="Zeichenbreite7" class="st4" d="M282.5 178.1v63.4"/><path id="Zeichenbreite6" class="st4" d="M351.3 178.1v63.4"/><path id="Zeichenbreite5" class="st4" d="M358.8 178.1v63.4"/><path id="Zeichenbreite4" class="st4" d="M355 178.1v63.4"/><path id="Zeichenbreite3" class="st4" d="M286.5 178.1v63.4"/><path id="Zeichenbreite2" class="st0" d="M351.6 178.2h3.1v63h-3.1z"/><path id="Zeichenbreite1" class="st0" d="M286.8 178.5h3.6v62.7h-3.6z"/></g><g id="s"><path id="Ueberhang2" class="st0" d="M358.9 235.3v1.6h2.4c.2-.6.4-1.1.6-1.6m6.7 0c2.4 1.4 5 2.1 7.8 2.1 2.8.1 5.6-.6 8.1-2m3.6-50.1v-1.2h-2.2c-.2.4-.4.9-.5 1.2m-5.5 0c-2.2-1.4-4.7-2.1-7.3-2.1-2.7-.1-5.3.7-7.5 2.1"/></g><path class="st13" d="M425.3 170.2l4.9 78.8" id="c"/><path class="st0" d="M568.2 234.7c2.3-1.7 3.6-4.6 3.8-8.7h-2.2c-.5 2.9-1.5 4.7-3 5.5" id="a"/><g id="ft"><path id="Lingatur" class="st0" d="M597.2 185.2h11.7v2.5h-11.7z"/></g><g id="i"><path id="Ueberhang1" class="st0" d="M160.4 152.1c-1-.7-2.2-1-3.4-1s-2.4.3-3.4 1"/></g><g id="E"><path id="Halbserife" class="st0" d="M103.8 154.9c5.8 0 10 .3 12.6.9 2.7.7 5.1 2.3 6.8 4.6 1.9 2.4 3.5 6.5 4.8 12.3h2.9l-1.7-17.9"/></g><g id="m"><path id="Anstrich" class="st0" d="M355.5 38.2c-.2-1.9-.7-3.8-1.5-5.6h-.6c-4.7 1.4-9.5 2.4-14.4 2.8v2.8"/></g><g id="l"><path id="Serife1" class="st0" d="M505.7 67.6c.1 3.5 0 7-.3 10.5-.2 1.2-.9 2.2-1.9 2.9-1 .7-2.8 1-5.2 1h-1.7v2.8h9.1"/><path id="Serife2" class="st0" d="M514.5 84.8h8.9V82h-1.5c-2.6 0-4.4-.4-5.5-1.1-1-.7-1.7-1.9-1.8-3.2-.1-1.4-.2-4.8-.2-10.1"/></g><g id="k"><path id="Kehlung4" class="st0" d="M313.6 73.4c2.7 3.2 4.1 5.2 4.1 5.9 0 1.7-2.1 2.6-6.2 2.7h9.5l-7.4-8.6z"/><path id="Kehlung3" class="st0" d="M305.5 82c-2.5 0-4.3-.4-5.3-1.1-1-.8-1.7-1.9-1.8-3.2V82h7.1z"/><path id="Kehlung2" class="st0" d="M289.1 77.7c-.1 1.1-.6 2.2-1.5 3s-2.8 1.3-5.7 1.3h7.2v-4.3z"/><path id="Kehlung1" class="st0" d="M336.5 81.9c-1.7-.1-3.3-.6-4.8-1.6-2.4-1.8-4.5-3.8-6.4-6.2l6.7 7.7 4.5.1z"/></g><g id="r"><path id="Tropfen" class="st0" d="M271.8 40.1c1.1 3 2.6 4.5 4.6 4.5 1.1 0 2.2-.5 2.9-1.3.8-.8 1.2-1.9 1.2-3.1-.1-1.9-.9-3.8-2.3-5.1-1.3-1.1-7.9-3.1-6.4 5"/></g><g id="e-2"><path id="Punze" class="st0" d="M195.5 49.2c1.4-9.2 5.9-13.8 13.3-13.8 2.9-.1 5.7 1 7.7 3 2.1 2 3.1 4.8 3.1 8.4 0 .8-.1 1.7-.2 2.5l-23.9-.1z"/></g><g id="M-2"><path id="Grundstrich" class="st0" d="M151.6 10.8v52.8c.1 4.3-.1 8.6-.5 12.8H164c-.1 0-.5-6.3-.5-12.8V22.9c-.1-4 .1-8.1.4-12.1"/><path id="Haarstrich" class="st0" d="M83.3 73c-.5-4.5-.7-9.1-.6-13.6V10.8h-3.3c.4 4 .5 8.1.4 12.2v36c0 6.9-.2 11.6-.7 14.1"/></g></g></g></g></svg>